<svg width="20" height="20" viewBox="0 0 20 20" fill="none" xmlns="http://www.w3.org/2000/svg">
<g opacity="0.8">
<path d="M0.394018 16.3293C2.24568 17.5043 4.40068 18.1252 6.62569 18.1252C9.88402 18.1252 12.8699 16.8735 15.034 14.601C17.1049 12.426 18.244 9.50349 18.1874 6.53765C18.9724 5.86599 19.8957 4.58349 19.8957 3.33349C19.8957 2.85432 19.3757 2.55015 18.954 2.79432C18.2165 3.22765 17.544 3.34099 16.8524 3.14682C15.4399 1.77015 13.3374 1.48015 11.5657 2.43515C10.0174 3.26849 9.15652 4.79349 9.23402 6.46015C6.61819 6.14099 4.20152 4.82932 2.51652 2.79099C2.23985 2.45849 1.71485 2.49765 1.49485 2.87432C0.683185 4.26432 0.691518 5.87515 1.39735 7.17599C1.06152 7.23515 0.854018 7.51765 0.854018 7.82349C0.854018 9.13099 1.44235 10.3327 2.38985 11.1527C2.21318 11.3227 2.15485 11.5752 2.22985 11.8002C2.64652 13.0518 3.58985 14.0302 4.76902 14.5202C3.48652 15.1327 2.06818 15.3368 0.805685 15.1818C0.152351 15.0935 -0.170149 15.9718 0.394018 16.3293ZM6.79652 14.7343C7.26402 14.3752 7.01569 13.6268 6.42902 13.6143C5.39568 13.5927 4.45485 13.0835 3.86902 12.2827C4.15152 12.2643 4.44402 12.221 4.72235 12.146C5.35652 11.9743 5.32652 11.0593 4.68235 10.9302C3.51318 10.6952 2.59568 9.84349 2.25152 8.74682C2.56568 8.82432 2.88568 8.86765 3.20485 8.87349C3.83735 8.87682 4.07652 8.06599 3.56068 7.72682C2.39818 6.96099 1.90235 5.60849 2.23068 4.33682C4.26068 6.39349 7.01485 7.63265 9.92818 7.77265C10.3457 7.79849 10.659 7.40599 10.5674 7.00849C10.1715 5.29265 11.1299 4.09015 12.159 3.53599C13.1774 2.98599 14.8124 2.81432 16.0657 4.12932C16.4382 4.52182 17.6949 4.53682 18.334 4.38765C18.0474 4.92765 17.6065 5.44015 17.194 5.72849C17.0182 5.85182 16.9174 6.05682 16.9282 6.27099C17.0624 9.00849 16.0424 11.7302 14.1299 13.7377C12.2032 15.7602 9.53902 16.8743 6.62652 16.8743C5.46818 16.8743 4.33235 16.686 3.25902 16.3227C4.54235 16.0743 5.76152 15.531 6.79652 14.7343Z" fill="white"/>
</g>
</svg>
