<?xml version="1.0" encoding="utf-8"?>
<!-- Generator: Adobe Illustrator 25.1.0, SVG Export Plug-In . SVG Version: 6.00 Build 0)  -->
<svg version="1.1" id="Layer_1" xmlns="http://www.w3.org/2000/svg" xmlns:xlink="http://www.w3.org/1999/xlink" x="0px" y="0px"
	 viewBox="0 0 75 64" style="enable-background:new 0 0 75 64;" xml:space="preserve">
<style type="text/css">
	.st0{fill-rule:evenodd;clip-rule:evenodd;fill:#557A55;}
	.st1{fill-rule:evenodd;clip-rule:evenodd;fill:#A1DAA1;}
</style>
<path class="st0" d="M35.7,33.5l8.6-8.6l5.1,5.1c1.1,1.1,3,1.1,4.1,0c1.1-1.1,1.1-3,0-4.1l-20.2-20l-0.1,0c-2.9-2.6-7-5-11.7-5.6
	c-4.7-0.7-9.8,0.5-14.4,4.5C1.7,9.6-0.1,14.9,0,19.5c0.1,4.5,1.9,8.1,3.2,10C5.6,33,11.6,39,18,45.2c2.8,2.7,5.6,5.4,8.4,8l0,0
	c3.8,3.6,7.4,7,10.4,10c1.1,1.1,3,1.1,4.1,0c1.1-1.1,1.1-3,0-4.1c-3-2.9-6.7-6.5-10.5-10.1l0,0c-2.8-2.6-5.6-5.3-8.3-7.9
	c-6.6-6.3-12-11.9-14.1-14.8c-0.8-1.2-2.1-3.7-2.1-6.8c0-2.9,1-6.6,5.3-10.4c3.2-2.9,6.6-3.6,9.8-3.1C24,6.4,27.1,8,29.4,10
	l10.9,10.8l-8.6,8.6"/>
<path class="st1" d="M51.1,7.6c-1,0.4-1.4,0.8-1.6,1.1c-1,1.3-2.8,1.5-4.1,0.5c-1.3-1-1.5-2.8-0.5-4.1c1-1.2,2.4-2.1,3.7-2.7
	c1.4-0.6,3-1.1,4.6-1.4c3.2-0.6,6.9-0.7,9.8,0.3c3.1,1.1,6.6,2.9,9,6.4c2.4,3.5,3.5,8.3,2.7,14.7c-0.3,2.8-1.7,5.7-3.4,8.4
	c-1.8,2.7-4,5.6-6.4,8.3c-2.4,2.7-4.9,5.4-7.3,7.8c-0.1,0.1-0.2,0.2-0.3,0.3c-2.2,2.3-4.2,4.4-5.7,6.1l-2,2.4L17.7,23.6
	c-1.1-1.1-1.1-3,0-4.1c1.1-1.1,3-1.1,4.1,0l27.6,27.7c1.2-1.2,2.4-2.6,3.7-3.9c0.1-0.1,0.3-0.3,0.4-0.4c2.3-2.4,4.8-5,7.1-7.6
	c2.3-2.6,4.3-5.2,5.9-7.6c1.6-2.4,2.4-4.4,2.6-5.9c0.6-5.5-0.4-8.8-1.8-10.8c-1.4-2.1-3.6-3.3-6.1-4.2c-1.6-0.5-4.2-0.6-6.8-0.1
	C53.1,6.9,52,7.2,51.1,7.6z"/>
</svg>
