<?xml version="1.0" encoding="utf-8"?>
<!-- Generator: Adobe Illustrator 25.1.0, SVG Export Plug-In . SVG Version: 6.00 Build 0)  -->
<svg version="1.1" id="Layer_1" xmlns="http://www.w3.org/2000/svg" xmlns:xlink="http://www.w3.org/1999/xlink" x="0px" y="0px"
	 viewBox="0 0 174 134" style="enable-background:new 0 0 174 134;" xml:space="preserve">
<style type="text/css">
	.st0{fill:#D7F9D6;}
	.st1{fill:#728EB8;}
	.st2{fill:none;stroke:#3A6593;stroke-width:2.3547;stroke-linecap:round;}
	.st3{fill:#A1DAA1;}
	.st4{fill:none;stroke:#325B31;stroke-width:2.232;stroke-linecap:round;}
	.st5{fill:none;stroke:#325B31;stroke-width:2.06;stroke-linecap:round;}
	.st6{fill:#689467;}
	.st7{fill:none;stroke:#FFFFFF;stroke-width:1.0853;stroke-linecap:round;stroke-linejoin:round;}
	.st8{fill:none;stroke:#FFFFFF;stroke-width:0.8547;stroke-linecap:round;stroke-linejoin:round;}
	.st9{fill:none;stroke:#3A6593;stroke-width:1.9133;stroke-linecap:round;}
	.st10{fill:none;stroke:#3A6593;stroke-width:1.8093;stroke-linecap:round;}
	.st11{fill:none;stroke:#3A6593;stroke-width:1.336;stroke-linecap:round;}
	.st12{fill:none;stroke:#3A6593;stroke-width:1.4053;stroke-linecap:round;}
	.st13{fill:none;stroke:#3A6593;stroke-width:1.7107;stroke-linecap:round;}
	.st14{fill:none;stroke:#3A6593;stroke-width:1.6707;stroke-linecap:round;}
	.st15{fill:#007AB3;}
	.st16{fill:none;stroke:#000000;stroke-width:1.3333;stroke-linecap:round;}
	.st17{fill:none;stroke:#7E4224;stroke-width:1.3333;stroke-linecap:round;}
	.st18{fill:#FFB12A;}
	.st19{fill:#FFFFFF;}
	.st20{fill:#FFA9A7;}
	.st21{fill:#7E4224;}
	.st22{fill:none;stroke:#7E4224;stroke-linecap:round;}
	.st23{stroke:#000000;stroke-width:1.3333;stroke-linecap:round;}
	.st24{fill:none;stroke:#7E4224;}
	.st25{fill:#FF9F00;}
	.st26{fill:#FF3600;}
	.st27{opacity:0.15;}
	.st28{opacity:0.15;fill:#FFB12A;enable-background:new    ;}
</style>
<path class="st0" d="M36.7,105.1c6.3-0.1,12.3-2.5,18.5-3.4c8.3-1.3,14.9,1.2,20.6,7.1c5.7,5.9,9.7,13.3,16.6,18
	c5.4,3.6,12,5.1,18.6,4.2c13.5-1.9,26.1-11.6,34.2-22.3c5.3-7,8.5-15.5,11.4-23.6c3.1-8.8,3-16.7,1.1-25.6
	c-2-8.9-5.4-17.2-10.4-24.7c-2-2.9-4.1-5.8-6.6-8.5c-4.3-4.9-9.4-9.2-15.3-12.3c-13.6-7-29.7-8.4-44.3-2.3
	C64.9,18.4,49.5,28,36.5,39.9C25.1,50.4,16.4,65.5,15.1,80.8C14,93.8,23,105.4,36.7,105.1z"/>
<path class="st1" d="M117,35.1c0,0-5.8,1.4-7.3-7.9C109.7,27.3,119.6,28,117,35.1z"/>
<path class="st1" d="M122.1,35.6c0,0-4.6-0.6-2.8-7.6C119.3,28,125.9,32.8,122.1,35.6z"/>
<path class="st1" d="M115.5,39.2c0,0,0.6-3.9-5.5-4.5C110,34.7,109.1,40.9,115.5,39.2z"/>
<path class="st1" d="M116.9,48.7c0,0,0.7-3.9-5.6-4C111.3,44.7,111.6,50.7,116.9,48.7z"/>
<path class="st1" d="M123.4,46.6c0,0-4.1-2.3,1.5-7C124.9,39.5,127.4,46.9,123.4,46.6z"/>
<path class="st1" d="M114.3,60.4c0,0-4.7,0.2-2.3-6.8C111.9,53.6,117.9,58.6,114.3,60.4z"/>
<path class="st2" d="M112.2,29.3c0,0,19.7,18.6,2.1,40.9"/>
<path class="st2" d="M121.4,32.2c0,0,2.6,5.9-1.2,10.5c0,0-6.2-3.6-8.3-6.4"/>
<path class="st2" d="M113.8,46.4c0,0,3.1,3.1,7.3,4.5c0,0,2.4-3.1,3.1-7.4"/>
<path class="st2" d="M113.1,57.2c0,0,1.2,5,3.8,9.3"/>
<path class="st3" d="M127.6,46c0,0,1.6-13.9,9.9-7.5c6.7,5.2-10.6,19.7-5.5,20.2c5.1,0.4,11.7-6.8,12.3,0.7
	c0.6,7.5-19.3,10.4-15.1,14.9c0.9,1,3.8,0.2,6.4,0.7c4.5,0.8,4.8,6.2-9.1,12.8c-16,7.7-24.9,31.8-24.9,31.8l-0.3-7.5
	c0,0,8.6-34.7,7.1-40.6c-1.5-5.9,3.8-12.4,9.2-1.7c1.2,2.3,3.3-0.8,2.2-4.3c-1.6-5.3-6.4-13.1-1.8-15.4
	C125.7,46.2,123.9,68.1,127.6,46z"/>
<path class="st4" d="M111.2,67.2l3,18.9l19.5-7.9"/>
<path class="st4" d="M134.5,39.5c0,0-33.4,73-33.4,83.3"/>
<path class="st4" d="M131.1,40.3l-0.9,8.2l5.5-2.9"/>
<path class="st4" d="M118.7,51.9l4.1,13.4l18.3-4.8"/>
<path class="st1" d="M131,91.2c0,0,3.7-0.1,2.5-4.8c-1.2-4.7-2.8-6.2-2.8-6.2S125.6,89.1,131,91.2z"/>
<path class="st1" d="M126.3,92.5c0,0,3.4-2-2.1-7.8C124.2,84.7,120.9,90.5,126.3,92.5z"/>
<path class="st1" d="M133.3,95c0,0,7.5,0.8,5.1-7.3C138.3,87.7,131.4,88.9,133.3,95z"/>
<path class="st1" d="M126.6,104.7c0,0-0.7-5.6,9.3-3C135.9,101.7,131.1,110.6,126.6,104.7z"/>
<path class="st1" d="M122.3,99.3c0,0,3.7,0.9,3.2-5.2C125.5,94.1,119.7,95.2,122.3,99.3z"/>
<path class="st1" d="M120.9,97.4c0,0-1.2,4.7-4.5,2.7C116.4,100.1,115.8,95.8,120.9,97.4z"/>
<path class="st1" d="M115.4,105.5c0,0,3.4-2.7,7.8,3.9C123.1,109.4,116.8,111.6,115.4,105.5z"/>
<path class="st2" d="M131.2,85.8c0,0,1.4,12.2-7.8,16.2c-9.3,4-16.5-6.4-25.3,4.2"/>
<path class="st2" d="M137.2,89.7c0,0-2,7.1-8.2,7c0,0-4.2-4.6-3.4-7.6"/>
<path class="st2" d="M132.4,103.8c0,0-5.7,3.2-10.9-1c0,0,0.6-4,2.3-6.8"/>
<path class="st2" d="M119.4,108.3c0,0-4-0.9-5-5.1c0,0,0.4-2.8,4.1-4.3"/>
<path class="st1" d="M76.3,24.8c0,0-5.1,0.5-6.2-4.2C70.1,20.6,77.2,20.3,76.3,24.8z"/>
<path class="st1" d="M77.9,23.7c0,0-4.6-1.4-0.8-7.1C77.1,16.6,82.4,22.6,77.9,23.7z"/>
<path class="st1" d="M73.3,26.7c0,0,0.1-4.2-7-3.7C66.3,23,68.7,29.7,73.3,26.7z"/>
<path class="st1" d="M82.3,31.9c0,0-3.6-5.4,2.4-9.5C84.7,22.4,88.1,31.2,82.3,31.9z"/>
<path class="st1" d="M78.2,34c0,0,1.8-3.9-7.1-3.6C71,30.4,73.8,36.3,78.2,34z"/>
<path class="st1" d="M74.7,42.2c0,0,3.4-2.6-1.7-7.4C73.1,34.8,70.2,41.7,74.7,42.2z"/>
<path class="st1" d="M80.9,43.5c0,0-2.6-3.6,3.9-7.9C84.8,35.6,87.4,44.1,80.9,43.5z"/>
<path class="st1" d="M71.3,52.3c0,0,4.7-4.6-0.1-9.2C71.2,43.1,66.5,49.7,71.3,52.3z"/>
<path class="st1" d="M77.6,53.7c0,0-3.3-3.7,3-6.4C80.5,47.3,81.8,55.8,77.6,53.7z"/>
<path class="st2" d="M73.4,22.4c0,0,11,7.9,6.4,16.6c-4.6,8.7-10.5,18.7-2.1,29.1"/>
<path class="st2" d="M69.6,24.6c0,0,2.8,2.3,7.8,2.3c0,0,1.1-2.3,0.4-6.2"/>
<path class="st2" d="M83.3,28.3c0,0-0.7,4.5-2.5,7c0,0-2.7-1.2-5.3-3"/>
<path class="st2" d="M73.4,37.6c0,0,0,3.6,2.8,8.2c0,0,4.8-0.5,7.5-6.2"/>
<path class="st2" d="M70.5,47.6c0,0,0.2,6.1,2.7,8.9c0,0,3.9-1.2,5.9-5.5"/>
<path class="st1" d="M57.5,12.5c0,0-1.3-3.4,3.4-4.2c4.8-0.7,6.8,0.2,6.8,0.2S61.5,16.7,57.5,12.5z"/>
<path class="st1" d="M58.2,17.3c0,0,0.5-3.9,8-1.1C66.2,16.3,62,21.6,58.2,17.3z"/>
<path class="st1" d="M53.2,11.9c0,0-3.6-6.6,4.7-7.5C57.9,4.4,59.5,11.2,53.2,11.9z"/>
<path class="st1" d="M46.8,21.8c0,0,5.4-1.5-0.9-9.8C45.9,12,39.7,20,46.8,21.8z"/>
<path class="st1" d="M53.5,23.7c0,0-2.2-3.1,3.5-5C57,18.7,58.2,24.5,53.5,23.7z"/>
<path class="st1" d="M55.7,24.3c0,0-3.8,2.9-0.7,5.2C55,29.5,59.2,28.4,55.7,24.3z"/>
<path class="st1" d="M50.5,32.5c0,0,1.1-4.2-6.6-5.7C43.9,26.8,44.3,33.5,50.5,32.5z"/>
<path class="st1" d="M52.7,39.1c0,0,2.7-3.7-5-5.9C47.7,33.2,46.4,39.8,52.7,39.1z"/>
<path class="st1" d="M57.2,34.6c0,0-3.3-4.1,3.4-6.2C60.5,28.4,61.6,35.5,57.2,34.6z"/>
<path class="st2" d="M62.4,10.3c0,0-11.8,3.4-11.9,13.5c-0.1,10.1,9,12.1,2.6,24.3"/>
<path class="st2" d="M56.5,6.2c0,0-5.7,4.6-3.3,10.3c0,0,5.9,2.1,8.2,0.2"/>
<path class="st2" d="M45.4,16.1c0,0-0.8,6.5,5.1,9.8c0,0,3.4-2.1,5.3-4.8"/>
<path class="st2" d="M46.3,29.9c0,0,2.3,3.3,6.6,2.7c0,0,2.4-1.4,2.4-5.5"/>
<path class="st2" d="M49,35.7c0,0,1.7,3.2,6.5,4.7c0,0,0.1-4.8,2.9-7.8"/>
<path class="st3" d="M64.5,93.1c0,0-5.3-15.3-9.4-12.3c-4.1,3,2,9.1-1.6,9.8c-3.6,0.7-6.6-12.8-10.5-11.8c-3.9,1.1,2.8,10,0.4,10.5
	c-2.5,0.5-15.6-9.1-17.8-1.4c-1.3,4.6,15.6,7.3,13.7,10.3c-2,3-11.9,4.1-5,5.5c6.9,1.4,16.9-4.8,18.3-2.7c1.4,2.1-11.7,6.4-9.1,8.4
	c2.8,2.1,11.6-0.4,17.4-2.1c7.3-2.2,32.9-0.2,32.9-0.2L64.5,93.1z"/>
<path class="st5" d="M31.2,89c0,0,46,13.7,62.1,18.3"/>
<path class="st5" d="M45.2,84.9L51,95l-10.9,6.7"/>
<path class="st5" d="M32.8,87l3.2,3.7l-2.8,1.2"/>
<path class="st5" d="M58,85.5l5.2,13.2l-13.6,8.4"/>
<path class="st1" d="M27.8,70c0,0-3.3-1.4-2.4-5.4c0.8-4.1,3.9-5.7,3.9-5.7S31.6,68.9,27.8,70z"/>
<path class="st2" d="M27.6,65.4c0,0-1.2,13.1,13.8,13.1S60.9,89.6,64.1,98"/>
<path class="st1" d="M26.6,71.6c0,0,1.8-3.5-7.8-7.4C18.8,64.2,18.8,73.5,26.6,71.6z"/>
<path class="st1" d="M30.9,71.3c0,0-2-2.2-0.5-3.7c1.6-1.4,4.3-1.8,4.3-1.8S35.9,72.3,30.9,71.3z"/>
<path class="st1" d="M36,76.2c0,0-5.1-2.2-0.4-6.3C35.6,69.9,39.6,75,36,76.2z"/>
<path class="st1" d="M33.2,78.4c0,0-3.5-1.8-5.7,2.9C27.5,81.2,34.5,82.9,33.2,78.4z"/>
<path class="st1" d="M42.5,77.3c0,0-4.4,1.9-3.6-5.7C38.9,71.7,44.7,73.7,42.5,77.3z"/>
<path class="st1" d="M41,80.5c0,0-3.5-1.8-4.5,3.3C36.6,83.8,42.3,84.2,41,80.5z"/>
<path class="st1" d="M51.6,79.3c0,0-4.6-1.5-1.8-6.2C49.8,73.1,54.5,77.3,51.6,79.3z"/>
<path class="st1" d="M51.3,82.4c0,0-2.8-1.4-4.6,3.1C46.7,85.5,51.1,86.8,51.3,82.4z"/>
<path class="st2" d="M22.5,68.4c0,0,2.7,3.4,7,4.8l1.9-3.1"/>
<path class="st2" d="M30.9,79.4l5.1-1.5l-0.4-4.1"/>
<path class="st2" d="M39.1,81.7l4.6-3l-3.2-4.2"/>
<path class="st2" d="M50.5,75.6l2,5.7l-3,2.3"/>
<path class="st6" d="M43.8,46.2c0,0-9.3-7.2-6.4-11.1c2.9-3.9,7.8-2.4,13.7,7.5c6,10,5.1-11.5,10.9-3.7c5.8,7.8-5.7,18.2-0.6,19.5
	c5.1,1.4,3.5-12.7,8.9-9.3c8.5,5.5-4.3,20.3,3.5,24.7c5.1,2.9,5.7-10.8,10.7-6.4c7.5,6.6,3.5,28.1-0.6,31.7
	c-7.9,6.8-34.8-10.3-30.7-14.6c4.1-4.3,17,2.2,6.5-6.1c-3.5-2.8-20.5-5.4-15.7-10.3c4.4-4.5,12.8-0.2,8.6-6.3
	c-4.2-6-17.7-1.4-17.3-7.4C35.8,48.5,51.2,54.9,43.8,46.2z"/>
<path class="st5" d="M41.5,36.9c0,0,30.8,39.3,41.2,62.5"/>
<path class="st5" d="M41,41.1l4.6,1.2l-0.5-3.1"/>
<path class="st5" d="M43.5,54.2l11.9,2l3.9-11.1"/>
<path class="st5" d="M52,70.1l15.9,3.3l1.2-18.5"/>
<path class="st5" d="M61.4,88.1l18.1,4.7l3.7-17.4"/>
<path class="st7" d="M41.4,46.9c0,0-0.7,2.5-3.7,3.5l1.4-4.8"/>
<path class="st7" d="M36.9,45.5l0.8,5L35,46.6"/>
<path class="st7" d="M33.1,47.5c1.2,3.2,4.6,2.9,4.6,2.9l0.5,3.9"/>
<path class="st7" d="M135.1,21.6c0,0-1.1,2.3-4.2,2.9l2.1-4.5"/>
<path class="st7" d="M130.8,19.5l0.1,5l-2.1-4.2"/>
<path class="st7" d="M126.7,21c0.8,3.3,4.2,3.6,4.2,3.6l-0.1,3.9"/>
<path class="st8" d="M70.7,33.7c0,0-0.9,1.8-3.3,2.3l1.6-3.6"/>
<path class="st8" d="M67.4,32l0.1,4l-1.7-3.3"/>
<path class="st8" d="M64.2,33.1c0.6,2.6,3.3,2.8,3.3,2.8L67.3,39"/>
<path class="st7" d="M160.4,53.8c0,0-2.2,1.3-5.1,0l4.3-2.5"/>
<path class="st7" d="M158.1,49.6l-2.8,4.2l0.6-4.6"/>
<path class="st7" d="M153.9,48.5c-1.3,3.1,1.4,5.3,1.4,5.3l-2.3,3.1"/>
<path class="st7" d="M144.1,90.9c0,0-1-2.3,0.5-5.1l2.1,4.5"/>
<path class="st7" d="M148.5,89l-3.9-3.2l4.5,1.1"/>
<path class="st7" d="M150,85c-3-1.6-5.4,0.9-5.4,0.9l-2.9-2.6"/>
<path class="st1" d="M31.6,28.3c0,0-1-2.9-3.7-2.9c-2.7,0-7.5,0.8-7.5,0.8S28,34.7,31.6,28.3z"/>
<path class="st9" d="M25.1,27.5c2.6,1.3,6,1.6,8.7,0.5"/>
<path class="st1" d="M141.1,72.2c0,0,2.6-1.4,4.4,0.4c1.7,1.7,4.3,5.4,4.3,5.4S139,79,141.1,72.2z"/>
<path class="st10" d="M145.9,75.9c-2.6-0.8-5-2.8-5.9-5.3"/>
<path class="st1" d="M153.3,39c0,0-1.3,1.7-3,1.1c-1.7-0.6-4.5-2.3-4.5-2.3S152.6,33.8,153.3,39z"/>
<path class="st11" d="M149,37.9c2-0.3,4.2,0.3,5.6,1.7"/>
<path class="st1" d="M100.8,28c0,0-2.2-0.5-3.2,1.2c-1,1.7-2.3,5.1-2.3,5.1S103.4,32.7,100.8,28z"/>
<path class="st12" d="M97.8,31.9c1.8-1.2,3.3-3.2,3.6-5.4"/>
<path class="st1" d="M133,4.7c0,0-1.9-1.1-3.4,0.2c-1.5,1.3-3.8,4.1-3.8,4.1S134.1,10,133,4.7z"/>
<path class="st12" d="M129.1,7.5c2.1-0.6,4.1-2,5.1-4"/>
<path class="st1" d="M56.5,62.6c0,0-2.3-1.5-4.2,0c-1.9,1.5-4.9,4.7-4.9,4.7S57.4,69.1,56.5,62.6z"/>
<path class="st13" d="M51.5,65.6c2.6-0.5,5.1-2.2,6.4-4.5"/>
<path class="st1" d="M80.3,6.2c0,0,2.2-2.1,3.9-1C86,6.3,88.7,9,88.7,9S79.3,13.1,80.3,6.2z"/>
<path class="st14" d="M85,8.2c-2.4,0-4.7-1.1-5.9-3.2"/>
<path class="st15" d="M65.6,105.9c0,0.4-0.4,0.8-0.8,0.8c-0.4,0-0.8-0.4-0.8-0.8c0-0.4,0.4-0.8,0.8-0.8
	C65.2,105.1,65.6,105.4,65.6,105.9z"/>
<path class="st15" d="M57.3,121.1c0,0.4-0.4,0.8-0.8,0.8c-0.4,0-0.8-0.4-0.8-0.8c0-0.4,0.4-0.8,0.8-0.8
	C56.9,120.3,57.3,120.7,57.3,121.1z"/>
<path class="st15" d="M65.6,118.5c0,0.4-0.4,0.8-0.8,0.8c-0.4,0-0.8-0.4-0.8-0.8c0-0.4,0.4-0.8,0.8-0.8
	C65.2,117.7,65.6,118,65.6,118.5z"/>
<path class="st15" d="M58.9,111.7c0,0.4-0.4,0.8-0.8,0.8c-0.4,0-0.8-0.4-0.8-0.8c0-0.4,0.4-0.8,0.8-0.8
	C58.6,110.9,58.9,111.2,58.9,111.7z"/>
<path class="st16" d="M100.9,36c0.5,0,14.5-12.2,2.6-20.1c-11.9-8-46.9-5.7-41.4,47.1c-7.1-1-16.2,7.9-6.4,16.6
	c-8.2,0.2-10.9,7.7-4.3,12.8c6.6,5.1,12.5,0,12.5,0s0.9,8.3,14.1,4.9c13.2-3.4,16.1-1.1,16.1-1.1L100.9,36z"/>
<path class="st16" d="M70.8,51.6c0-13.2,9.8-23.9,22-23.9s22,10.7,22,23.9c0,13.2-9.8,23.9-22,23.9S70.8,64.8,70.8,51.6z"/>
<path class="st17" d="M97.6,53.9c0,0,3.8-3,7.3,0"/>
<path class="st18" d="M54.7,59l-1.9-3.3h3.8L54.7,59z"/>
<path class="st18" d="M115.5,76l-1.9,3.3h3.8L115.5,76z"/>
<path class="st18" d="M118.7,82.6l-1.9,3.3h3.8L118.7,82.6z"/>
<path class="st18" d="M113.3,82.4c0-0.5,0.4-0.9,0.9-0.9s0.9,0.4,0.9,0.9s-0.4,0.9-0.9,0.9S113.3,82.9,113.3,82.4z"/>
<path class="st19" d="M98.2,17.5c1.2,0.3,2.3,0.9,3.3,1.7c1,0.8,1.9,1.8,2.4,2.9c0.3,0.6,0.5,1.2,0.6,1.8l0.1,1c0,0.3,0,0.6,0,1
	c0,0.6-0.2,1.3-0.4,1.9c-0.2,0.6-0.5,1.2-0.8,1.7c0.1-0.6,0.3-1.2,0.4-1.8c0.1-0.6,0.2-1.2,0.1-1.8c0-1.2-0.2-2.4-0.8-3.4
	c-0.5-1.1-1.3-2-2.1-2.8C100.3,18.8,99.3,18.1,98.2,17.5z"/>
<path d="M100.9,36c0.5,0,14.5-12.2,2.6-20.1c-11.9-8-46.9-5.7-41.4,47.1c-7.1-1-16.2,7.9-6.4,16.6c-8.2,0.2-10.9,7.7-4.3,12.8
	s12.5,0,12.5,0s0.9,8.3,14.1,4.9c13.2-3.4,16.1-1.1,16.1-1.1L100.9,36z"/>
<path class="st20" d="M96.6,30.1c0,3.2-1.8,5.8-3.9,5.8c-2.2,0-3.9-2.6-3.9-5.8s1.8-5.8,3.9-5.8C94.9,24.3,96.6,26.9,96.6,30.1z"/>
<path d="M70.8,51.6c0-13.2,9.8-23.9,22-23.9s22,10.7,22,23.9c0,13.2-9.8,23.9-22,23.9S70.8,64.8,70.8,51.6z"/>
<path class="st20" d="M99.3,97.6c-2,2.4-4.3,3.7-6.7,3.7c-2.4,0-4.7-1.3-6.7-3.7l0.4-23.7H99L99.3,97.6z"/>
<path class="st20" d="M94.2,81h-3.3c-7.8,0-14.1-6.3-14.1-14.2V51.1c0-7.8,6.3-14.2,14.1-14.2h3.3c7.8,0,14.1,6.3,14.1,14.2v15.7
	C108.3,74.6,102,81,94.2,81z"/>
<path class="st21" d="M91.8,65.7c1.9,0,3.4-0.9,3.4-1.9c0-1-1.3-1.8-3.1-1.9v-3.1c0-0.2-0.1-0.3-0.3-0.3c-0.2,0-0.3,0.2-0.3,0.3v3.8
	h0.3c1.6,0,2.8,0.7,2.8,1.3c0,0.6-1.1,1.3-2.8,1.3c-0.2,0-0.3,0.2-0.3,0.3C91.5,65.6,91.6,65.7,91.8,65.7z"/>
<path class="st21" d="M104.2,59.3c-4.5-2.1-7.5,1.3-7.6,1.4c-0.1,0.2-0.1,0.4,0,0.6c0.1,0.1,0.2,0.1,0.3,0.1c0.1,0,0.2,0,0.3-0.1
	c0.1-0.1,3.1-3.5,7.5-0.6c0.1,0.1,0.3,0.1,0.4,0l0.2-0.5l0.5-1.4L104.2,59.3z"/>
<path class="st20" d="M113.4,63.1c-0.5,2.8-2.5,4.9-4.4,4.5c-1.9-0.3-3.1-2.9-2.6-5.8c0.5-2.8,2.5-4.9,4.4-4.5
	C112.8,57.7,113.9,60.2,113.4,63.1z"/>
<path class="st22" d="M108.7,61.4c0,0,0.8-3.2,3.5-2.2"/>
<path class="st22" d="M110.2,59.3c0,0,2.2,1.2,0.9,4.1"/>
<path class="st17" d="M79.8,53.9c0,0,3.8-3,7.3,0"/>
<path class="st21" d="M80.7,59.3c4.5-2.1,7.5,1.3,7.6,1.4c0.1,0.2,0.1,0.4,0,0.6c-0.1,0.1-0.2,0.1-0.3,0.1c-0.1,0-0.2,0-0.3-0.1
	c-0.1-0.1-3.1-3.5-7.5-0.6c-0.1,0.1-0.3,0.1-0.4,0l-0.2-0.5L79,58.7L80.7,59.3z"/>
<path class="st20" d="M77.8,61.9c0.4,2.8-0.8,5.4-2.7,5.7c-1.9,0.3-3.9-1.8-4.3-4.6c-0.4-2.8,0.8-5.4,2.7-5.7
	C75.5,57,77.4,59,77.8,61.9z"/>
<path class="st22" d="M75.9,61.6c0,0-0.8-3.2-3.5-2.2"/>
<path class="st22" d="M74.5,59.5c0,0-2.2,1.2-0.9,4.1"/>
<path class="st23" d="M105.8,47.7H79.6V36h26.2V47.7z"/>
<path class="st19" d="M54.8,74.6c-0.3-0.9-0.4-1.9-0.4-2.9c0-1,0.3-2,0.8-2.9c0.1-0.2,0.2-0.4,0.4-0.7l0.5-0.6
	c0.4-0.3,0.7-0.7,1.2-0.9c0.2-0.1,0.4-0.3,0.7-0.4l0.7-0.3c0.2-0.1,0.5-0.1,0.7-0.1c0.2,0,0.5-0.1,0.7-0.1c-0.9,0.4-1.8,0.7-2.5,1.3
	c-0.7,0.6-1.3,1.2-1.7,2.1c-0.4,0.8-0.7,1.7-0.8,2.6C54.9,72.6,54.8,73.6,54.8,74.6z"/>
<path class="st19" d="M53,82.8c-1,0.7-1.9,1.5-2.2,2.6c-0.2,0.5-0.3,1.1-0.2,1.6c0,0.3,0.1,0.6,0.1,0.9c0.1,0.3,0.1,0.6,0.2,0.9
	c-0.2-0.2-0.4-0.5-0.5-0.8c-0.1-0.3-0.3-0.6-0.3-0.9c-0.2-0.6-0.1-1.3,0.1-2c0.2-0.6,0.7-1.2,1.2-1.6C51.8,83.2,52.4,82.9,53,82.8z"
	/>
<path class="st24" d="M87.6,70.4c1.1,0.7,3.7,2.1,5.5,1.9c1.8-0.2,3.7-1.3,4.4-1.9"/>
<path class="st25" d="M133.5,125.4c0,0.1,0,0.2,0,0.2c0,2.1-7.5,3.9-18.8,4.9c-6.4,0.6-14,0.9-22.2,0.9c-8.4,0-16.2-0.4-22.7-1
	c-11-1-18.3-2.8-18.3-4.9c0-0.1,0-0.2,0-0.2h0c0-2,0.1-4,0.4-5.9c0.1-0.5,0.2-1.1,0.3-1.6c0.5-2.6,1.3-5,2.3-7.2
	c0.2-0.5,0.5-1,0.7-1.5c1.6-3.1,3.7-5.8,6.1-8.1c0.5-0.5,1-0.9,1.5-1.3c2.1-1.8,4.4-3.3,6.9-4.6c1.6-0.9,3.3-1.6,5.1-2.2
	c3.3-1.2,6.9-2,10.6-2.5v-0.1c2.6,2.2,7.4,4.3,14,0.1c3.5,0.4,6.9,1.2,10,2.3c1.8,0.6,3.5,1.3,5.1,2.1c2.4,1.2,4.6,2.6,6.6,4.2
	c0.5,0.4,1,0.8,1.4,1.2c2.6,2.3,4.8,5,6.5,8.1c0.3,0.5,0.5,1,0.8,1.5c1.1,2.1,1.9,4.4,2.5,6.9c0.1,0.5,0.2,1.1,0.3,1.6
	C133.3,120.6,133.6,122.9,133.5,125.4L133.5,125.4z"/>
<path class="st26" d="M92.3,93.9c-0.3,0-0.7,0-1-0.1c-4.1-0.4-6.8-3.1-7.9-4.3c-0.3-0.3-0.2-0.7,0.1-1l1.4-1.1l-1,0.7
	c0.5-0.4,1.3-0.3,1.8,0.1c1,1,3.1,2.7,5.8,2.9c2.4,0.2,5-0.7,7.6-2.7c0.9-0.7,2.1-0.6,2.9,0.2c0.2,0.2,0.1,0.4,0,0.6
	C98.8,92.5,95.6,93.9,92.3,93.9z"/>
<g class="st27">
	<path class="st28" d="M126.6,126.2c-38.5-0.8-53.8-21.5-59.1-32.4c-9.6,5.9-15.8,15.7-15.8,28.9h0c0,0.1,0,0.2,0,0.2
		c0,3.2,18.3,5.8,41,5.8C106.8,128.7,119.3,127.7,126.6,126.2z"/>
</g>
<path class="st26" d="M112.3,103.1c0-1.7,1.3-3,3-3c1.7,0,3,1.3,3,3c0,1.7-1.3,3-3,3C113.7,106.1,112.3,104.8,112.3,103.1z"/>
<path class="st26" d="M94.4,118.9c0,1.6-1.3,2.8-2.8,2.8c-1.5,0-2.8-1.3-2.8-2.8s1.3-2.8,2.8-2.8C93.1,116.1,94.4,117.3,94.4,118.9z
	"/>
<path class="st26" d="M73.9,104.8c0,1.7-1.4,3.2-3.2,3.2c-1.7,0-3.1-1.4-3.1-3.2c0-1.7,1.4-3.2,3.1-3.2
	C72.5,101.7,73.9,103.1,73.9,104.8z"/>
<path class="st19" d="M120.4,117.3c0,1.1-0.9,2-2,2s-2-0.9-2-2c0-1.1,0.9-2,2-2S120.4,116.2,120.4,117.3z"/>
<path class="st19" d="M64.8,115.7c0,1.1-0.9,2-2,2c-1.1,0-2-0.9-2-2c0-1.1,0.9-2,2-2C63.9,113.7,64.8,114.6,64.8,115.7z"/>
<path class="st19" d="M81.3,97.5c0,0.8-0.6,1.4-1.4,1.4c-0.8,0-1.4-0.6-1.4-1.4s0.6-1.4,1.4-1.4C80.7,96.1,81.3,96.8,81.3,97.5z"/>
<path class="st19" d="M100.2,108.9c0,1.1-0.9,2-2,2c-1.1,0-2-0.9-2-2c0-1.1,0.9-2,2-2C99.3,106.9,100.2,107.8,100.2,108.9z"/>
<path class="st19" d="M80.7,123.2c0,0.6-0.5,1.1-1.1,1.1c-0.6,0-1.1-0.5-1.1-1.1c0-0.6,0.5-1.1,1.1-1.1
	C80.2,122.1,80.7,122.6,80.7,123.2z"/>
<path class="st19" d="M109.2,96.5c0,0.6-0.5,1.1-1,1.1c-0.6,0-1-0.5-1-1.1c0-0.6,0.5-1.1,1-1.1C108.7,95.4,109.2,95.9,109.2,96.5z"
	/>
<path class="st19" d="M84.3,109.6c0,0.6-0.5,1.1-1,1.1c-0.6,0-1-0.5-1-1.1c0-0.6,0.5-1.1,1-1.1C83.9,108.5,84.3,109,84.3,109.6z"/>
</svg>
