<?xml version="1.0" encoding="utf-8"?>
<!-- Generator: Adobe Illustrator 25.1.0, SVG Export Plug-In . SVG Version: 6.00 Build 0)  -->
<svg version="1.1" id="Layer_1" xmlns="http://www.w3.org/2000/svg" xmlns:xlink="http://www.w3.org/1999/xlink" x="0px" y="0px"
	 viewBox="0 0 174 134" style="enable-background:new 0 0 174 134;" xml:space="preserve">
<style type="text/css">
	.st0{fill:#D7F9D6;}
	.st1{fill:#91C590;}
	.st2{opacity:0.51;}
	.st3{opacity:0.51;fill:#91C590;enable-background:new    ;}
	.st4{fill:#FFE8C2;}
	.st5{fill:#FFD2C1;}
	.st6{fill:#F8A496;}
	.st7{fill:#F4FFF4;}
	.st8{opacity:0.28;}
	.st9{opacity:0.28;fill:#D8C7BC;enable-background:new    ;}
	.st10{fill:#312A3C;}
	.st11{fill:none;stroke:#000000;stroke-width:0.6707;stroke-linecap:round;}
	.st12{fill:#FFC667;}
	.st13{fill:#FF9F00;}
	.st14{fill:none;stroke:#91C590;stroke-width:1.052;}
	.st15{fill:none;stroke:#91C590;stroke-width:0.8307;}
</style>
<path class="st0" d="M80.7,111.8c-7.1,2.6-15.2,2.4-22.1-0.6c-6.9-3-12.6-8.9-15.5-15.9c-1-2.5-1.7-5.4-0.7-8
	c1.1-2.8,3.8-4.4,6.4-5.9l10.5-6c5.4-3.1,11.4-7,12.5-13.2c1.1-6.1-3.2-11.8-7.3-16.4c-4.1-4.6-8.7-9.8-8.5-16
	c0.2-6,4.9-10.8,9.5-14.7c2.8-2.4,5.8-4.8,9.4-6C77.9,8,81.2,7.9,84.5,8c12.3,0.4,25.2,4.1,33.5,13.3c2.3,2.6,4.1,6.9,1.5,9.2
	c-1.6,1.4-4,1.2-6.1,1.4c-4.2,0.5-8,3.6-9.4,7.7c-2.2,6.5,1.7,13.5,6.6,18.2c4.9,4.7,11.1,8.1,15.3,13.4c6.4,8,7.3,20.5,0.8,28.4
	c-2.7,3.3-6.4,5.5-10.3,7.2c-8.5,3.5-17.9,4-27.1,4.4"/>
<path class="st0" d="M124.1,53.4c-2.9-2-5.9-4.1-7.7-7.2c-1.8-3.1-1.9-7.4,0.6-9.9c2-2,5.2-2.3,7.9-1.4c2.7,0.9,4.8,3,6.5,5.2
	c1.3,1.7,2.4,3.7,2.9,5.8c0.4,2.1,0,4.5-1.4,6.2c-1.4,1.7-3.9,2.4-5.9,1.4"/>
<path class="st0" d="M49.1,52.3c0.5,0.7,1.7,0.2,2.4-0.3c3.3-2.7,6-7.2,4.5-11.3c-1-2.5-3.6-4.3-6.2-4.4c-2.7-0.1-5.3,1.4-6.7,3.7
	c-1.4,2.3-1.5,5.2-0.4,7.6c1.1,2.4,3.5,4.1,6.1,4.5"/>
<path class="st1" d="M51,105.6c-5-2.7-7.8-6-9.5-11.4c-0.4-1.3-0.7-2.9,0.3-3.8c1.1-1,2.8-0.5,4.1,0.2c2.3,1.3,4.4,3,6,5.2
	c2,2.7,3.8,6.4,7.1,7c0.3,0.1,0.6,0.1,0.9-0.1c0.8-0.5,0.3-1.7-0.2-2.5c-1-1.4-1.6-3.1-1.8-4.8c0-0.3-0.1-0.6,0.1-0.9
	c0.2-0.4,0.6-0.6,1.1-0.7c1.6-0.3,3.2,0.7,4.5,1.7c3.3,2.6,7.8,7,10,10.6"/>
<path class="st1" d="M84.3,75.6c-4.6-1.4-8.8-4.3-11.7-8.2c-1.4-1.8-2.6-4-2.7-6.3c-0.1-1.3,0.4-2.9,1.7-3.1
	c0.9-0.2,1.8,0.5,2.5,1.1c5,4.4,8.7,10.2,10.6,16.6"/>
<path class="st1" d="M57.2,81.8c-2.4-0.5-4.8-1-7-2.1c-2.2-1.1-4.1-2.9-4.8-5.2c-0.3-0.9-0.3-2,0.2-2.8c0.7-1,2.1-1.2,3.3-1
	c2.5,0.4,4.9,1.9,6.5,3.9c1.6,2,2.5,4.5,2.9,7.1"/>
<path class="st1" d="M60.9,83.2c-0.7-1.3-1.1-2.7-1.4-4.2c-0.4-2-0.5-4.2,0.6-5.8c0.4-0.5,0.9-0.9,1.5-0.9c0.4,0,0.7,0.1,1,0.3
	c1.3,0.7,2.2,2.1,2.3,3.6c0.1,1.3-0.4,2.7-1.1,3.8c-0.7,1.2-1.5,2.2-2.2,3.4"/>
<path class="st1" d="M64.5,86.9c-1.5-0.4-3-0.7-4.6-0.7c-1.6,0-3.2,0.3-4.4,1.3c-0.2,0.2-0.5,0.4-0.5,0.7c0,0.3,0.1,0.5,0.3,0.8
	c0.6,0.8,1.6,1.2,2.5,1.2c1,0,1.9-0.3,2.8-0.6c1.2-0.5,2.5-1.1,3.1-2.3"/>
<path class="st1" d="M70,90.9c-0.5-1.4-1-2.8-1.1-4.3c-0.1-1.5,0.1-3,1-4.2c0.1-0.2,0.2-0.3,0.4-0.4c0.2-0.1,0.5,0,0.7,0.1
	c0.8,0.5,1.3,1.4,1.6,2.3c0.7,2.3,0,4.9-1.7,6.6"/>
<path class="st1" d="M48.8,73.5c0.7,3,3.7,4.8,6,6.5c2.6,1.9,5.2,3.8,7.8,5.6c5.1,3.7,10.3,7.4,14.8,11.9c2.5,2.5,4.8,5.3,6.7,8.3
	c0.2,0.3,0.7,0,0.5-0.3c-3.3-5.3-7.8-9.7-12.6-13.6c-4.9-4-10.1-7.5-15.2-11.2c-1.4-1.1-2.9-2.1-4.3-3.3c-1.4-1.1-2.7-2.4-3.1-4.2
	C49.2,73,48.7,73.1,48.8,73.5z"/>
<path class="st1" d="M59.2,99.4c0.5-1.9,2.1-3.6,4-4.3c-1.2-1-2.7-1.8-4.2-1.5c-0.4,0.1-0.9,0.3-1.1,0.7c-0.1,0.3-0.1,0.6-0.1,0.9
	C58,96.7,58.5,98.1,59.2,99.4z"/>
<path class="st1" d="M50.8,103.7c-1.8-2.1-3.7-4.4-5-6.8c-0.9-1.6-1.9-3.7-1.3-5.6c0.1-0.5,0.4-0.8,0.6-1.1
	c-1.1-0.5-2.4-0.6-3.3,0.2c-1,0.9-0.8,2.5-0.3,3.8c1.8,5.4,4.5,8.8,9.5,11.4l1.5,0C51.9,105,51.3,104.3,50.8,103.7z"/>
<path class="st1" d="M81.5,69.6c0.6,0.9,1.2,1.7,1.9,2.5c-1.1-2.7-2.6-5.2-4.4-7.6C78.7,65.9,81,68.9,81.5,69.6z"/>
<path class="st1" d="M72.7,64.8c-0.4-2.2,0.6-4,2.1-5c-0.2-0.2-0.5-0.5-0.7-0.7c-0.7-0.6-1.6-1.3-2.5-1.1c-1.3,0.2-1.8,1.8-1.7,3.1
	c0.1,2.3,1.3,4.5,2.7,6.3c0.7,0.9,1.5,1.8,2.4,2.6C73.8,68.5,73,66.7,72.7,64.8z"/>
<path class="st1" d="M55.6,81.3c-3.5-1-7-5-7.8-8.5c-0.2-0.7-0.2-1.5-0.1-2.2c-0.8,0.1-1.6,0.4-2.1,1c-0.6,0.8-0.5,1.9-0.2,2.8
	c0.7,2.3,2.6,4.1,4.8,5.2c2.2,1.1,4.6,1.6,7,2.1l1.1-0.2c0-0.1,0-0.2-0.1-0.4C57.5,81.6,56.5,81.6,55.6,81.3z"/>
<path class="st1" d="M64.9,76.1c-0.1-1.5-1-2.8-2.3-3.6c-0.1-0.1-0.3-0.1-0.4-0.2c0.9,2.7,1.4,5.6-0.1,8.1c-0.5,0.8-1.3,1-2,0.8
	c0.2,0.7,0.5,1.3,0.8,1.9l0.7,0.2c0.7-1.2,1.5-2.2,2.2-3.4C64.5,78.8,65,77.5,64.9,76.1z"/>
<path class="st1" d="M57.5,88.4c-0.5-0.4-1-0.9-1.2-1.4c-0.3,0.1-0.5,0.3-0.8,0.5c-0.2,0.2-0.5,0.4-0.5,0.7c0,0.3,0.1,0.5,0.3,0.8
	c0.6,0.8,1.6,1.2,2.5,1.2c0.8,0,1.6-0.2,2.4-0.5C59.2,89.4,58.3,89,57.5,88.4z"/>
<path class="st1" d="M70.2,84c0.7-0.2,1.5-0.2,2.2,0c-0.3-0.8-0.7-1.5-1.5-1.9c-0.2-0.1-0.4-0.2-0.7-0.1c-0.2,0.1-0.3,0.2-0.4,0.4
	c-0.5,0.7-0.8,1.4-0.9,2.2C69.3,84.3,69.7,84.1,70.2,84z"/>
<path class="st1" d="M121.8,105.6c5-2.7,7.8-6,9.5-11.4c0.4-1.3,0.7-2.9-0.3-3.8c-1.1-1-2.8-0.5-4,0.2c-2.3,1.3-4.4,3-6,5.2
	c-2,2.7-3.8,6.4-7.1,7c-0.3,0.1-0.6,0.1-0.9-0.1c-0.8-0.5-0.3-1.7,0.2-2.5c1-1.4,1.6-3.1,1.8-4.8c0-0.3,0.1-0.6-0.1-0.9
	c-0.2-0.4-0.6-0.6-1.1-0.7c-1.6-0.3-3.2,0.7-4.5,1.7c-3.3,2.6-7.8,7-10,10.6"/>
<path class="st1" d="M94,65.1c2.3-1.3,4.3-3.3,5.5-5.7c0.6-1.1,1-2.4,0.8-3.7c-0.1-0.7-0.5-1.5-1.2-1.5c-0.5,0-0.9,0.4-1.2,0.8
	c-2.2,2.9-3.6,6.4-4,10.1"/>
<path class="st1" d="M115.6,81.8c2.4-0.5,4.8-1,7-2.1c2.2-1.1,4.1-2.9,4.8-5.2c0.3-0.9,0.3-2-0.2-2.8c-0.7-1-2.1-1.2-3.3-1
	c-2.5,0.4-4.9,1.9-6.5,3.9c-1.6,2-2.5,4.5-2.9,7.1"/>
<path class="st1" d="M111.9,83.2c0.7-1.3,1.1-2.7,1.4-4.2c0.4-2,0.5-4.2-0.6-5.8c-0.4-0.5-0.9-0.9-1.5-0.9c-0.4,0-0.7,0.1-1,0.3
	c-1.3,0.7-2.2,2.1-2.3,3.6c-0.1,1.3,0.4,2.7,1.1,3.8c0.7,1.2,1.5,2.2,2.2,3.4"/>
<path class="st1" d="M108.3,86.9c1.5-0.4,3-0.7,4.6-0.7c1.6,0,3.2,0.3,4.4,1.3c0.2,0.2,0.5,0.4,0.5,0.7c0,0.3-0.1,0.5-0.3,0.8
	C117,89.6,116,90,115,90c-1,0-1.9-0.3-2.8-0.6c-1.2-0.5-2.5-1.1-3.1-2.3"/>
<path class="st1" d="M102.8,90.9c0.5-1.4,1-2.8,1.1-4.3c0.1-1.5-0.1-3-1-4.2c-0.1-0.2-0.2-0.3-0.4-0.4c-0.2-0.1-0.5,0-0.7,0.1
	c-0.8,0.5-1.3,1.4-1.6,2.3c-0.7,2.3,0,4.9,1.7,6.6"/>
<path class="st1" d="M123.4,73.3c-0.4,1.6-1.5,2.8-2.6,3.8c-1.2,1-2.5,2-3.8,2.9c-2.5,1.9-5.1,3.7-7.7,5.5
	c-5.1,3.6-10.1,7.4-14.5,11.8c-2.5,2.5-4.7,5.2-6.6,8.1c-0.2,0.3,0.3,0.6,0.5,0.3c3.4-5.3,8-9.8,12.9-13.7c5-4,10.3-7.6,15.4-11.3
	c1.4-1,2.8-2.1,4.1-3.2c1.3-1.1,2.4-2.4,2.8-4.1C124,73.1,123.5,73,123.4,73.3z"/>
<path class="st1" d="M94.9,61.6c-0.2,0.5-0.5,1.1-0.7,1.6c0.3-1.6,0.9-3.1,1.6-4.6C96,59.3,95.1,61.1,94.9,61.6z"/>
<path class="st1" d="M99.1,58.1c0-1.2-0.7-2.1-1.6-2.5c0.1-0.1,0.2-0.3,0.3-0.4c0.3-0.4,0.7-0.8,1.2-0.8c0.7,0,1.1,0.8,1.2,1.5
	c0.2,1.3-0.2,2.5-0.8,3.7c-0.3,0.6-0.6,1.1-1,1.7C98.9,60.1,99.1,59.1,99.1,58.1z"/>
<path class="st1" d="M113.6,99.4c-0.5-1.9-2.1-3.6-4-4.3c1.2-1,2.7-1.8,4.2-1.5c0.4,0.1,0.9,0.3,1.1,0.7c0.1,0.3,0.1,0.6,0.1,0.9
	C114.8,96.7,114.3,98.1,113.6,99.4z"/>
<path class="st1" d="M122,103.7c1.8-2.1,3.7-4.4,5-6.8c0.9-1.6,1.9-3.7,1.3-5.6c-0.1-0.5-0.4-0.8-0.6-1.1c1.1-0.5,2.4-0.6,3.3,0.2
	c1,0.9,0.8,2.5,0.3,3.8c-1.8,5.4-4.5,8.8-9.5,11.4l-1.5,0C120.9,105,121.5,104.3,122,103.7z"/>
<path class="st1" d="M117.1,81.3c3.5-1,7-5,7.8-8.5c0.2-0.7,0.2-1.5,0.1-2.2c0.8,0.1,1.6,0.4,2.1,1c0.6,0.8,0.5,1.9,0.2,2.8
	c-0.7,2.3-2.6,4.1-4.8,5.2c-2.2,1.1-4.6,1.6-7,2.1l-1.1-0.2c0-0.1,0-0.2,0.1-0.4C115.3,81.6,116.2,81.6,117.1,81.3z"/>
<path class="st1" d="M107.9,76.1c0.1-1.5,1-2.8,2.3-3.6c0.1-0.1,0.3-0.1,0.4-0.2c-0.9,2.7-1.4,5.6,0.1,8.1c0.5,0.8,1.3,1,2,0.8
	c-0.2,0.7-0.5,1.3-0.8,1.9l-0.7,0.2c-0.7-1.2-1.5-2.2-2.2-3.4C108.3,78.8,107.8,77.5,107.9,76.1z"/>
<path class="st1" d="M115.3,88.4c0.5-0.4,1-0.9,1.2-1.4c0.3,0.1,0.5,0.3,0.8,0.5c0.2,0.2,0.5,0.4,0.5,0.7c0,0.3-0.1,0.5-0.3,0.8
	C117,89.6,116,90,115,90c-0.8,0-1.6-0.2-2.4-0.5C113.5,89.4,114.5,89,115.3,88.4z"/>
<path class="st1" d="M102.6,84c-0.7-0.2-1.5-0.2-2.2,0c0.3-0.8,0.7-1.5,1.5-1.9c0.2-0.1,0.4-0.2,0.7-0.1c0.2,0.1,0.3,0.2,0.4,0.4
	c0.5,0.7,0.8,1.4,0.9,2.2C103.5,84.3,103.1,84.1,102.6,84z"/>
<g class="st2">
	<path class="st3" d="M60.3,66.5c0-0.5-0.4-0.9-0.9-0.9c-0.5,0-0.9,0.4-0.9,0.9c0,0.5,0.4,0.9,0.9,0.9
		C59.9,67.3,60.3,66.9,60.3,66.5z"/>
	<path class="st3" d="M41.9,85.7c0-0.7-0.5-1.2-1.2-1.2c-0.7,0-1.2,0.5-1.2,1.2c0,0.7,0.5,1.2,1.2,1.2
		C41.4,86.9,41.9,86.4,41.9,85.7z"/>
	<path class="st3" d="M59.2,31.9c0-1.2-1-2.2-2.2-2.2c-1.2,0-2.2,1-2.2,2.2c0,1.2,1,2.2,2.2,2.2C58.2,34.1,59.2,33.1,59.2,31.9z"/>
	<path class="st3" d="M114.7,31.1c0-1.2-1-2.2-2.2-2.2c-1.2,0-2.2,1-2.2,2.2c0,1.2,1,2.2,2.2,2.2C113.7,33.3,114.7,32.3,114.7,31.1z
		"/>
	<path class="st3" d="M80.8,11.5c0-0.5-0.4-1-1-1c-0.5,0-1,0.4-1,1s0.4,1,1,1C80.3,12.5,80.8,12.1,80.8,11.5z"/>
	<path class="st3" d="M133.8,83.9c0-0.9-0.7-1.6-1.6-1.6c-0.9,0-1.6,0.7-1.6,1.6c0,0.9,0.7,1.6,1.6,1.6
		C133.1,85.5,133.8,84.7,133.8,83.9z"/>
	<path class="st3" d="M115.4,64.1c0-0.3-0.3-0.6-0.6-0.6c-0.3,0-0.6,0.3-0.6,0.6c0,0.3,0.3,0.6,0.6,0.6
		C115.1,64.7,115.4,64.5,115.4,64.1z"/>
</g>
<path class="st4" d="M130.6,126H43l11.9-18.1h63.9L130.6,126z"/>
<path class="st5" d="M59.3,53.7c3.3,6.9,9.6,21.4,12.9,23.8c4,3,11.8,3.9,11.8,3.9C72,97.8,66.4,93.7,66.4,93.7
	C58.4,87.5,54.7,60.8,54,56l-4-4.8c0,0-1.4-1.5-1.8-3.4c-0.3-1.9-0.7-3.5-0.3-3.5c0.4,0.1,1.4,2.6,1.6,3.1c0.2,0.5,0.7,1.3,1,1.5
	c0.2,0.2-1.5-4.5-1.6-5.6c-0.1-1.1-0.5-2.7-0.1-2.8c0.4,0,1.3,1.9,1.3,1.9s-0.3-2.3,0.1-2.4c0.4-0.1,1,1.4,1.1,2.1
	c0.2,0.7,1.9,4.5,2.4,4.7c0,0,0.6-3.8,0.9-4.4c0.3-0.6,3.1,0.4,3.2,0.7c0.1,0.3-1.2,0.9-1.8,0.8l-0.4,2.5c0,0,1.3,2,2.2,1.8
	c0,0,0.8-2.2,0.7-2.4c0-0.2-1.3-1-0.8-2.5c0.5-1.5,2.9,4.2,2.9,4.2S59.1,51.6,59.3,53.7z"/>
<path class="st6" d="M49.9,42.2c0.5,2.2,1.4,4.2,2.7,6.1c0.1,0.1,0.3,0,0.2-0.1c-1.2-1.8-2.1-3.9-2.6-6C50.2,42,49.9,42.1,49.9,42.2
	z"/>
<path class="st6" d="M57.3,48.4c-0.3,0-0.6,0-0.8,0.1c-0.3,0.1-0.4,0.4-0.4,0.7c0,0.8,0.1,1.7,0.3,2.5c0,0.2,0.3,0.1,0.3-0.1
	c-0.2-0.7-0.3-1.4-0.3-2.1c0-0.3-0.1-0.6,0.2-0.8c0.2-0.1,0.5-0.1,0.7-0.1C57.5,48.7,57.5,48.4,57.3,48.4z"/>
<path class="st6" d="M51.8,50.2c0.6-0.8,1.2-1.5,1.8-2.3c0.1-0.1-0.1-0.3-0.2-0.2c-0.6,0.8-1.2,1.5-1.8,2.3
	C51.5,50.2,51.7,50.3,51.8,50.2z"/>
<path class="st7" d="M80,50.5c0,0-8.4,1.6-12.6,20.9l6.4,10.2L80,50.5z"/>
<g class="st8">
	<path class="st9" d="M78.9,50.9c0.2,0.6,0.2,1.2-0.4,1.8c-1.8,1.9-2.9,4.3-3.9,6.6c-1.1,2.4-2.1,4.9-3,7.3
		c-0.9,2.5-1.7,5.1-2.4,7.7l4.5,7.2L80,50.5C80,50.5,79.6,50.6,78.9,50.9z"/>
</g>
<path class="st7" d="M104.9,100.5c0,0,0.3-30.9-1.5-40.3C101.7,50.9,92,48.4,92,48.4l-3.5-1.4l-7.2,2.3L78.8,51
	c-2.1,1.5-3.2,5.7-3.6,8.1l-4.6,41.4L104.9,100.5z"/>
<g class="st8">
	<path class="st9" d="M103.5,60.2c-1.4-7.2-7.5-10.4-10.2-11.4c-1.1,4.5-2.9,8.7-4.4,13.1c-1.8,5.4-3.4,10.9-5,16.4
		c-2,6.7-4.8,15.1-6.9,21.7l28.2,0.1C105.1,100.1,105.2,69.5,103.5,60.2z"/>
</g>
<path class="st5" d="M80.5,45.7l0-0.9l0.3,0l5.5-5.4c0,0,0.9,0.6,1,0.8c0.1,0.2,0.6-0.2,0.6-0.2l1.4,7.1c0,0-5.6,4.8-7.8,4.6
	c-0.8-0.1-0.9-0.3-0.9-0.3L80.5,45.7z"/>
<path class="st6" d="M86.4,39.1l-5.9,5.8l0.1,1.8c0,0,3.2-2.3,4.4-6.5"/>
<path class="st10" d="M88.1,37.5c0,0-1.9,0.2-2.5,1.1l-2.7-4.8c0,0-0.9-3.6-2-2.7c-1.1,0.9-2,1.5-2.7,1.2c-0.7-0.2-1.4-1.4-1.4-1.4
	s-5.2-4.8-1.9-8.5c3.6-4,3.9-0.9,6.5,0c1,0.3,2.9-0.2,3.9,0c1.1,0.3,1.1,2.8,1.8,2.8c3.7,0,3.3,5.2,1.5,12.2"/>
<path class="st6" d="M86.1,34c-0.8,0.4-1.4,0.9-1.9,1.6c-0.1,0.1-0.1,0.2-0.2,0.3l1.5,2.7c0.6-0.9,2.5-1.1,2.5-1.1l0.4-0.1
	c0.3-1.1,0.5-2.1,0.7-3C88.2,34.1,87.2,33.9,86.1,34z"/>
<path class="st5" d="M86.3,37.7c0.1,0.2,2.1-1.3,2.6,0.4c0.6,2.4-2.1,2.2-2.3,2.6c-0.4,0.7,0,1.2-2,2.1c-1.2,0.6-4.5,3.2-5.9,2
	c-1.4-1.2-1.9-1-2.1-14.3c0,0,1.2-1.1,1.9-0.5c1.3,1.1,1.8,0.9,2.1,0.5c0.4-0.6,1.3-0.7,1.9-0.2C85.8,32.9,85.9,36.8,86.3,37.7z"/>
<path class="st6" d="M88.5,38.2c0,0-1-0.7-1.4,0.5L88.5,38.2z"/>
<path class="st6" d="M78.3,35.6l0.4,4.6l-1-0.1C77.8,40.2,78.3,35.6,78.3,35.6z"/>
<path d="M80.8,35.4c-0.9-0.3-1.6-0.1-1.6-0.1c0-0.5,0.5-0.8,1-0.7c0.2,0,0.5,0.1,0.6,0.4C80.9,35,81,35.4,80.8,35.4z"/>
<path d="M77.2,35.5c-0.9,0-1.2,0.3-1.2,0.3c0.1-0.4,0.1-0.6,0.3-0.8c0.1-0.2,0.5,0,0.7,0.1C77.2,35.2,77.4,35.5,77.2,35.5z"/>
<path class="st11" d="M79.2,37.5c0.5,0.5,1.1,0.4,1.4-0.1"/>
<path class="st11" d="M76.7,37.7c0.3,0.5,0.9,0.4,1-0.1"/>
<path class="st11" d="M79.6,40.4c0,0-0.3,0.8-1.4,0.5"/>
<path class="st5" d="M115.1,52.7c-3.2,6.9-7.8,16.3-9.9,20.8c0.2-0.2-0.2-2.7-0.1-3.3c-5.1,3.3-11.2,6-11.2,6
	c1.3,9.1,6.4,14.9,9.3,16.3c3.7,1.7,5.5,0.4,5.5,0.4c7.9-6.4,11.2-33.1,11.8-37.8l3.9-4.9c0,0,1.4-1.5,1.7-3.4
	c0.3-1.9,0.6-3.5,0.2-3.5c-0.4,0.1-1.4,2.6-1.5,3.1c-0.2,0.5-0.7,1.3-0.9,1.5c-0.2,0.2,1.5-4.6,1.5-5.7c0.1-1.1,0.4-2.8,0.1-2.8
	c-0.4,0-1.3,1.9-1.3,1.9s0.3-2.3-0.1-2.4c-0.4-0.1-0.9,1.4-1.1,2.1c-0.2,0.7-1.8,4.6-2.3,4.7c0,0-0.6-3.8-0.9-4.4
	c-0.3-0.5-3.1,0.5-3.2,0.8c-0.1,0.3,1.3,0.9,1.8,0.8l0.4,2.5c0,0-1.2,2-2.2,1.8c0,0-0.8-2.2-0.8-2.4c0-0.2,1.3-1,0.8-2.5
	c-0.5-1.5-2.8,4.3-2.8,4.3S115.2,50.6,115.1,52.7z"/>
<path class="st6" d="M123.9,41.1c-0.5,2.1-1.3,4.2-2.5,6c-0.1,0.1,0.1,0.3,0.2,0.1c1.2-1.9,2.1-3.9,2.6-6.1
	C124.2,41,124,40.9,123.9,41.1z"/>
<path class="st6" d="M116.9,47.7c0.2,0,0.5,0,0.7,0.1c0.3,0.1,0.3,0.5,0.3,0.8c0,0.7-0.1,1.4-0.3,2.1c0,0.2,0.2,0.2,0.3,0.1
	c0.2-0.8,0.3-1.6,0.3-2.5c0-0.3-0.1-0.6-0.4-0.7c-0.3-0.1-0.5-0.1-0.8-0.1C116.7,47.4,116.7,47.7,116.9,47.7z"/>
<path class="st6" d="M122.7,49c-0.6-0.8-1.2-1.5-1.8-2.3c-0.1-0.1-0.3,0.1-0.2,0.2c0.6,0.8,1.2,1.5,1.8,2.3
	C122.6,49.3,122.8,49.1,122.7,49z"/>
<path class="st5" d="M110.7,108.2l2.4,2.1c1.2,0.6,2.1,1.7,2.5,2.8l6.6,2.9c2,0.9,3.5,3.6,1.9,3.4l-19.6-0.6L110.7,108.2z"/>
<path class="st12" d="M109.3,119.5l5.5-12.4c0,0-60.5-24.5-65-4.3C46.4,118,75.7,119,109.3,119.5z"/>
<path class="st13" d="M67.9,118.4l-2-11.3c0,0,50.4-26.8,55.2-6.6C124.8,115.5,101.5,117.3,67.9,118.4z"/>
<path class="st5" d="M66.3,108.3l-4.7,0.5c-0.7,0.4-1.3,1-1.7,1.7c-0.7,1.2-1.7,2.7-2.6,3.4c-2.9,1.9-8.7,3.6-8.7,3.6
	c-1.3,0.5-2,2.8-0.5,2.7l20.1-1.8L66.3,108.3z"/>
<path class="st7" d="M92.9,77.3l14.3-8c0,0-4.1-20.8-12.8-20.2C85.7,49.8,92.9,77.3,92.9,77.3z"/>
<path class="st14" d="M103.9,44.9c2.4,0,4.4-1.9,4.4-4.3c0-2.4-1.9-4.4-4.3-4.5c-2.4,0-4.4,1.9-4.4,4.3
	C99.5,42.8,101.4,44.8,103.9,44.9z"/>
<path class="st14" d="M100.6,36.9c-1.7-0.8-1.6,0.1-1.6,0.6c0,0.2,0.2,0.4,0.3,0.6c1.8,2.5,4.6,4,7.4,5.2c0.7,0.3,1.5,0.6,2.1,0.3
	c0.1-0.1,0.3-0.1,0.4-0.3c0.2-0.4-0.1-0.8-0.5-1.1"/>
<path class="st15" d="M47.6,60.4c0-1.9-1.5-3.5-3.4-3.5c-1.9,0-3.5,1.5-3.5,3.4c0,1.9,1.5,3.5,3.4,3.5C46,63.8,47.5,62.3,47.6,60.4z
	"/>
<path class="st15" d="M41.3,63c-0.6,1.4,0.1,1.3,0.5,1.2c0.2,0,0.3-0.1,0.5-0.2c1.9-1.4,3.1-3.6,4.1-5.8c0.2-0.5,0.4-1.2,0.2-1.7
	c0-0.1-0.1-0.2-0.2-0.3c-0.3-0.2-0.7,0.1-0.9,0.4"/>
</svg>
