<?xml version="1.0" encoding="utf-8"?>
<!-- Generator: Adobe Illustrator 25.1.0, SVG Export Plug-In . SVG Version: 6.00 Build 0)  -->
<svg version="1.1" id="Layer_1" xmlns="http://www.w3.org/2000/svg" xmlns:xlink="http://www.w3.org/1999/xlink" x="0px" y="0px"
	 viewBox="0 0 174 134" style="enable-background:new 0 0 174 134;" xml:space="preserve">
<style type="text/css">
	.st0{fill:#D7F9D6;}
	.st1{fill:#91C590;}
	.st2{fill:#FF9F00;}
	.st3{fill:#579756;}
	.st4{fill:#FFC35F;}
	.st5{fill:#FFDCA0;}
	.st6{fill:#312A3C;}
	.st7{fill:#3A1F1E;}
	.st8{fill:#FFBD50;}
	.st9{fill:#EF8368;}
	.st10{fill:#D27200;}
	.st11{fill:#F7BAA0;}
	.st12{fill:#FFC86C;}
	.st13{fill:#F29875;}
	.st14{fill:#FFDA9D;}
	.st15{fill:#FFFFFF;}
	.st16{fill:#EF837D;}
</style>
<path class="st0" d="M44.3,110.3c-6-2.6-11.6-6.5-14.8-12.1c-3.2-5.6-3.6-13.1,0.3-18.3c2.2-2.9,5.4-4.9,8.2-7.2
	c3.3-2.8,6.1-6.2,7.8-10.1c2.5-5.9,2.5-12.5,3.1-18.8c0.7-7.7,2.6-15.4,6.7-22c4-6.6,10.5-12,18.1-13.7c3.8-0.8,7.7-0.8,11.6-0.2
	c9.8,1.6,19.4,7.2,23.7,16.1c3.6,7.4,3.2,16.2,6.1,23.9c3.3,8.9,10.7,15.6,14.8,24.1c2.6,5.3,3.8,11.2,3.6,17.1
	c-0.2,5-1.5,10-4.4,14.1c-2.1,2.9-5,5.2-8,7.1c-5.9,3.6-12.7,5.7-19.5,6.3c-7.5,0.6-14.1-1.6-21.3-3c-6.8-1.3-13.5,1.5-20.3,0.9
	C54.5,114,49.2,112.5,44.3,110.3z"/>
<path class="st1" d="M132,73.2c0-1.6,0-3.1,0-4.7c0-3.2,0.1-6.3,0.2-9.5c0-0.1-0.2-0.1-0.2,0c-0.3,3.2-0.5,6.3-0.6,9.5
	c-0.1,1.6-0.1,3.1-0.1,4.7c0,0.8,0,1.6,0,2.4c0,0.8,0,1.5,0.3,2.3c0.1,0.2,0.3,0.2,0.3,0c0.3-0.8,0.2-1.5,0.2-2.3S132,74,132,73.2z"
	/>
<path class="st1" d="M134.3,72.8c0-0.1-0.1-0.2-0.2-0.1c-0.4,0.5-0.7,0.9-1,1.4c-0.3,0.6-0.6,1.1-0.8,1.7c-0.2,0.4-0.3,0.8-0.5,1.2
	c-0.1-0.5-0.1-0.9-0.2-1.4c-0.4-3-0.8-6.4-2.4-9c-0.1-0.2-0.4,0-0.3,0.2c1.3,2.5,1.6,5.5,1.9,8.2c0.1,1.2,0.2,2.5,0.3,3.7
	c-0.1,0.2-0.1,0.3-0.2,0.5c-0.8,2.5-1.1,5-1.3,7.5c-0.4,5.4-0.8,10.9-0.8,16.3c0,1.5,0,3,0.1,4.5c0.1,1.5,0.1,3,0.7,4.4
	c0,0.1,0.2,0.1,0.2,0c0.3-1.3,0.1-2.6,0.1-3.8c-0.1-1.3-0.1-2.7-0.1-4c0-2.7,0-5.4,0.1-8c0.1-2.7,0.3-5.3,0.5-8
	c0.2-2.5,0.4-4.9,0.9-7.3c0,1,0.1,2,0.1,3.1c0.1,6-0.2,12-0.4,17.9c-0.1,1.7-0.1,3.4-0.2,5.1c0,0.8,0,1.6,0,2.5c0,0.9,0,1.7,0.3,2.5
	c0,0.2,0.3,0.2,0.3,0c0.4-1.4,0.4-3,0.5-4.5c0.1-1.5,0.1-3,0.2-4.5c0.1-3,0.3-6.1,0.4-9.1c0.2-5.1,0.1-10.2-0.4-15.3
	c0.2-0.6,0.4-1.2,0.7-1.8C133.2,75.3,133.8,74.1,134.3,72.8z"/>
<path class="st1" d="M128.1,105.8c-0.1-1.9-0.2-3.7-0.3-5.6c-0.3-3.6-0.8-7.3-1.6-10.9c-0.2-1-0.5-2-0.8-3.1c-0.1-0.5-0.3-1-0.4-1.4
	c-0.2-0.5-0.3-1-0.6-1.5c-0.2-0.2-0.5-0.2-0.5,0.1c0,0.9,0.4,1.8,0.7,2.6c0.2,0.9,0.5,1.7,0.7,2.6c0.4,1.8,0.7,3.6,1,5.4
	c0.5,3.6,0.8,7.3,1,11c0.1,2,0,4.1,0.5,6.1c0,0.2,0.4,0.2,0.4,0C128.3,109.5,128.2,107.6,128.1,105.8z"/>
<path class="st1" d="M137.3,85c-1,1.1-1.8,2.4-2.4,3.7c-0.6,1.5-0.9,3-1.1,4.6c-0.5,3.6-0.6,7.2-0.5,10.8c0,1.1,0.1,2.1,0.1,3.2
	c0.1,1,0,2.2,0.6,3.1c0.1,0.1,0.2,0.1,0.2,0c0.3-0.8,0.1-1.8,0.1-2.6c-0.1-0.9-0.1-1.9-0.2-2.8c-0.1-1.8-0.1-3.7-0.1-5.5
	c0.1-3.3,0.3-6.5,1.1-9.7C135.7,88.1,136.3,86.4,137.3,85C137.5,85,137.4,84.9,137.3,85z"/>
<path class="st2" d="M139.5,106.9h-17.4c-1.2,0-2.1,1.1-2,2.3l2.4,16.2c0.1,1,1,1.7,2,1.7h12.6c1,0,1.8-0.7,2-1.7l2.4-16.2
	C141.7,107.9,140.7,106.9,139.5,106.9z"/>
<path class="st3" d="M122.9,83.3c0,0-2-4-3.8-0.6c-1.8,3.5-1.7,13.6,0.5,16.6c0,0,8.3-5.5,9.3-12.5
	C129.8,79.7,124.7,80.5,122.9,83.3z"/>
<path class="st3" d="M139.9,84.8c0,0-2.6-3.8-6.4-2.3c-3.8,1.6,1.8,16.5,8.8,20.4c0,0,6.3-11.5,5.1-17.5
	C146.1,79.5,141.8,81.2,139.9,84.8z"/>
<path class="st3" d="M127.6,65.7c0,0-2.3-3.5-4.5-0.7c-2.2,2.8-0.1,10.8,2.5,13.5c0,0,9.8-9,7.8-12.4
	C131.6,62.6,128.7,64.4,127.6,65.7z"/>
<path class="st3" d="M137.4,80.8c0,0-5.6-6.9-3.9-8.8c1.7-1.9,3.4,1.4,3.4,1.4s0.2-1.6,2.1-0.6C140.9,73.9,138.3,79.4,137.4,80.8z"
	/>
<path class="st3" d="M133.8,63.4c0,0-5.4-5.9-3.9-7.5c1.5-1.6,3.4,0.6,3.4,0.6s0.3-2.7,2.5-2.2C138,54.8,135.9,61.2,133.8,63.4z"/>
<path class="st1" d="M123.8,88.6c-0.1-0.3-0.2-0.6-0.3-0.9c-0.1-0.3-0.2-0.6-0.4-0.8c-0.1-0.3-0.3-0.6-0.4-0.8
	c-0.1-0.2-0.2-0.5-0.4-0.6c0.2-0.5,0.4-0.9,0.5-1.4c0.1-0.3,0.2-0.5,0.3-0.7c0-0.1,0.1-0.2,0.1-0.3c0-0.1,0-0.3-0.1-0.4
	c0,0-0.1-0.1-0.1-0.1c-0.2,0.1-0.3,0.2-0.5,0.4c-0.1,0.2-0.2,0.5-0.3,0.7c-0.1,0.1-0.1,0.3-0.2,0.4c0,0,0,0,0,0c0,0-0.1,0-0.2,0
	c-0.1,0-0.2,0.1-0.3,0.1c-0.2,0.1-0.4,0.2-0.6,0.3c-0.2,0.1-0.4,0.2-0.6,0.4c-0.2,0.1-0.4,0.3-0.4,0.5c0,0,0,0.1,0.1,0.1
	c0.2,0,0.4-0.1,0.5-0.3c0.2-0.1,0.3-0.2,0.5-0.4c0.2-0.1,0.4-0.2,0.5-0.3c0.1-0.1,0.2-0.1,0.2-0.2c-0.1,0.2-0.2,0.4-0.2,0.6
	c-0.3,0.8-0.6,1.5-0.8,2.3c0,0,0,0,0,0c-0.1,0-0.2,0.1-0.3,0.1c-0.2,0.1-0.4,0.2-0.6,0.3c-0.2,0.1-0.4,0.3-0.5,0.4
	c-0.1,0.1-0.2,0.1-0.3,0.2c0,0-0.1,0.1-0.1,0.1c0,0.1,0,0.1,0,0.2c0,0.1,0.1,0.1,0.1,0.1c0,0,0,0,0,0c0,0,0,0,0,0c0,0,0,0,0.1,0
	c0,0,0.1,0,0.1,0c0,0,0.1-0.1,0.1-0.1c0.1-0.1,0.2-0.2,0.2-0.2c0.2-0.1,0.3-0.3,0.5-0.4c0.2-0.1,0.4-0.2,0.6-0.3c0,0,0,0,0,0
	c0,0,0,0,0,0c-0.3,1.1-0.6,2.2-0.8,3.3c0,0-0.1,0-0.1,0.1c-0.1,0.1-0.2,0.1-0.3,0.2c-0.1,0.1-0.2,0.1-0.3,0.2
	c-0.1,0-0.1,0.1-0.2,0.1c-0.1,0-0.1,0.1-0.1,0.2c0,0.1,0,0.1,0,0.2c0,0,0.1,0.1,0.1,0c0.1,0,0.3-0.1,0.4-0.2
	c0.1-0.1,0.2-0.2,0.3-0.2c0.1,0,0.1-0.1,0.2-0.1c-0.1,0.7-0.2,1.3-0.3,2c-0.1,0.5-0.1,1.1-0.1,1.6c0,0.6-0.1,1.1,0,1.7
	c0,0.1,0.1,0.1,0.2,0c0.2-0.9,0.3-1.9,0.5-2.8c0.2-1,0.3-1.9,0.5-2.9c0.1-0.3,0.1-0.5,0.2-0.8c0,0.1,0,0.1,0.1,0.2
	c0.1,0.2,0.1,0.4,0.2,0.7c0.1,0.2,0.1,0.4,0.2,0.6c0.1,0.2,0.1,0.5,0.3,0.7c0.1,0.1,0.2,0,0.3-0.1c0,0,0,0,0,0c0,0,0,0,0,0
	c0,0,0,0,0-0.1c0-0.2-0.1-0.4-0.2-0.6c-0.1-0.2-0.2-0.4-0.3-0.6c-0.1-0.2-0.2-0.4-0.3-0.6c0-0.1-0.1-0.2-0.1-0.3
	c0,0-0.1-0.1-0.1-0.2c0.4-1.4,0.8-2.9,1.3-4.3c0,0.2,0.1,0.4,0.2,0.5c0.1,0.3,0.2,0.6,0.3,0.9c0.1,0.3,0.2,0.6,0.3,0.9
	c0.1,0.3,0.2,0.6,0.4,0.9c0,0,0,0,0,0C123.5,88.9,123.9,88.9,123.8,88.6z"/>
<path class="st1" d="M144.4,92.7c0-0.2-0.2-0.5-0.3-0.7c-0.3-0.5-0.7-0.9-1-1.3c-0.3-0.4-0.7-0.9-1.1-1.3c-0.2-0.2-0.4-0.4-0.6-0.6
	c-0.2-0.2-0.4-0.4-0.6-0.5c0-0.2-0.1-0.4-0.1-0.6c-0.1-0.5-0.2-1.1-0.3-1.6c-0.1-0.5-0.2-1.1-0.3-1.6c-0.1-0.4-0.6-0.2-0.6,0.2
	c0.1,0.4,0.1,0.8,0.2,1.2c-0.1,0-0.1,0.1-0.2,0.1c-0.2,0.1-0.4,0.3-0.6,0.5c-0.4,0.4-0.8,0.9-1.1,1.4c-0.4,0.5-0.7,1-1,1.5
	c-0.3,0.5-0.6,1.1-0.8,1.6h0c0,0.1,0.1,0.2,0.2,0.1c0.3-0.5,0.6-1,0.9-1.5c0.3-0.5,0.6-1,1-1.4c0.3-0.4,0.7-0.9,1-1.3
	c0.2-0.2,0.4-0.4,0.6-0.5c0,0,0.1,0,0.1-0.1c0.1,0.4,0.1,0.7,0.2,1.1c0.2,1,0.3,1.9,0.4,2.9c0.1,0.5,0.1,0.9,0.1,1.4
	c-0.2,0.2-0.4,0.4-0.6,0.6c-0.2,0.3-0.5,0.5-0.7,0.8c-0.2,0.3-0.4,0.5-0.6,0.8c-0.1,0.1-0.2,0.3-0.3,0.4c0,0.1-0.1,0.1-0.1,0.2
	c0,0,0,0,0,0.1c0,0,0,0,0,0.1c0,0,0,0,0,0c0,0,0.1,0,0.1,0c0.1,0,0.1-0.1,0.2-0.2c0.1-0.1,0.2-0.3,0.3-0.4c0.2-0.3,0.4-0.5,0.6-0.8
	c0.2-0.2,0.4-0.5,0.7-0.7c0.1-0.1,0.2-0.2,0.3-0.3c0.1,1.3,0.2,2.5,0.2,3.8c0,0.2,0,0.4,0,0.6c0,0-0.1,0-0.1,0
	c-0.1,0.1-0.2,0.2-0.3,0.3c-0.1,0.1-0.2,0.2-0.2,0.3c-0.1,0.1-0.2,0.2-0.2,0.3c0,0,0,0.1-0.1,0.1c0,0,0,0.1,0,0.1c0,0,0,0,0,0.1
	c0,0,0,0.1,0,0.1c0,0,0,0.1,0.1,0.1c0,0,0.1,0,0.1-0.1c0,0,0.1,0,0.1,0c0,0,0.1,0,0.1-0.1c0.1-0.1,0.2-0.2,0.3-0.2
	c0.1-0.1,0.2-0.2,0.2-0.3c0,0,0.1-0.1,0.1-0.1c0,0.2,0,0.5,0,0.7c0,0.5,0,1.1,0.1,1.6c0,0.1,0.2,0.1,0.2,0c0.1-0.5,0.1-1,0.1-1.4
	c0-0.5,0-1,0-1.5c0-0.6,0-1.1,0-1.7c0,0,0,0,0,0.1c0.3,0.3,0.6,0.6,0.9,1c0.1,0.2,0.3,0.3,0.4,0.5c0.1,0.2,0.3,0.4,0.5,0.4
	c0,0,0,0,0,0c0.1-0.2-0.1-0.4-0.2-0.6c-0.1-0.2-0.3-0.4-0.4-0.6c-0.3-0.3-0.6-0.7-0.9-1c-0.1-0.1-0.3,0-0.3,0.1c0-0.4,0-0.7,0-1.1
	c-0.1-1.6-0.2-3.2-0.5-4.8c0.1,0.1,0.1,0.2,0.2,0.3c0.1,0.2,0.3,0.4,0.5,0.6c0.3,0.4,0.7,0.8,1,1.2c0.3,0.4,0.6,0.8,0.9,1.2
	c0.1,0.2,0.3,0.4,0.4,0.6c0.1,0.2,0.1,0.3,0.2,0.5c0,0,0,0.1,0,0.1c0,0.1,0.1,0.1,0.2,0.1c0.1-0.1,0.1-0.1,0.2-0.2
	C144.4,92.9,144.4,92.8,144.4,92.7z"/>
<path class="st1" d="M138.4,76.3C138.4,76.3,138.3,76.3,138.4,76.3c0-0.1,0-0.1-0.1-0.1c0,0-0.1-0.1-0.1-0.1c0,0-0.1-0.1-0.1-0.1
	c-0.1-0.1-0.2-0.2-0.3-0.2c-0.1-0.1-0.2-0.2-0.3-0.3c-0.1-0.1-0.1-0.1-0.2-0.1c0,0,0,0,0,0c0-0.4-0.1-0.8-0.1-1.3
	c0-0.3-0.1-0.5-0.1-0.8c0-0.2-0.1-0.5-0.2-0.6c-0.1-0.1-0.2,0-0.2,0c-0.1,0.2,0,0.3,0,0.5c-0.1,0-0.1,0.1-0.2,0.1
	c-0.1,0.1-0.1,0.2-0.2,0.3c-0.1,0.2-0.2,0.4-0.3,0.6c-0.1,0.2-0.2,0.4-0.3,0.6c-0.1,0.1-0.1,0.2-0.2,0.3c0,0-0.1,0.1-0.1,0.1
	c0,0,0,0.1,0,0.1c0,0,0,0,0,0c0,0,0.1,0,0.1-0.1c0,0,0.1-0.1,0.1-0.1c0.1-0.1,0.1-0.2,0.2-0.3c0.1-0.2,0.3-0.4,0.4-0.6
	c0.1-0.2,0.2-0.4,0.4-0.6c0-0.1,0.1-0.1,0.1-0.2c0,0.2,0,0.3,0.1,0.5c0.1,0.5,0.1,1,0.2,1.6c0,0.4,0.1,0.8,0.1,1.3c0,0,0,0,0,0.1
	c0,0,0,0.1-0.1,0.1c0,0,0,0,0,0c0,0,0,0,0,0c0,0,0,0,0,0c0,0,0,0,0,0c0,0,0,0,0,0c0,0,0,0-0.1,0.1c0,0,0,0,0,0c0,0,0,0,0,0.1
	c0,0,0,0,0,0.1c0,0,0,0,0,0c0,0,0,0,0,0c0,0,0,0,0,0c0,0,0,0,0,0c0,0,0,0,0,0c0,0,0,0,0,0c0,0,0,0,0,0c0,0,0,0,0,0c0,0,0,0,0,0
	c0,0,0,0,0.1,0c0.1,0,0.1,0,0.1-0.1c0,0,0.1-0.1,0.1-0.1c0,0.2,0,0.4,0,0.5c0,0.1,0,0.2,0,0.3c0,0.1,0.1,0.1,0.1,0.2c0,0,0,0,0,0
	c0.1-0.1,0.1-0.1,0.1-0.2c0-0.1,0-0.3,0-0.4c0-0.2,0-0.5,0-0.7c0,0,0-0.1,0-0.1c0-0.1,0.1-0.1,0.1-0.2c0,0,0-0.1,0-0.1
	c0,0,0-0.1,0-0.1c0,0,0,0-0.1,0c0-0.3,0-0.5-0.1-0.8c0.1,0.1,0.1,0.1,0.2,0.2c0.1,0.1,0.2,0.2,0.3,0.3c0.1,0,0.1,0.1,0.2,0.1
	C138.2,76.4,138.2,76.4,138.4,76.3C138.3,76.4,138.3,76.4,138.4,76.3C138.4,76.4,138.4,76.4,138.4,76.3z"/>
<path class="st1" d="M128.9,70.7c-0.2-0.3-0.4-0.6-0.6-1c-0.2-0.3-0.4-0.6-0.6-0.9c-0.2-0.3-0.4-0.5-0.7-0.8
	c0.1-0.2,0.1-0.5,0.2-0.7c0.1-0.4,0.2-0.7,0.3-1.1c0.1-0.2,0.1-0.4,0.2-0.6c0-0.1,0.1-0.2,0.1-0.3c0-0.1,0-0.2-0.1-0.3
	c0-0.1-0.1-0.1-0.2-0.1c-0.1,0.1-0.3,0.1-0.3,0.3c-0.1,0.2-0.1,0.4-0.2,0.5c0,0,0,0.1,0,0.1c0-0.1-0.2-0.2-0.2-0.1
	c-0.6,0.2-1.2,0.6-1.8,1c-0.3,0.2-0.5,0.4-0.8,0.6c-0.1,0.1-0.2,0.2-0.4,0.4c-0.1,0.1-0.2,0.2-0.2,0.3c0,0,0,0,0,0
	c0.1,0,0.2-0.1,0.3-0.2c0.1-0.1,0.3-0.2,0.4-0.3c0.3-0.2,0.5-0.4,0.8-0.6c0.5-0.4,1.1-0.6,1.7-0.9c0,0,0,0,0.1,0
	c-0.1,0.2-0.1,0.4-0.2,0.7c-0.2,0.7-0.3,1.4-0.5,2.1c-0.1,0.4-0.1,0.9-0.2,1.3c0-0.1-0.1-0.1-0.2-0.1c0,0-0.1,0-0.1,0.1c0,0,0,0,0,0
	c0,0,0,0,0,0c0,0-0.1,0.1-0.1,0.1c-0.1,0.1-0.2,0.1-0.3,0.2c-0.2,0.1-0.3,0.3-0.5,0.4c-0.2,0.1-0.3,0.3-0.4,0.5
	c-0.1,0.1-0.1,0.2-0.2,0.3c0,0-0.1,0.1-0.1,0.1c0,0,0,0,0,0.1c0,0,0,0.1,0,0.1c0,0,0,0,0,0c0,0,0.1-0.1,0.1-0.1c0,0,0.1-0.1,0.1-0.1
	c0.1-0.1,0.1-0.1,0.2-0.2c0.2-0.1,0.3-0.3,0.4-0.4c0.1-0.1,0.3-0.2,0.5-0.4c0.1-0.1,0.2-0.1,0.3-0.2c0.1,0,0.1-0.1,0.2-0.1
	c-0.1,0.9-0.1,1.8-0.2,2.8c0,0.3,0,0.6,0,0.9c-0.1,0-0.1,0-0.2,0.1c0,0-0.1,0.1-0.1,0.2c0,0,0,0.1-0.1,0.1c0,0,0,0,0,0c0,0,0,0,0,0
	c0,0,0,0,0,0c0,0,0,0.1-0.1,0.1c0,0,0,0,0,0c0,0,0,0,0,0c0,0,0,0,0,0c0,0,0,0,0,0c0,0,0,0,0,0c0,0,0,0,0,0c0,0,0,0,0,0
	c0,0,0,0.1,0,0.1c0,0,0,0,0,0c0,0,0,0.1,0,0c0,0,0,0,0,0c0,0,0,0,0,0c0,0,0.1,0,0.1,0c0,0,0,0,0.1,0c0,0,0,0,0,0c0,0,0,0,0,0
	c0,0,0,0,0,0c0,0,0,0,0.1,0c0.1,0,0.1-0.1,0.2-0.1c0-0.1,0.1-0.1,0.1-0.2c0,0.4,0,0.8,0.1,1.2c0,0,0,0,0,0c0.2-0.7,0.2-1.4,0.2-2.1
	c0-0.3,0-0.6,0.1-0.8c0,0,0.1,0.1,0.1,0.1c0.1,0.2,0.3,0.3,0.4,0.5c0.1,0.1,0.1,0.2,0.2,0.2c0,0,0.1,0.1,0.1,0.1
	c0,0,0.1,0.1,0.1,0.1c0.1,0.1,0.2-0.1,0.1-0.1c0,0,0-0.1,0-0.1c0,0,0-0.1-0.1-0.1c0-0.1-0.1-0.1-0.1-0.2c-0.1-0.1-0.2-0.2-0.3-0.3
	c-0.1-0.1-0.2-0.2-0.3-0.3c0-0.1-0.1-0.1-0.1-0.2c0,0-0.1-0.1-0.1-0.1c0,0,0,0-0.1,0c0-0.3,0-0.6,0.1-0.9c0.1-1,0.2-2.1,0.4-3.1
	c0.2,0.2,0.3,0.3,0.4,0.5c0.2,0.3,0.4,0.6,0.6,0.9c0.2,0.3,0.4,0.6,0.5,0.9c0.1,0.2,0.2,0.3,0.3,0.5c0.1,0.1,0.2,0.3,0.3,0.4
	c0,0,0.1,0,0.1,0C129.2,71.4,129,71,128.9,70.7z"/>
<path class="st1" d="M134.4,57.9c0.1,0.1,0.3,0.1,0.5,0.1c0,0,0.1,0,0-0.1c-0.1-0.1-0.2-0.2-0.4-0.3c-0.1-0.1-0.3-0.2-0.4-0.2
	c-0.1-0.1-0.2-0.2-0.4-0.2c0,0,0,0,0,0c-0.1-0.7-0.2-1.4-0.9-1.5c-0.1,0-0.1,0.1-0.1,0.1c0.1,0.2,0.2,0.4,0.3,0.6
	c0,0-0.1,0.1-0.1,0.1c-0.1,0.1-0.1,0.2-0.2,0.3c-0.1,0.2-0.3,0.4-0.4,0.6c-0.1,0.2-0.3,0.4-0.4,0.6c-0.1,0.2-0.3,0.4-0.3,0.6
	c0,0,0,0.1,0.1,0c0.2-0.1,0.3-0.3,0.5-0.5c0.1-0.2,0.3-0.4,0.4-0.6c0.1-0.2,0.3-0.4,0.4-0.5c0.1-0.1,0.1-0.1,0.2-0.2
	c0.1,0.5,0.1,0.9,0.2,1.4c0,0,0,0.1,0,0.1c0,0-0.1,0.1-0.1,0.1c0,0.1-0.1,0.2-0.1,0.2c-0.1,0.2-0.1,0.3-0.2,0.4
	c-0.1,0.1-0.2,0.3-0.3,0.4c0,0.1-0.1,0.1-0.1,0.2c0,0.1-0.1,0.1-0.1,0.2c0,0,0,0,0,0c0.2,0,0.3-0.2,0.4-0.3c0.1-0.1,0.2-0.3,0.3-0.4
	c0.1-0.1,0.1-0.2,0.2-0.3c0,0.3,0,0.5,0.1,0.8c0,0.3,0,0.5,0,0.8c0,0.3,0,0.5,0.2,0.7c0,0,0,0,0,0c0.2-0.2,0.2-0.5,0.2-0.7
	c0-0.3,0-0.6,0-0.9c0-0.1,0-0.2,0-0.2c0.1,0,0.1,0.1,0.2,0.1c0.1,0.1,0.2,0.2,0.3,0.2c0.1,0,0.1,0.1,0.2,0.1c0.1,0,0.1,0,0.2,0.1
	c0,0,0.1,0,0,0c0-0.1-0.1-0.1-0.1-0.2c0-0.1-0.1-0.1-0.1-0.2c-0.1-0.1-0.2-0.2-0.3-0.3c-0.1-0.1-0.3-0.2-0.4-0.3
	c0-0.4,0-0.8-0.1-1.1c0-0.1,0-0.2,0-0.3c0.1,0,0.1,0.1,0.2,0.1C134.1,57.8,134.2,57.9,134.4,57.9z"/>
<path class="st4" d="M137.4,113.4c-0.8,0.3-1.4,1.1-2.2,1.2c-0.9,0.1-1.8-0.4-2.5-0.8c-0.9-0.5-1.8-0.9-2.8-1
	c-1-0.1-1.8,0.4-2.5,0.9c-0.6,0.5-1.2,0.9-2,0.8c-0.7-0.1-1.4-0.4-2.1-0.7c-0.8-0.3-1.6-0.4-2.4-0.2l0.2,1.1c0,0,0.1,0,0.1,0
	c0.7-0.2,1.4,0.1,2,0.3c0.7,0.3,1.4,0.6,2.1,0.7c0.8,0.1,1.6-0.1,2.3-0.6c0.6-0.4,1.2-1,2-1.1c0.9-0.1,1.7,0.4,2.5,0.8
	c0.9,0.5,1.7,0.9,2.7,1c1,0.1,1.7-0.3,2.5-0.9c0.4-0.3,0.8-0.5,1.2-0.6c0.5-0.1,0.9-0.1,1.4-0.1c0.3,0,0.6,0.1,0.8,0.1l0.2-1.4
	c-0.2,0-0.4-0.1-0.7-0.1C139.3,113,138.3,113.1,137.4,113.4z"/>
<path class="st5" d="M140.2,116.9c-0.9-0.1-1.9-0.1-2.8,0.3c-0.8,0.3-1.4,1.1-2.2,1.2c-0.9,0.1-1.8-0.4-2.5-0.8
	c-0.9-0.5-1.8-0.9-2.8-1c-1-0.1-1.8,0.4-2.5,0.9c-0.6,0.5-1.2,0.9-2,0.8c-0.7-0.1-1.4-0.4-2.1-0.7c-0.6-0.2-1.2-0.3-1.8-0.3l0.2,1.1
	c0.5,0,1.1,0.2,1.5,0.4c0.7,0.3,1.4,0.6,2.1,0.7c0.8,0.1,1.6-0.1,2.3-0.6c0.6-0.4,1.2-1,2-1.1c0.9-0.1,1.7,0.4,2.5,0.8
	c0.9,0.5,1.7,0.9,2.7,1c1,0.1,1.7-0.3,2.5-0.9c0.4-0.3,0.8-0.5,1.2-0.6c0.5-0.1,0.9-0.1,1.4-0.1c0.1,0,0.2,0,0.3,0l0.2-1.4
	C140.3,116.9,140.2,116.9,140.2,116.9z"/>
<path class="st5" d="M121.2,111.2c0.7-0.2,1.4,0.1,2,0.3c0.7,0.3,1.4,0.6,2.1,0.7c0.8,0.1,1.6-0.1,2.3-0.6c0.6-0.4,1.2-1,2-1.1
	c0.9-0.1,1.7,0.4,2.5,0.8c0.9,0.5,1.7,0.9,2.7,1c1,0.1,1.7-0.3,2.5-0.9c0.4-0.3,0.8-0.5,1.2-0.6c0.5-0.1,0.9-0.1,1.4-0.1
	c0.5,0,0.9,0.2,1.4,0.3l0.2-1.4c-0.4-0.1-0.8-0.2-1.2-0.2c-0.9-0.1-1.9-0.1-2.8,0.3c-0.8,0.3-1.4,1.1-2.2,1.2
	c-0.9,0.1-1.8-0.4-2.5-0.8c-0.9-0.5-1.8-0.9-2.8-1c-1-0.1-1.8,0.4-2.5,0.9c-0.6,0.5-1.2,0.9-2,0.8c-0.7-0.1-1.4-0.4-2.1-0.7
	c-0.9-0.3-1.8-0.4-2.6-0.1c-0.1,0-0.2,0.1-0.3,0.1l0.2,1.2C120.7,111.4,120.9,111.2,121.2,111.2z"/>
<path class="st3" d="M45.2,97.9c-1.8,0.6-3.5,1.3-5.1,2.3c-0.7,0.5-1.3,1-1.9,1.5c-0.5,0.5-0.9,1-1.2,1.6c-0.5-1-1.1-2-1.4-3.1
	c-0.4-1.1-0.5-2.2-0.4-3.3c1.6,0.7,3.6,0.2,5.2-0.4c0.8-0.3,1.5-0.7,2.1-1.3c0.3-0.3,0.6-0.6,0.9-0.9c0.3-0.3,0.6-0.7,0.8-1.1
	c0.2-0.4-0.1-0.7-0.5-0.7c-0.4,0.1-0.8,0-1.3-0.1c-0.4,0-0.8,0-1.2,0c-0.8,0.1-1.5,0.3-2.3,0.6c-0.7,0.4-1.4,0.8-2.1,1.3
	c-0.5,0.4-1.1,0.7-1.6,1.2c0-0.1,0-0.2,0-0.3c0.3-1.5,0.9-3.2,1.4-4.7c0.1,0.1,0.1,0.1,0.2,0.1c2.4,0.7,5,0.3,7.1-1
	c0.5-0.3,2.8-1.9,1.5-2.5c-0.6-0.3-1.5-0.2-2.1-0.1c-0.7,0.1-1.5,0.2-2.2,0.4c-0.8,0.2-1.5,0.3-2.2,0.7c-0.4,0.2-0.7,0.4-1.1,0.7
	c-0.3,0.2-0.6,0.4-0.8,0.7c0.4-1.2,0.8-2.5,1-3.8c0.1-0.8,0.1-1.5,0.1-2.3c0.1,0,0.2,0.1,0.3,0.1c0.8,0,1.6,0,2.5-0.1
	c0.8,0,1.6,0,2.3-0.2c0.6-0.2,1.3-0.5,1.7-0.9c0.4-0.4,0.8-1.1,0.8-1.7c0-0.2-0.2-0.4-0.5-0.4c-1.4,0-2.9,0.1-4.2,0.6
	c-0.6,0.3-1.3,0.6-1.8,1c-0.3,0.2-0.5,0.4-0.8,0.6c-0.1,0.1-0.2,0.2-0.3,0.2c0,0-0.1,0-0.1,0c-0.1-0.7-0.2-1.4-0.3-2.2
	c-0.1-0.5-0.2-1.1-0.3-1.6c0.4,0.1,0.9,0.1,1.2,0.1c1.6-0.1,3.1-0.6,4.3-1.6c0.5-0.4,1.5-1.3,1.1-1.9c-0.2-0.3-0.8-0.3-1.1-0.2
	c-0.5,0.1-0.9,0.2-1.4,0.3c-0.9,0.3-1.8,0.7-2.5,1.3c-0.4,0.3-0.7,0.5-1.1,0.8c-0.2,0.1-0.4,0.3-0.6,0.5c0,0-0.1,0-0.1,0
	c-0.2-1-0.4-1.9-0.6-2.9c-0.1-0.8-0.3-1.5-0.3-2.3c0.3,0.1,0.7,0.2,0.9,0.2c0.7,0.1,1.4-0.1,2.1-0.3c0.7-0.2,1.3-0.6,1.9-0.9
	c0.5-0.3,1.2-0.6,1.5-1.2c0.1-0.2,0-0.5-0.3-0.5c-0.3,0-0.6-0.2-1-0.2c-0.3-0.1-0.6-0.1-0.9-0.1c-0.6,0-1.2,0.1-1.8,0.3
	c-0.5,0.2-1,0.5-1.4,0.8c-0.3,0.3-0.8,0.5-1.1,0.9c0-0.6,0-1.3,0.1-1.9c0.1-1,0.3-1.9,0.5-2.8c0.3,0.3,1,0.4,1.4,0.5
	c0.6,0.1,1.3,0,1.9-0.1c1.2-0.3,2.4-0.9,3.2-1.9c0.2-0.2,0.1-0.5-0.1-0.5c-1.2-0.3-2.4-0.3-3.6,0c-0.6,0.1-1.1,0.3-1.7,0.6
	c-0.2,0.1-0.5,0.2-0.7,0.4c0.4-1.3,0.9-2.5,1.5-3.7c0.2,0.2,0.4,0.2,0.6,0.3c0.6,0.2,1.3,0.2,1.9,0.1c0.7-0.1,1.4-0.5,1.9-1
	c0.2-0.2,0.1-0.5-0.1-0.5c-0.7-0.2-1.5-0.3-2.2-0.2c-0.4,0-0.7,0.1-1.1,0.2c-0.2,0-0.4,0.1-0.5,0.2c0.3-0.5,0.5-1.1,0.8-1.6
	c0.4,0.3,1.1-0.4,1.4-0.6c0.9-0.7,1.7-1.6,2.2-2.6c0.7-1.1,1-2.4,1-3.7c0-0.2-0.3-0.4-0.5-0.3c-1.2,0.9-2.2,1.9-3,3.2
	c-0.4,0.6-0.7,1.2-1,1.9c-0.1,0.3-0.3,0.7-0.4,1.1c-0.1,0.3-0.1,0.6-0.1,1c-0.1,0.1-0.2,0.3-0.2,0.4c0-0.1-0.1-0.1-0.1-0.2
	c-0.1-0.2-0.2-0.3-0.3-0.5c-0.2-0.3-0.4-0.6-0.7-0.8c-0.5-0.5-1.2-0.9-1.9-1c-0.3-0.1-0.4,0.1-0.4,0.4c0.1,0.8,0.6,1.6,1.2,2.1
	c0.3,0.3,0.7,0.5,1,0.8c0.2,0.1,0.4,0.2,0.6,0.2c0,0,0,0,0,0c-0.5,0.8-0.9,1.7-1.3,2.5c-0.1-0.2-0.3-0.3-0.5-0.5
	c-0.3-0.3-0.7-0.5-1-0.8c-0.7-0.5-1.5-0.8-2.3-1c-0.3-0.1-0.6,0.2-0.5,0.5c0.3,0.9,0.9,1.8,1.7,2.3c0.4,0.3,0.8,0.5,1.3,0.6
	c0.2,0.1,0.5,0.1,0.7,0.1c0,0,0.1,0,0.1,0c-0.4,1.1-0.8,2.2-1,3.3c-0.1-0.2-0.3-0.4-0.4-0.5c-0.4-0.4-0.9-0.7-1.4-1
	c-1-0.6-2.1-1.1-3.2-1.5c-0.2-0.1-0.5,0.1-0.5,0.3c0,1.4,0.7,2.8,1.9,3.6c0.6,0.4,1.2,0.7,1.9,0.8c0.4,0,0.7,0,1.1-0.1
	c0.1,0,0.2-0.1,0.3-0.1c-0.1,1.1-0.2,2.2-0.1,3.3c-0.1,0-0.2-0.1-0.3-0.1c-0.3-0.1-0.6-0.2-0.9-0.3c-0.5-0.2-1.1-0.4-1.6-0.5
	c-0.9-0.2-2.1-0.3-2.9,0.4c-0.1,0.2-0.1,0.4,0,0.5c0.8,1,1.9,1.7,3.2,2.1c0.6,0.2,1.2,0.3,1.8,0.2c0.2,0,0.5-0.1,0.8-0.3
	c0.2,1,0.4,2,0.6,3c0,0,0,0,0,0c-0.3-0.2-0.6-0.3-0.8-0.4c-0.6-0.3-1.2-0.5-1.8-0.7c-1.1-0.2-2.4-0.2-3.4,0.4
	c-0.2,0.1-0.3,0.4-0.1,0.6c1.2,1.1,2.5,2.1,4.2,2.3c0.7,0.1,1.5,0,2.2-0.4c0.1,0,0.1-0.1,0.2-0.1c0.3,1.5,0.6,3,0.5,4.6
	c0,0.4-0.1,0.8-0.1,1.3c-0.1-0.1-0.2-0.2-0.2-0.3c-0.3-0.3-0.5-0.6-0.8-0.8c-0.6-0.5-1.2-1.1-1.8-1.5c-1.2-0.9-2.6-1.5-4-1.7
	c-0.3,0-0.4,0.3-0.4,0.5c0.3,1.6,1.2,3,2.5,3.9c0.7,0.5,1.4,0.9,2.3,1.1c0.6,0.2,1.4,0.3,2.1,0.2c-0.2,0.7-0.4,1.4-0.7,2.1
	c-0.3,0.9-0.6,1.8-1,2.7c0,0,0,0-0.1-0.1c-0.3-0.3-0.5-0.6-0.8-0.9c-0.6-0.6-1.2-1.2-1.9-1.7c-1.4-1-2.9-1.8-4.5-2.3
	c-0.2-0.1-0.4,0-0.5,0.2c-0.5,1,0.5,2.2,1.1,2.9c0.7,0.8,1.5,1.5,2.4,2c0.9,0.5,1.9,0.9,3,1.1c0.3,0.1,0.6,0.1,0.9,0.1
	c-0.4,1.2-0.7,2.5-0.7,3.8c-0.1-0.1-0.2-0.2-0.3-0.2c-0.5-0.4-1-0.8-1.6-1.2c-1.1-0.7-2.4-1.3-3.6-1.7c-0.5-0.2-1.7-0.4-1.8,0.4
	c-0.1,0.6,0.4,1.3,0.7,1.7c0.8,1.1,2.1,1.7,3.4,2.2c0.8,0.3,1.6,0.5,2.5,0.6c0.2,0,0.6,0,0.9,0c0.2,1,0.5,2,1,3
	c-0.5-0.2-1.1-0.4-1.7-0.5c-1-0.2-1.9-0.3-2.9-0.2c-1.5,0.1-3.2,0.4-4.1,1.8c-0.1,0.1,0,0.4,0.1,0.5c1.8,0.8,3.7,1.4,5.7,1.4
	c0.9,0,1.9-0.1,2.8-0.5c0.3-0.1,0.7-0.3,0.9-0.5c0.1,0.1,0.1,0.3,0.2,0.4c0.5,0.9,0.9,1.9,1.2,2.9c0.1,0.5,0.2,0.9,0.3,1.4
	c0.1,0.5,0.3,1,0.4,1.6c0,0.1,0.2,0.2,0.3,0.1c0.2-0.4,0.3-0.8,0.4-1.1c0.1-0.5,0-0.9-0.1-1.4c-0.2-0.9-0.5-1.8-0.9-2.6
	c-0.1-0.2-0.2-0.4-0.3-0.5c0.3,0,0.5,0,0.8-0.1c0.5-0.1,1-0.2,1.5-0.4c1-0.4,1.9-0.9,2.7-1.5c0.8-0.5,1.5-1.1,2-1.9
	c0.5-0.7,1.1-1.6,1-2.5C45.7,98.1,45.5,97.8,45.2,97.9z"/>
<path class="st2" d="M45.9,106.9H28.5c-1.2,0-2.1,1.1-2,2.3l2.4,16.2c0.1,1,1,1.7,2,1.7h12.6c1,0,1.8-0.7,2-1.7l2.4-16.2
	C48,107.9,47.1,106.9,45.9,106.9z"/>
<path class="st4" d="M43.8,113.4c-0.8,0.3-1.4,1.1-2.2,1.2c-0.9,0.1-1.8-0.4-2.5-0.8c-0.9-0.5-1.8-0.9-2.8-1c-1-0.1-1.8,0.4-2.5,0.9
	c-0.6,0.5-1.2,0.9-2,0.8c-0.7-0.1-1.4-0.4-2.1-0.7c-0.8-0.3-1.6-0.4-2.4-0.2l0.2,1.1c0,0,0.1,0,0.1,0c0.7-0.2,1.4,0.1,2,0.3
	c0.7,0.3,1.4,0.6,2.1,0.7c0.8,0.1,1.6-0.1,2.3-0.6c0.6-0.4,1.2-1,2-1.1c0.9-0.1,1.7,0.4,2.5,0.8c0.9,0.5,1.7,0.9,2.7,1
	c1,0.1,1.7-0.3,2.5-0.9c0.4-0.3,0.8-0.5,1.2-0.6c0.5-0.1,0.9-0.1,1.4-0.1c0.3,0,0.6,0.1,0.8,0.1l0.2-1.4c-0.2,0-0.4-0.1-0.7-0.1
	C45.6,113,44.7,113.1,43.8,113.4z"/>
<path class="st5" d="M46.5,116.9c-0.9-0.1-1.9-0.1-2.8,0.3c-0.8,0.3-1.4,1.1-2.2,1.2c-0.9,0.1-1.8-0.4-2.5-0.8
	c-0.9-0.5-1.8-0.9-2.8-1c-1-0.1-1.8,0.4-2.5,0.9c-0.6,0.5-1.2,0.9-2,0.8c-0.7-0.1-1.4-0.4-2.1-0.7c-0.6-0.2-1.2-0.3-1.8-0.3l0.2,1.1
	c0.5,0,1.1,0.2,1.5,0.4c0.7,0.3,1.4,0.6,2.1,0.7c0.8,0.1,1.6-0.1,2.3-0.6c0.6-0.4,1.2-1,2-1.1c0.9-0.1,1.7,0.4,2.5,0.8
	c0.9,0.5,1.7,0.9,2.7,1c1,0.1,1.7-0.3,2.5-0.9c0.4-0.3,0.8-0.5,1.2-0.6c0.5-0.1,0.9-0.1,1.4-0.1c0.1,0,0.2,0,0.3,0l0.2-1.4
	C46.6,116.9,46.6,116.9,46.5,116.9z"/>
<path class="st5" d="M27.5,111.2c0.7-0.2,1.4,0.1,2,0.3c0.7,0.3,1.4,0.6,2.1,0.7c0.8,0.1,1.6-0.1,2.3-0.6c0.6-0.4,1.2-1,2-1.1
	c0.9-0.1,1.7,0.4,2.5,0.8c0.9,0.5,1.7,0.9,2.7,1c1,0.1,1.7-0.3,2.5-0.9c0.4-0.3,0.8-0.5,1.2-0.6c0.5-0.1,0.9-0.1,1.4-0.1
	c0.5,0,0.9,0.2,1.4,0.3l0.2-1.4c-0.4-0.1-0.8-0.2-1.2-0.2c-0.9-0.1-1.9-0.1-2.8,0.3c-0.8,0.3-1.4,1.1-2.2,1.2
	c-0.9,0.1-1.8-0.4-2.5-0.8c-0.9-0.5-1.8-0.9-2.8-1c-1-0.1-1.8,0.4-2.5,0.9c-0.6,0.5-1.2,0.9-2,0.8c-0.7-0.1-1.4-0.4-2.1-0.7
	c-0.9-0.3-1.8-0.4-2.6-0.1c-0.1,0-0.2,0.1-0.3,0.1l0.2,1.2C27.1,111.4,27.3,111.2,27.5,111.2z"/>
<path class="st1" d="M30.8,102.2C30.8,102.2,30.8,102.2,30.8,102.2c-0.1-0.1-0.2-0.2-0.3-0.2c-0.1,0-0.3,0-0.4,0c-0.1,0-0.2,0-0.4,0
	c0,0-0.1,0-0.1,0c-0.1,0-0.1,0.1-0.2,0.1c-0.1,0.1-0.1,0.2,0,0.3c0,0,0.1,0.1,0.1,0.1c0.1,0,0.1,0,0.2,0c0.1,0,0.2,0.1,0.4,0.1
	c0.1,0,0.2,0,0.4,0c0.1,0,0.1,0,0.2-0.1c0,0,0.1-0.1,0.1-0.1c0,0,0,0,0,0C30.9,102.4,30.9,102.3,30.8,102.2z"/>
<path class="st1" d="M33.1,103.2c-0.1,0-0.1,0-0.2,0c0,0-0.1-0.1-0.2-0.1c-0.1,0-0.1,0-0.2,0c-0.1,0-0.1,0-0.2,0c-0.1,0-0.1,0-0.2,0
	c-0.1,0-0.1,0-0.2,0c0,0,0,0-0.1,0c-0.1,0-0.2,0.1-0.3,0.2c-0.1,0.1,0,0.2,0.1,0.3c0,0,0.1,0.1,0.1,0.1c0.1,0.1,0.2,0.1,0.3,0.2
	c0.1,0,0.2,0.1,0.3,0.1c0,0,0.1,0,0.1,0c0.1,0,0.2,0,0.3-0.1c0.1,0,0.1-0.1,0.2-0.1c0.1-0.1,0.2-0.2,0.2-0.3
	C33.3,103.3,33.2,103.2,33.1,103.2z"/>
<path class="st1" d="M39.9,102c0-0.1,0-0.1-0.1-0.2c-0.1-0.1-0.2-0.2-0.3-0.2c0,0-0.1,0-0.1,0c0,0,0,0,0,0c-0.1,0-0.2,0-0.3,0.1
	c-0.1,0-0.2,0.1-0.3,0.2c-0.1,0.1-0.1,0.2-0.2,0.2c0,0.1-0.1,0.1-0.1,0.2c0,0.1,0,0.2,0,0.3c0,0,0,0.1,0,0.1c0,0.1,0.1,0.1,0.1,0.1
	c0,0,0.1,0,0.1,0.1c0.1,0,0.1,0,0.2,0c0,0,0,0,0,0c0.1,0,0.1,0,0.2,0c0,0,0,0,0.1,0c0,0,0,0,0,0c0.1,0,0.1-0.1,0.1-0.1
	c0,0,0,0,0-0.1c0,0,0.1-0.1,0.1-0.1c0,0,0.1-0.1,0.1-0.2c0,0,0-0.1,0.1-0.1c0,0,0-0.1,0.1-0.1c0,0,0,0,0-0.1c0,0,0,0,0,0
	C39.9,102.1,39.9,102.1,39.9,102z"/>
<path class="st1" d="M42.1,101.5C42.1,101.4,42.1,101.4,42.1,101.5c0-0.1,0-0.1-0.1-0.2c0,0,0,0,0,0c0,0,0,0-0.1,0c0,0-0.1,0-0.1,0
	c0,0,0,0-0.1,0c0,0,0,0,0,0c0,0,0,0,0,0c-0.1,0-0.1,0.1-0.2,0.1c0,0,0,0-0.1,0.1c0,0-0.1,0-0.1,0.1c0,0,0,0,0,0.1
	c0,0-0.1,0.1-0.1,0.1c0,0-0.1,0.1-0.1,0.1c0,0,0,0.1,0,0.1c0,0,0,0.1,0,0.1c0,0.1,0,0.2,0.1,0.2c0,0,0.1,0,0.1,0c0.1,0,0.1,0,0.2,0
	c0.1,0,0.2-0.1,0.2-0.1c0,0,0.1-0.1,0.1-0.1c0.1-0.1,0.1-0.2,0.2-0.3C42.1,101.7,42.1,101.6,42.1,101.5
	C42.1,101.5,42.1,101.5,42.1,101.5C42.1,101.5,42.1,101.5,42.1,101.5z"/>
<path class="st1" d="M44,99.3c0-0.1,0-0.1-0.1-0.1c-0.1-0.1-0.2-0.1-0.3-0.1c-0.1,0-0.2,0.1-0.3,0.1c0,0,0,0-0.1,0.1
	c0,0.1-0.1,0.1-0.1,0.2c0,0,0,0,0,0l0,0c0,0,0,0,0,0c0,0,0,0.1,0,0.1c0,0,0,0,0,0.1c0,0,0,0,0,0c0,0,0,0.1,0,0.1c0,0,0,0.1,0.1,0.1
	c0,0,0.1,0,0.1,0c0,0,0.1,0,0.1,0c0,0,0.1,0,0.1,0c0,0,0,0,0.1,0l0,0c0.1,0,0.1,0,0.2-0.1c0,0,0,0,0.1,0c0.1,0,0.1-0.1,0.1-0.1
	c0,0,0-0.1,0-0.1c0,0,0,0,0-0.1C44.1,99.4,44.1,99.3,44,99.3z"/>
<path class="st1" d="M30.1,95.8C30.1,95.8,30.1,95.8,30.1,95.8C30.1,95.8,30.1,95.8,30.1,95.8C30.1,95.8,30.1,95.8,30.1,95.8
	c0-0.1-0.1-0.2-0.1-0.2c-0.1-0.1-0.2-0.2-0.2-0.2l0.1,0.1c0,0,0,0,0,0c0,0-0.1-0.1-0.1-0.1c0,0-0.1,0-0.1-0.1c0,0-0.1,0-0.1-0.1
	c-0.1,0-0.2,0-0.2,0c-0.1,0-0.2,0-0.2,0.1c-0.1,0.1-0.1,0.1,0,0.2c0,0.1,0,0.1,0,0.1c0,0,0.1,0.1,0.1,0.1c0.1,0.1,0.1,0.1,0.2,0.2
	c0.1,0,0.2,0.1,0.3,0.1c0.1,0,0.1,0,0.2,0c0,0,0,0,0,0c0,0,0.1,0,0.1,0C30.1,96.1,30.2,95.9,30.1,95.8z"/>
<path class="st1" d="M31.9,97.2C31.9,97.2,31.9,97.2,31.9,97.2L31.9,97.2c-0.1-0.1-0.2-0.1-0.3-0.1c-0.1,0-0.1,0-0.2,0
	c-0.1,0-0.1,0-0.2,0c-0.1,0-0.1,0-0.2,0c0,0,0,0-0.1,0c0,0-0.1,0.1-0.1,0.1c0,0.1,0,0.1,0,0.2c0,0,0,0.1,0,0.1
	c0,0.1,0.1,0.2,0.2,0.2c0,0,0.1,0,0.1,0.1c0.1,0,0.1,0.1,0.2,0.1c0.1,0,0.1,0,0.2,0c0.1,0,0.1,0,0.2,0c0.1,0,0.1,0,0.2-0.1
	c0,0,0.1-0.1,0.1-0.1c0.1,0,0.1-0.1,0.1-0.2C32,97.3,32,97.2,31.9,97.2z"/>
<path class="st1" d="M38.2,95.1c-0.1,0-0.1,0-0.2-0.1c0,0,0,0,0,0c0,0-0.1,0-0.1,0c-0.1,0-0.1,0-0.2,0c-0.1,0-0.1,0-0.2,0.1
	c-0.1,0-0.2,0.1-0.3,0.1c-0.1,0.1-0.2,0.2-0.3,0.3c-0.1,0.1,0,0.2,0.1,0.2c0.1,0,0.1,0,0.2,0c0,0,0.1,0,0.1,0c0.1,0,0.1,0,0.2-0.1
	c0,0,0,0,0.1,0c0,0,0,0,0,0c0,0,0,0,0,0c0.1,0,0.2-0.1,0.3-0.1c0.1,0,0.2-0.1,0.2-0.2c0,0,0,0,0,0c0,0,0,0,0.1,0c0,0,0-0.1,0.1-0.1
	C38.3,95.2,38.2,95.1,38.2,95.1z"/>
<path class="st1" d="M40.4,95.3C40.4,95.3,40.4,95.3,40.4,95.3C40.4,95.2,40.4,95.2,40.4,95.3c0-0.1-0.1-0.2-0.1-0.2c0,0,0,0,0,0
	c0,0,0,0,0,0c0,0,0,0,0,0c0,0,0,0,0,0c0,0,0,0,0,0c0,0,0,0,0,0c0,0-0.1,0-0.1,0c0,0-0.1,0-0.1,0c-0.1,0-0.1,0.1-0.2,0.1
	c-0.1,0-0.1,0.1-0.2,0.1c0,0-0.1,0-0.1,0c0,0,0,0-0.1,0c-0.1,0-0.1,0.1-0.2,0.2c0,0,0,0,0,0c-0.1,0.1,0,0.2,0,0.3
	c0,0,0.1,0.1,0.1,0.1c0.1,0,0.2,0.1,0.2,0.1c0.1,0,0.1,0,0.2,0c0.1,0,0.1,0,0.2-0.1c0.1,0,0.1-0.1,0.2-0.1c0,0,0.1,0,0.1-0.1
	c0.1-0.1,0.1-0.1,0.1-0.2c0,0,0,0,0,0C40.5,95.4,40.5,95.3,40.4,95.3z"/>
<path class="st1" d="M42.1,93.4c0-0.1-0.1-0.1-0.2-0.1c0,0-0.1,0-0.1,0c0,0,0,0,0,0c-0.1,0-0.1,0-0.2,0c0,0-0.1,0-0.1,0.1
	c0,0,0,0-0.1,0c0,0-0.1,0.1-0.1,0.1c0,0-0.1,0.1-0.1,0.1c0,0,0,0,0.1,0c0,0-0.1,0.1-0.1,0.1c0,0,0,0.1,0,0.1c0,0,0,0.1,0,0.2
	c0,0,0,0,0,0c0,0,0.1,0,0.1,0.1c0,0,0,0,0,0c0.1,0,0.1,0,0.2,0c0,0,0.1,0,0.1,0c0,0,0,0,0,0c0.1,0,0.1-0.1,0.2-0.1
	c0,0,0.1-0.1,0.1-0.1c0.1-0.1,0.1-0.1,0.1-0.2C42.1,93.5,42.1,93.5,42.1,93.4z"/>
<path class="st1" d="M30.2,88.7C30.2,88.7,30.2,88.7,30.2,88.7c-0.1-0.1-0.1-0.1-0.1-0.1c0,0-0.1-0.1-0.2-0.1c0,0-0.1,0-0.1-0.1
	c-0.1,0-0.1-0.1-0.2-0.1c-0.1,0-0.1,0-0.2-0.1c-0.1,0-0.1,0-0.2,0c-0.1,0-0.1,0.1-0.1,0.2c0,0,0,0,0,0c0,0.1,0,0.1,0,0.1
	c0,0.1,0.1,0.1,0.1,0.1c0.1,0.1,0.1,0.1,0.2,0.2c0,0,0.1,0.1,0.1,0.1c0,0,0.1,0.1,0.2,0.1c0,0,0.1,0.1,0.2,0.1c0.1,0,0.1,0,0.2,0
	c0.1,0,0.1-0.1,0.1-0.2C30.2,88.8,30.2,88.8,30.2,88.7z"/>
<path class="st1" d="M31.3,90.8c-0.1-0.1-0.2-0.1-0.3-0.1c-0.1,0-0.1,0-0.2,0l-0.1,0c0,0-0.1,0-0.1,0c0,0-0.1,0-0.1,0
	c-0.1,0-0.1,0-0.2,0c-0.2,0-0.2,0.2-0.1,0.4c0.1,0.1,0.1,0.1,0.2,0.1c0.1,0,0.2,0.1,0.2,0.1c0.1,0,0.1,0,0.2,0.1c0.1,0,0.2,0,0.3,0
	c0.1,0,0.2-0.1,0.2-0.2C31.4,91,31.4,90.9,31.3,90.8z"/>
<path class="st1" d="M32.6,90.5C32.6,90.5,32.6,90.5,32.6,90.5C32.6,90.5,32.6,90.5,32.6,90.5C32.6,90.5,32.6,90.5,32.6,90.5z"/>
<path class="st1" d="M32.8,90.8C32.8,90.8,32.8,90.8,32.8,90.8C32.8,90.8,32.7,90.8,32.8,90.8C32.7,90.8,32.7,90.8,32.8,90.8
	C32.8,90.8,32.8,90.8,32.8,90.8c0-0.1,0-0.1,0-0.1c0,0,0,0,0,0c0,0,0,0,0,0c0,0,0-0.1-0.1-0.1c0,0,0,0,0,0c0,0,0,0,0,0c0,0,0,0,0,0
	c0,0,0,0,0,0c0,0,0,0,0,0c0,0,0,0,0,0c0,0-0.1-0.1-0.1-0.1c0,0-0.1,0-0.1,0c0,0-0.1,0.1-0.1,0.1c0,0,0,0.1,0,0.1c0,0,0,0,0,0
	c0,0,0,0,0,0c0,0,0,0,0,0c0,0,0,0.1,0,0.1c0,0,0,0.1,0,0.1c0,0,0,0,0,0c0,0,0,0,0,0c0,0,0,0,0,0c0,0,0,0.1,0.1,0.1
	c0,0,0.1,0.1,0.1,0.1c0,0,0.1,0,0.1,0c0,0,0.1,0,0.1,0C32.8,91,32.8,90.9,32.8,90.8z"/>
<path class="st1" d="M39.8,89.4c0,0-0.1-0.1-0.1-0.1c-0.1-0.1-0.2-0.1-0.3-0.1c-0.1,0-0.1,0-0.2,0c-0.1,0-0.1,0-0.2,0
	c-0.1,0-0.1,0-0.2,0.1c-0.1,0-0.2,0.1-0.3,0.1c-0.1,0.1-0.2,0.2-0.1,0.4c0.1,0.1,0.2,0.2,0.3,0.2c0.1,0,0.2-0.1,0.3-0.1
	c0,0-0.1,0-0.1,0c0,0,0.1,0,0.1,0c0,0,0.1,0,0.1,0c0,0,0.1,0,0.1,0c0,0,0,0,0.1,0c0.1,0,0.1,0,0.1-0.1c0,0,0,0,0,0
	c0.1,0,0.1,0,0.1-0.1C39.9,89.5,39.9,89.4,39.8,89.4z"/>
<path class="st1" d="M41.7,89.5c-0.1,0-0.1,0-0.2,0c0,0-0.1,0-0.1,0c0,0-0.1,0-0.1,0c0,0-0.1,0-0.1,0c0,0-0.1,0-0.1,0.1
	c-0.1,0-0.2,0.1-0.3,0.2c-0.1,0.1-0.1,0.1-0.1,0.2c0,0.1,0,0.2,0.1,0.3c0,0,0,0,0,0c0.1,0,0.1,0,0.2,0c0,0,0.1,0,0.1,0
	c0.1,0,0.2-0.1,0.3-0.1l0.1-0.1c0.1,0,0.1-0.1,0.1-0.1c0,0,0.1-0.1,0.1-0.1c0,0,0-0.1,0.1-0.1C41.8,89.7,41.8,89.6,41.7,89.5z"/>
<path class="st1" d="M43.7,88.3c-0.1,0-0.1,0-0.2-0.1c0,0,0,0-0.1,0c0,0-0.1,0-0.2,0c-0.1,0-0.1,0-0.2,0c0,0-0.1,0-0.1,0
	c-0.1,0-0.2,0.1-0.2,0.2c0,0.1,0,0.2,0.1,0.3c0,0,0.1,0,0.1,0.1c0.1,0,0.1,0.1,0.2,0.1c0,0,0.1,0,0.1,0c0.1,0,0.1,0,0.2,0
	c0.1,0,0.1,0,0.1-0.1c0,0,0,0,0.1,0c0,0,0.1,0,0.1-0.1c0,0,0.1-0.1,0.1-0.1c0,0,0-0.1,0-0.1C43.8,88.5,43.8,88.4,43.7,88.3z"/>
<path class="st1" d="M32.7,83.5C32.7,83.4,32.7,83.4,32.7,83.5c0-0.1,0-0.1,0-0.1c0,0,0-0.1-0.1-0.1c0,0-0.1-0.1-0.1-0.1l0,0.1
	c0,0,0-0.1-0.1-0.1c0,0,0,0,0,0c0,0,0,0-0.1-0.1c0,0,0,0,0,0c0,0-0.1-0.1-0.1-0.1c0,0,0,0,0,0c0,0,0,0,0,0c0,0-0.1,0-0.1-0.1
	c-0.1,0-0.2,0-0.2,0.1c0,0,0,0,0,0l0,0c0,0,0,0.1,0,0.1c0,0,0,0.1,0,0.1c0,0,0,0,0,0c0,0.1,0,0.1,0.1,0.2c0,0.1,0.1,0.1,0.2,0.2
	c0,0,0,0,0.1,0.1c0.1,0,0.1,0.1,0.1,0.1c0,0,0,0,0,0c0,0,0.1,0,0.1,0c0,0,0,0,0,0C32.6,83.7,32.7,83.6,32.7,83.5l-0.1,0.1
	c0,0,0,0,0,0C32.8,83.6,32.8,83.5,32.7,83.5z"/>
<path class="st1" d="M31.9,83C31.9,83,31.9,83,31.9,83C31.9,82.9,31.9,82.9,31.9,83C31.9,82.9,31.9,83,31.9,83z"/>
<path class="st1" d="M33.5,84.9C33.5,84.9,33.5,84.9,33.5,84.9c-0.1-0.1-0.1-0.1-0.2-0.1c0,0-0.1,0-0.1,0c-0.1,0-0.1,0-0.2-0.1
	c0,0-0.1,0-0.1,0c-0.1,0-0.1,0-0.1,0c-0.1,0-0.1,0.1-0.1,0.1c0,0,0,0,0,0c0,0,0,0.1,0,0.1c0,0.1,0.1,0.1,0.1,0.2
	c0.1,0,0.1,0.1,0.2,0.1c0.1,0,0.1,0,0.2,0c0.1,0,0.1,0,0.2,0c0,0,0.1,0,0.1-0.1c0,0,0-0.1,0.1-0.1C33.5,85,33.5,84.9,33.5,84.9z"/>
<path class="st1" d="M32.8,84.7C32.8,84.7,32.8,84.7,32.8,84.7C32.8,84.7,32.8,84.7,32.8,84.7C32.8,84.7,32.8,84.7,32.8,84.7z"/>
<path class="st1" d="M32.8,84.7C32.8,84.7,32.8,84.7,32.8,84.7C32.8,84.7,32.8,84.7,32.8,84.7C32.8,84.7,32.8,84.7,32.8,84.7z"/>
<path class="st1" d="M35.4,84.8C35.4,84.8,35.4,84.8,35.4,84.8c0-0.1,0-0.1-0.1-0.1c0,0-0.1-0.1-0.1-0.1c0,0,0,0-0.1,0c0,0,0,0,0,0
	c0,0-0.1,0-0.1,0c0,0,0,0,0,0c0,0,0,0,0,0c0,0-0.1,0-0.1,0c0,0-0.1,0-0.1,0c0,0-0.1,0-0.1,0c0,0-0.1,0.1-0.1,0.1l0,0.1
	c0,0,0,0.1,0,0.1c0,0,0,0.1,0,0.1c0,0,0,0.1,0.1,0.1c0,0,0,0,0,0c0.1,0.1,0.2,0.1,0.3,0.1c0.1,0,0.1,0,0.2,0c0.1,0,0.2-0.1,0.2-0.2
	C35.4,84.9,35.4,84.9,35.4,84.8C35.4,84.8,35.4,84.8,35.4,84.8z"/>
<path class="st1" d="M35.4,84.8C35.4,84.8,35.4,84.8,35.4,84.8C35.4,84.8,35.4,84.8,35.4,84.8z"/>
<path class="st1" d="M35.4,84.8C35.4,84.8,35.4,84.8,35.4,84.8C35.4,84.8,35.4,84.8,35.4,84.8z"/>
<path class="st1" d="M41.5,81.7C41.4,81.7,41.4,81.7,41.5,81.7c-0.1-0.1-0.2-0.1-0.2-0.2c0,0-0.1,0-0.2,0c0,0-0.1,0-0.1,0
	c-0.1,0-0.2,0-0.3,0.1c-0.2,0.1-0.4,0.2-0.4,0.4c0,0.1,0,0.2,0.1,0.2c0.1,0,0.1,0.1,0.2,0.1c0,0,0.1,0,0.1,0c0.1,0,0.2,0,0.3,0
	c0,0,0,0,0,0c0,0,0.1,0,0.1,0c0.1,0,0.1,0,0.2-0.1c0,0,0.1,0,0.1-0.1c0,0,0,0,0.1-0.1C41.5,81.9,41.5,81.8,41.5,81.7z"/>
<path class="st1" d="M43.6,82.3c0-0.1-0.1-0.1-0.1-0.1c-0.1,0-0.1-0.1-0.2,0c0,0-0.1,0-0.1,0c-0.1,0-0.1,0-0.1,0c0,0,0,0,0,0
	c0,0-0.1,0-0.1,0c-0.1,0-0.1,0-0.2,0.1c0,0,0,0-0.1,0.1c-0.1,0.1-0.1,0.1-0.2,0.2c0,0,0,0.1,0,0.1c0,0,0,0,0,0.1
	c0,0.1,0.1,0.1,0.1,0.2c0,0,0.1,0,0.1,0c0.1,0,0.1,0,0.2,0c0.1,0,0.1,0,0.2,0c0.1,0,0.2,0,0.3-0.1c0,0,0.1-0.1,0.1-0.1
	c0.1-0.1,0.1-0.1,0.1-0.2C43.6,82.4,43.6,82.4,43.6,82.3z"/>
<path class="st1" d="M44.7,81.4C44.7,81.3,44.7,81.3,44.7,81.4c0-0.1,0-0.1,0-0.1l0,0c0,0,0,0,0,0c0,0,0,0,0,0c0,0,0,0,0,0
	c0,0-0.1-0.1-0.1-0.1c0,0,0,0,0,0c0,0,0,0,0,0c0,0-0.1,0-0.1,0c0,0-0.1,0-0.1,0c-0.1,0-0.1,0-0.2,0c0,0,0,0,0,0l-0.1,0
	c0,0-0.1,0-0.1,0.1c0,0,0,0,0,0c0,0,0,0-0.1,0c-0.1,0.1-0.1,0.2-0.1,0.3c0,0.1,0,0.1,0.1,0.1c0,0,0.1,0.1,0.1,0.1c0,0,0,0,0.1,0
	c0.1,0,0.1,0,0.2,0c0,0,0.1,0,0.1,0c0,0,0,0,0.1,0c0,0,0.1,0,0.1-0.1c0,0,0,0,0.1-0.1c0,0,0-0.1,0-0.1
	C44.7,81.4,44.7,81.4,44.7,81.4C44.7,81.4,44.7,81.4,44.7,81.4z"/>
<path class="st1" d="M32.9,77.6C32.9,77.6,32.9,77.6,32.9,77.6c-0.1-0.1-0.1-0.1-0.2-0.1c0,0,0,0-0.1,0c0,0-0.1,0-0.1,0
	c0,0-0.1,0-0.1,0c-0.1,0-0.1,0-0.2,0c0,0-0.1,0-0.1,0c-0.1,0-0.1,0.1-0.1,0.2c0,0.1,0,0.1,0.1,0.2c0,0,0.1,0.1,0.1,0.1
	c0,0,0.1,0,0.1,0c0,0,0.1,0,0.1,0c0,0,0.1,0,0.1,0c0,0,0,0,0.1,0c0,0,0,0,0.1,0c0,0,0.1,0,0.1,0c0,0,0,0,0,0c0.1,0,0.1-0.1,0.1-0.1
	C33,77.7,33,77.6,32.9,77.6z"/>
<path class="st1" d="M34.6,78.6C34.6,78.6,34.6,78.6,34.6,78.6c-0.1,0-0.1,0-0.1,0c0,0,0,0-0.1,0c0,0-0.1,0-0.1,0c0,0-0.1,0-0.1,0
	c0,0,0,0-0.1,0c0,0,0,0-0.1,0c-0.1,0-0.1,0-0.2,0c0,0-0.1,0-0.1,0.1c-0.1,0-0.1,0.1-0.1,0.2c0,0,0,0,0,0c0,0.1,0,0.1,0.1,0.1
	c0.1,0.1,0.2,0.1,0.2,0.1c0.1,0,0.1,0,0.2,0c0,0,0.1,0,0.1,0c0.1,0,0.1,0,0.1-0.1c0,0,0,0,0,0c0.1,0,0.1-0.1,0.1-0.1c0,0,0,0,0-0.1
	C34.7,78.8,34.7,78.7,34.6,78.6z"/>
<path class="st1" d="M40.2,77.3c-0.1,0-0.1,0-0.2,0c0,0-0.1,0-0.1,0c0,0-0.1,0-0.1,0c-0.1,0-0.1,0-0.2,0.1c0,0-0.1,0-0.1,0
	c0,0,0,0-0.1,0c0,0,0,0-0.1,0l0,0c0,0-0.1,0.1-0.1,0.1c0,0,0,0.1,0,0.2c0.1,0.1,0.1,0.1,0.2,0.1c0,0,0.1,0,0.1,0c0,0,0.1,0,0.1,0
	c0.1,0,0.1,0,0.2-0.1c0,0,0,0,0.1,0c0,0,0.1-0.1,0.1-0.1c0,0,0.1-0.1,0.1-0.1C40.3,77.4,40.3,77.3,40.2,77.3z"/>
<path class="st1" d="M42.1,77.5C42.1,77.4,42,77.4,42.1,77.5c-0.1-0.1-0.1-0.2-0.2-0.2c-0.1,0-0.1,0-0.2,0c0,0,0,0,0,0
	c0,0-0.1,0-0.1,0.1c0,0-0.1,0.1-0.1,0.1c0,0,0,0,0,0c0,0,0,0-0.1,0c0,0,0,0,0,0c-0.1,0-0.1,0.1-0.1,0.1c0,0,0,0,0,0
	c-0.1,0.1-0.1,0.2,0,0.3c0,0,0,0,0,0c0.1,0.1,0.1,0.1,0.2,0.1c0.1,0,0.2,0,0.3,0c0.1,0,0.1-0.1,0.2-0.1c0.1,0,0.1-0.1,0.2-0.2
	c0,0,0,0,0,0c0,0,0,0,0,0c0,0,0-0.1,0-0.1C42.1,77.6,42.1,77.5,42.1,77.5C42.1,77.5,42.1,77.5,42.1,77.5z"/>
<path class="st1" d="M43.2,76C43.2,76,43.1,76,43.2,76c-0.1,0-0.1,0-0.2,0c0,0-0.1,0-0.1,0c0,0,0,0,0,0c0,0-0.1,0-0.1,0c0,0,0,0,0,0
	c0,0-0.1,0-0.1,0c-0.1,0-0.1,0.1-0.2,0.1c-0.1,0-0.1,0.1-0.1,0.2c0,0.1,0.1,0.2,0.2,0.2c0,0,0.1,0,0.1,0c0.1,0,0.1,0,0.2,0
	c0.1,0,0.2-0.1,0.3-0.1c0.1,0,0.2-0.1,0.2-0.2c0,0,0-0.1,0.1-0.1c0,0,0-0.1,0-0.1C43.3,76.1,43.3,76,43.2,76z"/>
<path class="st1" d="M32.8,73C32.8,73,32.7,72.9,32.8,73c0-0.1,0-0.1,0-0.1c0,0,0,0-0.1-0.1c0,0,0,0,0,0c-0.1-0.1-0.3-0.2-0.5-0.2
	c-0.1,0-0.1,0-0.2,0c0,0-0.1,0-0.1,0.1c-0.1,0-0.1,0.1-0.1,0.2c0,0.1,0,0.2,0,0.2c0,0,0,0,0.1,0.1c0.1,0,0.1,0,0.2,0c0,0,0,0,0.1,0
	c0,0,0.1,0,0.1,0c0.1,0,0.2,0,0.3,0c0,0,0,0-0.1,0c0.1,0,0.1,0,0.2,0c0,0,0,0,0,0c0,0,0,0,0,0c0,0,0.1,0,0.1,0c0,0,0,0,0,0
	c0,0,0,0,0,0h0C32.7,73.1,32.8,73.1,32.8,73z"/>
<path class="st1" d="M34,74c0,0-0.1-0.1-0.2-0.1l0.1,0c0,0-0.1,0-0.1,0c0,0-0.1,0-0.1,0c0,0,0,0-0.1,0c-0.1,0-0.1,0-0.2,0
	c-0.1,0-0.1,0-0.2,0c-0.1,0-0.1,0-0.1,0.1c0,0,0,0,0,0c-0.1,0.1-0.1,0.2,0,0.2c0,0.1,0.1,0.1,0.1,0.1c0.1,0,0.1,0.1,0.2,0.1
	c0.1,0,0.2,0,0.3,0c0.1,0,0.1,0,0.2-0.1c0,0,0.1-0.1,0.1-0.1c0,0,0.1-0.1,0.1-0.2C34,74.1,34,74,34,74z"/>
<path class="st1" d="M35.3,73.5C35.3,73.5,35.3,73.5,35.3,73.5L35.3,73.5C35.3,73.4,35.3,73.4,35.3,73.5c-0.1-0.1-0.2-0.2-0.2-0.2
	c0,0,0,0-0.1,0c0,0-0.1,0-0.1,0c0,0,0,0,0.1,0c0,0-0.1,0-0.1,0c0,0,0,0-0.1,0c-0.1,0-0.1,0-0.1,0c0,0-0.1,0-0.1,0.1c0,0,0,0,0,0
	c0,0,0,0,0,0c-0.1,0-0.1,0.1-0.1,0.2c0,0.1,0,0.2,0.1,0.2c0.1,0,0.1,0.1,0.2,0.1c0.1,0,0.2,0,0.2,0c0,0,0.1,0,0.1,0c0,0,0.1,0,0.1,0
	c0,0,0,0,0.1-0.1c0,0,0,0,0,0C35.3,73.7,35.3,73.5,35.3,73.5z"/>
<path class="st1" d="M38.4,71.6c0,0-0.1,0-0.1-0.1c0,0,0,0,0,0c0,0-0.1,0-0.1,0c0,0,0,0-0.1,0c-0.1,0-0.1,0-0.2,0c0,0-0.1,0-0.1,0
	c-0.1,0-0.2,0.1-0.2,0.1c0,0,0,0,0,0.1c0,0,0,0,0,0.1c0,0.1,0,0.1,0,0.2c0,0,0,0.1,0.1,0.1c0,0,0.1,0,0.2,0.1c0.1,0,0.1,0,0.2,0
	c0,0,0.1,0,0.1,0c0.1,0,0.1,0,0.2-0.1c0,0,0,0,0.1,0c0,0,0.1-0.1,0.1-0.1c0,0,0.1-0.1,0.1-0.1C38.5,71.7,38.5,71.6,38.4,71.6z"/>
<path class="st1" d="M40.3,71.7c0-0.1,0-0.1-0.1-0.1c0,0,0,0,0,0c0,0-0.1,0-0.1,0c0,0,0,0,0,0c0,0-0.1,0-0.1,0
	c-0.1,0-0.1,0.1-0.2,0.1c0,0-0.1,0-0.1,0.1c0,0-0.1,0-0.1,0.1c-0.1,0-0.1,0.1-0.1,0.2c0,0.1,0.1,0.1,0.2,0.1c0.1,0,0.2,0,0.2,0
	c0.1,0,0.1,0,0.2-0.1c0,0,0.1,0,0.1,0c0,0,0,0,0,0c0,0,0.1-0.1,0.1-0.1C40.2,71.9,40.3,71.9,40.3,71.7
	C40.3,71.8,40.3,71.8,40.3,71.7z"/>
<path class="st1" d="M41.2,70.8C41.2,70.7,41.2,70.7,41.2,70.8c-0.1-0.1-0.1-0.1-0.2-0.1c0,0-0.1,0-0.1,0c0,0,0,0-0.1,0c0,0,0,0,0,0
	c-0.1,0-0.1,0-0.2,0c0,0,0,0-0.1,0c-0.1,0-0.1,0.1-0.1,0.1c0,0,0,0.1-0.1,0.1c-0.1,0.1,0,0.3,0.1,0.3c0,0,0.1,0,0.1,0
	c0.1,0,0.1,0,0.2,0c0,0,0,0,0.1,0c0.1,0,0.1,0,0.1-0.1c0,0,0,0,0,0c0,0,0,0,0,0c0,0,0-0.1,0.1-0.1c0,0,0-0.1,0-0.1L41.2,70.8
	C41.2,70.8,41.2,70.8,41.2,70.8z"/>
<path class="st1" d="M32.3,66.6C32.3,66.6,32.3,66.6,32.3,66.6c-0.1-0.1-0.1-0.1-0.1-0.1c0,0,0,0,0-0.1c0,0-0.1-0.1-0.1-0.1
	c0,0,0,0,0,0c0,0-0.1,0-0.1-0.1c-0.1,0-0.1,0-0.2,0c0,0-0.1,0-0.1,0.1c0,0,0,0.1,0,0.1c0,0,0,0.1,0,0.1c0,0.1,0,0.1,0,0.2
	c0,0,0,0,0,0.1l0.1,0.1c0,0,0,0,0,0c0,0.1,0.1,0.1,0.2,0.1c0.1,0,0.1,0,0.2,0c0.1,0,0.1-0.1,0.1-0.1c0,0,0,0,0-0.1
	C32.4,66.7,32.4,66.7,32.3,66.6z"/>
<path class="st1" d="M33.1,68C33.1,68,33.1,68,33.1,68C33,68,33,68,32.9,67.9c0,0-0.1,0-0.1,0c0,0,0,0-0.1,0c-0.1,0-0.1,0-0.2,0
	c0,0,0,0,0,0c0,0,0,0,0,0c0,0-0.1,0-0.1,0c0,0,0,0,0,0c0,0-0.1,0-0.1,0c0,0,0,0,0,0c0,0-0.1,0-0.1,0.1c0,0,0,0,0,0c0,0,0,0,0,0
	c0,0,0,0.1,0,0.1c0,0,0,0.1,0.1,0.1c0.1,0,0.1,0.1,0.2,0.1c0,0,0.1,0,0.1,0c0.1,0,0.2,0,0.3,0c0.1,0,0.1,0,0.2-0.1
	c0,0,0.1-0.1,0.1-0.1C33.2,68.1,33.2,68.1,33.1,68z"/>
<path class="st1" d="M34.6,67.9c0-0.1,0-0.1-0.1-0.1c0,0-0.1,0-0.1-0.1c0,0-0.1,0-0.1-0.1c0,0,0,0,0,0c0,0-0.1,0-0.1-0.1
	c0,0,0,0,0,0c0,0-0.1,0-0.1-0.1c0,0,0,0-0.1,0c0,0-0.1,0-0.1,0c-0.1,0-0.1,0-0.1,0.1c0,0,0,0.1-0.1,0.1c0,0.1,0,0.1,0,0.2
	c0,0,0,0.1,0.1,0.1c0,0,0,0,0,0c0,0,0,0.1,0.1,0.1c0,0,0.1,0,0.1,0.1c0,0,0.1,0,0.1,0.1c0,0,0,0,0,0c0,0,0,0,0,0c0.1,0,0.1,0,0.2,0
	c0.1,0,0.2-0.1,0.3-0.2C34.7,68,34.7,68,34.6,67.9z"/>
<path class="st1" d="M39.1,66c0,0-0.1,0-0.2,0c0,0-0.1,0-0.1,0c0,0-0.1,0-0.1,0c-0.1,0-0.1,0-0.2,0c-0.1,0-0.1,0-0.2,0
	c0,0,0,0-0.1,0c-0.1,0-0.1,0.1-0.1,0.1c0,0,0,0.1,0.1,0.1c0,0,0,0,0.1,0.1c0,0,0,0,0.1,0.1c0,0,0.1,0,0.1,0c0.1,0,0.1,0,0.2,0
	c0,0,0.1,0,0.1,0c0,0,0.1,0,0.1,0c0,0,0,0,0.1,0c0.1,0,0.2-0.1,0.2-0.2C39.2,66.1,39.1,66.1,39.1,66z"/>
<path class="st1" d="M40.9,66.5C40.9,66.5,40.9,66.4,40.9,66.5C40.9,66.5,40.9,66.5,40.9,66.5C40.9,66.5,40.9,66.4,40.9,66.5
	c0-0.1-0.1-0.2-0.1-0.2c0,0,0,0,0,0c0,0-0.1,0-0.2,0c0,0,0,0,0,0c-0.1,0-0.2,0.1-0.3,0.1c0,0-0.1,0-0.1,0c0,0-0.1,0-0.1,0
	c0,0-0.1,0.1-0.1,0.1c-0.1,0.1-0.1,0.1-0.1,0.2c0,0.1,0.1,0.2,0.1,0.2c0.1,0,0.1,0.1,0.2,0.1c0,0,0.1,0,0.1,0c0.1,0,0.1,0,0.1,0
	c0.1,0,0.2-0.1,0.3-0.1c0,0,0,0,0.1,0c0,0,0.1-0.1,0.1-0.1C40.9,66.7,40.9,66.6,40.9,66.5C40.9,66.6,40.9,66.5,40.9,66.5z"/>
<path class="st1" d="M41.9,65.6C41.9,65.6,41.8,65.5,41.9,65.6c-0.1-0.1-0.1-0.2-0.2-0.2c0,0,0,0,0,0c0,0-0.1,0-0.1,0
	c0,0-0.1,0-0.1,0c0,0,0,0,0,0c0,0-0.1,0-0.1,0.1c-0.1,0-0.1,0.1-0.2,0.2c0,0,0,0.1-0.1,0.1c0,0.1,0,0.2,0.1,0.2c0,0,0.1,0,0.1,0.1
	c0,0,0,0,0,0c0.1,0,0.1,0,0.2,0c0,0,0.1,0,0.1,0c0,0,0.1,0,0.1,0c0.1,0,0.1,0,0.1-0.1c0,0,0.1-0.1,0.1-0.1c0,0,0,0,0,0c0,0,0,0,0,0
	c0,0,0-0.1,0-0.2C41.9,65.7,41.9,65.6,41.9,65.6z"/>
<path class="st1" d="M34.3,62C34.3,62,34.3,62,34.3,62C34.3,62,34.3,62,34.3,62C34.3,62,34.3,62,34.3,62z"/>
<path class="st1" d="M34.3,62C34.3,62,34.3,62,34.3,62C34.3,62,34.3,62,34.3,62z"/>
<path class="st1" d="M35.1,62.4C35.1,62.3,35.1,62.3,35.1,62.4c0-0.1-0.1-0.1-0.1-0.1c0,0,0,0,0,0c0,0-0.1-0.1-0.1-0.1
	c0,0,0,0-0.1,0c0,0-0.1,0-0.1,0c-0.1,0-0.1-0.1-0.2-0.1c0,0,0,0,0,0c-0.1,0-0.1,0-0.2,0c0,0-0.1,0-0.1,0.1c0,0.1,0,0.2,0,0.2
	c0,0,0,0.1,0.1,0.1c0,0,0.1,0,0.1,0.1c0,0,0,0,0.1,0.1c0.1,0,0.1,0.1,0.2,0.1c0,0,0.1,0,0.1,0c0,0,0.1,0,0.1,0c0,0,0.1,0,0.1,0
	c0.1,0,0.1,0,0.2-0.1c0,0,0,0,0,0C35.2,62.5,35.2,62.4,35.1,62.4z"/>
<path class="st1" d="M34.3,62C34.3,62,34.3,62,34.3,62C34.3,62,34.3,62,34.3,62z"/>
<path class="st1" d="M35.7,63.3C35.7,63.3,35.7,63.3,35.7,63.3C35.7,63.3,35.7,63.3,35.7,63.3C35.7,63.3,35.7,63.3,35.7,63.3z"/>
<path class="st1" d="M35.9,63.5c0-0.1,0-0.1-0.1-0.2c-0.1,0-0.1,0-0.2,0c0,0,0,0-0.1,0c0,0,0,0-0.1,0c0,0,0,0,0,0c0,0,0,0,0,0l0,0
	c0,0,0,0,0,0c0,0,0,0,0,0c0,0,0,0,0,0c0,0,0,0,0,0c0,0-0.1,0-0.1,0c0,0,0,0,0,0l0,0c0,0,0,0,0,0c0,0,0,0-0.1,0c0,0,0,0-0.1,0
	c0,0-0.1,0.1-0.1,0.1c0,0,0,0.1,0,0.1c0,0.1,0,0.2,0.1,0.2c0.1,0.1,0.1,0.1,0.2,0.1c0.1,0,0.2,0,0.3,0c0,0,0.1-0.1,0.1-0.1
	c0,0,0,0,0.1-0.1C35.9,63.6,36,63.5,35.9,63.5z"/>
<path class="st1" d="M35.7,63.3C35.7,63.3,35.7,63.3,35.7,63.3L35.7,63.3C35.7,63.3,35.7,63.3,35.7,63.3z"/>
<path class="st1" d="M35.7,63.3C35.7,63.3,35.7,63.3,35.7,63.3C35.7,63.3,35.7,63.3,35.7,63.3C35.7,63.3,35.7,63.3,35.7,63.3z"/>
<path class="st1" d="M37.9,59c0-0.1,0-0.1-0.1-0.2c0,0-0.1-0.1-0.1-0.1c0,0,0,0-0.1,0c0,0-0.1,0-0.1,0c0,0-0.1,0-0.2,0
	c0,0-0.1,0-0.1,0.1c0,0,0,0.1,0.1,0.1c0,0,0,0,0,0c0,0,0,0,0,0c0,0,0,0,0,0c0,0,0,0,0,0c0,0,0,0,0,0c0,0,0.1,0,0.1,0.1
	c0,0,0.1,0.1,0.1,0.1c0,0,0,0,0,0c0.1,0,0.1,0,0.2,0C37.9,59.1,37.9,59.1,37.9,59z"/>
<path class="st1" d="M38,60C38,60,38,60,38,60C38,60,38,60,38,60C38,60,38,60,38,60z"/>
<path class="st1" d="M38.7,60.1C38.7,60.1,38.7,60,38.7,60.1c0-0.1-0.1-0.1-0.1-0.2c0,0-0.1,0-0.1,0c0,0,0,0,0.1,0
	c0,0-0.1,0-0.1-0.1c0,0,0,0,0.1,0c0,0,0,0-0.1-0.1c0,0,0,0,0,0c0,0,0,0-0.1,0c-0.1,0-0.1,0-0.2,0c0,0,0,0-0.1,0c0,0-0.1,0-0.1,0
	c0,0,0,0.1,0,0.1c0,0,0,0.1,0,0.1c0,0.1,0,0.1,0.1,0.2c0,0,0,0,0,0c0,0,0.1,0,0.1,0.1c0,0,0,0,0,0c0.1,0,0.1,0,0.2,0
	c0,0,0.1,0,0.1,0c0,0,0.1,0,0.1,0C38.6,60.3,38.7,60.2,38.7,60.1C38.7,60.1,38.7,60.1,38.7,60.1z"/>
<path class="st1" d="M40.9,61.7C40.8,61.6,40.8,61.6,40.9,61.7c-0.1-0.1-0.2-0.1-0.3-0.1c0,0-0.1,0-0.1,0c-0.1,0-0.1,0-0.2,0
	c-0.1,0-0.2,0-0.3,0c-0.1,0-0.2,0.1-0.3,0.1c-0.1,0.1-0.1,0.3,0,0.3c0.1,0,0.2,0.1,0.3,0.1c0.1,0,0.2,0,0.3,0c0.1,0,0.1,0,0.2,0
	l0.1,0c0.1,0,0.1,0,0.2-0.1c0,0,0-0.1,0.1-0.1C40.9,61.8,40.9,61.7,40.9,61.7z"/>
<path class="st1" d="M41.9,61.9C41.9,61.9,41.9,61.9,41.9,61.9c0-0.1-0.1-0.1-0.1-0.2c0,0,0,0,0,0c0,0,0,0,0,0c0,0-0.1,0-0.1,0
	c0,0-0.1,0-0.1,0c0,0-0.1,0-0.1,0c0,0,0,0-0.1,0c0,0,0,0-0.1,0c0,0,0,0,0,0c0,0,0,0,0,0c0,0,0,0,0,0c0,0,0,0,0,0c0,0,0,0.1,0,0.1
	c0,0,0,0.1,0,0.1c0,0.1,0.1,0.1,0.1,0.1c0,0,0,0,0.1,0c0,0,0.1,0,0.1,0c0,0,0,0,0,0c0,0,0,0,0,0c0,0,0,0,0.1,0c0,0,0,0,0.1,0
	c0,0,0.1,0,0.1,0c0,0,0,0,0,0c0,0,0,0,0.1,0c0,0,0,0,0.1-0.1C41.9,62,41.9,62,41.9,61.9C41.9,62,41.9,62,41.9,61.9
	C41.9,62,41.9,62,41.9,61.9C41.9,61.9,41.9,61.9,41.9,61.9z"/>
<path class="st1" d="M41.4,57.7L41.4,57.7C41.3,57.6,41.3,57.6,41.4,57.7c0-0.1,0-0.2-0.1-0.2c0,0,0-0.1,0-0.1c0,0,0,0,0,0
	c0,0,0,0-0.1,0c0,0,0,0-0.1,0c0,0-0.1,0-0.1,0c0,0,0,0,0,0c-0.1,0-0.1,0.1-0.2,0.1c0,0,0,0.1,0,0.1c0,0,0,0,0,0c0,0,0,0,0,0
	c0,0,0,0.1,0,0.1c0,0,0,0.1,0,0.1c0,0,0,0.1,0,0.1c0,0,0,0,0,0.1c0,0,0,0,0,0c0,0,0,0,0,0c0,0,0,0,0.1,0.1c0,0,0,0,0,0
	c0,0,0.1,0,0.1,0c0,0,0.1,0,0.1,0c0,0,0.1,0,0.1,0c0,0,0.1,0,0.1-0.1C41.4,57.8,41.4,57.7,41.4,57.7z"/>
<path class="st1" d="M43.3,56.6C43.3,56.6,43.3,56.6,43.3,56.6c0-0.1,0-0.1-0.1-0.1c0,0,0,0-0.1-0.1c0,0,0,0-0.1,0c0,0-0.1,0-0.1,0
	c0,0-0.1,0-0.1,0c0,0-0.1,0-0.1,0c0,0,0,0,0,0c0,0,0,0,0,0c0,0,0,0,0,0l0,0c0,0,0,0-0.1,0.1c0,0,0,0,0,0c0,0,0,0-0.1,0.1
	c0,0,0,0.1,0,0.1c0,0,0,0,0,0c0,0,0,0.1,0,0.1c0,0,0,0.1,0,0.1c0,0,0,0,0,0.1c0,0,0,0.1,0.1,0.1c0,0,0,0,0.1,0c0,0,0.1,0,0.1,0
	c0,0,0.1,0,0.1,0c0,0,0.1,0,0.1,0c0,0,0.1,0,0.1-0.1c0,0,0,0,0,0c0,0,0,0,0,0c0,0,0,0,0,0c0,0,0-0.1,0-0.1c0,0,0,0,0,0c0,0,0,0,0,0
	c0,0,0-0.1,0-0.1C43.3,56.8,43.3,56.7,43.3,56.6C43.3,56.7,43.3,56.7,43.3,56.6z"/>
<path class="st1" d="M43,55.4C42.9,55.4,42.9,55.4,43,55.4c-0.1,0-0.1,0-0.2,0c0,0,0,0,0,0c0,0-0.1,0-0.1,0c0,0,0,0,0,0
	c0,0-0.1,0-0.1,0.1c0,0-0.1,0.1-0.1,0.1c0,0.1,0,0.2,0,0.2c0,0,0,0,0.1,0c0,0,0.1,0,0.1,0c0,0,0,0,0.1,0c0,0,0,0,0,0c0,0,0,0,0,0
	c0,0,0,0,0,0c0,0,0-0.1,0.1-0.1c0,0,0,0,0,0c0,0,0-0.1,0-0.1C43,55.5,43,55.5,43,55.4C43,55.4,43,55.4,43,55.4z"/>
<path class="st1" d="M44.1,54C44.1,54,44.1,54,44.1,54c0-0.1,0-0.1-0.1-0.1c0,0,0,0-0.1-0.1c-0.1,0-0.1,0-0.2,0c0,0,0,0,0,0
	c0,0-0.1,0-0.1,0c0,0,0,0-0.1,0.1c0,0-0.1,0.1-0.1,0.1c0,0,0,0.1,0,0.1c0,0,0,0.1,0,0.1c0,0.1,0,0.1,0,0.1l0,0c0,0,0,0.1,0.1,0.1
	c0,0,0.1,0,0.1,0c0,0,0,0,0,0c0.1,0,0.1,0,0.2,0c0,0,0.1,0,0.1-0.1c0,0,0.1-0.1,0.1-0.1c0,0,0.1-0.1,0.1-0.1
	C44.1,54.2,44.1,54.1,44.1,54C44.1,54.1,44.1,54,44.1,54z"/>
<path class="st6" d="M106.5,103.7c0,0,2.8,21.3,2.9,22.2c0.1,0.9-2.1,1.7-2.5,0.5s-6.7-21.6-6.3-21.5
	C101,105,106.5,103.7,106.5,103.7z"/>
<path class="st6" d="M98.3,97.9c0,0,2.8,21.3,2.9,22.2c0.1,0.9-2.1,1.7-2.5,0.5c-0.4-1.1-6.7-21.6-6.3-21.5
	C92.9,99.3,98.3,97.9,98.3,97.9z"/>
<path class="st7" d="M106.5,103.7c0,0-5.5,1.4-5.8,1.3c-0.1,0,0.7,2.8,1.7,6.4c2-1.2,3.6-3.1,4.5-5.3
	C106.6,104.6,106.5,103.7,106.5,103.7z"/>
<path class="st7" d="M98.9,102.4c-1.8,0.3-3.5,1.2-4.9,2.3c0,0,0,0-0.1,0.1c0.7,2.3,1.5,5,2.2,7.5c0.3-0.1,0.5-0.2,0.7-0.3
	c1.2-0.7,2.1-1.8,2.9-2.9C99.5,106.7,99.2,104.3,98.9,102.4z"/>
<path class="st6" d="M62.8,103.7c0,0-2.8,21.3-2.9,22.2c-0.1,0.9,2.1,1.7,2.5,0.5s6.7-21.6,6.3-21.5C68.3,105,62.8,103.7,62.8,103.7
	z"/>
<path class="st6" d="M71.5,98.1c0,0-2.8,21.3-2.9,22.2c-0.1,0.9,2.1,1.7,2.5,0.5c0.4-1.1,6.7-21.6,6.3-21.5
	C77,99.4,71.5,98.1,71.5,98.1z"/>
<path class="st7" d="M68.6,104.9c-0.4,0.1-5.8-1.3-5.8-1.3s-0.1,0.8-0.3,2c0.8,1.9,2,3.5,3.6,4.8c0.3,0.2,0.6,0.4,0.9,0.6
	C68,107.6,68.8,104.9,68.6,104.9z"/>
<path class="st7" d="M74.1,103.9c-0.8-0.2-1.7-0.1-2.3,0.4l-1.4,1.7c-0.1,0.7-0.2,1.5-0.3,2.3c0.6,1.2,1.4,2.3,2.5,3.1
	c0.3,0.3,0.7,0.5,1.1,0.7c0.8-2.5,1.5-5.2,2.2-7.4C75.4,104.4,74.8,104.1,74.1,103.9z"/>
<path class="st2" d="M70.8,51.4c-11,4.7-18.4,19-17.6,35.3c0.8,16.3,11.1,22.2,31,23.2c19.9,1,29.6-9.6,30-21.7
	c0.4-12.2-7.9-32.2-17.6-35.5C87.1,49.4,75.6,49.4,70.8,51.4z"/>
<path class="st8" d="M69.3,103.1c-2-1.1-4.3-1.9-6.2-3.2c-2-1.3-3.7-2.9-5.3-4.6c-0.1-0.1-0.2,0-0.1,0.1c1.1,2.1,3,3.9,4.9,5.3
	c1.9,1.4,4.2,2.7,6.7,2.7C69.4,103.5,69.4,103.2,69.3,103.1z"/>
<path class="st8" d="M108.4,97.4c-0.6,0.1-1.1,0.5-1.5,0.8c-0.5,0.4-1,0.7-1.5,1.1c-0.5,0.3-1,0.7-1.5,1c-0.5,0.3-1.1,0.6-1.4,1
	c0,0.1,0,0.2,0.1,0.2c0.6,0.1,1.2-0.2,1.7-0.4c0.6-0.3,1.2-0.6,1.7-0.9c0.5-0.3,1.1-0.7,1.6-1.1c0.5-0.4,1-0.9,1.1-1.5
	C108.7,97.5,108.6,97.4,108.4,97.4z"/>
<path class="st9" d="M107.9,67c-0.4-0.8-0.8-1.5-1.4-2.2c-0.5-0.7-1.1-1.4-1.7-2c-0.3-0.4-0.6-0.7-0.9-1.1c-0.3-0.4-0.5-0.8-0.8-1
	c0,0-0.1,0-0.1,0c0,0.4,0.2,0.7,0.4,1c0.2,0.4,0.4,0.7,0.7,1.1c0.5,0.7,1.1,1.4,1.6,2.2c0.5,0.7,1,1.4,1.3,2.2
	c0.4,0.8,0.5,1.6,1,2.3c0.1,0.1,0.2,0.1,0.2,0C108.6,68.6,108.2,67.7,107.9,67z"/>
<path class="st10" d="M74.1,58.2c-0.5-0.2-1.1-0.1-1.5,0.3c-0.4,0.4-0.5,0.9-0.8,1.3c-0.2,0.4-0.4,0.8-0.6,1.2
	c-0.4,0.8-0.8,1.6-1.2,2.3c-0.8,1.5-1.7,3.1-2.6,4.6c-1.8,3-3.8,5.8-5.7,8.7c-0.5,0.8-1,1.6-1.6,2.4c-0.3,0.4-0.6,0.8-0.8,1.2
	c-0.1,0.2-0.3,0.4-0.4,0.7c-0.2,0.2-0.2,0.4-0.2,0.7c0,0.3,0.2,0.4,0.5,0.4c0.4-0.1,0.7-0.4,1.1-0.7c0.3-0.3,0.6-0.6,0.9-0.9
	c0.6-0.6,1.2-1.2,1.8-1.9c1.2-1.4,2.4-2.8,3.5-4.3c1.8-2.5,3.4-5,4.9-7.7c-0.1,0.7-0.2,1.4-0.2,2.1c0,0.4-0.1,0.8-0.1,1.2
	c0,0.1,0,0.2,0,0.4c0,0,0,0.1,0,0.2c0,0.1,0,0.2,0,0.2c0,0.1,0,0.2-0.1,0.4c-0.1,0.8-0.2,1.6-0.4,2.3c-0.3,1.5-0.6,3-1,4.5
	c-0.2,0.8-0.5,1.6-0.8,2.4c-0.2,0.5-0.3,1-0.4,1.5c0,0.3,0,0.6,0.2,0.9c0-0.1-0.2-0.4,0,0c0,0.1,0,0.1,0.1,0.2c0,0.1,0,0.3,0,0.4
	c0,0.3,0.4,0.3,0.6,0.2c0.1-0.1,0.2-0.1,0.3-0.2c0.1-0.1,0.3-0.1,0.4-0.2c0.8-0.3,1.2-1.2,1.6-2c0.3-0.7,0.5-1.4,0.7-2.1
	c0.4-1.5,0.8-3,1-4.5c0.3-1.7,0.5-3.3,0.7-5c0.2-1.7,0.4-3.3,0.5-5c0-1.2,0.1-2.3,0-3.5c0-0.1,0.1-0.1,0.1-0.2
	c0-0.1,0.1-0.2,0.1-0.2c0.1-0.3,0.2-0.6,0.3-0.9C74.9,58.9,74.5,58.4,74.1,58.2z"/>
<path class="st10" d="M108.3,82.6c-0.1-1-0.7-1.7-1.3-2.5c-0.5-0.7-0.9-1.4-1.3-2.1c-0.9-1.4-1.7-2.8-2.6-4.3
	c-0.7-1.1-1.4-2.2-2-3.3c-0.4-0.8-0.7-1.6-1.1-2.4c-0.4-0.9-0.8-1.7-1.2-2.6c-0.1-0.2-0.2-0.4-0.3-0.7c-0.1-0.2-0.3-0.3-0.4-0.5
	c-0.2-0.4-0.5-0.9-0.7-1.4c-0.5-0.9-0.9-1.9-1.4-2.8c-0.1-0.2-0.2-0.4-0.4-0.6c0-0.6,0-1.2-0.5-1.6c-0.4-0.3-0.9-0.5-1.4-0.2
	c-1,0.6-0.8,1.8-0.8,2.9c0,0.8,0,1.7,0,2.5c0,1.6,0.1,3.3,0.2,4.9c0.3,3.3,0.7,6.7,1.9,9.8c0.3,0.9,0.7,1.8,1.2,2.6
	c0.2,0.4,0.5,0.8,0.8,1.1c0.3,0.3,0.5,0.6,1,0.7c0.1,0,0.3,0,0.4-0.1c0.2-0.3,0.2-0.6,0.2-0.9c0-0.4-0.1-0.9-0.2-1.3
	c-0.1-0.8-0.4-1.5-0.6-2.2c-0.5-1.5-1-3-1.3-4.6c-0.1-0.4-0.1-0.8-0.2-1.1c0-0.2-0.1-0.4-0.1-0.6c0,0,0-0.1,0-0.1c0-0.1,0-0.2,0-0.3
	c-0.1-0.8-0.2-1.6-0.3-2.4c-0.1-1.5-0.2-3-0.3-4.4c0,0.1,0.1,0.3,0.1,0.4c0.1,0.2,0.2,0.4,0.2,0.6c0.1,0.3,0.1,0.5,0.2,0.8
	c0.3,1,0.8,1.9,1.2,2.9c1.5,3.5,3,7,4.7,10.4c0.4,0.9,0.9,1.8,1.4,2.7c0.2,0.4,0.5,0.9,0.8,1.3c0.4,0.6,0.8,1.2,1.6,1.4
	c0.5,0.1,1,0,1.3-0.4c0.1-0.1,0.1-0.2,0.1-0.2C107.8,83.7,108.4,83.3,108.3,82.6z"/>
<path class="st10" d="M91.5,99.3C91.5,99.3,91.5,99.3,91.5,99.3L91.5,99.3C91.5,99.3,91.5,99.3,91.5,99.3z"/>
<path class="st10" d="M111.3,88.8c0-0.2-0.1-0.4-0.1-0.6c-0.1-0.3-0.1-0.4-0.2-0.6c-0.1-0.1-0.1-0.2-0.2-0.3
	c-0.1-0.1-0.2-0.2-0.3-0.2c-0.1-0.1-0.1-0.1,0,0c-0.1,0-0.1-0.1-0.2-0.1c0.2,0.1,0.1,0,0-0.1c-0.2-0.3-0.6-0.2-0.6,0.2
	c0,0,0,0.1,0,0.1c0,0-0.1,0.1-0.1,0.1c0,0,0,0,0.1-0.1c0,0,0,0,0,0c0,0,0,0,0,0c-0.1,0.1-0.2,0.2-0.3,0.4c-0.1,0.1-0.1,0.2-0.1,0.3
	l0,0.1c0-0.1,0-0.1,0,0c0,0.1,0,0.3-0.1,0.4c0,0,0,0,0,0c0,0,0,0,0,0.1c-0.1,0.4-0.1,0.8-0.1,1.2c0,0.1,0,0.2,0,0.2c0,0,0,0,0,0
	c0,0.2-0.1,0.4-0.1,0.6c-0.1,0.3-0.2,0.6-0.3,0.9c0,0,0,0.1,0,0.2c0,0.1,0,0.1-0.1,0.2c-0.1,0.2-0.2,0.3-0.2,0.5
	c-0.4,0.7-0.6,1-1.2,1.5c-0.5,0.5-0.8,0.7-1.4,1.1c-0.6,0.4-1.2,0.7-1.8,1c-0.6,0.3-1.2,0.6-1.9,0.9c-0.7,0.3-1.3,0.6-1.9,0.9
	c-0.1,0-0.2,0.1-0.2,0.1c-0.1-0.3-0.3-0.6-0.4-0.9c-0.4-0.6-1-0.8-1.7-0.6c-0.4,0.2-0.7,0.5-0.8,0.9c-0.3-0.3-0.6-0.6-0.9-0.9
	c-0.5-0.5-1.3-0.5-1.8-0.1c-0.6,0.4-0.7,1.2-0.4,1.8c0.1,0.3,0.3,0.5,0.5,0.7c-0.3,0.1-0.6,0.2-1,0.2c-0.2,0.1-0.4,0.1-0.6,0.2
	c-0.1,0-0.2,0.1-0.3,0.1c0,0-0.1,0-0.2,0h0c0,0,0-0.1-0.1-0.1c-0.4-0.4-0.9-0.7-1.4-0.8c-0.6-0.1-1.2,0.1-1.5,0.6
	c-0.1-0.2-0.3-0.3-0.5-0.3c-0.1,0-0.2,0-0.3,0c0,0,0,0,0,0c-0.1-0.1-0.2-0.1-0.4-0.2c-1-0.3-2.1,0.2-3.1,0.6c-0.5,0.2-1,0.4-1.5,0.6
	c-0.1,0-0.3,0-0.4,0c0,0,0.1,0,0.1,0c0,0,0,0-0.1,0c-0.1,0-0.3,0-0.4,0.1c-0.2,0.1-0.4,0.1-0.5,0.2c-0.2,0.1-0.4,0.1-0.6,0.1
	c0,0,0-0.1,0-0.1c-0.2-0.6-0.9-0.7-1.4-0.7c-0.1,0-0.1-0.1-0.2-0.1c-0.4-0.1-0.8,0-1.2,0.2c-0.1,0-0.2,0-0.3,0
	c-0.3,0-0.5,0.1-0.8,0.1c0.2-0.3,0.3-0.7,0-1c-0.1-0.1-0.2-0.2-0.2-0.2c-0.2-0.2-0.3-0.2-0.2-0.2c-0.4-0.3-0.7-0.4-1.2-0.4
	c-0.5-0.1-1-0.1-1.6-0.1c-1,0-2.1-0.1-3.1-0.1c-1,0-2-0.1-3-0.2c0,0-0.2,0-0.3,0c-0.1,0-0.1,0-0.2,0c-0.2,0-0.5-0.1-0.7-0.2
	c-0.2-0.1-0.4-0.1-0.6-0.2c-0.1,0-0.2-0.1-0.3-0.1c0,0-0.1,0-0.1,0c0,0,0,0-0.1,0c-0.8-0.4-1.6-0.8-2.4-1.3
	c-0.4-0.2-0.7-0.5-1.1-0.7c-0.2-0.1-0.3-0.2-0.5-0.4c-0.1-0.1-0.2-0.1-0.2-0.2c0,0-0.1,0-0.1,0c0,0,0,0-0.1,0
	c-0.7-0.6-1.3-1.2-2-1.8c-0.6-0.6-1.1-1.2-1.5-1.9c-0.5-0.8-0.8-1.6-1-2.6c-0.1-0.4-0.2-0.9-0.3-1.4c-0.1-0.5,0-1-0.1-1.4
	c-0.1-0.3-0.5-0.3-0.7-0.1c-0.3,0.4-0.4,0.8-0.5,1.2c-0.1,0.5-0.2,1-0.1,1.5c0,0.9,0.2,1.9,0.5,2.8c0.6,1.8,1.7,3.5,3,4.8
	c1.4,1.3,3,2.4,4.7,3.3c1,0.5,2,1,3,1.2c0.4,0.1,0.7,0.1,1.1,0.2c0.1,0,0.2,0.1,0.4,0.1c1,0.4,2,0.9,3,1.2c0.4,0.2,0.9,0.3,1.3,0.5
	c0.1,0,0.2,0.1,0.2,0.1c0,0,0.1,0,0.1,0c0,0,0,0,0.1,0c0.1,0,0.1,0.1,0.2,0.1c-0.1,0,0.2,0.1,0.2,0.2c0,0,0,0,0,0
	c0,0,0.1,0.1,0.1,0.1c0.1,0.1,0.2,0.3,0.2,0.4c0.2,0.3,0.3,0.6,0.5,0.9c0.5,0.8,1.2,1.5,2.1,1.8c1.1,0.3,2.2,0,3.1-0.5
	c0.8-0.4,1.5-0.9,2.3-1.4c0.7-0.4,1.4-0.8,2.2-1.2c0.4,0,0.8,0,1.2,0c1.7,0.1,3.3,0.4,4.9,1c0,0,0.1,0,0.1,0c0.1,0,0.2,0.1,0.3,0.1
	c0.2,0.1,0.4,0.2,0.5,0.3c0.4,0.2,0.8,0.4,1.3,0.6c0.9,0.4,1.8,0.7,2.7,0.8c1.9,0.3,4.8,0.1,5.6-2c0.4-1,0.1-2.2,0-3.3
	c0-0.1,0-0.2-0.1-0.3c0.6-0.2,1.2-0.4,1.8-0.6c1.3-0.5,2.6-1,3.8-1.7c2.4-1.3,4.5-3.4,5.2-6.2C111.3,90.5,111.5,89.6,111.3,88.8z"/>
<path class="st10" d="M77.1,98.1C77.1,98.1,77.2,98.2,77.1,98.1C77.2,98.2,77.1,98.1,77.1,98.1z"/>
<path class="st10" d="M72.2,66.1c-0.3-0.2-0.8-0.1-1,0.1c-0.4,0.4-0.9,0.8-1.2,1.3c-0.3,0.5-0.6,1-0.9,1.4c-0.5,0.8-1,1.6-1.6,2.5
	c-0.8,1-1.6,2.1-2.3,3.2c-0.1,0.2-0.2,0.3-0.3,0.5c-0.1,0.1-0.2,0.2-0.2,0.3c0,0,0,0,0,0.1c0,0-0.1,0.1-0.1,0.1
	c-0.3,0.4-0.7,0.9-1,1.3c-0.8,1-1.7,1.9-2.5,2.9c-0.6,0.7-0.5,1.6,0.3,2.1c1,0.7,2,0,2.8-0.9c0,0,0,0,0,0c0.2,0.4,0.5,0.6,0.9,0.8
	c0.4,0.2,0.9,0.2,1.3,0.1c0.2,0.3,0.4,0.5,0.8,0.6c0.6,0.1,1.3-0.1,1.6-0.6c0.5-0.9,0.9-1.9,1.2-2.9c1-1.8,1.9-3.7,2.5-5.6
	c0.2-0.6-0.1-1.3-0.6-1.6c-0.1-0.1-0.2-0.1-0.4-0.1c0.1-0.2,0.1-0.5,0.2-0.7c0.1-0.3,0.1-0.6,0-0.8c0.2-0.3,0.3-0.7,0.5-1
	c0.1-0.1,0.1-0.3,0.2-0.4c0.1-0.1,0.1-0.2,0.2-0.4c0-0.3,0-0.4,0-0.3c0,0.1,0,0,0,0c0.1-0.4,0.1-0.6,0.2-1
	C72.6,66.6,72.5,66.3,72.2,66.1z"/>
<path class="st10" d="M102.7,78.8c-0.4-1-1-1.9-1.6-2.9c-0.3-0.7-0.7-1.4-1-2.1c-0.1-0.2-0.2-0.5-0.3-0.7c0,0,0,0,0,0
	c0-0.1,0-0.1-0.1-0.2c0-0.1-0.1-0.2-0.1-0.3c-0.2-0.5-0.4-1-0.6-1.6c-0.4-1-0.8-1.9-1.5-2.7c-0.1-0.2-0.2-0.5-0.3-0.7
	c-0.1-0.3-0.2-0.7-0.4-1c-0.3-0.7-0.6-1.5-1-2.2c-0.3-0.5-1.2-0.3-1.2,0.3c0,0.8,0.1,1.6,0.3,2.4c0.1,0.4,0.2,0.9,0.3,1.3
	c-0.1,0.2-0.2,0.5-0.2,0.7c0.3,2.3,1,4.4,1.9,6.6c0.2,0.5,0.4,1,0.7,1.6c0.1,0.2,0.1,0.4,0.2,0.6c-0.1,0-0.2,0.1-0.3,0.2
	c-0.5,0.4-0.8,1.2-0.4,1.8c0.1,0.1,0.1,0.2,0.2,0.3c0,0,0,0,0,0c0,0,0,0,0,0c0.1,0.1,0.1,0.2,0.2,0.3c0,0,0,0,0,0
	c0,0,0.1,0.2,0.2,0.2c0.2,0.2,0.3,0.4,0.4,0.6c0.3,0.4,0.6,0.9,0.9,1.4c0.3,0.6,1.1,0.8,1.8,0.6c0.3-0.1,0.4-0.3,0.6-0.4
	c0.4-0.2,0.7-0.6,0.8-1c0.2,0.1,0.3,0.1,0.5,0.1c0.6,0,1-0.4,1.2-0.9c0-0.1,0.1-0.3,0.1-0.4C104.3,79.7,103.6,78.8,102.7,78.8z"/>
<path class="st10" d="M70.3,52.9c-0.1-0.2-0.2-0.3-0.4-0.2c-0.3,0.1-0.5,0.2-0.7,0.4c-0.2,0.2-0.4,0.4-0.6,0.7
	c-0.4,0.5-0.7,1.1-1,1.6c-0.6,1-1.2,2-1.8,3.1c-1.2,2.1-2.4,4.2-3.6,6.3c-0.6,1-1.2,2.1-1.7,3.1c-0.3,0.5-0.6,1-0.9,1.5
	c-0.3,0.5-0.6,1-0.9,1.4c-0.6,1-1.1,2.1-1.5,3.3c-0.3,0.9-0.5,1.9-0.7,2.9c-0.1,0.3-0.1,0.5-0.2,0.8c0,0.1-0.1,0.2-0.1,0.3
	c0,0.1,0,0.1-0.1,0.2c0,0,0,0,0,0.1c-0.2,0.5-0.5,0.9-0.8,1.3c-0.4,0.6-0.6,1.3-0.6,2c0,0.7,0,1.4,0.3,2c-0.2,0.5-0.2,1.1-0.2,1.7
	c-0.1,0.6-0.1,1.1-0.1,1.7c0,1.2,0.2,2.4,0.6,3.5c0.3,1.1,0.7,2.3,1.5,3.2c0.4,0.4,0.9,0.7,1.3,1c0.2,0.2,0.4,0.4,0.7,0.6
	c0.3,0.1,0.6,0.3,0.9,0.4c0.5,0.2,1.1-0.4,1-0.9c-0.2-0.6-0.5-1-1-1.4c-0.4-0.3-0.9-0.6-1.2-0.9c-0.7-0.6-1.1-1.7-1.3-2.6
	c-0.3-1-0.5-2-0.6-3.1c-0.1-0.7,0-1.7-0.2-2.5c0.2,0,0.4-0.1,0.6-0.3c0.3-0.3,0.5-0.7,0.5-1.2c0-0.3,0-0.6,0-0.9c0-0.1,0-0.3,0-0.4
	c0,0,0-0.1,0-0.2c0,0,0,0,0,0c0,0,0,0,0-0.1c0.1-0.1,0.1-0.2,0.2-0.3c0.3-0.4,0.6-0.8,0.8-1.2c0.2-0.5,0.4-1,0.6-1.5
	c0.3-0.9,0.4-1.9,0.7-2.9c0.3-1.1,0.6-1.8,1.1-2.8c0.5-1,1-2.1,1.6-3.1c0.6-1,1.1-2.1,1.7-3.1c1.1-2.1,2.3-4.2,3.4-6.3
	c0.6-1.2,1.3-2.3,1.9-3.5c0.3-0.6,0.6-1.2,0.8-1.7c0.2-0.3,0.2-0.7,0.4-1C70.4,53.4,70.5,53.2,70.3,52.9z"/>
<path class="st10" d="M57.2,81.2C57.2,81.2,57.2,81.2,57.2,81.2c0,0.1,0,0.1,0,0.1C57.2,81.3,57.2,81.2,57.2,81.2z"/>
<path class="st10" d="M57.1,81.3C57.1,81.3,57.1,81.3,57.1,81.3C57.1,81.2,57.1,81.2,57.1,81.3C57.1,81.2,57.1,81.3,57.1,81.3z"/>
<path class="st3" d="M89.2,18.3c-0.1-0.4,0.1-0.7,0.2-1c0.2-0.6,0.2-1.3-0.1-1.9c-0.3-0.5-0.7-0.9-1.3-0.9c-0.6,0-1.2,0.3-1.5,0.9
	c-0.2,0.3-0.3,0.6-0.3,0.9c0,0.2,0,0.3,0,0.5c0,0.2,0,0.4-0.1,0.5c-0.1,0.1-0.3,0.1-0.4,0.2c-0.1,0.1-0.2,0.1-0.4,0.2
	c-0.2,0.2-0.4,0.4-0.5,0.6c-0.3,0.5-0.4,1.1-0.3,1.6c0.1,0.3,0.3,0.7,0.2,1c-0.1,0.3-0.3,0.5-0.4,0.8c-0.4,0.5-0.7,1-0.7,1.5
	c-0.1,0.6,0,1.2,0.3,1.7c0.1,0.1,0.2,0.3,0.2,0.4c0.1,0.2,0,0.3-0.1,0.5c-0.2,0.2-0.4,0.4-0.5,0.6c-0.2,0.5-0.1,1,0.1,1.4
	c0.4,0.7,1.6,0.8,2.3,0.5c0.2-0.1,0.5-0.3,0.6-0.5c0.2-0.2,0.2-0.5,0.4-0.8c0.2-0.3,0.5-0.3,0.8-0.4c0.3-0.1,0.5-0.3,0.7-0.5
	c0.4-0.5,0.5-1.1,0.5-1.7c-0.1-0.7-0.3-1.3,0.1-1.9c0.3-0.5,0.8-0.9,1-1.4c0.2-0.6,0.2-1.2-0.2-1.8C89.5,18.8,89.3,18.6,89.2,18.3z"
	/>
<path class="st3" d="M95.6,22.8c0.1-0.3,0.4-0.5,0.6-0.7c0.4-0.4,0.7-0.9,0.7-1.5c0-0.5-0.2-0.9-0.6-1.2c-0.4-0.3-1-0.2-1.4,0.1
	c-0.2,0.1-0.4,0.3-0.6,0.5c-0.1,0.1-0.2,0.2-0.2,0.3c-0.1,0.1-0.1,0.3-0.3,0.3c-0.1,0-0.2,0-0.4,0c-0.1,0-0.2,0-0.4,0
	c-0.2,0.1-0.4,0.1-0.6,0.3c-0.4,0.2-0.7,0.6-0.8,1.1c-0.1,0.3-0.1,0.6-0.2,0.8c-0.2,0.2-0.4,0.3-0.6,0.4c-0.5,0.2-0.9,0.5-1.1,0.9
	c-0.3,0.4-0.5,0.9-0.5,1.4c0,0.1,0,0.3,0,0.4c0,0.2-0.1,0.3-0.3,0.3c-0.2,0.1-0.4,0.1-0.6,0.3c-0.3,0.3-0.5,0.7-0.5,1.1
	c0,0.7,0.9,1.2,1.5,1.2c0.2,0,0.5,0,0.7-0.1c0.2-0.1,0.4-0.3,0.6-0.4c0.2-0.1,0.5,0,0.8,0c0.2,0,0.5,0,0.7-0.1
	c0.5-0.2,0.8-0.6,1-1.1c0.2-0.5,0.3-1.1,0.8-1.4c0.4-0.3,0.9-0.4,1.3-0.7c0.4-0.3,0.6-0.9,0.6-1.4C95.6,23.3,95.5,23,95.6,22.8z"/>
<path class="st3" d="M82.2,26.3c-0.1-0.1-0.2-0.2-0.2-0.3c0-0.1,0.1-0.3,0.2-0.4c0.2-0.3,0.4-0.5,0.5-0.8c0.1-0.7-0.3-1.3-0.8-1.8
	c-0.2-0.3-0.5-0.5-0.6-0.8c-0.2-0.3-0.2-0.7-0.1-1c0.1-0.6,0.4-1.2,0.4-1.9c0-0.6-0.3-1.2-0.9-1.5c-0.3-0.2-0.6-0.3-0.9-0.5
	c-0.3-0.2-0.5-0.4-0.6-0.7c-0.2-0.3-0.3-0.6-0.4-0.8c-0.1-0.3-0.2-0.6-0.4-0.8c-0.4-0.5-1.1-0.5-1.6-0.2c-0.5,0.4-0.8,1-0.9,1.6
	c-0.1,0.7-0.1,1.3,0.1,2c0.1,0.3,0.2,0.6,0.4,0.9c0.2,0.3,0.3,0.6,0.4,0.9c0.1,0.7-0.4,1.2-0.5,1.9c-0.1,0.6,0.1,1.2,0.6,1.6
	c0.2,0.2,0.5,0.4,0.8,0.6c0.3,0.2,0.6,0.4,0.7,0.7c0.1,0.3-0.1,0.7-0.2,1c-0.1,0.3-0.1,0.6,0,0.8c0.1,0.5,0.5,1,1,1.3
	c0.1,0.1,0.3,0.1,0.4,0.2c0.5,0.3,1.1,0.5,1.6,0.4c0.7,0,1.2-0.4,1.5-0.9C82.6,27.4,82.6,26.7,82.2,26.3z"/>
<path class="st3" d="M77.8,26.6c-0.1,0-0.2,0-0.3-0.1c-0.1-0.1,0-0.2,0-0.3c0-0.2,0-0.5-0.1-0.7c-0.2-0.4-0.7-0.6-1.2-0.7
	c-0.2-0.1-0.5-0.1-0.7-0.2c-0.2-0.1-0.4-0.3-0.5-0.5c-0.2-0.4-0.3-0.9-0.6-1.3c-0.3-0.4-0.6-0.5-1.1-0.5c-0.2,0-0.5,0.1-0.7,0.1
	c-0.2,0-0.4,0-0.6-0.1c-0.2-0.1-0.4-0.2-0.6-0.3c-0.2-0.1-0.4-0.3-0.6-0.3c-0.4-0.2-0.9,0.1-1,0.5c-0.2,0.4-0.1,0.9,0.1,1.3
	c0.2,0.4,0.5,0.8,0.8,1.1c0.2,0.2,0.4,0.3,0.6,0.4c0.2,0.1,0.4,0.2,0.6,0.4c0.3,0.3,0.3,0.9,0.5,1.3c0.2,0.4,0.5,0.6,1,0.7
	c0.2,0,0.5,0,0.7,0c0.2,0,0.5,0,0.7,0.1c0.2,0.2,0.2,0.4,0.3,0.6c0.1,0.2,0.2,0.3,0.3,0.5c0.3,0.3,0.7,0.4,1.1,0.4
	c0.1,0,0.2,0,0.3,0c0.4,0,0.8-0.1,1.1-0.4c0.4-0.3,0.6-0.7,0.5-1.1C78.5,27.1,78.2,26.7,77.8,26.6z"/>
<path class="st1" d="M78.6,25.1c-0.1-0.1-0.2-0.1-0.2-0.3c0-0.1,0.1-0.3,0.1-0.4c0.1-0.3,0.3-0.5,0.3-0.8c0-0.6-0.5-1.1-0.9-1.5
	c-0.2-0.2-0.5-0.4-0.6-0.6c-0.2-0.3-0.3-0.6-0.3-0.9c0-0.6,0.1-1.2,0-1.8c-0.1-0.6-0.4-1-1-1.2c-0.3-0.1-0.6-0.2-0.9-0.3
	c-0.3-0.1-0.5-0.3-0.6-0.5c-0.2-0.2-0.3-0.5-0.5-0.7c-0.2-0.2-0.3-0.5-0.5-0.7c-0.4-0.4-1-0.3-1.4,0.1c-0.4,0.4-0.5,1-0.5,1.6
	c0,0.6,0.1,1.3,0.4,1.8c0.1,0.3,0.3,0.6,0.5,0.8c0.2,0.2,0.4,0.5,0.5,0.8c0.2,0.6-0.1,1.2-0.1,1.8c0,0.6,0.3,1.1,0.7,1.4
	c0.2,0.2,0.5,0.3,0.7,0.4c0.2,0.1,0.6,0.2,0.7,0.5c0.1,0.3,0,0.6,0,0.9c0,0.3,0,0.5,0.1,0.8c0.2,0.5,0.6,0.9,1.1,1.1
	c0.1,0.1,0.2,0.1,0.4,0.1c0.4,0.2,1,0.3,1.4,0.1c0.5-0.1,1-0.5,1.1-1.1C79.2,26,79,25.5,78.6,25.1z"/>
<path class="st1" d="M85.8,21.5c0.3-0.6,0-1.3-0.2-1.8c-0.3-0.5-0.7-1.1-0.7-1.7c0-0.4,0.1-0.7,0.3-1.1c0.1-0.4,0.2-0.8,0.1-1.3
	c-0.1-0.4-0.3-0.8-0.6-1.1c-0.3-0.3-0.5-0.6-0.6-1.1c-0.2-0.9,0-1.8,0-2.7c0-0.8-0.3-1.6-1.1-2c-0.7-0.4-1.5,0-2.1,0.5
	c-0.6,0.5-1.2,1.3-1.2,2.1c-0.1,0.8,0.3,1.6,0.4,2.4c0,0.4-0.1,0.8-0.3,1.1c-0.2,0.3-0.4,0.7-0.6,1c-0.4,1.3,0.9,2.3,1.3,3.4
	c0.1,0.3,0.1,0.6,0,0.9c-0.1,0.4-0.4,0.7-0.5,1.1c-0.2,0.7,0.1,1.2,0.5,1.8c0.2,0.3,0.4,0.5,0.5,0.8c0.2,0.4,0,0.7-0.1,1.1
	c-0.2,0.7,0.1,1.4,0.7,1.8c0.2,0.1,0.4,0.2,0.7,0.2c0.4,0.2,0.8,0.2,1.3,0c0.4-0.1,0.8-0.3,1.2-0.6c0.3-0.2,0.6-0.5,0.7-0.9
	c0.2-0.7-0.1-1.4-0.3-2.1c-0.1-0.3-0.1-0.7,0.1-1C85.3,22.2,85.6,21.9,85.8,21.5z"/>
<path class="st1" d="M93.7,18.4c0-0.3,0.2-0.6,0.3-0.9c0.2-0.5,0.4-1.2,0.2-1.8c-0.2-0.5-0.6-0.9-1.1-1c-0.6-0.1-1.1,0.2-1.4,0.6
	c-0.2,0.2-0.3,0.5-0.4,0.7c0,0.1-0.1,0.3-0.1,0.4c0,0.1,0,0.3-0.2,0.4c-0.1,0.1-0.2,0.1-0.4,0.1c-0.1,0-0.2,0.1-0.3,0.2
	c-0.2,0.1-0.4,0.3-0.5,0.5c-0.3,0.4-0.5,0.9-0.4,1.4c0,0.3,0.2,0.6,0.1,0.9c-0.1,0.3-0.3,0.5-0.5,0.6C88.5,21,88.1,21.4,88,22
	c-0.1,0.5-0.1,1.1,0,1.6c0.1,0.1,0.1,0.3,0.2,0.4c0,0.2,0,0.3-0.2,0.4c-0.2,0.2-0.4,0.3-0.5,0.5c-0.2,0.4-0.2,0.9-0.1,1.3
	c0.3,0.7,1.4,0.9,2,0.7c0.2-0.1,0.5-0.2,0.6-0.4c0.2-0.2,0.3-0.4,0.4-0.6c0.2-0.2,0.5-0.2,0.8-0.3c0.2-0.1,0.5-0.2,0.7-0.4
	c0.4-0.4,0.6-0.9,0.6-1.5c0-0.6-0.1-1.2,0.3-1.8c0.3-0.4,0.8-0.7,1.1-1.2c0.3-0.5,0.3-1.1,0.1-1.6C93.9,18.9,93.7,18.7,93.7,18.4z"
	/>
<path class="st6" d="M71.9,27.1c0,0,13.6-2.8,21.6,0.1c0,0,2.7,4.7,1.5,11.8c-1.2,7-1,11.5,0.1,13.7c1.2,2.2-24.8,1.5-24.8,1.5
	s2.2-7.7,0.9-11.9C69.7,37.4,70.1,30.7,71.9,27.1z"/>
<path class="st11" d="M85.9,93.7c0,0-4,0.3-5.4,0.9c-1.4,0.5-5.8,5.6-6.2,6.6c-0.4,1-0.1,1.4,0.5,1.5c0.6,0.1,0.4,0.9,1.3,0.9
	c0.9-0.1,0.7,0.7,1.4,0.5c0.7-0.3,4.5-4.5,5.5-4.7c1-0.3,4.1-0.5,4.1-0.5L85.9,93.7z"/>
<path class="st1" d="M98.1,80.9c0,0,11-1.6,13.4,2.4c2.4,3.9,1.8,11.2-6.6,13.8c-8.4,2.6-21.6,2.1-21.6,2.1s-10.5-5.2-11.2-5.6
	c-0.7-0.4-2.1-8.5-1.6-9.7c0.5-1.2,2.1-3.8,2.9-4.2c0.8-0.4,17.5,1.3,18.1,1.3H98.1z"/>
<path class="st11" d="M87.3,95c0,0,4,0.3,5.4,0.9c1.4,0.5,5.8,5.6,6.2,6.6c0.4,1,0.1,1.4-0.5,1.5c-0.6,0.1-0.4,0.9-1.3,0.9
	c-0.9-0.1-0.7,0.7-1.4,0.5c-0.7-0.3-4.5-4.5-5.5-4.7c-1-0.3-4.1-0.5-4.1-0.5L87.3,95z"/>
<path class="st1" d="M70.1,80.4c0,0-9-1.3-12.6,1.9c-3.6,3.2-2.6,10.3,5.5,14.3c8.1,4,23.8,4.2,23.8,4.2s0.8-5,0.5-7
	c0,0-8.7-0.3-12.6-5.1c-3.9-4.8-0.8-8.7-1-8.5C73.6,80.3,70.1,80.4,70.1,80.4z"/>
<path class="st11" d="M59.3,75.3c0,0-0.8,2.1-1.8,3.5c-1,1.4-1.7,1.3-2.5,3.1c-0.8,1.8-0.4,3.9-0.2,4.5c0.2,0.6,0.7,0.6,1,0.3
	c0.3-0.3-0.1-2.5,1.8-4.3c0,0-0.1,2.2,0.7,2.2c0.8,0.1,0.4-1.4,1-2.6c0.5-1.2,1.3-2,1.6-2.4c0.3-0.5,1.9-2.3,2.4-3.5
	c0.5-1.2-0.8-2.1-1.1-2.2c-0.3-0.1-1.8-0.2-1.8-0.2L59.3,75.3z"/>
<path class="st11" d="M108.2,75.1c0,0,0.8,2.1,1.8,3.5c1,1.4,1.7,1.3,2.5,3.1c0.8,1.8,0.4,3.9,0.2,4.5c-0.2,0.6-0.7,0.6-1,0.3
	c-0.3-0.3,0.1-2.5-1.8-4.3c0,0,0.1,2.2-0.7,2.2c-0.8,0.1-0.4-1.4-1-2.6c-0.5-1.2-1.3-2-1.6-2.4c-0.3-0.5-1.9-2.3-2.4-3.5
	c-0.5-1.2,1.6-1.9,2-2c0.3-0.1,1.5-0.1,1.5-0.1L108.2,75.1z"/>
<path class="st12" d="M75,49c-3.7,0.7-4.6,2.6-5.4,4.2C68.8,54.8,59,73.5,58.4,75c0,0,3.1,2.6,4.4,2.6c0,0,3.6-4.9,5.8-8.9
	c2.2-3.9,5.2-10.4,5.1-10.2c-0.1,0.2,2.9,12.4-3.6,21.8c0,0,15.1,6.2,28,0.5c0,0-5.4-9.2-3.8-21.9c0,0,9.5,17.3,10.9,19.2
	c0,0,3.5-0.9,4.6-2c0,0-10.5-21.1-13.2-24c-2.7-3-5.4-3-5.7-3c-0.2-0.1-7.4,0.5-7.6,0.7C83,50,75,49,75,49z"/>
<path class="st11" d="M79.8,44.2c0,0,0,2.1-0.8,3.2c-0.7,1.1-4,1.6-4,1.6s2.2,5.1,8.4,4.9c6.2-0.2,7.5-4.7,7.5-4.7s-3.1-0.4-4.3-1.3
	c-1.2-0.9-1-3.7-1-3.7L79.8,44.2z"/>
<path class="st2" d="M70.1,25.8c0.2-0.4,0.3-0.8,0-1.2c-0.2-0.2-0.5-0.3-0.7-0.2c0-0.2-0.1-0.4-0.2-0.5c-0.2-0.3-0.5-0.4-0.8-0.4
	c-0.3,0.1-0.5,0.3-0.6,0.6c-0.1,0.2-0.1,0.4,0,0.6c-0.3,0-0.6,0.1-0.8,0.3c-0.1,0.1-0.2,0.3-0.2,0.5c0,0.4,0.3,0.6,0.6,0.7
	c-0.2,0.4-0.2,1,0.2,1.2c0.3,0.2,0.6,0.1,0.8-0.1c0.2-0.1,0.3-0.3,0.5-0.5c0.4,0.3,0.8,0.4,1.2,0.1c0.2-0.1,0.3-0.3,0.3-0.6
	C70.3,26.1,70.2,25.9,70.1,25.8z"/>
<path class="st2" d="M77.9,11.8c0.1-0.4-0.1-0.8-0.4-1c-0.2-0.1-0.5-0.1-0.7,0.1c-0.1-0.1-0.2-0.3-0.3-0.4c-0.2-0.1-0.5-0.2-0.8,0
	c-0.2,0.2-0.3,0.4-0.3,0.7c0,0.2,0.1,0.4,0.2,0.5c-0.2,0.1-0.4,0.3-0.5,0.5c-0.1,0.1-0.1,0.3,0,0.5c0.1,0.3,0.5,0.4,0.8,0.3
	c0,0.4,0.2,0.9,0.6,0.9c0.3,0.1,0.5-0.2,0.6-0.4c0.1-0.2,0.2-0.4,0.2-0.5c0.4,0.1,0.8,0,1-0.4c0.1-0.2,0.1-0.4,0.1-0.6
	C78.2,12,78,11.9,77.9,11.8z"/>
<path class="st2" d="M97,25c0.2-0.4,0.2-0.8-0.2-1.1c-0.2-0.2-0.5-0.2-0.7-0.1c0-0.2-0.1-0.3-0.2-0.4c-0.2-0.2-0.5-0.3-0.7-0.2
	c-0.3,0.1-0.4,0.3-0.5,0.6c0,0.2,0,0.4,0,0.6c-0.3,0-0.5,0.2-0.7,0.4c-0.1,0.1-0.2,0.3-0.1,0.4c0,0.3,0.3,0.5,0.7,0.5
	c-0.1,0.4-0.1,0.9,0.3,1.1c0.3,0.1,0.5,0,0.7-0.2c0.1-0.1,0.3-0.3,0.3-0.5c0.4,0.2,0.8,0.2,1.1-0.1c0.2-0.1,0.3-0.3,0.2-0.6
	C97.2,25.2,97.1,25.1,97,25z"/>
<path class="st2" d="M89.3,15.4c0.5-0.2,0.9-0.6,0.8-1.2c0-0.3-0.3-0.6-0.6-0.7c0.1-0.2,0.2-0.4,0.2-0.6c0-0.4-0.2-0.7-0.5-0.9
	c-0.3-0.2-0.7-0.1-1,0.1c-0.2,0.1-0.4,0.4-0.5,0.6c-0.3-0.2-0.6-0.3-1-0.2c-0.2,0-0.4,0.1-0.5,0.3c-0.3,0.4-0.2,0.8,0.1,1.1
	c-0.5,0.3-0.9,0.8-0.7,1.3c0.1,0.4,0.5,0.5,0.9,0.5c0.3,0,0.5-0.1,0.8-0.2c0.2,0.5,0.5,0.9,1.1,0.9c0.3,0,0.6-0.1,0.7-0.3
	C89.4,15.9,89.4,15.6,89.3,15.4z"/>
<path class="st3" d="M92.8,18.7C92.8,18.6,92.8,18.6,92.8,18.7c0-0.1,0-0.1-0.1-0.1c0,0,0,0-0.1,0c0,0-0.1,0-0.1,0
	c0,0-0.1,0-0.1,0.1c0,0-0.1,0.1-0.1,0.1c-0.1,0.1-0.1,0.1-0.2,0.2c-0.1,0.1-0.1,0.1-0.2,0.2c0,0,0,0-0.1,0c0.1-0.2,0.1-0.3,0.2-0.5
	c0.2-0.7,0.5-1.4,0.6-2.1c0,0-0.1-0.1-0.1,0c-0.3,0.6-0.5,1.2-0.7,1.8c-0.2,0.6-0.5,1.2-0.7,1.8c-0.1,0.2-0.2,0.4-0.2,0.6
	c0-0.1,0-0.3-0.1-0.4c0-0.1-0.1-0.3-0.1-0.4c0-0.1,0-0.3,0-0.5c0-0.1,0-0.3,0-0.4c0,0-0.1-0.1-0.1,0c-0.1,0.3-0.2,0.6-0.1,0.9
	c0,0.3,0.1,0.7,0.3,0.9c0,0,0.1,0,0.1,0c-0.4,1-0.8,2-1.2,3c-0.1,0.1-0.1,0.3-0.2,0.4c0,0,0-0.1,0-0.1c0-0.1-0.1-0.2-0.1-0.3
	c-0.1-0.2-0.1-0.4-0.1-0.6c0-0.2,0-0.4,0-0.6c0-0.2,0-0.4,0.1-0.6c0-0.1-0.1-0.1-0.1,0c-0.1,0.2-0.2,0.3-0.2,0.5c0,0.2,0,0.4,0,0.6
	c0,0.4,0.1,0.8,0.4,1.1c0,0,0.1,0,0.1,0c0,0,0,0,0,0c-0.1,0.2-0.2,0.4-0.2,0.5c-0.1,0.2-0.1,0.3-0.2,0.5c-0.1,0.2-0.2,0.3-0.1,0.5
	c0,0.1,0.1,0.1,0.2,0.1c0.3-0.2,0.3-0.5,0.5-0.8c0.1-0.3,0.3-0.6,0.4-0.9c0.2-0.5,0.4-1,0.6-1.5c0.1,0,0.2,0,0.3-0.1
	c0.2-0.1,0.4-0.2,0.5-0.4c0.2-0.1,0.3-0.3,0.4-0.5c0.1-0.1,0.1-0.2,0.2-0.3c0-0.1,0.1-0.2,0.1-0.3c0,0,0-0.1-0.1,0
	c-0.1,0.1-0.1,0.1-0.2,0.2c-0.1,0.1-0.1,0.1-0.2,0.2c-0.1,0.1-0.3,0.3-0.4,0.4c-0.1,0.1-0.3,0.2-0.4,0.3c0,0-0.1,0.1-0.1,0.1
	c0,0,0,0,0-0.1c0.4-1,0.7-2,1.1-3c0,0,0,0,0.1,0c0.1,0,0.1,0,0.2,0c0.1,0,0.2-0.1,0.3-0.2c0.1-0.1,0.2-0.1,0.3-0.2
	c0,0,0.1-0.1,0.1-0.1C92.7,18.8,92.8,18.8,92.8,18.7C92.8,18.7,92.8,18.7,92.8,18.7z"/>
<path class="st3" d="M84,18.9c-0.1,0.3-0.2,0.5-0.3,0.8c-0.1,0.3-0.2,0.5-0.3,0.8c-0.1,0.2-0.2,0.4-0.3,0.6
	c-0.1,0.2-0.2,0.3-0.4,0.4c-0.1-0.7-0.1-1.5-0.2-2.2c-0.1-0.9-0.2-1.7-0.2-2.6c0,0,0,0,0,0c0.1,0,0.2-0.2,0.2-0.2
	c0.1-0.1,0.1-0.2,0.2-0.4c0.1-0.2,0.2-0.5,0.4-0.7c0.2-0.4,0.5-0.9,0.3-1.4c0,0-0.1,0-0.1,0c-0.1,0.2-0.2,0.4-0.3,0.6
	c-0.1,0.2-0.2,0.4-0.3,0.7c-0.1,0.2-0.2,0.4-0.3,0.7c0,0.1-0.1,0.2-0.1,0.3c0,0,0,0,0,0.1c-0.1-0.9-0.1-1.7-0.2-2.6
	c0-0.5-0.1-1-0.1-1.6c0-0.5-0.1-1-0.1-1.6c0-0.1-0.2-0.1-0.2,0c-0.1,0.8,0,1.5,0,2.3c0,0,0,0,0,0c-0.1-0.1-0.3-0.2-0.4-0.4
	c-0.1-0.1-0.3-0.3-0.4-0.4c-0.1-0.1-0.1-0.1-0.2-0.2c-0.1-0.1-0.1-0.1-0.2-0.2c-0.1,0-0.1,0-0.1,0.1c0,0,0,0.1,0,0.1
	c0,0,0,0.1,0,0.1c0,0.1,0.1,0.2,0.1,0.2c0.1,0.2,0.2,0.3,0.4,0.4c0.1,0.1,0.3,0.2,0.4,0.3c0.1,0,0.2,0.1,0.2,0.1c0,0,0.1,0,0.1,0
	c0,0.1,0,0.2,0,0.2c0,0.9,0.1,1.9,0.1,2.8c0,0.7,0.1,1.4,0.2,2.2c-0.1,0-0.1-0.1-0.2-0.1c-0.2-0.2-0.4-0.4-0.6-0.6
	c-0.2-0.2-0.3-0.4-0.5-0.6c-0.1-0.2-0.3-0.5-0.5-0.6c0,0-0.1,0-0.1,0c0,0.3,0.2,0.5,0.3,0.8c0.2,0.2,0.3,0.5,0.5,0.7
	c0.2,0.2,0.4,0.4,0.6,0.6c0.1,0.1,0.2,0.2,0.3,0.2c0,0,0.1,0,0.1,0.1c0.1,1,0.2,2,0.3,3.1c0.1,0.5,0.1,1,0.2,1.6c0,0,0,0.1,0,0.1
	c-0.1-0.1-0.2-0.1-0.3-0.2c-0.2-0.1-0.3-0.3-0.5-0.4c-0.2-0.1-0.3-0.3-0.4-0.5c-0.1-0.1-0.1-0.2-0.2-0.3c0,0-0.1-0.1-0.1-0.1
	c0,0-0.1-0.1-0.1-0.1c0,0-0.1,0-0.1,0c0,0.1,0,0.2,0,0.3c0,0.1,0.1,0.2,0.1,0.3c0.1,0.2,0.3,0.4,0.4,0.5c0.2,0.2,0.4,0.3,0.5,0.4
	c0.1,0.1,0.2,0.1,0.3,0.2c0.1,0,0.2,0.1,0.2,0.1c0,0.1,0,0.2,0,0.3c0,0.2,0,0.5,0.2,0.6c0,0,0.1,0,0.1,0c0.1-0.2,0.1-0.4,0.1-0.6
	c0-0.2-0.1-0.5-0.1-0.7c-0.1-0.5-0.1-0.9-0.2-1.4c0-0.1,0-0.2,0-0.3c0.4-0.3,0.7-0.8,0.9-1.2c0.1-0.3,0.2-0.5,0.3-0.8
	C84,19.6,84,19.3,84,18.9C84.1,18.9,84,18.9,84,18.9z"/>
<path class="st3" d="M76.7,24.8c-0.2-0.3-0.3-0.6-0.5-0.8c-0.1-0.3-0.3-0.5-0.4-0.8c0.1-0.2,0.2-0.3,0.2-0.5c0-0.2,0.1-0.4,0.1-0.6
	c0-0.4,0.1-0.8-0.1-1.2c0,0-0.1,0-0.1,0c-0.1,0.4-0.1,0.8-0.1,1.2c0,0.2,0,0.4-0.1,0.6c0,0.1,0,0.2,0,0.3c0,0,0,0,0,0.1
	c-0.1-0.2-0.2-0.5-0.3-0.7c-0.3-0.6-0.6-1.3-0.9-1.9c0,0,0,0,0.1,0c0.1-0.2,0.1-0.4,0.2-0.6c0-0.2,0.1-0.4,0.1-0.6
	c0-0.3,0.1-0.7-0.2-0.9c0,0-0.1,0-0.1,0c0,0.2,0,0.3,0,0.4c0,0.1,0,0.3,0,0.4c0,0.2-0.1,0.3-0.1,0.5c0,0.1,0,0.3,0,0.4
	c-0.2-0.4-0.4-0.9-0.5-1.3c-0.1-0.3-0.2-0.6-0.4-1c-0.1-0.3-0.2-0.7-0.4-1c0-0.1-0.1,0-0.1,0c0,0.3,0.1,0.6,0.2,0.9
	c0.1,0.2,0.1,0.4,0.2,0.6c0,0,0,0,0,0c-0.1-0.1-0.2-0.1-0.3-0.2c-0.1-0.1-0.2-0.1-0.3-0.2c-0.1,0-0.1-0.1-0.2-0.1c0,0-0.1,0-0.1,0
	c0,0-0.1,0-0.1,0c0,0-0.1,0-0.1,0.1c0.1,0.1,0.2,0.2,0.2,0.2c0.1,0.1,0.2,0.1,0.3,0.2c0.1,0.1,0.2,0.1,0.3,0.2
	c0.1,0.1,0.2,0.1,0.3,0.1c0,0,0,0,0,0c0.2,0.6,0.4,1.2,0.6,1.8c0.1,0.3,0.3,0.6,0.4,1c-0.1,0-0.2-0.1-0.3-0.1
	c-0.1,0-0.2-0.1-0.3-0.2c-0.1,0-0.1-0.1-0.2-0.1c-0.1,0-0.1,0-0.2,0c0,0-0.1,0-0.1,0c0,0-0.1,0-0.1,0.1c0,0,0,0.1,0.1,0.1
	c0,0,0,0.1,0.1,0.1c0.1,0.1,0.1,0.1,0.2,0.1c0.1,0.1,0.3,0.1,0.4,0.2c0.1,0.1,0.3,0.1,0.4,0.1c0.1,0,0.1,0,0.2,0
	c0.3,0.7,0.6,1.4,1,2.1c0.1,0.1,0.1,0.2,0.2,0.4c0,0,0,0-0.1,0c-0.1-0.1-0.2-0.1-0.4-0.2C75.4,24,75.3,24,75.2,24c0,0-0.1,0,0,0.1
	c0,0.1,0.1,0.1,0.1,0.1c0,0.1,0.1,0.1,0.2,0.2c0.1,0.1,0.3,0.2,0.4,0.2c0.1,0.1,0.3,0.1,0.4,0.2c0,0,0,0,0,0c0,0,0.1,0.1,0.1,0.1
	c0.1,0.2,0.2,0.3,0.3,0.5c0.1,0.1,0.2,0.3,0.3,0.4c0.1,0,0.2,0,0.2-0.1C77.1,25.3,76.9,25,76.7,24.8z"/>
<path class="st1" d="M88.2,18.1c0,0-0.1,0.1-0.1,0.1c0,0-0.1,0.1-0.1,0.1c-0.1,0.1-0.1,0.1-0.2,0.2c-0.1,0.1-0.1,0.1-0.2,0.2
	c0,0-0.1,0.1-0.1,0.1c0,0,0,0,0,0c0-0.2,0.1-0.5,0.1-0.7c0-0.3,0.1-0.7,0.1-1c0,0-0.1,0-0.1,0c-0.1,0.3-0.2,0.7-0.2,1
	c-0.1,0.3-0.1,0.7-0.2,1c-0.1,0.5-0.2,0.9-0.3,1.4c0-0.1-0.1-0.2-0.1-0.3c-0.1-0.1-0.1-0.2-0.1-0.3c0-0.1-0.1-0.2-0.1-0.4
	c0-0.1,0-0.2-0.1-0.3c0,0-0.1,0-0.1,0c0,0.1-0.1,0.2-0.1,0.4c0,0.1,0,0.3,0.1,0.4c0,0.1,0.1,0.2,0.2,0.4c0.1,0.1,0.1,0.2,0.3,0.3
	c0,0,0,0,0,0c0,0.2-0.1,0.4-0.1,0.6c-0.1,0.7-0.3,1.4-0.4,2.1c0,0.1-0.1,0.3-0.1,0.4c0,0,0,0,0,0c-0.1-0.1-0.1-0.2-0.2-0.3
	c-0.1-0.1-0.1-0.2-0.2-0.3c0,0-0.1-0.1-0.1-0.1c0,0-0.1-0.1-0.1-0.1c0,0-0.1,0-0.1,0c0,0.1,0,0.2,0.1,0.4c0,0.1,0.1,0.2,0.2,0.3
	c0.1,0.1,0.1,0.2,0.2,0.3c0,0.1,0.1,0.2,0.2,0.2c-0.1,0.4-0.2,0.9-0.2,1.3c0,0.1,0.1,0.1,0.2,0c0.3-0.6,0.4-1.4,0.6-2
	c0.1-0.4,0.2-0.7,0.2-1.1c0.1-0.1,0.2-0.3,0.3-0.4c0.1-0.1,0.1-0.2,0.2-0.2c0.1-0.1,0.1-0.2,0.1-0.3c0,0,0-0.1-0.1,0
	c-0.1,0.1-0.2,0.1-0.2,0.2c-0.1,0.1-0.1,0.2-0.2,0.2c0,0-0.1,0.1-0.1,0.1c0-0.2,0.1-0.3,0.1-0.5c0.1-0.7,0.3-1.4,0.4-2.1
	c0-0.1,0-0.1,0-0.2c0,0,0,0,0,0c0,0,0,0,0,0c0,0,0,0,0.1,0c0,0,0.1-0.1,0.1-0.1c0.1-0.1,0.1-0.1,0.2-0.2c0.1-0.1,0.1-0.1,0.2-0.2
	c0,0,0-0.1,0.1-0.1C88.3,18.2,88.3,18.2,88.2,18.1C88.3,18.1,88.3,18.1,88.2,18.1z"/>
<path class="st1" d="M79.8,24c-0.1-0.3-0.2-0.7-0.4-1c-0.2-0.7-0.5-1.4-0.7-2.1c0.1-0.1,0.1-0.2,0.1-0.3c0-0.1,0.1-0.2,0.1-0.3
	c0-0.1,0.1-0.2,0.1-0.3c0,0,0-0.1,0-0.1c0-0.1,0-0.1,0-0.2c0,0-0.1-0.1-0.1,0c0,0,0,0.1-0.1,0.1c0,0,0,0.1,0,0.1
	c0,0.1,0,0.2-0.1,0.3c0,0.1,0,0.2-0.1,0.3c0,0,0,0.1,0,0.1c-0.2-0.6-0.4-1.3-0.6-1.9c0-0.2-0.1-0.3-0.1-0.5c0-0.1,0.1-0.1,0.1-0.2
	c0-0.1,0.1-0.2,0.1-0.3c0-0.1,0.1-0.2,0.1-0.3c0,0,0-0.1,0-0.1c0,0,0-0.1,0-0.1c0,0,0,0,0,0c0,0-0.1,0.1-0.1,0.1c0,0,0,0.1-0.1,0.1
	c0,0.1-0.1,0.2-0.1,0.3c0,0.1-0.1,0.2-0.1,0.3c0,0,0,0.1,0,0.1c0-0.1-0.1-0.2-0.1-0.3c-0.1-0.4-0.2-0.7-0.3-1.1c0,0-0.1,0-0.1,0
	c0,0.4,0.1,0.7,0.2,1c0.1,0.4,0.2,0.7,0.3,1.1c0.1,0.2,0.1,0.4,0.2,0.5l0,0c0,0-0.1,0-0.1-0.1c-0.1,0-0.1-0.1-0.2-0.1
	c-0.1,0-0.1-0.1-0.2-0.1c-0.1,0-0.2-0.1-0.2-0.1h0c0,0-0.1,0-0.1,0c0,0-0.1,0,0,0.1c0,0,0,0.1,0.1,0.1c0,0,0.1,0.1,0.1,0.1
	c0.1,0.1,0.1,0.1,0.2,0.1c0.1,0,0.1,0.1,0.2,0.1c0,0,0.1,0,0.1,0.1c0,0,0.1,0,0.1,0c0,0,0,0,0,0c0.1,0.5,0.3,0.9,0.4,1.4
	c0.1,0.4,0.2,0.8,0.4,1.1c-0.1,0-0.1-0.1-0.2-0.1c-0.1-0.1-0.2-0.1-0.2-0.2c0,0-0.1-0.1-0.1-0.1c0,0,0,0-0.1,0c0,0,0,0-0.1,0
	c0,0-0.1,0-0.1,0c0,0,0,0.1,0,0.1c0,0,0,0.1,0,0.1c0,0.1,0.1,0.1,0.1,0.2c0.1,0.1,0.2,0.2,0.3,0.2c0.1,0.1,0.2,0.1,0.3,0.2
	c0,0,0.1,0,0.1,0c0.1,0.2,0.2,0.5,0.2,0.7c0.1,0.4,0.3,0.7,0.4,1.1c0.1,0.3,0.2,0.7,0.4,0.9c0,0.1,0.1,0,0.1-0.1
	C80.1,24.7,79.9,24.3,79.8,24z"/>
<path class="st1" d="M74.4,25.9c-0.4-0.2-0.7-0.6-1.1-0.9c0,0,0,0,0,0c0,0,0,0,0,0c0,0,0,0,0-0.1c0,0,0-0.1,0-0.1c0-0.1,0-0.1,0-0.2
	c0-0.1,0-0.2,0-0.4c0-0.1,0-0.2-0.1-0.3c-0.1-0.1-0.1-0.2-0.2-0.2c0,0-0.1,0,0,0c0,0,0,0.1,0.1,0.1c0,0,0,0,0,0c0,0,0,0,0,0
	c0,0,0,0,0,0.1c0,0.1,0,0.2,0.1,0.3c0,0.1,0,0.2,0,0.4c0,0,0,0.1,0,0.1c-0.1-0.1-0.1-0.1-0.2-0.2c-0.3-0.3-0.6-0.6-0.8-0.8
	c0,0-0.1-0.1-0.1-0.1c0,0,0.1,0,0.1-0.1c0-0.2,0-0.3-0.1-0.5c0-0.1,0-0.1,0-0.2c0-0.1,0-0.1-0.1-0.2c0,0-0.1,0-0.1,0
	c0,0.2,0,0.3,0,0.4c0,0.1,0,0.3,0.1,0.4c-0.1-0.1-0.2-0.2-0.3-0.3c-0.1-0.1-0.2-0.3-0.4-0.3c0,0-0.1,0-0.1,0.1
	c0,0.1,0.2,0.2,0.2,0.3c0.1,0.1,0.3,0.3,0.4,0.4c0.1,0.1,0.2,0.3,0.4,0.4c-0.1,0-0.2,0-0.3,0c0,0-0.1,0-0.1,0c0,0-0.1,0-0.1,0
	c0,0,0,0-0.1,0c0,0,0,0-0.1,0c0,0-0.1,0-0.1,0c0,0,0,0,0,0c0,0.1,0.1,0.1,0.2,0.1c0.1,0,0.1,0.1,0.2,0.1c0.1,0,0.2,0,0.2,0
	c0.1,0,0.2,0,0.2,0c0,0,0.1,0,0.1,0c0.1,0.1,0.1,0.2,0.2,0.2c0.3,0.3,0.6,0.6,0.9,0.9c0,0,0,0,0,0c-0.1,0-0.2,0-0.4-0.1
	c-0.1,0-0.2,0-0.4,0c0,0-0.1,0.1,0,0.1c0.1,0.1,0.2,0.1,0.3,0.1c0.1,0,0.2,0,0.3,0.1c0.1,0,0.2,0,0.3,0.1c0,0,0.1,0,0.1,0
	c0,0,0.1,0,0.1,0.1c0.1,0.1,0.2,0.2,0.4,0.2c0.1,0,0.2,0.1,0.3,0.1C74.9,26.1,74.5,25.9,74.4,25.9z"/>
<path class="st1" d="M95.6,21.2C95.6,21.2,95.6,21.2,95.6,21.2L95.6,21.2C95.6,21.2,95.6,21.2,95.6,21.2
	C95.6,21.2,95.6,21.2,95.6,21.2C95.6,21.2,95.6,21.2,95.6,21.2c-0.1-0.1-0.2,0-0.2,0c-0.1,0-0.1,0.1-0.2,0.1c-0.1,0-0.1,0-0.2,0
	c0.1-0.2,0.2-0.3,0.2-0.5c0-0.1-0.1-0.1-0.1,0c-0.3,0.4-0.5,0.9-0.8,1.3c0,0,0-0.1,0-0.1c0-0.1,0-0.1-0.1-0.2c0-0.1,0-0.1-0.1-0.2
	c0-0.1,0-0.2-0.1-0.2l0,0c0,0,0,0,0-0.1c0,0,0,0,0-0.1c0,0,0,0-0.1,0c0,0,0,0.1,0,0.1c0,0,0,0,0,0.1c0,0,0,0,0,0c0,0,0,0.1,0,0.1
	c0,0,0,0.1,0,0.1c0,0.1,0,0.1,0.1,0.2c0,0.1,0.1,0.1,0.1,0.2c0,0.1,0.1,0.1,0.1,0.1c-0.2,0.4-0.5,0.7-0.7,1.1
	c-0.2,0.3-0.4,0.5-0.6,0.8c0,0,0-0.1,0-0.1c0-0.1,0-0.3,0-0.4c0-0.1,0-0.3,0-0.4c0-0.1,0-0.1,0-0.2c0-0.1,0-0.1,0-0.2c0,0,0,0-0.1,0
	c0,0.1-0.1,0.1-0.1,0.2c0,0.1,0,0.1,0,0.2c0,0.1,0,0.3,0,0.4c0,0.2,0.1,0.5,0.1,0.7c-0.1,0.1-0.1,0.2-0.2,0.3
	c-0.2,0.2-0.3,0.4-0.5,0.6c-0.1,0.2-0.3,0.4-0.4,0.6c0,0.1,0,0.1,0.1,0.1c0.2-0.1,0.3-0.3,0.5-0.5c0.2-0.2,0.3-0.4,0.5-0.6
	c0.3-0.4,0.6-0.8,0.9-1.3c0,0,0,0,0,0c0,0,0,0,0.1,0c0.1,0,0.1,0,0.2-0.1c0.1,0,0.2-0.1,0.4-0.2c0.2-0.1,0.5-0.3,0.6-0.5
	c0,0,0-0.1,0,0c0,0-0.1,0-0.1,0.1c-0.1,0-0.1,0.1-0.2,0.1c-0.1,0.1-0.2,0.1-0.3,0.2c-0.1,0.1-0.2,0.1-0.3,0.2c0,0,0,0-0.1,0
	c0.2-0.4,0.5-0.7,0.7-1.1c0.1-0.2,0.3-0.5,0.4-0.7c0,0,0.1,0,0.1,0c0.1,0,0.1,0,0.2,0c0.1,0,0.1,0,0.2-0.1
	C95.5,21.3,95.6,21.3,95.6,21.2C95.6,21.2,95.6,21.2,95.6,21.2C95.6,21.2,95.6,21.2,95.6,21.2C95.6,21.2,95.6,21.2,95.6,21.2
	C95.6,21.2,95.6,21.2,95.6,21.2z"/>
<path class="st12" d="M69.3,25.4c0-0.1-0.1-0.1-0.1-0.2c0,0,0,0,0,0c0,0,0,0-0.1,0c0,0,0,0-0.1,0c0,0-0.1,0-0.1-0.1l-0.1,0
	c-0.1,0-0.1,0-0.2,0c0,0-0.1,0-0.1,0.1c0,0-0.1,0.1-0.1,0.1c0,0-0.1,0.1-0.1,0.1c0,0,0,0.1,0,0.1c0,0.1,0,0.1,0,0.2
	c0,0,0,0.1,0.1,0.1l0.1,0.1l0.1,0.1c0,0,0.1,0,0.1,0.1c0,0,0.1,0,0.1,0c0.1,0,0.1,0,0.2,0c0,0,0.1,0,0.1-0.1c0,0,0.1,0,0.1-0.1h0
	c0,0,0.1-0.1,0.1-0.2c0,0,0-0.1,0-0.1C69.3,25.5,69.3,25.5,69.3,25.4z"/>
<path class="st12" d="M77.1,11.8c0,0,0-0.1,0-0.1c0-0.1-0.1-0.1-0.1-0.2c0,0,0,0,0,0c0,0-0.1-0.1-0.2-0.1c-0.1,0-0.1,0-0.2,0
	c0,0-0.1,0-0.1,0c-0.1,0-0.2,0.1-0.2,0.1c0,0,0,0,0,0c0,0-0.1,0.1-0.1,0.1c0,0,0,0.1-0.1,0.1c0,0.1,0,0.1,0,0.2c0,0,0,0.1,0,0.1
	c0,0,0,0.1,0.1,0.1c0,0,0.1,0.1,0.1,0.1c0,0,0.1,0.1,0.1,0.1c0.1,0,0.1,0,0.2,0l0.1,0c0,0,0.1,0,0.1-0.1c0,0,0.1-0.1,0.1-0.1
	c0,0,0.1-0.1,0.1-0.1c0,0,0-0.1,0.1-0.1C77.1,11.9,77.2,11.9,77.1,11.8z"/>
<path class="st12" d="M88.7,13.9c0-0.1-0.1-0.2-0.1-0.2c0-0.1-0.1-0.1-0.2-0.2c-0.1-0.1-0.2-0.1-0.3-0.1c-0.1,0-0.2,0-0.3,0.1
	c-0.1,0.1-0.2,0.1-0.2,0.2c0,0,0,0,0,0c-0.1,0.2-0.1,0.4,0,0.6c0.1,0.1,0.1,0.2,0.2,0.2c0.1,0.1,0.2,0.1,0.3,0.1c0.1,0,0.1,0,0.2,0
	c0,0,0,0,0,0c0,0,0,0,0,0c0.2-0.1,0.4-0.2,0.4-0.4C88.7,14.1,88.7,14,88.7,13.9z"/>
<path class="st12" d="M96.2,24.8c0-0.1-0.1-0.2-0.1-0.3l-0.1-0.1c-0.1-0.1-0.2-0.1-0.3-0.1c-0.1,0-0.2,0-0.2,0
	c-0.1,0-0.1,0.1-0.2,0.1c-0.1,0.1-0.1,0.1-0.1,0.2c0,0.1-0.1,0.1-0.1,0.2l0,0.2c0,0.1,0.1,0.2,0.1,0.3c0,0,0.1,0.1,0.1,0.1
	c0.1,0.1,0.2,0.1,0.3,0.1c0.1,0,0.2,0,0.2,0c0.1,0,0.1-0.1,0.2-0.1c0.1-0.1,0.1-0.1,0.1-0.2c0-0.1,0.1-0.1,0.1-0.2
	C96.2,24.9,96.2,24.8,96.2,24.8z"/>
<path class="st12" d="M85.7,20c0.1-0.2,0.1-0.4-0.1-0.5c-0.1-0.1-0.2-0.1-0.3,0c0-0.1-0.1-0.1-0.1-0.2c-0.1-0.1-0.2-0.1-0.3-0.1
	c-0.1,0-0.2,0.1-0.2,0.3c0,0.1,0,0.2,0,0.3c-0.1,0-0.2,0.1-0.3,0.2c0,0.1-0.1,0.1-0.1,0.2c0,0.2,0.2,0.2,0.3,0.2
	c-0.1,0.2,0,0.4,0.1,0.5c0.1,0.1,0.2,0,0.3-0.1c0.1-0.1,0.1-0.1,0.2-0.2c0.2,0.1,0.4,0.1,0.5,0c0.1-0.1,0.1-0.2,0.1-0.3
	C85.8,20.2,85.8,20.1,85.7,20z"/>
<path class="st12" d="M79.6,18.5c0.2-0.1,0.3-0.3,0.2-0.5c0-0.1-0.1-0.2-0.3-0.2c0-0.1,0-0.2,0-0.3c0-0.1-0.1-0.3-0.3-0.3
	c-0.1,0-0.3,0-0.4,0.1c-0.1,0.1-0.1,0.2-0.1,0.3c-0.1-0.1-0.3-0.1-0.4,0c-0.1,0-0.1,0.1-0.2,0.1c-0.1,0.2,0,0.3,0.1,0.4
	c-0.2,0.1-0.3,0.4-0.2,0.6c0.1,0.1,0.2,0.1,0.4,0.1c0.1,0,0.2-0.1,0.3-0.1c0.1,0.2,0.3,0.3,0.5,0.3c0.1,0,0.2-0.1,0.3-0.2
	C79.7,18.6,79.6,18.6,79.6,18.5z"/>
<path class="st12" d="M90.4,24.5c0.2,0,0.3-0.2,0.3-0.4c0-0.1-0.1-0.2-0.2-0.3c0-0.1,0.1-0.1,0.1-0.2c0-0.1,0-0.3-0.1-0.3
	c-0.1-0.1-0.2,0-0.3,0c-0.1,0-0.1,0.1-0.2,0.2c-0.1-0.1-0.2-0.1-0.3-0.1c-0.1,0-0.1,0-0.2,0.1c-0.1,0.1-0.1,0.3,0,0.4
	c-0.2,0.1-0.3,0.2-0.3,0.4c0,0.1,0.2,0.2,0.3,0.2c0.1,0,0.2,0,0.3,0c0,0.2,0.1,0.3,0.3,0.3c0.1,0,0.2,0,0.3-0.1
	C90.4,24.7,90.4,24.6,90.4,24.5z"/>
<path class="st12" d="M82.4,12.1c0.1,0,0.3-0.2,0.3-0.3c0-0.1-0.1-0.2-0.1-0.2c0-0.1,0.1-0.1,0.1-0.2c0-0.1,0-0.2-0.1-0.3
	c-0.1-0.1-0.2,0-0.3,0c-0.1,0-0.1,0.1-0.2,0.2c-0.1-0.1-0.2-0.1-0.3-0.1c-0.1,0-0.1,0-0.2,0.1c-0.1,0.1-0.1,0.2,0,0.3
	c-0.1,0.1-0.3,0.2-0.2,0.4c0,0.1,0.1,0.1,0.2,0.2c0.1,0,0.2,0,0.2,0c0,0.1,0.1,0.3,0.3,0.3c0.1,0,0.2,0,0.2-0.1
	C82.4,12.2,82.4,12.2,82.4,12.1z"/>
<path class="st12" d="M75.5,23.9c0.1-0.2,0.1-0.4-0.1-0.6c-0.1-0.1-0.2-0.1-0.4-0.1c0-0.1-0.1-0.2-0.1-0.2c-0.1-0.1-0.2-0.2-0.4-0.1
	c-0.1,0-0.2,0.2-0.3,0.3c0,0.1,0,0.2,0,0.3c-0.1,0-0.3,0.1-0.3,0.2c-0.1,0.1-0.1,0.1-0.1,0.2c0,0.2,0.2,0.3,0.3,0.3
	c-0.1,0.2,0,0.5,0.2,0.6c0.1,0.1,0.3,0,0.4-0.1c0.1-0.1,0.1-0.2,0.2-0.2c0.2,0.1,0.4,0.1,0.6,0c0.1-0.1,0.1-0.2,0.1-0.3
	C75.6,24,75.6,24,75.5,23.9z"/>
<path class="st12" d="M77.6,20.3C77.6,20.3,77.6,20.3,77.6,20.3c-0.1-0.1-0.2-0.1-0.2-0.1c0,0-0.1,0-0.1,0c0,0,0,0,0,0c0,0,0,0,0,0
	c0,0,0,0,0,0c0,0,0,0,0,0.1c0,0,0,0,0,0c0,0,0,0,0,0c0,0,0,0.1,0,0.1c0,0,0,0.1,0,0.1c0,0,0,0,0,0c0,0,0,0,0,0c0,0,0,0,0,0
	c0,0,0,0,0,0c0,0,0,0,0,0c0,0,0,0,0,0.1l0,0c0,0,0,0,0,0c0,0,0,0,0,0c0,0,0.1,0,0.1,0c0,0,0.1,0,0.1,0c0,0,0.1,0,0.1-0.1
	c0,0,0,0,0.1-0.1c0,0,0-0.1,0-0.1C77.7,20.4,77.7,20.4,77.6,20.3z"/>
<path class="st12" d="M78.6,21C78.6,21,78.6,21,78.6,21C78.6,21,78.6,21,78.6,21C78.6,21,78.6,21,78.6,21z"/>
<path class="st12" d="M79,20.9C79,20.9,79,20.9,79,20.9L79,20.9C79,20.8,79,20.8,79,20.9C79,20.8,79,20.8,79,20.9
	C79,20.8,79,20.8,79,20.9c-0.1-0.1-0.1-0.1-0.1-0.1c0,0,0,0,0,0c0,0,0,0,0,0c0,0,0,0,0,0c0,0,0,0-0.1,0c0,0,0,0,0,0c0,0,0,0,0,0
	c0,0,0,0,0,0c0,0-0.1,0-0.1,0c0,0,0,0,0,0.1c0,0,0,0,0,0c0,0,0,0,0,0c0,0,0,0,0,0c0,0,0,0,0,0.1c0,0,0,0.1,0,0.1c0,0,0,0.1,0.1,0.1
	c0,0,0,0,0,0c0,0,0,0,0,0c0,0,0,0,0.1,0c0,0,0,0,0.1,0c0,0,0.1,0,0.1,0c0,0,0,0,0,0c0,0,0,0,0.1-0.1c0,0,0,0,0-0.1
	C79,21,79,21,79,20.9C79,20.9,79,20.9,79,20.9z"/>
<path class="st12" d="M78.3,21.9C78.3,21.9,78.3,21.8,78.3,21.9C78.3,21.8,78.3,21.8,78.3,21.9c-0.1-0.1-0.1-0.1-0.1-0.1
	c0,0,0,0-0.1,0c0,0,0,0,0,0c0,0,0,0,0,0c0,0,0,0,0,0.1c0,0,0,0,0,0c0,0,0,0,0,0.1c0,0,0,0,0,0c0,0,0.1,0,0.1,0c0,0,0,0,0.1,0
	c0,0,0,0,0,0C78.3,22,78.3,22,78.3,21.9C78.3,22,78.3,22,78.3,21.9C78.3,21.9,78.3,21.9,78.3,21.9z"/>
<path class="st12" d="M80.1,23.9C80.1,23.9,80.1,23.9,80.1,23.9C80.1,23.9,80.1,23.8,80.1,23.9C80.1,23.8,80.1,23.8,80.1,23.9
	c0-0.1-0.1-0.1-0.1-0.1c0,0,0,0,0,0c0,0,0,0,0,0c0,0,0,0-0.1,0c-0.1,0-0.1,0.1-0.2,0.1l0,0c0,0,0,0,0,0c0,0,0,0,0,0c0,0,0,0,0,0.1
	c0,0,0,0,0,0c0,0,0,0,0,0c0,0,0,0,0,0c0,0,0,0,0,0c0,0,0,0,0,0c0,0,0,0.1,0,0.1c0,0,0,0.1,0,0.1c0,0,0,0,0,0c0,0,0,0,0.1,0
	c0,0,0,0,0.1,0c0,0,0.1,0,0.1,0c0,0,0,0,0.1,0c0,0,0.1,0,0.1-0.1c0,0,0,0,0,0c0,0,0,0,0,0c0,0,0,0,0,0C80.1,24,80.1,23.9,80.1,23.9
	C80.1,23.9,80.1,23.9,80.1,23.9z"/>
<path class="st12" d="M78.6,25.1C78.6,25.1,78.6,25.1,78.6,25.1C78.6,25.1,78.6,25,78.6,25.1C78.6,25,78.6,25,78.6,25.1
	C78.6,25,78.6,25,78.6,25.1c0-0.1,0-0.1,0-0.1c0,0,0,0,0,0c0,0,0,0,0,0c0,0,0,0,0,0c0,0,0,0,0,0c0,0,0,0,0,0c0,0,0,0-0.1,0
	c0,0,0,0,0,0c0,0,0,0,0,0c0,0,0,0,0,0l0,0c0,0,0,0,0,0c0,0,0,0,0,0c0,0,0,0,0,0l0,0c0,0,0,0-0.1,0.1c0,0,0,0.1,0,0.1
	c0,0.1,0,0.1,0.1,0.1c0,0,0.1,0,0.2,0C78.6,25.2,78.6,25.2,78.6,25.1L78.6,25.1z"/>
<path class="st12" d="M87.6,24.1C87.6,24.1,87.6,24.1,87.6,24.1C87.6,24,87.6,24,87.6,24.1c0-0.1,0-0.1,0-0.1c0,0,0,0,0,0
	c0,0,0,0,0,0c0,0-0.1,0-0.1,0h0c0,0,0,0,0,0c0,0,0,0,0,0c0,0,0,0,0,0c0,0,0,0,0,0c0,0,0,0,0,0c0,0,0,0,0,0c0,0,0,0,0,0c0,0,0,0,0,0
	c0,0,0,0,0,0c0,0,0,0,0,0.1l0,0c0,0,0,0,0,0c0,0,0,0,0,0c0,0,0,0,0,0c0,0,0,0,0,0c0,0,0,0,0,0C87.6,24.2,87.6,24.2,87.6,24.1
	C87.6,24.1,87.6,24.1,87.6,24.1C87.6,24.1,87.6,24.1,87.6,24.1z"/>
<path class="st12" d="M88.8,22.8C88.8,22.8,88.8,22.8,88.8,22.8C88.8,22.8,88.8,22.8,88.8,22.8C88.8,22.8,88.8,22.8,88.8,22.8z"/>
<path class="st12" d="M89.1,22.5C89,22.5,89,22.5,89.1,22.5c-0.1-0.1-0.2-0.1-0.3-0.1c-0.1,0-0.1,0.1-0.1,0.2c0,0,0,0.1,0,0.1
	c0,0,0,0.1,0.1,0.1c0,0,0,0,0.1,0c0,0,0.1,0,0.1,0c0,0,0.1,0,0.1,0s0-0.1,0-0.1c0,0,0-0.1,0-0.1C89.1,22.6,89.1,22.6,89.1,22.5z"/>
<path class="st12" d="M88.8,22.8C88.8,22.8,88.8,22.8,88.8,22.8C88.8,22.8,88.8,22.8,88.8,22.8C88.8,22.8,88.8,22.8,88.8,22.8z"/>
<path class="st12" d="M88.8,22.8C88.8,22.8,88.8,22.8,88.8,22.8C88.8,22.8,88.8,22.8,88.8,22.8C88.8,22.8,88.8,22.8,88.8,22.8z"/>
<path class="st12" d="M88.2,21.7C88.2,21.7,88.2,21.7,88.2,21.7C88.2,21.7,88.2,21.6,88.2,21.7c-0.1-0.1-0.1-0.1-0.1-0.1l0,0
	c0,0-0.1,0-0.1,0c0,0-0.1,0-0.1,0l0,0c0,0,0,0,0,0c0,0,0,0,0,0.1c0,0,0,0,0,0c0,0,0,0,0,0.1c0,0,0,0,0,0c0,0,0,0,0,0c0,0,0,0,0.1,0
	c0,0,0,0,0,0c0,0,0,0,0.1,0c0,0,0,0,0,0c0,0,0,0,0,0C88.2,21.8,88.2,21.8,88.2,21.7z"/>
<path class="st12" d="M88.6,19.6L88.6,19.6c-0.1-0.1-0.1-0.1-0.2-0.1c0,0,0,0-0.1,0c0,0-0.1,0-0.1,0c0,0,0,0,0,0c0,0-0.1,0-0.1,0.1
	c0,0,0,0.1,0,0.1c0,0,0,0.1,0,0.1c0,0,0,0.1,0,0.1c0,0,0,0,0,0.1c0,0,0.1,0.1,0.1,0.1c0,0,0,0,0.1,0c0,0,0.1,0,0.1,0c0,0,0,0,0,0
	c0,0,0.1,0,0.1-0.1c0,0,0-0.1,0-0.1C88.6,19.8,88.6,19.8,88.6,19.6C88.6,19.7,88.6,19.7,88.6,19.6z"/>
<path class="st12" d="M89.8,20.6C89.8,20.6,89.8,20.6,89.8,20.6C89.8,20.6,89.8,20.6,89.8,20.6C89.8,20.6,89.8,20.6,89.8,20.6
	C89.8,20.6,89.8,20.6,89.8,20.6C89.8,20.6,89.8,20.6,89.8,20.6C89.8,20.6,89.8,20.6,89.8,20.6C89.8,20.6,89.8,20.6,89.8,20.6
	C89.8,20.6,89.8,20.6,89.8,20.6C89.7,20.6,89.7,20.6,89.8,20.6c-0.1-0.1-0.1-0.1-0.1-0.1c0,0,0,0,0,0c0,0,0,0,0,0c0,0,0,0,0,0
	c0,0,0,0,0,0c0,0,0,0,0,0c0,0,0,0,0,0c0,0-0.1,0-0.1,0c0,0,0,0-0.1,0c0,0,0,0,0,0.1c0,0,0,0.1,0,0.1c0,0,0,0,0,0.1c0,0,0,0,0,0
	c0,0,0,0,0,0l0,0c0,0,0,0,0,0l0,0c0,0,0,0,0.1,0c0,0,0,0,0,0c0,0,0,0,0.1,0c0,0,0.1,0,0.1,0c0,0,0,0,0,0c0,0,0,0,0-0.1c0,0,0,0,0,0
	C89.8,20.7,89.8,20.7,89.8,20.6C89.8,20.7,89.8,20.7,89.8,20.6z"/>
<path class="st12" d="M86.9,20.1C86.9,20.1,86.9,20.1,86.9,20.1C86.9,20.1,86.9,20.1,86.9,20.1C86.9,20.1,86.9,20.1,86.9,20.1
	C86.9,20.1,86.9,20.1,86.9,20.1z"/>
<path class="st12" d="M87.2,20.2C87.2,20.2,87.1,20.2,87.2,20.2c0-0.1,0-0.1,0-0.1c0,0,0-0.1-0.1-0.1c0,0,0,0,0,0c0,0,0,0,0,0
	c0,0,0,0,0,0c0,0,0,0-0.1,0c0,0-0.1,0-0.1,0c0,0,0,0,0,0c0,0,0,0,0,0c0,0,0,0,0,0c-0.1,0-0.1,0.1-0.1,0.2c0,0,0,0.1,0,0.1
	c0,0,0,0,0,0c0,0,0,0,0,0c0,0,0,0,0.1,0.1c0,0,0.1,0,0.1,0c0,0,0.1,0,0.1-0.1c0,0,0,0,0-0.1C87.1,20.3,87.1,20.3,87.2,20.2
	C87.2,20.3,87.2,20.3,87.2,20.2C87.2,20.2,87.2,20.3,87.2,20.2C87.2,20.2,87.2,20.2,87.2,20.2z"/>
<path class="st13" d="M85.7,45.5c-0.1-0.8,0-1.4,0-1.4l-5.8,0c0,0,0,2.1-0.7,3.2c0.7,0,1.5,0,2.2,0c1.3-0.1,2.6-0.4,3.6-1.1
	C85.2,46,85.5,45.8,85.7,45.5z"/>
<path class="st11" d="M73.9,33.4c0,0-1.5-0.1-1.5,1.5c0,1.5,1.6,1.8,1.6,1.8s2.4,9.7,8.9,9.2c6.4-0.4,7.9-9.1,7.9-9.1
	s1.6-0.2,1.5-1.4c-0.1-1.9-1.5-1.9-1.5-1.9s-7.3-2.8-8.2-6.5C82.7,27,80.6,31,73.9,33.4z"/>
<path class="st13" d="M74.2,34.8c-0.1-0.1-0.1-0.3-0.2-0.4c-0.1-0.1-0.2-0.2-0.3-0.3c-0.1-0.1-0.3-0.1-0.4-0.1
	c-0.2,0-0.3,0.1-0.3,0.3c0,0.1,0.1,0.1,0.1,0.1c0,0,0.1,0,0.1,0c0,0,0,0,0,0c0,0,0,0,0,0c0,0,0,0,0.1,0c0,0,0,0,0,0c0,0,0,0,0,0
	c0,0,0,0,0,0c0,0,0,0,0,0c0,0,0,0,0.1,0c0.1,0.1,0.2,0.2,0.2,0.3c0,0,0,0,0,0c-0.2,0.2-0.4,0.5-0.3,0.8c0.1,0.1,0.2,0.3,0.3,0.3
	c0.2,0,0.4,0,0.5-0.2C74.3,35.4,74.3,35.1,74.2,34.8z"/>
<path class="st13" d="M91.9,35.2c-0.1-0.2-0.3-0.4-0.5-0.3c0,0,0,0,0,0c0-0.1,0.1-0.2,0.1-0.3c0-0.1,0.1-0.1,0.1-0.1
	c0,0,0.1-0.1,0.1-0.1c0.1-0.1-0.1-0.2-0.1-0.1c-0.1,0-0.1,0.1-0.2,0.1c-0.1,0.1-0.1,0.1-0.2,0.2c-0.1,0.1-0.2,0.3-0.2,0.4
	c0,0.2-0.1,0.3,0,0.5c0,0.2,0,0.4,0.2,0.5c0.2,0.2,0.4,0.1,0.5-0.1C91.9,35.6,91.9,35.4,91.9,35.2z"/>
<path class="st6" d="M94.2,33.2c-0.2,0-0.4,0-0.6,0c-0.2,0-0.5,0-0.7,0c-0.5-0.1-0.9-0.2-1.4-0.3c-0.9-0.2-1.8-0.5-2.7-0.8
	c-1.6-0.7-3.1-1.7-4.3-3c-0.3-0.3-0.6-0.7-0.9-1.1c-0.3-0.4-0.5-0.8-0.8-1.2c0-0.1-0.1-0.1-0.2,0c0,0,0,0,0,0c-0.1,0-0.1,0-0.2,0.1
	c0,0,0,0,0,0c0,0,0,0,0,0c0,0,0,0,0,0c0,0,0,0.1,0,0.1c0,0.1,0,0.1-0.1,0.2c-0.2,0.3-0.5,0.7-0.8,0.9c-0.6,0.6-1.3,1.1-2,1.6
	c-0.8,0.6-1.6,1.1-2.4,1.7c-0.8,0.5-1.5,1-2.4,1.4c-0.5,0.2-0.9,0.3-1.4,0.4c-0.2,0.1-0.5,0.1-0.7,0.1c-0.3,0-0.5,0-0.8,0
	c-0.1,0-0.1,0.1-0.1,0.2c0.4,0.2,0.9,0.2,1.3,0.2c0.5,0,0.9-0.1,1.3-0.2c0.9-0.3,1.7-0.7,2.5-1.2c0.8-0.5,1.6-1.1,2.4-1.6
	c0.7-0.5,1.5-1.1,2.2-1.6c0.3-0.3,0.7-0.6,1-1c0.1-0.2,0.3-0.4,0.4-0.6c0,0,0,0,0,0c0.1,0.2,0.2,0.5,0.3,0.7
	c0.2,0.4,0.5,0.7,0.8,1.1c0.6,0.7,1.2,1.3,2,1.8c1.6,1.2,3.4,1.9,5.3,2.4c0.5,0.1,1.1,0.2,1.6,0.3c0.3,0,0.6,0.1,0.9,0
	c0.3,0,0.5-0.2,0.7-0.4C94.3,33.3,94.3,33.2,94.2,33.2z"/>
<path class="st6" d="M73.2,43.3c-0.2-1.7-0.7-3.3-1-5c-0.1-0.5-0.2-1-0.2-1.4c-0.1-0.4,0-1-0.2-1.4c0-0.1-0.1-0.1-0.1,0
	c-0.1,0.4-0.1,0.8,0,1.2c0,0.4,0.1,0.8,0.1,1.3c0.1,0.8,0.2,1.6,0.4,2.4c0.3,1.6,0.7,3.1,0.7,4.8c0,0.8-0.3,1.7-0.4,2.5
	c0,0.1,0.1,0.2,0.2,0.1c0.3-0.3,0.4-0.6,0.5-1c0.1-0.4,0.2-0.8,0.2-1.1C73.4,44.8,73.3,44,73.2,43.3z"/>
<path class="st6" d="M75.5,43.8c0-0.6-0.1-1.2-0.2-1.7c-0.1-0.3-0.1-0.6-0.2-0.8c-0.1-0.3-0.2-0.5-0.4-0.7c0,0-0.1,0-0.1,0
	c0,0.3,0.1,0.5,0.1,0.8c0.1,0.3,0.1,0.5,0.2,0.8c0.1,0.5,0.1,1.1,0.1,1.6c0,0.5,0,1.1-0.1,1.6c0,0.3-0.1,0.6-0.1,0.8
	c0,0.2-0.1,0.5,0,0.7c0,0,0,0,0.1,0c0.2-0.1,0.3-0.4,0.4-0.7c0.1-0.3,0.1-0.5,0.2-0.8C75.5,44.9,75.5,44.4,75.5,43.8z"/>
<path class="st6" d="M77.3,45.3c0-0.2,0-0.3-0.2-0.5c0,0-0.1,0-0.1,0c-0.1,0.1,0,0.3,0,0.5c0,0.2,0,0.3,0,0.5c0,0.2,0,0.3-0.1,0.5
	c0,0.2-0.1,0.3-0.1,0.5c0,0,0,0.1,0.1,0c0.1-0.1,0.2-0.3,0.2-0.4c0-0.1,0.1-0.2,0.1-0.2c0-0.1,0-0.2,0.1-0.3
	C77.3,45.7,77.3,45.5,77.3,45.3z"/>
<path class="st6" d="M93.6,34.9c0-0.1-0.1,0-0.1,0c-0.1,0.4-0.1,0.9-0.2,1.3c-0.1,0.5-0.1,0.9-0.2,1.4c-0.1,0.9-0.3,1.7-0.5,2.6
	c-0.4,1.8-0.6,3.5-0.5,5.3c0,0.5,0,1,0.1,1.5c0,0.5,0.1,1,0.4,1.4c0,0,0.1,0,0.1,0c0.1-0.4,0.1-0.9,0.1-1.3c0-0.4-0.1-0.9-0.1-1.3
	c0-0.9,0-1.8,0.1-2.7c0.2-1.8,0.6-3.5,0.8-5.2c0.1-0.5,0.1-1,0.1-1.5C93.6,35.9,93.6,35.4,93.6,34.9z"/>
<path class="st6" d="M90.6,46.1c0-0.6-0.1-1.1-0.1-1.7c0-0.6,0-1.1,0-1.7c0-0.3,0-0.6,0-0.9c0-0.3,0-0.5,0-0.8c0,0-0.1,0-0.1,0
	c-0.2,0.5-0.3,1.1-0.3,1.6c-0.1,0.6-0.1,1.2-0.1,1.8c0,0.6,0,1.2,0.1,1.7c0,0.6,0.1,1.1,0.3,1.7c0,0.1,0.1,0,0.1,0
	C90.7,47.2,90.6,46.7,90.6,46.1z"/>
<path class="st6" d="M88.4,47c0-0.2,0-0.4-0.1-0.7c0-0.2,0-0.4,0-0.7c0-0.2,0-0.4,0-0.6l0,0c0,0,0,0,0-0.1c0,0,0,0,0,0
	c0,0-0.1,0-0.1,0c-0.1,0.1-0.1,0.2-0.1,0.3c0,0.1,0,0.2,0,0.3c0,0.2,0,0.5,0,0.7c0,0.2,0,0.5,0.1,0.7c0,0.1,0,0.2,0.1,0.3
	c0,0.1,0.1,0.2,0.2,0.3c0,0,0.1,0,0.1,0c0-0.1,0-0.2,0-0.3C88.4,47.2,88.4,47.1,88.4,47z"/>
<path class="st14" d="M90.7,48.7c-0.2,0-0.3,0.2-0.2,0.3c0,0,0,0,0,0c-0.2,0.1-0.3,0.3-0.1,0.5c0,0,0,0,0,0c0,0.1-0.1,0.1-0.1,0.2
	c-0.1,0.1-0.3,0.2-0.4,0.4c-0.1,0.2-0.1,0.3-0.1,0.5c0,0,0,0,0,0c0,0-0.1,0-0.1,0c-0.1,0-0.1,0-0.2,0c-0.2,0.1-0.3,0.1-0.3,0.3
	c0,0.1,0,0.2,0,0.3c0,0.1,0.1,0.1,0,0.1c-0.1,0.1-0.3,0.1-0.4,0.1c-0.2,0-0.4,0.1-0.5,0.3c-0.1,0.1-0.1,0.3-0.2,0.4
	c-0.1,0.1-0.3,0.1-0.4,0.2c-0.4,0.1-0.6,0.4-0.9,0.5c-0.2,0.1-0.4,0-0.6,0.1c-0.2,0-0.3,0.1-0.4,0.3c-0.1,0.1-0.2,0.2-0.3,0.3
	c-0.1,0.1-0.3,0-0.5,0c-0.2,0-0.4-0.1-0.6-0.1c-0.2,0-0.4,0.1-0.6,0.2c-0.1,0.1-0.2,0.1-0.4,0c-0.2-0.1-0.3-0.2-0.5-0.2
	c-0.4-0.1-0.7,0.1-1,0.3c-0.1,0-0.2,0.1-0.2,0c-0.1,0-0.1-0.1-0.1-0.2c-0.1-0.1-0.1-0.2-0.2-0.2c-0.2-0.1-0.3-0.1-0.5-0.1
	c-0.2,0-0.4,0.1-0.5,0c-0.1-0.1-0.2-0.2-0.3-0.3c-0.1-0.1-0.2-0.2-0.4-0.3c-0.2-0.1-0.4-0.1-0.6-0.1c-0.2,0-0.3-0.1-0.3-0.2
	c-0.1-0.1-0.2-0.3-0.3-0.4C78.2,52,78,52,77.9,51.9c-0.1-0.1-0.2-0.3-0.3-0.4c-0.1-0.1-0.2-0.3-0.3-0.4C77.1,51,76.9,51,76.7,51
	c-0.2,0-0.2-0.2-0.2-0.4c0-0.2,0-0.4-0.2-0.5C76.2,50,76,50,75.8,49.9c-0.5-0.1-0.5-0.8-0.4-1.2c0-0.1-0.2-0.2-0.3-0.1
	c-0.1,0.1-0.1,0.2-0.2,0.3c0,0.1,0,0.1,0.1,0.1c0,0.3,0,0.7,0.2,0.9c0.1,0.1,0.2,0.3,0.4,0.3c0.2,0.1,0.4,0,0.5,0.2
	c0,0.2,0,0.3,0,0.5c0,0.2,0.2,0.3,0.4,0.4c0.2,0.1,0.4,0,0.5,0.1c0.1,0.1,0.2,0.2,0.2,0.4c0.1,0.1,0.1,0.3,0.2,0.4
	c0.2,0.2,0.4,0.2,0.6,0.2c0.2,0.1,0.2,0.2,0.3,0.3c0.1,0.2,0.3,0.3,0.5,0.3c0.2,0.1,0.4,0,0.6,0.1c0.1,0.1,0.2,0.2,0.3,0.4
	c0.1,0.1,0.2,0.2,0.4,0.3c0.2,0.1,0.4,0,0.6,0c0.2,0,0.3,0,0.4,0.1c0.1,0.1,0.2,0.3,0.4,0.3c0.4,0.1,0.6-0.2,1-0.3
	c0.1-0.1,0.2,0,0.4,0c0.2,0.1,0.4,0.2,0.6,0.2c0.2,0,0.4-0.1,0.6-0.2c0.2-0.1,0.3-0.2,0.5-0.1c0.4,0.1,0.8,0.2,1.2-0.1
	c0.1-0.1,0.2-0.2,0.3-0.3c0.1-0.1,0.3-0.1,0.5-0.1c0.4-0.1,0.7-0.4,1-0.6c0.3-0.1,0.7-0.1,0.9-0.5c0-0.1,0.1-0.3,0.1-0.3
	c0.1-0.1,0.2-0.1,0.2-0.1c0.2,0,0.4-0.1,0.6-0.2c0.2-0.1,0.3-0.4,0.2-0.6c0,0,0,0,0,0c0.1,0,0.1,0,0.2,0c0.2-0.1,0.4-0.2,0.4-0.4
	c0-0.1,0-0.2,0-0.4c0-0.1,0.1-0.1,0.1-0.2c0.2-0.1,0.3-0.3,0.4-0.5c0-0.1,0.1-0.2,0-0.3C91.2,49.1,91.1,48.7,90.7,48.7z"/>
<path class="st14" d="M63.1,77.5c0-0.2-0.2-0.3-0.4-0.3c-0.1,0-0.2,0-0.2,0c0,0,0,0,0,0c-0.1-0.3-0.3-0.3-0.6-0.2c0,0,0,0,0,0
	c0,0-0.1-0.1-0.1-0.1c-0.1-0.1-0.2-0.2-0.3-0.3c-0.1,0-0.2,0-0.3,0.1c0,0,0,0,0,0c0,0-0.1-0.1-0.1-0.1c-0.1-0.1-0.1-0.2-0.2-0.2
	c-0.1-0.1-0.2,0-0.3,0c-0.1,0-0.1,0-0.1,0c0,0,0-0.1,0-0.1c0-0.1-0.1-0.2-0.2-0.2c-0.1,0-0.1,0-0.2,0c0,0-0.1,0-0.1,0
	c-0.1,0-0.2-0.2-0.2-0.3c-0.1-0.1-0.2-0.1-0.3-0.1c-0.1-0.1-0.2-0.3-0.3-0.3c-0.1,0-0.2,0-0.3,0c0,0,0,0,0,0l0-0.1
	c0-0.1-0.1-0.1-0.1-0.2c0-0.1-0.2,0-0.1,0c0,0.1,0,0.5,0.2,0.5c0.1,0,0.2,0,0.2,0c0.2,0,0.2,0.2,0.2,0.4c0,0.1,0.2,0.2,0.3,0.1
	c0,0,0,0,0,0c0,0,0,0,0.1,0.1c0,0,0,0.1,0.1,0.1c0.1,0.1,0.1,0.2,0.2,0.2c0.1,0,0.1,0,0.2,0c0,0,0.1,0,0.2,0c0,0,0.1,0.1,0.1,0.2
	c0,0.1,0.1,0.2,0.2,0.2c0.1,0.1,0.2,0,0.3,0c0.1,0,0.1,0,0.2,0.1c0,0.1,0.1,0.2,0.2,0.2c0.1,0.1,0.2,0.1,0.3,0.1
	c0.1,0,0.1,0,0.2-0.1c0,0,0,0,0,0c0,0,0,0,0,0c0,0.2,0.2,0.5,0.5,0.4c0.1,0,0.1,0,0.2,0c0,0.1,0.1,0.1,0.1,0.2
	c0.1,0.1,0.3,0.1,0.4,0.1c0.1,0,0.3,0.1,0.4,0C63,77.7,63.1,77.6,63.1,77.5z"/>
<path class="st14" d="M109.8,76.2c-0.1-0.1-0.3,0-0.4,0.1c0,0-0.1,0.1,0,0.1c0,0-0.2,0-0.2,0c-0.2,0-0.3,0.2-0.3,0.3c0,0,0,0,0,0
	c0,0-0.1,0-0.1,0c-0.1,0-0.3,0-0.4,0.1c-0.2,0.1-0.2,0.2-0.3,0.4c0,0.1,0,0.1-0.1,0.1c-0.2,0-0.3-0.1-0.5-0.1
	c-0.1,0-0.2,0.1-0.3,0.3c0,0-0.1,0.1-0.1,0.1c0,0.1,0,0,0,0c-0.2,0-0.3-0.1-0.5-0.1c-0.1,0-0.2,0.1-0.3,0.2
	c-0.1,0.1-0.1,0.1-0.2,0.2c0,0,0,0-0.1,0c0,0-0.1-0.1-0.2-0.1c-0.3-0.1-0.6,0.1-0.7,0.3c-0.1,0.1,0.1,0.2,0.2,0.2
	c0.1,0,0.3-0.1,0.4-0.1c0,0,0.1,0.1,0.2,0.1c0.1,0,0.1,0,0.2,0c0.2,0,0.4-0.1,0.6-0.2c0,0,0.1-0.1,0.2-0.1c0.1,0,0.2,0,0.3,0.1
	c0.3,0,0.5-0.1,0.6-0.3c0,0,0-0.1,0.1-0.1c0,0,0,0,0,0c0.1,0,0.2,0.1,0.3,0.1c0.2,0,0.5-0.1,0.6-0.4c0.1-0.1,0-0.1,0.2-0.1
	c0.1,0,0.2,0,0.3,0c0.1,0,0.2-0.1,0.3-0.2c0,0,0.1-0.1,0.1-0.2c0,0,0,0,0,0c0.1,0,0.2,0,0.3-0.1c0.1-0.1,0.2-0.2,0.3-0.3
	C110,76.4,110,76.3,109.8,76.2z"/>
<path class="st14" d="M97.9,80.5c-0.4,0.3-0.9,0.6-1.4,0.8c-0.2,0.1-0.5,0.2-0.8,0.2c-0.3,0-0.5,0.1-0.8,0.2
	c-0.2,0.1-0.3,0.3-0.5,0.2c-0.2-0.1-0.4-0.2-0.6-0.2c-0.1,0-0.2,0.1-0.3,0.2c-0.1,0.1-0.1,0.2-0.2,0.2c-0.1,0.1-0.3,0-0.4-0.2
	c-0.1-0.2-0.4-0.1-0.5,0.1c-0.1,0.3-0.5,0.3-0.8,0.3c-0.5,0-1,0.1-1.5,0.2L88.6,83c-0.2,0-0.5,0.2-0.7,0.1c-0.2-0.1-0.3-0.2-0.6-0.2
	c-0.2,0-0.3,0-0.5,0.1c-0.1,0.1-0.3,0.2-0.5,0.3c-0.2,0-0.4-0.1-0.5-0.1c-0.2-0.1-0.4-0.1-0.6-0.1c-0.2,0-0.4,0.1-0.5,0.2
	c-0.2,0.1-0.3,0-0.5-0.1C84,83.1,83.9,83,83.7,83c-0.2,0-0.4,0.1-0.7,0.1c-0.2,0.1-0.4,0.1-0.6,0c-0.2-0.1-0.4-0.2-0.6-0.3
	c-0.2-0.1-0.4-0.1-0.5,0c-0.2,0-0.4,0.2-0.6,0.1c-0.2-0.1-0.3-0.2-0.4-0.3c-0.2-0.1-0.4-0.1-0.6,0c-0.2,0.1-0.3,0.1-0.5,0.1
	c-0.2,0-0.3-0.1-0.4-0.2c-0.3-0.2-0.6-0.4-1-0.4c-0.2,0-0.4,0-0.6,0.1c-0.2,0.1-0.4,0.1-0.6-0.1c-0.1-0.1-0.3-0.2-0.4-0.3
	c-0.2-0.1-0.4,0-0.6,0.1c-0.2,0.1-0.3,0-0.4-0.1c-0.1-0.1-0.3-0.3-0.4-0.3c-0.2-0.1-0.4,0-0.7,0c-0.2,0-0.3-0.2-0.4-0.3
	c-0.1-0.2-0.3-0.3-0.5-0.3c-0.3,0-0.5,0.1-0.7,0.1c-0.3,0-0.5-0.1-0.8-0.2c-0.3-0.1-0.5-0.2-0.8-0.3c-0.1-0.1-0.3-0.1-0.4-0.2
	c-0.1,0-0.2-0.1-0.3-0.1c-0.2,0-0.3,0.1-0.3,0.3c0,0.2,0.3,0.2,0.3,0c0,0,0.3,0.2,0.3,0.2c0.1,0.1,0.2,0.1,0.3,0.2
	c0.2,0.1,0.5,0.2,0.7,0.3c0.2,0.1,0.4,0.2,0.6,0.3c0.2,0.1,0.5,0.1,0.7,0c0.2,0,0.3-0.1,0.5,0.1c0.1,0.1,0.2,0.3,0.3,0.4
	c0.1,0.1,0.3,0.1,0.5,0.1c0.2,0,0.4-0.1,0.6,0c0.1,0.1,0.2,0.3,0.4,0.3c0.2,0.1,0.4,0.1,0.6,0.1c0.1,0,0.3-0.1,0.5-0.1
	c0.2,0.1,0.3,0.3,0.5,0.4c0.2,0.1,0.4,0.1,0.6,0c0.2,0,0.4-0.1,0.6-0.1c0.3,0,0.6,0.3,0.9,0.5c0.3,0.2,0.7,0.2,1,0.1
	c0.2-0.1,0.3-0.1,0.5,0c0.2,0.1,0.3,0.2,0.5,0.3c0.2,0,0.4,0,0.6-0.1c0.2-0.1,0.3-0.1,0.5,0c0.2,0.1,0.4,0.2,0.5,0.3
	c0.2,0.1,0.4,0.1,0.6,0c0.2,0,0.4-0.1,0.6-0.1c0.2,0,0.4,0.1,0.5,0.2c0.2,0.1,0.4,0.1,0.6,0.1c0.2,0,0.4-0.2,0.6-0.2
	c0.2,0,0.3,0,0.5,0.1c0.2,0.1,0.4,0.1,0.6,0.1c0.2,0,0.4-0.1,0.5-0.2c0.1-0.1,0.3-0.3,0.4-0.2c0.1,0,0.2,0.1,0.3,0.1
	c0.1,0.1,0.2,0.1,0.3,0.1c0.3,0,0.5-0.1,0.8-0.1c0.6-0.1,1.1-0.3,1.7-0.4c0.3-0.1,0.6-0.1,0.8-0.2c0.2,0,0.5,0,0.7-0.1
	c0.3,0,0.5-0.1,0.7-0.3c0.3,0.2,0.7,0.2,1-0.1c0.1-0.1,0.1-0.2,0.2-0.2c0.1,0,0.2,0.1,0.3,0.1c0.3,0.1,0.5,0.1,0.8-0.1
	c0.1-0.1,0.2-0.1,0.3-0.2c0.1-0.1,0.3-0.1,0.5-0.1c0.3,0,0.6-0.1,0.9-0.2c0.6-0.2,1.1-0.5,1.5-1C98.3,80.6,98.1,80.3,97.9,80.5z"/>
<path class="st14" d="M92.8,63.4c-0.7-0.1-1.3,0.3-1.8,0.6c-0.5,0.4-1,0.7-1.6,1c-0.5,0.2-1.1,0.4-1.6,0.4c-0.6,0-1.1-0.2-1.6-0.4
	c-0.6-0.2-1.1-0.5-1.7-0.5c-0.7-0.1-1.4,0-2,0.3c-0.5,0.2-1,0.5-1.6,0.7c-0.5,0.1-1.1,0.1-1.6,0c-0.6-0.1-1.2-0.4-1.7-0.7
	c-0.3-0.2-0.6-0.4-0.9-0.6c-0.3-0.2-0.5-0.3-0.9-0.4c-0.1,0-0.3,0.1-0.3,0.3c0,0.6,0.6,1.2,0.9,1.6c0.5,0.5,1,0.9,1.6,1.1
	c1.3,0.6,2.8,0.6,4.1,0.1c0.6-0.2,1.1-0.6,1.7-0.7c0.5,0,1.1,0.2,1.5,0.4c0.7,0.3,1.3,0.5,2.1,0.6c0.7,0.1,1.4,0,2.1-0.3
	c0.8-0.2,1.5-0.6,2.1-1.1c0.6-0.4,1.6-1.1,1.5-1.9C93.2,63.7,93,63.4,92.8,63.4z"/>
<path class="st15" d="M87.6,94.7c0-0.3,0-0.6-0.2-0.9c-0.1-0.3-0.4-0.4-0.7-0.5c-0.3-0.1-0.6-0.1-1-0.1c-0.3,0-0.7-0.1-1-0.1
	c-0.7-0.1-1.3-0.2-2-0.3c-1.3-0.3-2.6-0.6-3.9-1c-1.5-0.4-2.9-1-4.3-1.6c-0.1,0-0.1,0.1-0.1,0.1c2.2,1.3,4.7,2.2,7.3,2.7
	c1.3,0.3,2.6,0.5,3.8,0.6c0.3,0,0.6,0,0.9,0.1c0.3,0,0.4,0.2,0.4,0.4c0.1,0.6,0.1,1.3,0.1,1.9c0,0.7-0.1,1.4-0.3,2.1
	c-0.1,0.4-0.2,0.7-0.3,1c-0.1,0.2-0.1,0.3-0.2,0.5c0,0.1-0.1,0.2-0.1,0.3c0,0.1,0,0.2,0,0.3c0,0.2,0.2,0.3,0.3,0.1
	c0.1-0.1,0.2-0.2,0.3-0.4c0.1-0.2,0.1-0.3,0.2-0.5c0.1-0.3,0.2-0.6,0.3-1c0.2-0.7,0.3-1.3,0.3-2C87.7,96,87.7,95.3,87.6,94.7z"/>
<path class="st15" d="M102.7,87.3c-0.3,0.1-0.6,0.2-0.9,0.3c-0.3,0.1-0.6,0.2-0.9,0.4c-0.6,0.3-1.1,0.5-1.7,0.8
	c-1.1,0.5-2.3,0.9-3.5,1.3c-2.3,0.8-4.8,1.3-7.2,1.7c-0.7,0.1-1.4,0.2-2.1,0.2c-0.3,0-0.7,0.1-1,0.1c-0.3,0-0.7,0-1,0.1
	c-0.1,0-0.1,0.1,0,0.1c0.6,0.1,1.2,0.1,1.8,0c0.6,0,1.2-0.1,1.9-0.1c1.3-0.1,2.5-0.3,3.7-0.6c2.4-0.5,4.9-1.3,7.2-2.2
	c0.6-0.3,1.3-0.6,1.9-0.9c0.3-0.2,0.6-0.3,0.9-0.5c0.3-0.2,0.6-0.4,0.9-0.6C102.9,87.4,102.8,87.3,102.7,87.3z"/>
<path class="st6" d="M80.9,35.4C80.9,35.5,81,35.5,80.9,35.4c0-0.1-0.1-0.1-0.1-0.1c0,0,0,0,0,0c0,0,0,0-0.1,0c0,0-0.1,0,0,0
	c-0.2,0-0.3,0.1-0.4,0.2c0,0-0.1,0.1-0.1,0.1c0,0,0,0-0.1,0.1c0,0,0,0,0,0c0,0-0.1,0.1-0.1,0.1c0,0-0.1,0-0.1,0c0,0,0,0,0,0
	c0,0-0.1,0-0.1,0c0,0-0.1,0-0.1,0c0,0,0,0,0,0c0,0,0,0,0,0c-0.2,0-0.4,0-0.6-0.1c-0.1-0.1-0.2-0.1-0.3-0.2c-0.1-0.1-0.2-0.1-0.3-0.2
	c-0.1,0-0.1,0-0.1,0.1C78,36,78.5,36.4,79,36.6c0.5,0.2,1.1,0.1,1.5-0.3c0.2-0.2,0.5-0.4,0.5-0.7C81,35.5,80.9,35.5,80.9,35.4z"/>
<path class="st6" d="M84.9,35.4C84.9,35.5,84.8,35.5,84.9,35.4c0-0.1,0.1-0.1,0.1-0.1c0,0,0,0,0,0c0,0,0,0,0.1,0c0,0,0.1,0,0,0
	c0.2,0,0.3,0.1,0.4,0.2c0,0,0.1,0.1,0.1,0.1c0,0,0,0,0.1,0.1c0,0,0,0,0,0c0,0,0.1,0.1,0.1,0.1c0,0,0.1,0,0.1,0c0,0,0,0,0,0
	c0,0,0.1,0,0.1,0c0,0,0.1,0,0.1,0c0,0,0,0,0,0c0,0,0,0,0,0c0.2,0,0.4,0,0.6-0.1c0.1-0.1,0.2-0.1,0.3-0.2c0.1-0.1,0.2-0.1,0.3-0.2
	c0.1,0,0.1,0,0.1,0.1c0.1,0.5-0.4,0.9-0.9,1.1c-0.5,0.2-1.1,0.1-1.5-0.3c-0.2-0.2-0.5-0.4-0.5-0.7C84.8,35.5,84.9,35.5,84.9,35.4z"
	/>
<path class="st6" d="M80.6,32.8c-0.1-0.1-0.2-0.2-0.4-0.2c-0.1,0-0.2-0.1-0.4-0.1c-0.2,0-0.5,0-0.7,0c-0.2,0-0.5,0.1-0.7,0.2
	c-0.1,0.1-0.2,0.1-0.3,0.2C78.1,33,78,33.1,78,33.2c0,0.1,0,0.2,0.1,0.2c0,0,0.1,0,0.1,0c0.1,0,0.1,0,0.2,0c0.1,0,0.2,0,0.3-0.1
	c0.1,0,0.2-0.1,0.3-0.1c0,0,0.1,0,0.1,0c0,0,0,0,0,0c0,0,0,0,0,0c0,0,0.1,0,0.1,0c0.1,0,0.2,0,0.3,0c0,0,0.1,0,0.1,0c0,0,0,0,0,0
	c0,0,0,0,0.1,0c0.1,0,0.2,0,0.3,0.1c0.1,0,0.2,0.1,0.3,0.1c0.1,0,0.3-0.1,0.3-0.2C80.7,33,80.6,32.9,80.6,32.8z"/>
<path class="st6" d="M85.2,33.1c0.1,0.1,0.2,0.2,0.3,0.2c0.1,0,0.2,0,0.3-0.1c0.1,0,0.2-0.1,0.3-0.1c0,0,0,0,0.1,0c0,0,0,0,0,0
	c0,0,0.1,0,0.1,0c0.1,0,0.2,0,0.3,0c0,0,0.1,0,0.1,0c0,0,0,0,0,0c0,0,0,0,0,0c0,0,0.1,0,0.1,0c0.1,0,0.2,0.1,0.3,0.1
	c0.1,0,0.2,0,0.3,0.1c0.1,0,0.1,0,0.2,0c0,0,0.1,0,0.1,0c0.1,0,0.1-0.1,0.1-0.2c0-0.1-0.1-0.2-0.2-0.3c-0.1-0.1-0.2-0.2-0.3-0.2
	c-0.2-0.1-0.4-0.1-0.7-0.2c-0.2,0-0.5,0-0.7,0c-0.1,0-0.2,0-0.4,0.1c-0.1,0-0.3,0.1-0.4,0.2C85.1,32.9,85.1,33,85.2,33.1z"/>
<path class="st13" d="M83.4,39c0-0.1-0.1-0.2-0.2-0.2c-0.1-0.1-0.2-0.1-0.3,0c-0.1,0-0.1,0-0.2,0.1c-0.1,0-0.1,0-0.2,0
	c0,0-0.1,0-0.1,0c0,0-0.1,0-0.1,0c0,0,0,0-0.1,0c0,0,0,0,0,0c0,0-0.1,0-0.1,0c-0.1,0-0.3,0-0.3,0.1c-0.1,0.1-0.1,0.3,0,0.4
	c0.2,0.2,0.4,0.2,0.6,0.3c0.1,0,0.2,0,0.3,0c0,0,0.1,0,0.1,0c0.1,0,0.2-0.1,0.2-0.2C83.4,39.3,83.5,39.1,83.4,39z"/>
<path class="st13" d="M83.8,41c-0.1,0-0.2,0-0.3,0.1c-0.1,0-0.2,0.1-0.2,0.1c-0.1,0.1-0.3,0.1-0.5,0.1c-0.1,0-0.3,0-0.4,0
	c-0.2,0-0.3-0.1-0.5-0.2c-0.1,0-0.2,0.1-0.1,0.2c0.1,0.2,0.3,0.3,0.5,0.3c0.2,0.1,0.4,0.1,0.6,0.1c0.2,0,0.4,0,0.6-0.1
	c0.1,0,0.2-0.1,0.3-0.1c0,0,0.1-0.1,0.1-0.1c0.1-0.1,0.1-0.1,0.1-0.2C84,41.1,83.9,41,83.8,41z"/>
<path class="st16" d="M89.6,38.1c0-0.2-0.2-0.4-0.3-0.5c-0.3-0.2-0.6-0.3-1-0.3c-0.3,0-0.7,0.1-1,0.2c-0.2,0.1-0.4,0.2-0.5,0.4
	c-0.1,0.2-0.1,0.5,0,0.8c0.1,0.1,0.2,0.3,0.4,0.3c0.3,0.2,0.7,0.3,1.1,0.2C88.8,39.3,89.7,38.8,89.6,38.1z"/>
<path class="st16" d="M79.1,38.1c0-0.2-0.2-0.4-0.3-0.5c-0.3-0.2-0.6-0.3-1-0.3c-0.3,0-0.7,0.1-1,0.2c-0.2,0.1-0.4,0.2-0.5,0.4
	c-0.1,0.2-0.1,0.5,0,0.8c0.1,0.1,0.2,0.3,0.4,0.3c0.3,0.2,0.7,0.3,1.1,0.2C78.4,39.3,79.2,38.8,79.1,38.1z"/>
<path class="st2" d="M93.9,13.1c-0.1-0.2-0.3-0.3-0.6-0.2c0,0-0.1,0-0.1,0c0,0,0,0,0,0c0-0.1-0.1-0.1-0.1-0.2
	c-0.1-0.1-0.2-0.2-0.3-0.2c-0.1,0-0.1,0-0.2,0c-0.1,0.1-0.2,0.2-0.2,0.4c0,0,0,0.1,0,0.1c0,0.1,0,0.2,0.1,0.4c0,0.1,0.1,0.3,0.2,0.4
	c0.1,0.1,0.3,0.2,0.5,0.1c0.1,0,0.2,0,0.3-0.1c0.1,0,0.1,0,0.2-0.1c0.1,0,0.1-0.1,0.2-0.1C94,13.5,94,13.3,93.9,13.1z"/>
<path class="st2" d="M70.4,18.5C70.4,18.5,70.4,18.5,70.4,18.5c0-0.2-0.1-0.3-0.2-0.4c0,0,0,0-0.1,0c-0.1,0-0.1,0-0.2,0
	c-0.1,0-0.1,0.1-0.1,0.1c0,0,0,0,0,0c0,0,0,0.1,0,0.1c0,0,0,0,0,0c0,0.1,0,0.1-0.1,0.2c0,0,0,0,0,0c0,0,0,0.1,0,0.1c0,0,0,0,0,0
	c-0.2-0.1-0.4-0.2-0.5-0.1C69,18.8,68.9,19,69,19.1c0,0.1,0.1,0.1,0.1,0.1c0,0,0,0,0,0c0.1,0,0.1,0.1,0.2,0.1c0.1,0,0.1,0.1,0.2,0.1
	c0.2,0.1,0.4,0,0.6-0.1c0.1-0.1,0.2-0.2,0.2-0.3c0-0.1,0-0.1,0.1-0.2c0,0,0-0.1,0-0.1C70.4,18.7,70.4,18.6,70.4,18.5z"/>
<path class="st2" d="M82.3,7.1C82.3,7.1,82.3,7.1,82.3,7.1C82.3,7,82.2,7,82.2,7c0,0-0.1,0-0.1,0c-0.1,0-0.1,0-0.2,0.1
	c-0.1,0.1-0.2,0.2-0.3,0.3c0,0,0,0,0,0.1l-0.2-0.2c-0.1-0.1-0.2-0.1-0.3-0.1c-0.1,0-0.1,0.1-0.2,0.1c0,0,0,0,0,0
	c0,0.1-0.1,0.2,0,0.3c0.1,0.1,0.1,0.2,0.2,0.2c0.1,0.1,0.1,0.2,0.2,0.2c0.1,0.1,0.3,0.2,0.4,0.1c0.1,0,0.2-0.1,0.3-0.2
	c0.1-0.1,0.1-0.2,0.2-0.3C82.3,7.5,82.4,7.3,82.3,7.1z"/>
<path class="st2" d="M96.6,30.1c0-0.1-0.1-0.1-0.2-0.2c-0.1-0.1-0.2-0.1-0.3,0c-0.1,0-0.1,0-0.2,0.1c0,0,0-0.1-0.1-0.1
	c0,0,0,0-0.1-0.1c-0.1,0-0.1-0.1-0.2-0.1c-0.1,0-0.1,0-0.2,0.1c0,0.1-0.1,0.1-0.1,0.2c0,0,0,0.1,0,0.1c0,0.1,0,0.1,0,0.2
	c0,0.1,0,0.2,0.1,0.3c0.1,0.1,0.3,0.1,0.4,0.1c0.1,0,0.1,0,0.2-0.1c0,0,0.1,0,0.1,0c0,0,0.1,0,0.1-0.1c0,0,0,0,0,0c0,0,0,0,0.1-0.1
	c0.1,0,0.1-0.1,0.1-0.2C96.6,30.2,96.7,30.2,96.6,30.1z"/>
<path class="st2" d="M70.4,29.8c0-0.1-0.1-0.1-0.1-0.1c0,0-0.1,0-0.2,0c-0.1,0-0.2,0-0.2,0.1c0,0,0,0.1-0.1,0.1c0,0,0,0,0,0
	c0,0,0,0,0,0c0-0.1-0.1-0.1-0.2-0.1c0,0,0,0-0.1,0c-0.2-0.1-0.3,0.1-0.3,0.2c0,0,0,0,0,0.1c0,0.1,0,0.1,0.1,0.2c0,0,0.1,0.1,0.1,0.1
	c0,0,0.1,0.1,0.1,0.1c0.1,0.1,0.1,0.2,0.3,0.2c0.1,0,0.3,0,0.4-0.1c0,0,0.1-0.1,0.1-0.2c0,0,0.1-0.1,0.1-0.1c0-0.1,0.1-0.2,0.1-0.2
	C70.4,29.9,70.4,29.9,70.4,29.8z"/>
</svg>
