<?xml version="1.0" encoding="utf-8"?>
<!-- Generator: Adobe Illustrator 25.1.0, SVG Export Plug-In . SVG Version: 6.00 Build 0)  -->
<svg version="1.1" id="Layer_1" xmlns="http://www.w3.org/2000/svg" xmlns:xlink="http://www.w3.org/1999/xlink" x="0px" y="0px"
	 viewBox="0 0 174 134" style="enable-background:new 0 0 174 134;" xml:space="preserve">
<style type="text/css">
	.st0{fill:#D7F9D6;}
	.st1{fill:#91C590;}
	.st2{fill:#557A55;}
	.st3{fill:#A1DAA1;}
	.st4{fill:#FFFFFF;}
	.st5{fill:#FFBBBB;}
	.st6{fill:#FFD6C5;}
	.st7{fill:#FF9F00;}
	.st8{fill:#312A3C;}
	.st9{fill:none;stroke:#312A3C;stroke-width:1.3333;}
	.st10{fill:#325B31;}
</style>
<path class="st0" d="M86.7,54.4C67.1-4-4.3,7.5,19.1,71.4c13.5,36.9,38.1,36.1,67.9,60.9c29.8-24.8,53.8-24,67.3-60.9
	C177.6,7.5,106.2-4,86.7,54.4z"/>
<path class="st1" d="M112,88.9c1.3-3.9,4.8-6.6,6.3-10.4c1.7-4.5,0.1-9.6,0.5-14.4c0.3-3.9,2-7.6,4.7-10.4c1.6-1.6,3.5-2.9,4.7-4.8
	c2.8-4,2.7-10.2,6.9-12.7c2.5-1.4,5.8-0.9,8,0.8c2.2,1.8,3.5,4.6,3.8,7.5c0.3,2.9-0.3,5.7-1.1,8.5c-0.7,2.2-1.5,4.3-1.7,6.6
	c-0.3,2.6,0.4,5.3,0.3,8c0,4-1.6,7.9-4.3,10.9c-1.1,1.2-2.3,2.2-3.2,3.5c-0.9,1.4-1.4,3-2,4.6c-3.2,8.3-10.8,14.7-19.6,16.4
	C115.6,102.9,110.4,93.9,112,88.9z"/>
<path class="st2" d="M139.5,42.9c-2.8,12.6-6.7,24.8-11.7,36.7c-2.4,5.8-5.2,11.5-8.2,17c-1.5,2.7-3,5.4-4.6,8
	c-1.5,2.5-3.9,5.2-4.7,8.1c-0.1,0.5,0.4,0.7,0.7,0.4c2.3-1.8,3.8-5.2,5.3-7.7c1.6-2.6,3.1-5.3,4.6-8.1c3-5.6,5.7-11.3,8.1-17.2
	c4.9-11.9,8.5-24.4,10.8-37.1C139.8,42.8,139.5,42.7,139.5,42.9z"/>
<path class="st2" d="M125,57.5c0,3.1,0.3,6.2,0.9,9.3c0.5,2.6,1.1,6.1,3.2,8.1c0.2,0.2,0.4,0,0.4-0.2c-0.3-1.4-1.1-2.8-1.7-4.1
	c-0.5-1.4-0.9-2.8-1.2-4.3c-0.6-2.9-0.9-5.9-1.3-8.8C125.2,57.4,125,57.5,125,57.5z"/>
<path class="st2" d="M122,66.4c0.3,5.2,1.2,11.5,4,15.9c0.1,0.2,0.5,0.1,0.4-0.2c-0.7-2.5-1.8-4.9-2.6-7.4c-0.8-2.7-1.3-5.5-1.6-8.3
	C122.3,66.2,122,66.2,122,66.4z"/>
<path class="st2" d="M120.6,81c0,3.4,0.7,7.3,2.6,10.1c0.2,0.2,0.5,0,0.4-0.2c-1.3-3.3-2.4-6.2-2.8-9.8
	C120.7,80.9,120.6,80.9,120.6,81z"/>
<path class="st2" d="M116.1,86.9c0.1,2.8,0.6,6.7,2.6,8.6c0.1,0.1,0.4,0,0.3-0.2c-0.4-1.3-1.1-2.4-1.6-3.6c-0.6-1.6-1-3.2-1.1-4.8
	C116.3,86.8,116.1,86.8,116.1,86.9z"/>
<path class="st2" d="M130.9,51.6c0,2.5,0.4,4.9,0.8,7.3c0.4,2.4,0.7,5,1.7,7.2c0.1,0.2,0.4,0.1,0.4-0.1c-0.2-2.3-1-4.6-1.5-6.9
	C131.8,56.7,131.5,54.1,130.9,51.6C131,51.6,130.9,51.6,130.9,51.6z"/>
<path class="st2" d="M133.8,42.8c0.3,3.8,0.8,8,2.4,11.5c0.1,0.3,0.6,0.1,0.5-0.2c-0.7-3.8-2.1-7.5-2.8-11.4
	C133.9,42.8,133.8,42.8,133.8,42.8z"/>
<path class="st2" d="M144,45.8c-1,0.9-1.9,2.1-3,3c-0.5,0.5-1.1,1-1.7,1.5c-0.5,0.4-0.8,0.6-1.1,1.1c0,0.1,0,0.2,0.1,0.2
	c1.1-0.1,2.2-1.4,2.9-2.2c1-1,2.1-2.2,2.8-3.5C144.2,45.8,144.1,45.7,144,45.8z"/>
<path class="st2" d="M144,54.6c-2.1,2.7-5.9,3.6-8.7,5.5c-0.2,0.1-0.1,0.4,0.1,0.3c1.9-0.5,3.7-1.7,5.2-2.7
	C142,56.8,143.3,55.9,144,54.6C144.2,54.5,144.1,54.5,144,54.6z"/>
<path class="st2" d="M142.7,63.3c-1.7,1-3.3,2.3-5,3.3c-1.7,1-3.4,1.5-5.2,2.2c-0.1,0.1-0.1,0.3,0,0.3c1.8,0.4,3.8-0.9,5.2-1.8
	C139.5,66.3,141.4,65,142.7,63.3C142.7,63.3,142.7,63.3,142.7,63.3z"/>
<path class="st2" d="M139.6,72.1c-1.7,0.8-3.4,1.8-5.1,2.8c-1.6,0.9-3.8,1.4-5,2.8c-0.1,0.1,0,0.3,0.1,0.3c1.7,0,3.6-1.3,5-2.1
	c1.8-1,3.6-2.1,5.1-3.5C139.8,72.3,139.7,72.1,139.6,72.1z"/>
<path class="st2" d="M133.6,82.4c-1.7,1.2-3.5,2.2-5.5,2.9c-1,0.3-2.6,0.3-3,1.2c-0.1,0.1,0,0.3,0.2,0.3c3.2-1.1,6-2,8.6-4.2
	C133.9,82.5,133.7,82.3,133.6,82.4z"/>
<path class="st2" d="M130.8,89.7c-1.2,0.6-2.2,1.4-3.4,2.1c-0.7,0.4-4,2.1-4.9,1.5c-0.3-0.2-0.5,0.2-0.4,0.4c0.6,1.1,3-0.1,3.7-0.4
	c1.8-0.8,3.6-2,5.1-3.4C130.9,89.8,130.9,89.7,130.8,89.7z"/>
<path class="st1" d="M54.2,91.3c-2.3-3.3-6.4-5-8.8-8.2c-2.9-3.8-2.7-9.1-4.4-13.6c-1.4-3.6-4-6.7-7.4-8.7c-1.9-1.1-4.1-1.9-5.8-3.3
	c-3.8-3.1-5.4-9-10.1-10.2c-2.8-0.7-5.8,0.7-7.4,3c-1.7,2.3-2.1,5.4-1.5,8.2c0.5,2.8,1.8,5.4,3.4,7.8c1.2,1.9,2.6,3.7,3.4,5.8
	c1,2.5,1.1,5.2,1.9,7.7c1.1,3.8,3.7,7.1,7.1,9.2c1.3,0.8,2.8,1.4,4,2.5c1.3,1.1,2.1,2.5,3.1,3.8c5.3,7.1,14.4,11.1,23.2,10.3
	C54.7,105.8,57.2,95.7,54.2,91.3z"/>
<path class="st2" d="M15.9,54.7c5.6,11.3,12.4,22.1,20.3,32c3.9,4.9,8.1,9.7,12.5,14.2c2.2,2.3,4.5,4.5,6.8,6.6
	c2.1,1.9,4.4,4.6,7,5.7c0.4,0.1,0.7-0.3,0.5-0.6c-1.5-2.4-4.4-4.2-6.5-6.1c-2.3-2.1-4.6-4.3-6.8-6.5c-4.4-4.4-8.5-9-12.4-13.8
	c-8-9.8-15.1-20.3-21.1-31.5C16.1,54.4,15.8,54.6,15.9,54.7z"/>
<path class="st2" d="M32.1,64.9c0.6,3,1.4,6,1.7,9c0.1,1.3,0.2,2.7,0.1,4c-0.1,1.4-0.5,2.9-0.4,4.3c0,0.2,0.4,0.3,0.5,0.1
	c1.6-2.4,1.1-5.8,0.7-8.4c-0.4-3.1-1.3-6.1-2.3-9C32.3,64.8,32.1,64.8,32.1,64.9z"/>
<path class="st2" d="M38,73.8c0.5,2.7,0.7,5.5,0.6,8.2c-0.1,2.5-0.6,5-0.6,7.6c0,0.3,0.4,0.3,0.5,0.1c1.7-4.9,0.8-11-0.3-15.9
	C38.2,73.5,38,73.6,38,73.8z"/>
<path class="st2" d="M44.3,85.4c0.7,3.4,0.2,6.5-0.4,9.9c-0.1,0.3,0.4,0.4,0.5,0.1c1.4-3.2,1.1-6.9,0.1-10.1
	C44.4,85.3,44.3,85.3,44.3,85.4z"/>
<path class="st2" d="M50.4,89.9c0.3,1.8,0.4,3.5,0.2,5.3c-0.2,1.6-0.7,3-0.8,4.6c0,0.2,0.3,0.3,0.4,0.1c1.6-2.8,1.1-7,0.4-10.1
	C50.6,89.7,50.4,89.7,50.4,89.9z"/>
<path class="st2" d="M26.2,60.5c0.1,2.5,0.5,5,0.6,7.5c0.1,2.3-0.1,4.7,0.3,6.9c0,0.2,0.3,0.2,0.4,0c0.4-2.3,0.1-4.9-0.2-7.3
	C27.1,65.2,26.9,62.8,26.2,60.5C26.3,60.4,26.2,60.4,26.2,60.5z"/>
<path class="st2" d="M20.3,53.1c0.4,3.8,0.3,7.6,0.7,11.4c0,0.3,0.5,0.3,0.6,0c0.5-3.8-0.3-7.8-1.2-11.4
	C20.4,53,20.3,53.1,20.3,53.1z"/>
<path class="st2" d="M11.5,59.1c1,0.8,2.4,1.3,3.6,1.8c1.1,0.4,2.5,1.1,3.6,0.9c0.1,0,0.2-0.1,0.1-0.2c-0.8-0.6-2.2-0.8-3.2-1.2
	c-1.4-0.5-2.6-1.1-4-1.6C11.5,58.9,11.4,59,11.5,59.1z"/>
<path class="st2" d="M15.9,67.8c2,1.6,5.9,2.8,8.7,2.9c0.2,0,0.2-0.2,0-0.3C21.8,69.5,18.4,69.4,15.9,67.8
	C15.9,67.7,15.9,67.8,15.9,67.8z"/>
<path class="st2" d="M18.8,76.6c1.7,1.1,3.7,1.7,5.7,2.2c1.8,0.5,4.1,1.1,6,0.4c0.2-0.1,0.1-0.2-0.1-0.2c-2.2-0.2-4.2-0.4-6.4-0.9
	C22.3,77.6,20.6,76.9,18.8,76.6C18.8,76.5,18.8,76.6,18.8,76.6z"/>
<path class="st2" d="M23.3,84.2c1.9,0.9,4,1.5,6,1.9c1.7,0.3,4,1.1,5.6,0.5c0.1,0,0.1-0.2,0-0.3c-1.7-1-3.9-0.9-5.8-1.2
	c-1.9-0.4-3.9-0.9-5.8-1.2C23.3,83.9,23.2,84.1,23.3,84.2z"/>
<path class="st2" d="M32.2,91.6c3.3,2,6.4,2.3,10,2.5c0.2,0,0.3-0.3,0.1-0.4c-0.8-1.1-2.4-0.5-3.5-0.6c-2.3-0.2-4.5-0.9-6.6-1.9
	C32.1,91.1,32,91.5,32.2,91.6z"/>
<path class="st2" d="M36.6,97.2c1.9,1.2,4.2,2.2,6.3,2.5c0.9,0.1,3.7,0.8,4-0.8c0.1-0.4-0.3-0.7-0.5-0.4c-0.7,1.1-4.4,0.3-5.3,0
	c-1.5-0.4-2.9-1.2-4.4-1.5C36.5,97.1,36.5,97.2,36.6,97.2z"/>
<path class="st3" d="M39.5,40c-0.3,10.3,1.6,20.8,4.9,30.5c1.6,4.8,3.7,9.4,6.2,13.7c1.2,2,2.5,4.1,3.9,5.9c1.4,1.8,3.2,4.5,5.2,5.4
	c0.2,0.1,0.4-0.1,0.3-0.3c-0.4-1-1.3-1.8-2-2.6c-0.9-1.1-1.7-2.2-2.5-3.3c-1.3-1.9-2.6-3.8-3.8-5.8c-2.6-4.4-4.6-9.1-6.2-13.9
	C42.4,60,41,50,39.7,40C39.7,39.8,39.5,39.8,39.5,40z"/>
<path class="st3" d="M38.5,49.7c-2-3.6-2.5-8.1-1.3-12.1c0.2-0.9,0.6-1.7,1.1-2.4c0.5-0.7,1.3-1.2,2.2-1.2c1.2,0,2.2,1,2.9,2
	c2.3,3.4,2.7,8.2,1.1,12C43.2,51.1,40.5,53.4,38.5,49.7z"/>
<path class="st3" d="M43,60.4c-0.3-0.1-0.4-0.4-0.5-0.7C41.9,56,44,52,47.4,50.5c0.5-0.2,1-0.4,1.6-0.4c1,0.1,1.9,0.9,2.2,2
	c0.3,1,0.1,2.1-0.5,3.1c-0.5,0.9-1.3,1.7-2.1,2.3c-1.5,1.2-3.1,2.1-4.9,2.8C43.5,60.4,43.2,60.5,43,60.4c-0.4-0.1-0.5-0.5-0.3-0.7"
	/>
<path class="st3" d="M35.1,56.6c-1.9-0.9-3.5-2.4-4.9-4c-0.7-0.8-1.4-2-0.9-2.9c0.3-0.6,1.1-0.9,1.8-1c2.3-0.2,4.5,0.8,6.2,2.4
	c0.8,0.8,4.1,4.4,3.5,5.6C40.2,58.2,36.1,57.1,35.1,56.6z"/>
<path class="st3" d="M36.6,64.7c-2.1-0.4-3.9-1.4-5.6-2.6c-0.6-0.4-1.1-0.8-1.5-1.4c-0.4-0.6-0.5-1.3-0.2-1.9c0.5-1,1.9-1.3,3.1-1.4
	c4.4,0,8.7,2.8,10.1,6.6C42.4,63.9,39.5,65.2,36.6,64.7z"/>
<path class="st3" d="M45.5,61.4c0.8-1.5,1.8-2.8,3.4-3.5c1.6-0.7,3.6-0.5,4.7,0.8c0.6,0.8,0.8,1.9,0.6,2.8c-0.2,1-0.8,1.8-1.4,2.6
	c-1.6,1.9-4.6,3.7-7.3,3.6C42.4,67.7,44.7,62.8,45.5,61.4z"/>
<path class="st3" d="M47.1,67.8c1.1-1.6,2.7-2.9,4.6-3c0.4,0,0.9,0,1.3,0.2c0.8,0.4,1.2,1.4,1.2,2.3c0,1.4-0.6,2.8-1.5,3.9
	c-0.8,1.1-1.7,2.1-2.8,2.8c-1.3,0.9-3.8,1.8-4.4-0.1C44.9,71.9,46,69.5,47.1,67.8z"/>
<path class="st3" d="M40.4,73.6c-1.8-0.1-3.5-0.8-5-1.6c-1.1-0.6-2.1-1.3-2.8-2.2c-0.4-0.6-0.7-1.4-0.4-2.1c0.2-0.4,0.6-0.7,1.1-0.9
	c1.4-0.7,3.3-0.7,4.8-0.2c1.6,0.5,2.9,1.4,4.2,2.4c0.7,0.6,3.4,2.3,3,3.2C44.9,73.4,41.6,73.7,40.4,73.6z"/>
<path class="st3" d="M51.8,90.4c-1.2,0.6-2.5,0.8-3.9,0.8c-0.9,0-1.9,0-2.7-0.4c-0.6-0.2-1.1-0.6-1.2-1.1c-0.1-0.3,0.1-0.7,0.2-1
	c0.6-0.9,1.7-1.5,2.9-1.8c1.2-0.2,2.5-0.2,3.7,0c0.7,0.1,3.2,0.2,3.4,0.9C54.4,88.8,52.5,90.1,51.8,90.4z"/>
<path class="st3" d="M49.8,81.5c0.2-1.6,0.7-3.3,1.7-4.7c1-1.4,2.4-2.6,4.1-3c0.5-0.1,1.1-0.2,1.6-0.1c1.2,0.3,1.5,1.7,1.4,2.8
	c-0.2,1.9-1.3,3.6-2.9,4.7c-1.6,1.1-3.8,1.5-5.8,1.1"/>
<path class="st3" d="M43.4,80.9c-2-0.2-3.9-1.3-5-2.9c-0.3-0.5-0.6-1-0.4-1.6c0.1-0.3,0.4-0.6,0.7-0.8c1-0.6,2.2-0.7,3.4-0.5
	c1.1,0.2,2.2,0.7,3.2,1.3c0.9,0.5,3.5,1.7,2.8,3.1C47.5,80.8,44.6,81,43.4,80.9z"/>
<path class="st3" d="M54.3,86.1c0.5-2.2,1.8-4.2,3.4-5.7c0.5-0.5,1.1-0.9,1.8-1c0.7-0.1,1.4,0.2,1.8,0.8c0.1,0.2,0.2,0.5,0.2,0.8
	c0.2,2-0.5,4.1-1.9,5.5C58.3,88,53.5,89.8,54.3,86.1z"/>
<path class="st3" d="M46.1,86.8c-1.9,0-3.9-0.8-5-2.3C41.1,84.4,41,84.2,41,84c0-0.3,0.3-0.6,0.7-0.8c1.5-0.8,3.4-1,5.1-0.7
	c0.9,0.2,4.6,1.2,4.6,2.3C51.2,86,47.1,86.8,46.1,86.8z"/>
<path class="st3" d="M152.8,63.4c-4.9,8.9-10,17.7-16.6,25.4c-3.3,3.8-6.9,7.4-10.9,10.4c-2,1.5-4,2.9-6.1,4.2
	c-1,0.6-1.9,1.2-2.9,1.8c-1,0.6-2.2,1-3,1.8c-0.1,0.1,0,0.4,0.2,0.4c2.2-0.1,4.6-1.8,6.4-2.8c2.2-1.2,4.2-2.6,6.2-4.1
	c4.1-3.1,7.8-6.7,11.2-10.6c6.7-7.7,12.2-16.7,15.8-26.3C153,63.4,152.9,63.3,152.8,63.4z"/>
<path class="st3" d="M150.5,72.6c3-2.5,5-6.4,5.4-10.5c0.1-0.9,0.1-1.8-0.2-2.6c-0.3-0.8-0.8-1.6-1.6-1.9c-1.1-0.5-2.3,0.1-3.3,0.7
	c-3.3,2.2-5.3,6.4-5.2,10.5C145.7,72.1,147.4,75.2,150.5,72.6z"/>
<path class="st3" d="M143.7,79.5c0.3,0.1,0.6-0.2,0.7-0.5c2-3.2,1.4-7.6-1.2-10.2c-0.4-0.4-0.8-0.7-1.4-0.9c-1-0.3-2.2,0.1-2.8,1
	c-0.7,0.8-0.9,1.9-0.7,3c0.1,1,0.6,2,1.1,2.9c1,1.6,2.2,3.1,3.7,4.4c0.2,0.2,0.5,0.4,0.8,0.4c0.3,0,0.6-0.3,0.5-0.5"/>
<path class="st3" d="M151,79.5c2.1-0.1,4.1-1,5.9-2c1-0.5,2-1.4,1.9-2.6c-0.1-0.8-0.7-1.4-1.3-1.8c-2-1.2-4.5-1.1-6.7-0.2
	c-1.1,0.4-5.4,2.7-5.3,4.3C145.8,79,149.9,79.5,151,79.5z"/>
<path class="st3" d="M146.5,86.7c2.1,0.3,4.3,0,6.4-0.5c0.7-0.2,1.4-0.4,2-0.8c0.6-0.4,1-1,1-1.6c0-1.1-1.2-1.8-2.3-2.2
	c-4.2-1.5-9.5-0.4-12.4,2.6C141.3,84.1,143.5,86.2,146.5,86.7z"/>
<path class="st3" d="M139.7,79.3c-0.1-1.6-0.5-3.3-1.6-4.4c-1-1.2-2.9-1.7-4.2-0.9c-0.8,0.5-1.3,1.4-1.5,2.4c-0.2,1,0,2,0.3,2.9
	c0.7,2.3,2.5,5,4.8,5.9C140,86.2,139.8,81,139.7,79.3z"/>
<path class="st3" d="M135,85.8c-0.5-1.9-1.5-3.8-3.3-4.6c-0.4-0.2-0.9-0.3-1.3-0.3c-0.9,0.1-1.7,0.8-2.1,1.7
	c-0.6,1.3-0.4,2.8-0.1,4.2c0.3,1.3,0.8,2.6,1.6,3.6c1,1.3,3,3.1,4.3,1.6C135.5,90.4,135.5,87.8,135,85.8z"/>
<path class="st3" d="M139.1,92.3c1.6,0.5,3.4,0.4,5,0.2c1.2-0.2,2.3-0.5,3.3-1.1c0.6-0.4,1.2-1,1.2-1.7c0-0.4-0.3-0.8-0.6-1.2
	c-1-1.1-2.6-1.6-4.2-1.7c-1.6-0.1-3.1,0.3-4.6,0.8c-0.8,0.3-3.9,1-3.9,1.9C135.3,90.7,138.1,92,139.1,92.3z"/>
<path class="st3" d="M123.3,104.8c0.8,0.9,2,1.5,3.2,2c0.8,0.3,1.7,0.6,2.6,0.5c0.6,0,1.2-0.2,1.6-0.6c0.2-0.3,0.2-0.6,0.2-1
	c-0.1-1.1-0.9-2-1.9-2.6c-1-0.6-2.2-0.9-3.3-1.2c-0.7-0.1-3-0.8-3.4-0.2C121.6,102.4,122.8,104.3,123.3,104.8z"/>
<path class="st3" d="M128.9,96.4c0.5-1.6,0.7-3.2,0.4-4.8c-0.3-1.6-1.2-3.2-2.8-4.2c-0.4-0.3-0.9-0.6-1.5-0.6c-1.3-0.1-2.2,1-2.6,2
	c-0.6,1.8-0.3,3.7,0.8,5.3c1.1,1.6,3.1,2.7,5.3,2.9"/>
<path class="st3" d="M134.7,98.3c1.9,0.6,4,0.2,5.6-1c0.5-0.4,0.9-0.8,0.9-1.5c0-0.4-0.2-0.8-0.4-1.1c-0.7-1-1.8-1.6-2.9-1.9
	c-1.1-0.3-2.3-0.2-3.4,0c-1,0.2-3.8,0.4-3.7,2C131,96.4,133.6,97.9,134.7,98.3z"/>
<path class="st3" d="M122,99.8c0.3-2.3-0.2-4.7-1.2-6.7c-0.3-0.6-0.8-1.3-1.4-1.6c-0.6-0.4-1.4-0.4-2,0.1c-0.2,0.2-0.4,0.4-0.5,0.7
	c-0.9,1.8-1,4.1-0.2,5.9C117.6,100,121.5,103.6,122,99.8z"/>
<path class="st3" d="M129.1,103.9c1.8,0.8,4.1,0.7,5.7-0.5c0.2-0.1,0.3-0.3,0.4-0.5c0.2-0.4-0.1-0.8-0.3-1.2
	c-1.1-1.6-2.8-2.6-4.6-2.9c-0.9-0.2-5-0.5-5.3,0.7C124.6,100.8,128.2,103.5,129.1,103.9z"/>
<path class="st2" d="M118.7,48.8c-1.3,3.8-2.5,7.5-4.8,10.9c-2.2,3.4-5.4,5.9-8,9c-0.2,0.3,0.1,0.6,0.4,0.5c3.9-1.6,6.7-5.3,8.8-8.7
	c2.1-3.4,3.9-7.6,4-11.6C119.1,48.6,118.8,48.6,118.7,48.8z"/>
<path class="st2" d="M123,54.6c-1.2,1.7-2.7,3.2-4.4,4.3c-1.7,1.1-3.4,1.4-5.2,2.1c-0.4,0.2-0.4,0.8,0.1,0.8c4,0.2,8.1-3.5,9.9-6.9
	C123.6,54.6,123.2,54.4,123,54.6z"/>
<path class="st2" d="M112.2,48.8c-0.8,3-1,8.4,2,10.1c0.2,0.1,0.5-0.1,0.5-0.4c-0.4-1.5-1.3-2.6-1.8-4.1c-0.6-1.8-0.7-3.7-0.3-5.5
	C112.6,48.7,112.3,48.6,112.2,48.8z"/>
<path class="st4" d="M120.7,52.2c-0.5,1.6,0.4,3.2,2,3.7c1.6,0.5,3.2-0.4,3.7-2c0.5-1.6-0.4-3.2-2-3.7
	C122.8,49.8,121.2,50.7,120.7,52.2z"/>
<path class="st4" d="M116.3,47.8c-0.5,1.6,0.4,3.2,2,3.7c1.6,0.5,3.2-0.4,3.7-2c0.5-1.6-0.4-3.2-2-3.7
	C118.4,45.4,116.7,46.3,116.3,47.8z"/>
<path class="st4" d="M108.9,47.8c-0.5,1.6,0.4,3.2,2,3.7c1.6,0.5,3.2-0.4,3.7-2c0.5-1.6-0.4-3.2-2-3.7
	C111,45.4,109.4,46.3,108.9,47.8z"/>
<path class="st2" d="M49.8,48.9c0.1,4,1.9,8.2,4,11.6c2.1,3.4,5,7.1,8.8,8.8c0.3,0.1,0.6-0.2,0.4-0.5c-2.6-3.1-5.8-5.6-8-9
	c-2.3-3.4-3.4-7.1-4.8-10.9C50.1,48.6,49.8,48.6,49.8,48.9z"/>
<path class="st2" d="M45.4,54.9c1.9,3.4,5.9,7.1,9.9,6.9c0.5,0,0.5-0.6,0.1-0.8c-1.8-0.7-3.5-1.1-5.2-2.1c-1.7-1.1-3.2-2.6-4.4-4.3
	C45.7,54.4,45.2,54.6,45.4,54.9z"/>
<path class="st2" d="M56.4,50.3c0.3,1.9,0.3,3.7-0.3,5.5c-0.5,1.5-1.4,2.6-1.8,4.1c-0.1,0.3,0.2,0.5,0.5,0.4c2.9-1.7,2.8-7.1,2-10.1
	C56.6,50,56.3,50.1,56.4,50.3z"/>
<path class="st4" d="M48.2,53.7c0.5,1.6-0.4,3.2-2,3.7c-1.6,0.5-3.2-0.4-3.7-2c-0.5-1.6,0.4-3.2,2-3.7
	C46.1,51.3,47.7,52.1,48.2,53.7z"/>
<path class="st4" d="M52.6,49.3c0.5,1.6-0.4,3.2-2,3.7c-1.6,0.5-3.2-0.4-3.7-2c-0.5-1.6,0.4-3.2,2-3.7
	C50.5,46.9,52.2,47.7,52.6,49.3z"/>
<path class="st4" d="M60,49.3c0.5,1.6-0.4,3.2-2,3.7c-1.6,0.5-3.2-0.4-3.7-2c-0.5-1.6,0.4-3.2,2-3.7C57.9,46.9,59.5,47.7,60,49.3z"
	/>
<path class="st5" d="M126,107.4c2.2-12.9-4.8-35.9-8.8-40.2c-2.6-2.8-5.5,1.4-5.5,1.4c0.2,3.6,0.3,13.5,1.5,24.3
	c1.3,11.8,1,23.7,4.3,24.5C120.6,118.2,124.6,115.9,126,107.4z"/>
<path class="st6" d="M116.1,65.8c-9.4-16.2-23.3,4.6-22.6-28.9c0,0,0,0,0,0v0c-3.5,0-12.9,0-16.5,0c0.7,33.6-13.2,12.7-22.6,28.9
	c-1.6,5.3,18.2,16.9,31.2,16.5v0C98.7,82.2,117.6,71.1,116.1,65.8z"/>
<path class="st7" d="M125,80.6c-1.1-6.2-4.8-15.5-8.9-19.2c-3.9-3.6-20.3-8.3-20.3-8.3c-0.1,3.1-5.5,4.8-10.3,5
	c-5.2,0.1-9.9-1.7-10.5-5c0,0-16.5,4.5-20.2,8.3c-4,4-6.9,13.4-8,19.6c-0.5,2.8,9.8,7.4,11.3,8.3c0,2.4,1.8,21,2.1,22.8
	c0.5,3.6-5,9-2.1,13.6c2.9,4.4,52.4,5.5,54.7,0c2.6-6.3-3-9.9-2.4-13.6c0.3-1.8,2.1-20.4,2.1-22.8C114.7,87.9,125.5,83.4,125,80.6z"
	/>
<path class="st8" d="M58.7,93.1c5.7,6.6,12.9,9.4,19.8,10.6c7.8,1.3,15.8,0.8,23.6-1.5c3.8-1.1,7.6-2.5,11-5.8
	c0.4-0.3,0.1-1.2-0.3-1.1c-3.2,1.2-6.4,2.6-9.6,3.7c-3.7,1.2-7.4,2-11.1,2.4c-7.5,0.8-15.4,0.3-22.7-2.5c-3.6-1.4-7.2-3.2-10.4-6.2
	C58.7,92.6,58.6,92.9,58.7,93.1z"/>
<path class="st8" d="M57.2,88.2c3.1,2.5,6.5,4.1,9.9,5.4c3.7,1.4,7.5,2.5,11.3,3c7.6,1,15.3,0.4,22.7-2.5c3.9-1.5,7.5-4,10.6-8.1
	c0.2-0.2,0-0.7-0.2-0.6c-6.8,2.8-13.4,6.2-20.4,7.4c-7.3,1.2-14.8,1-22.1-0.8c-3.9-1-7.7-2.6-11.5-4.1
	C57.2,87.8,57.1,88.1,57.2,88.2z"/>
<path class="st8" d="M60,75.1c-0.5,2.4-0.8,5-1,7.4c-0.2,2.3-0.6,4.8-0.3,7.1c0,0.1,0.2,0.1,0.2,0c-0.1-2.3,0.2-4.6,0.3-6.9
	C59.5,80.2,59.6,77.6,60,75.1C60.1,75.1,60.1,75,60,75.1z"/>
<path class="st8" d="M110.2,75.1c0.6,2.5,0.7,5.1,0.9,7.6c0.2,2.3,0.4,4.6,0.3,6.9c0,0.1,0.2,0.2,0.2,0c0.3-2.3,0-4.8-0.2-7.1
	C111.1,80.1,110.9,77.5,110.2,75.1C110.3,75,110.2,75.1,110.2,75.1z"/>
<path class="st6" d="M67.5,26.3c0,11.3,3,18,18.4,18c15.5,0,18.4-6.6,18.4-18C104.4,2.9,67.5-0.1,67.5,26.3z"/>
<path class="st8" d="M76.4,44.3c5.4,1.8,11.8,1.7,17.4,0.5c0.4-0.1,0.2-0.6-0.2-0.5C87.7,45.7,82.3,45.3,76.4,44.3
	C76.3,44.3,76.3,44.3,76.4,44.3z"/>
<path class="st8" d="M81.9,24.7c-0.7-0.3-1.4-0.4-2.1-0.2c-0.6,0.1-1.1,0.5-1.7,0.7c-0.2,0.1-0.4-0.2-0.3-0.4c0.9-1.3,3-1.2,4.3-0.6
	C82.4,24.3,82.2,24.8,81.9,24.7z"/>
<path class="st8" d="M89.7,24.1c1.2-0.6,3.4-0.7,4.3,0.6c0.1,0.2-0.1,0.5-0.3,0.4c-0.6-0.2-1-0.6-1.7-0.7c-0.7-0.1-1.4,0-2.1,0.2
	C89.7,24.8,89.5,24.3,89.7,24.1z"/>
<path class="st8" d="M88.1,37.5c-1,1.2-3.7,1.4-4.4-0.3c-0.1-0.2,0.2-0.3,0.4-0.2c0.5,0.4,0.9,0.9,1.6,1c0.8,0.2,1.7-0.1,2.2-0.7
	C88.1,37.2,88.2,37.4,88.1,37.5z"/>
<path class="st8" d="M85.3,25.2c0,1.3,0.1,2.6,0.4,3.9c0.1,0.7,0.3,1.4,0.5,2.1c0.1,0.3,0.4,0.9,0.5,1.3c0.1,1-0.8,1.2-1.3,1.5
	c-0.1,0-0.1-0.1,0-0.2c0.2-0.2,0.5-0.3,0.7-0.6c0.5-0.8,0.3-1,0-1.6c-0.2-0.6-0.4-1.2-0.5-1.9C85.2,28.2,85.1,26.8,85.3,25.2
	C85.3,25.2,85.3,25.2,85.3,25.2z"/>
<path class="st8" d="M77.8,26.8c0.3,0.7,1,1.2,1.8,1.3c0.8,0.1,2.2-0.2,2.6-1c0.1-0.1,0-0.2-0.1-0.2c-0.7-0.1-1.3,0.5-2,0.6
	c-0.8,0.1-1.6,0-2.1-0.8C77.9,26.6,77.8,26.7,77.8,26.8z"/>
<path class="st8" d="M93.8,26.7c-0.5,0.8-1.3,0.9-2.1,0.8c-0.7-0.1-1.3-0.7-2-0.6c-0.1,0-0.2,0.1-0.1,0.2c0.4,0.8,1.8,1.1,2.6,1
	c0.8-0.1,1.5-0.5,1.8-1.3C94.1,26.7,93.9,26.6,93.8,26.7z"/>
<path class="st9" d="M83.7,27.4c0,2.8-2.3,5.1-5.2,5.1c-2.9,0-5.2-2.3-5.2-5.1c0-2.8,2.3-5.1,5.2-5.1C81.4,22.3,83.7,24.6,83.7,27.4
	z"/>
<path class="st9" d="M97,27.4c0,2.8-2.3,5.1-5.2,5.1c-2.8,0-5.2-2.3-5.2-5.1c0-2.8,2.3-5.1,5.2-5.1C94.7,22.3,97,24.6,97,27.4z"/>
<path class="st9" d="M97,25.9h5.9"/>
<path class="st9" d="M67.5,25.9h5.9"/>
<path class="st9" d="M83.7,26.5c1-1.7,2-1.6,2.9,0"/>
<path class="st6" d="M103.5,22.4c1.7-0.6,3.3,0.6,3.7,2.2c1,4.1-2.7,7.1-5.4,9.4C101.3,32.3,100.9,23.3,103.5,22.4z"/>
<path class="st8" d="M101.7,28c0.2-0.9,0.5-1.8,1.2-2.6c0.7-0.8,1.7-1,2.8-1.3c0.2-0.1,0.2-0.3,0-0.4c-1.1-0.2-2.2,0.4-2.9,1
	c-0.9,0.9-1.2,2.1-1.4,3.2C101.4,28.1,101.7,28.2,101.7,28z"/>
<path class="st8" d="M104.4,25.5c0.4,0.3,0.7,0.7,0.8,1.2c0.1,0.2,0.1,0.4,0.1,0.7c0,0.3,0,0.4,0.1,0.6c0.1,0.1,0.2,0.2,0.3,0.1
	c0.3-0.4,0-1.2-0.1-1.7c-0.2-0.5-0.6-0.9-1-1.2C104.4,25.1,104.3,25.4,104.4,25.5z"/>
<path class="st6" d="M68.4,22.4c-1.7-0.6-3.3,0.6-3.7,2.2c-1,4.1,2.7,7.1,5.4,9.4C70.6,32.3,71,23.3,68.4,22.4z"/>
<path class="st8" d="M68.7,28c-0.2-0.9-0.5-1.8-1.2-2.6c-0.7-0.8-1.7-1-2.8-1.3c-0.2-0.1-0.2-0.3,0-0.4c1.1-0.2,2.2,0.4,2.9,1
	c0.9,0.9,1.2,2.1,1.4,3.2C69,28.1,68.7,28.2,68.7,28z"/>
<path class="st8" d="M67.4,25.5c-0.4,0.3-0.7,0.7-0.8,1.2c-0.1,0.2-0.1,0.4-0.1,0.7c0,0.3,0,0.4-0.1,0.6c-0.1,0.1-0.2,0.2-0.3,0.1
	c-0.3-0.4,0-1.2,0.1-1.7c0.2-0.5,0.6-0.9,1-1.2C67.5,25.1,67.6,25.4,67.4,25.5z"/>
<path class="st8" d="M74.9,9.1C75,13.1,81.4,21.6,86,21.5c-0.2-0.5-0.4-0.9-0.7-1.4c1.5,1.3,6.5,3.6,7.6,1.1c1,1,3.4,3.4,4.7,1.9
	c1.5,1.8,2.6,3.5,4.5,5c5.3-6.8,0.4-19.4-6-23.9c-3.3-2-8.3-2.7-11.2-2.5C81.8,1.9,75.2,3.5,74.9,9.1z"/>
<path class="st8" d="M77.3,15.8c-1.8,4.4-3.8,8.2-7.5,10.8c-3.4-1.9-5.7-13-1.4-17.2c6.9-6.7,11-1.5,10.9-1.2
	C79.3,8.2,78,14,77.3,15.8z"/>
<path class="st6" d="M53.6,113.5c-6.4-11.6-9.1-34.9-4.3-42.9c2-3.3,9.3,0,9.3,0c1,3.4,1,13.9,2.2,24.7c1.3,11.9,7.1,20.8,4.6,23.4
	C65.4,118.7,57.8,121.2,53.6,113.5z"/>
<path class="st6" d="M65.7,118.8c12.9-7.1,17-34.4,19.4-38.1c1.2-1.8-7.7-4.1-9-1.5c0,0-7.5,10-17.4,23.8
	C58.6,103,60.5,121.6,65.7,118.8z"/>
<path class="st6" d="M75.4,75.1c0,0-1.7-2.9-1.1-5.8c0.6-2.9,1-3.3,1.6-4.1c0.6-0.8,5.1-4.4,6-4.7c0.9-0.3,2.8,0.2,3.4,1.7
	c2.6-1.5,3.5-1.4,4.7-0.7c1.2,0.7,0.5,2.6,0.5,2.6s1.2,0.1,1.5,1.1c0.3,1-0.3,2.2-0.3,2.2s1.1-0.1,1.5,0.7c0.4,0.8-0.4,2.4-0.4,2.4
	s1.1,0.4,1.3,1.7c0.2,1.3-1.4,3.7-4.5,6c-3.2,2.3-4.9,2-4.9,2s-7.4,21.7-9.2,25.6c-6-0.2-15.2-6.4-15.2-6.4L75.4,75.1z"/>
<path class="st6" d="M80.8,66.3c1.3-1.2,2.8-2.2,4.4-2.9L80.8,66.3z"/>
<path class="st6" d="M80.8,64.4c0.9-0.5,1.9-0.7,2.9-0.7L80.8,64.4z"/>
<path class="st6" d="M86.7,64.5c0.3-0.5,0.9-0.9,1.5-0.9L86.7,64.5z"/>
<path class="st6" d="M89.4,66.5c-0.5,0.2-0.9,0.6-1.1,1.1L89.4,66.5z"/>
<path class="st6" d="M91.1,74.5c0.5,0.1,1,0,1.5-0.3L91.1,74.5z"/>
<path class="st6" d="M91.1,66.6c-0.4,0.4-0.9,0.7-1.5,0.7L91.1,66.6z"/>
<path class="st7" d="M48,76.3c0.6-2.6,4.5-10.7,6.4-14.5l16,2.1l-5.3,25.7h-2.9l-2.7-0.9c-0.6-0.2-2.4-0.9-5.2-1.9
	c-2.8-1-6.2-3.6-7.6-4.8C47,81.3,47.4,78.9,48,76.3z"/>
<path class="st2" d="M38,103.3l-0.7,7l-14-5.5l1.3-4.8L38,103.3z"/>
<path class="st3" d="M28.3,116.1c-5.5-1.3-18.9-5-25.7-10.3c7.9,1.9,12.6-0.5,14.3-1.4c-4.7-2.6-9.2-4.3-14-8.9
	c11,4.5,33.7,5.7,35,8.2c-3,3.1-8-1.5-11.4,0.3C27.6,107.4,30.9,111.9,28.3,116.1z"/>
<path class="st2" d="M136.8,103.5l0.9,6.8l13.8-5.7l-1.4-4.6L136.8,103.5z"/>
<path class="st3" d="M146.8,116.1c5.4-1.4,18.8-5.3,25.3-10.6c-7.9,2.1-12.6-0.2-14.4-0.9c4.6-2.6,9-4.4,13.7-9
	c-10.9,4.6-33.5,6.4-34.7,8.9c3.1,2.9,7.9-1.7,11.4,0C147.3,107.6,144.1,112.1,146.8,116.1z"/>
<path class="st0" d="M85.7,111.5c-15.5,0-34.5,0-59.5-7.1v19.5c25.9,8.4,39.1,8.4,59.5,8.4c20.4,0,38.9,0,61.4-8.4v-19.5
	C121.5,111.5,101.3,111.5,85.7,111.5z"/>
<path class="st10" d="M36.5,120.3l0.6,0.2l0.8-5.7l-0.6-0.2L36.5,120.3z"/>
<path class="st10" d="M45.4,122.4l0.9,0.2l0.5-1.4l2,0.5l0.2,1.5l0.9,0.2l-0.7-7l-1.2-0.3L45.4,122.4z M47.2,120.3l1.2-2.9l0.3,3.3
	L47.2,120.3z"/>
<path class="st10" d="M54.2,124.1l0.8,0.1l0.5-4.1l1.1,4.4l0.3,0.1l2.1-3.9l-0.5,4.1l0.8,0.1l0.7-6.5l-0.8-0.1l-2.3,4.3l-1.3-4.9
	l-0.8-0.1L54.2,124.1z"/>
<path class="st10" d="M69,126l0.8,0.1l0.3-4.9l2,5.1l0.8,0.1l0.4-6.9l-0.8-0.1l-0.3,4.9l-2-5.1l-0.8-0.1L69,126z"/>
<path class="st10" d="M79.1,126.4c0.6,0,1.1-0.1,1.6-0.3c0.5-0.2,0.8-0.6,1.1-1c0.3-0.4,0.4-0.9,0.4-1.5c0-0.6-0.1-1.1-0.3-1.5
	c-0.2-0.4-0.5-0.8-1-1.1c-0.4-0.3-0.9-0.4-1.6-0.4c-0.6,0-1.1,0.1-1.6,0.3c-0.4,0.2-0.8,0.6-1.1,1c-0.3,0.4-0.4,0.9-0.4,1.5
	c0,0.6,0.1,1.1,0.3,1.5c0.2,0.4,0.5,0.8,1,1.1C78,126.2,78.5,126.4,79.1,126.4z M79.2,125.5c-0.6,0-1.1-0.2-1.4-0.6
	c-0.3-0.4-0.4-0.9-0.4-1.5c0-0.4,0.1-0.8,0.3-1.1c0.2-0.3,0.4-0.5,0.6-0.7c0.3-0.2,0.6-0.2,1-0.2c0.6,0,1.1,0.2,1.4,0.6
	c0.3,0.4,0.4,0.9,0.4,1.5c0,0.4-0.1,0.8-0.3,1.1c-0.2,0.3-0.4,0.5-0.7,0.7C79.9,125.5,79.6,125.5,79.2,125.5z"/>
<path class="st10" d="M85.4,126.4l0.9,0l0-4.9l1.8,0l0-0.9l-4.4,0l0,0.9l1.8,0L85.4,126.4z"/>
<path class="st10" d="M99.3,124.9c0.4,0,0.7-0.1,1-0.2c0.3-0.1,0.6-0.4,0.8-0.6c0.2-0.3,0.3-0.6,0.3-1c0-0.3-0.1-0.5-0.2-0.7
	c-0.1-0.2-0.2-0.3-0.4-0.4c-0.2-0.1-0.3-0.2-0.5-0.2c-0.2-0.1-0.3-0.1-0.5-0.1l-1-0.2c-0.1,0-0.2-0.1-0.4-0.1
	c-0.1,0-0.2-0.1-0.3-0.2c-0.1-0.1-0.1-0.2-0.1-0.3c0-0.1,0-0.3,0.1-0.4c0.1-0.1,0.2-0.2,0.4-0.3c0.2-0.1,0.3-0.1,0.5-0.1
	c0.3,0,0.5,0.1,0.8,0.2c0.2,0.2,0.4,0.4,0.5,0.7l1-0.2c-0.1-0.5-0.4-0.9-0.8-1.2c-0.4-0.3-0.9-0.4-1.4-0.4c-0.4,0-0.7,0.1-1,0.2
	c-0.3,0.1-0.5,0.3-0.7,0.6c-0.2,0.3-0.2,0.6-0.2,0.9c0,0.2,0.1,0.5,0.1,0.6c0.1,0.2,0.2,0.3,0.3,0.4c0.1,0.1,0.3,0.2,0.4,0.2
	c0.1,0.1,0.3,0.1,0.4,0.1l1.4,0.4c0.4,0.1,0.6,0.3,0.6,0.6c0,0.2,0,0.3-0.1,0.5c-0.1,0.1-0.2,0.2-0.4,0.3c-0.2,0.1-0.4,0.1-0.5,0.1
	c-0.3,0-0.6-0.1-0.9-0.2c-0.3-0.2-0.4-0.4-0.5-0.8l-0.9,0.2c0.1,0.4,0.2,0.7,0.4,0.9c0.2,0.3,0.5,0.5,0.8,0.6
	C98.6,124.9,98.9,125,99.3,124.9z"/>
<path class="st10" d="M106.1,124.9c0.7,0,1.3-0.3,1.7-0.6c0.5-0.4,0.8-0.8,0.9-1.4l-1.1-0.2c-0.1,0.4-0.3,0.7-0.5,0.9
	c-0.3,0.2-0.6,0.4-1.1,0.4c-0.6,0-1.1-0.1-1.5-0.5c-0.3-0.4-0.5-0.8-0.6-1.4c0-0.6,0.1-1.1,0.3-1.5c0.3-0.4,0.7-0.6,1.4-0.7
	c0.5,0,0.9,0,1.2,0.2c0.3,0.2,0.5,0.5,0.7,0.8l1-0.3c-0.2-0.5-0.6-1-1.1-1.2c-0.5-0.3-1.1-0.4-1.8-0.4c-0.6,0-1.1,0.2-1.6,0.5
	c-0.4,0.3-0.7,0.6-0.9,1.1c-0.2,0.5-0.3,1-0.2,1.6c0,0.6,0.2,1.1,0.5,1.5c0.3,0.4,0.6,0.7,1.1,1C105,124.9,105.5,125,106.1,124.9z"
	/>
<path class="st10" d="M111.7,125l0.9-0.1l0.2-1.5l2-0.3l0.5,1.4l0.9-0.1l-2.2-6.6l-1.2,0.2L111.7,125z M113,122.2l0.5-3.3l1,3.1
	L113,122.2z"/>
<path class="st10" d="M119.8,123.5l0.8-0.2l-0.3-2.4l1.1-0.2l1.1,2.2l0.9-0.2l-1.2-2.4c0.3-0.2,0.4-0.5,0.5-0.9
	c0.1-0.4,0.1-0.8,0.1-1.3c-0.1-0.6-0.2-1-0.5-1.4c-0.2-0.4-0.6-0.5-1-0.5c-0.1,0-0.1,0-0.2,0c-0.1,0-0.1,0-0.2,0l-2,0.4L119.8,123.5
	z M120.3,119.8l-0.2-2.3l1.2-0.2c0,0,0.1,0,0.2,0c0.1,0,0.1,0,0.2,0c0.1,0,0.3,0.1,0.3,0.2c0.1,0.1,0.2,0.2,0.2,0.4
	c0,0.1,0.1,0.3,0.1,0.4c0,0.1,0,0.3,0,0.5c0,0.2-0.1,0.3-0.1,0.4c-0.1,0.1-0.2,0.2-0.3,0.3c0,0-0.1,0.1-0.2,0.1c-0.1,0-0.1,0-0.2,0
	L120.3,119.8z"/>
<path class="st10" d="M127.4,122l3.4-0.8l-0.2-1l-2.6,0.6l-0.3-1.9l2.1-0.5l-0.2-1l-2.1,0.5l-0.2-1.6l2.6-0.6l-0.2-1l-3.4,0.8
	L127.4,122z"/>
<path class="st10" d="M133.4,120.5l1.5-0.5c0,0,0.1,0,0.2-0.1c0.1,0,0.2-0.1,0.3-0.1c0.4-0.2,0.7-0.5,0.9-0.9
	c0.2-0.4,0.3-0.8,0.4-1.4c0.1-0.5,0-1.1,0-1.6c-0.1-0.6-0.2-1.1-0.4-1.5c-0.2-0.4-0.5-0.8-0.8-1c-0.3-0.2-0.7-0.3-1-0.3
	c-0.1,0-0.2,0-0.3,0.1c-0.1,0-0.2,0.1-0.2,0.1l-1.5,0.5L133.4,120.5z M134,119.2l-0.7-4.6l0.7-0.2c0.1,0,0.1,0,0.3-0.1
	c0.1,0,0.2,0,0.3,0c0.2,0,0.4,0.1,0.6,0.2c0.2,0.2,0.3,0.4,0.4,0.7c0.1,0.3,0.2,0.6,0.3,1c0.1,0.4,0.1,0.7,0.1,1
	c0,0.3-0.1,0.6-0.2,0.9c-0.1,0.3-0.3,0.5-0.5,0.6c-0.1,0-0.2,0.1-0.3,0.1c-0.1,0-0.2,0.1-0.2,0.1L134,119.2z"/>
</svg>
