<svg width="155" height="46" viewBox="0 0 155 46" fill="none" xmlns="http://www.w3.org/2000/svg">
<path d="M60.944 14.634C60.944 15.3227 60.7404 15.8712 60.3326 16.2803C59.8694 16.7668 59.2657 17.0102 58.5235 17.0102C57.8128 17.0102 57.2085 16.7636 56.7116 16.2697C56.2138 15.7762 55.9653 15.1642 55.9653 14.434C55.9653 13.7034 56.2138 13.0918 56.7116 12.5979C57.2085 12.1044 57.8128 11.8574 58.5235 11.8574C58.8762 11.8574 59.2138 11.9265 59.5344 12.0643C59.8549 12.2024 60.112 12.3857 60.3044 12.6152L59.8716 13.049C59.5456 12.6589 59.0968 12.464 58.5235 12.464C58.0052 12.464 57.557 12.6464 57.1787 13.0115C56.8004 13.3769 56.6113 13.8508 56.6113 14.434C56.6113 15.0171 56.8004 15.491 57.1787 15.8565C57.557 16.2215 58.0052 16.4039 58.5235 16.4039C59.0734 16.4039 59.5318 16.2205 59.8988 15.8533C60.1371 15.614 60.2749 15.2814 60.3117 14.8543H58.5235V14.2618H60.9097C60.9327 14.3907 60.9439 14.5143 60.9439 14.634" fill="#325B31"/>
<path d="M60.944 14.6342H60.8619C60.8612 15.3072 60.665 15.8299 60.2745 16.2223L60.2736 16.223L60.2733 16.2237C59.8248 16.6934 59.2483 16.9271 58.5235 16.9281C57.8317 16.9271 57.2527 16.6908 56.7692 16.2117C56.2868 15.7317 56.0483 15.1457 56.0474 14.4341C56.0483 13.7223 56.2868 13.1366 56.7692 12.6569C57.2527 12.1774 57.8317 11.9408 58.5235 11.9398C58.8656 11.9398 59.1913 12.0067 59.5019 12.1399C59.8129 12.2741 60.0585 12.4501 60.2415 12.6685L60.3044 12.6154L60.2463 12.5573L59.8135 12.9914L59.8715 13.0492L59.9347 12.9966C59.5936 12.5871 59.1147 12.3807 58.5235 12.382C57.9859 12.3813 57.5131 12.5737 57.1219 12.9526C56.727 13.3328 56.5286 13.8334 56.5292 14.4341C56.5286 15.0349 56.727 15.5355 57.1219 15.9157C57.5131 16.2946 57.9859 16.487 58.5235 16.4863C59.0915 16.4873 59.5757 16.2943 59.9568 15.9115C60.2114 15.6559 60.3557 15.3018 60.3935 14.8615L60.4011 14.7722H58.6055V14.3442H60.9096V14.262L60.8288 14.2765C60.8513 14.4011 60.8619 14.5195 60.8619 14.6342H61.026C61.026 14.5093 61.0144 14.3809 60.9904 14.2473L60.9782 14.1798H58.4414V14.9366H60.3117V14.8544L60.23 14.8474C60.1938 15.261 60.0623 15.5725 59.8408 15.7953C59.4882 16.1472 59.0554 16.3209 58.5235 16.3219C58.0244 16.3212 57.6009 16.1491 57.2358 15.7975C56.8742 15.4472 56.6943 14.9999 56.6934 14.4341C56.6943 13.8683 56.8742 13.4211 57.2358 13.0707C57.6009 12.7191 58.0244 12.547 58.5235 12.5464C59.0785 12.5477 59.4975 12.7313 59.8088 13.1022L59.8665 13.1709L60.3624 12.6736L60.4156 12.6203L60.3672 12.5627C60.1656 12.322 59.8969 12.1309 59.5667 11.989C59.2359 11.8467 58.8868 11.7754 58.5235 11.7754C57.7939 11.7748 57.1643 12.0316 56.6536 12.54C56.141 13.0473 55.8826 13.685 55.8833 14.4341C55.8826 15.1829 56.141 15.821 56.6539 16.3286C57.1643 16.8366 57.7939 17.0932 58.5235 17.0925C59.2833 17.0932 59.9136 16.8404 60.3919 16.3373L60.3325 16.2805L60.3906 16.3386C60.8157 15.9131 61.0266 15.3384 61.026 14.6342H60.944H60.944ZM64.7268 12.574H62.4843V14.1378H64.5066V14.7305H62.4843V16.2943H64.7268V16.9002H61.8521V11.9681H64.7268V12.574Z" fill="#325B31"/>
<path d="M64.7267 12.5739V12.4917H62.4022V14.2199H64.4244V14.6479L62.4022 14.6481V16.3763H64.6446V16.8178H61.9342V12.0501H64.6446V12.5739H64.7267V12.4917V12.5739H64.8088V11.8857H61.77V16.9822H64.8088V16.2119H62.5663V14.8125H64.5886V14.0555H62.5663V12.656H64.8088V12.5739H64.7267ZM67.3949 16.9001H66.7618V12.5738H65.3864V11.9679H68.7702V12.5738H67.3949V16.9" fill="#325B31"/>
<path d="M67.3952 16.9001V16.8178H66.8441V12.4917H65.4688V12.0502H68.6884V12.4917H67.3132V16.9H67.3952V16.8178V16.9H67.4773V12.656H68.8526V11.8857H65.3047V12.656H66.68V16.9822H67.4773V16.9H67.3952V16.9001ZM71.2188 16.9001V11.9679H71.8513V16.9H71.2188" fill="#325B31"/>
<path d="M71.2188 16.9001H71.3009V12.0501H71.7692V16.8178H71.2188V16.9H71.3009H71.2188V16.9822H71.9333V11.8857H71.1367V16.9822H71.2188V16.9V16.9001ZM74.6579 16.9001H74.0248V12.5738H72.6495V11.9679H76.0333V12.5738H74.6579V16.9" fill="#325B31"/>
<path d="M74.6583 16.9V16.8178H74.1072V12.4916H72.732V12.0502H75.9515V12.4916H74.5763V16.9H74.6583V16.8178V16.9H74.7404V12.656H76.1157V11.8857H72.5679V12.656H73.9431V16.9822H74.7404V16.9H74.6583V16.9ZM79.2959 15.8497C79.6603 16.2193 80.1063 16.4039 80.6337 16.4039C81.161 16.4039 81.6072 16.2193 81.9711 15.8497C82.3359 15.4802 82.5187 15.0077 82.5187 14.434C82.5187 13.8602 82.3359 13.3878 81.9711 13.0182C81.6072 12.6486 81.161 12.464 80.6337 12.464C80.1063 12.464 79.6603 12.6486 79.2959 13.0182C78.932 13.3878 78.7493 13.8602 78.7493 14.434C78.7493 15.0077 78.932 15.4802 79.2959 15.8497ZM82.4392 16.2626C81.9551 16.7613 81.353 17.0102 80.6337 17.0102C79.9136 17.0102 79.3118 16.7613 78.8288 16.2626C78.3444 15.7646 78.1033 15.1549 78.1033 14.434C78.1033 13.7131 78.3444 13.1033 78.8288 12.6053C79.3119 12.1066 79.9136 11.8574 80.6337 11.8574C81.3492 11.8574 81.9496 12.1079 82.436 12.6085C82.9216 13.1091 83.1647 13.7176 83.1647 14.434C83.1647 15.1549 82.9222 15.7646 82.4392 16.2626Z" fill="#325B31"/>
<path d="M79.2956 15.8499L79.2373 15.9077C79.6153 16.2921 80.0868 16.4873 80.6334 16.4863C81.1797 16.4873 81.6519 16.2921 82.0293 15.9077C82.4097 15.523 82.6011 15.0253 82.6005 14.4341C82.6011 13.843 82.4097 13.3453 82.0293 12.9606C81.6519 12.5762 81.1797 12.381 80.6334 12.382C80.0868 12.381 79.6153 12.5762 79.2373 12.9606C78.8577 13.3453 78.666 13.843 78.667 14.4341C78.666 15.0252 78.8577 15.523 79.2373 15.9077L79.2956 15.8499L79.354 15.7921C79.0058 15.4373 78.8318 14.9909 78.8311 14.4341C78.8318 13.8774 79.0058 13.431 79.354 13.0762C79.7053 12.7214 80.1249 12.5474 80.6334 12.5464C81.1415 12.5474 81.5621 12.7214 81.9126 13.0762C82.2613 13.431 82.4354 13.8774 82.436 14.4341C82.4354 14.9909 82.2613 15.4373 81.9126 15.7921C81.5621 16.1469 81.1415 16.3209 80.6334 16.3219C80.1249 16.3209 79.7053 16.1469 79.354 15.7921L79.2956 15.8499ZM82.4389 16.2628L82.3803 16.2057C81.9097 16.6886 81.3342 16.9272 80.6334 16.9281C79.9323 16.9271 79.3568 16.6886 78.8871 16.2057C78.4175 15.7211 78.1858 15.1367 78.1851 14.4341C78.1858 13.7315 78.4175 13.1472 78.8871 12.6626C79.3568 12.1797 79.9323 11.9408 80.6334 11.9398C81.3297 11.9408 81.9038 12.1807 82.377 12.6661C82.8483 13.1529 83.0814 13.7364 83.0824 14.4341C83.0814 15.1367 82.849 15.7211 82.3803 16.2057L82.4389 16.2628L82.498 16.3199C82.9954 15.8081 83.2471 15.1733 83.2465 14.4341C83.2471 13.6992 82.9945 13.0656 82.4947 12.5516C81.9946 12.0355 81.3682 11.7745 80.6334 11.7754C79.8948 11.7745 79.2665 12.0343 78.7695 12.5484C78.2711 13.0605 78.0203 13.695 78.021 14.4341C78.0203 15.1733 78.2711 15.8081 78.7695 16.3202C79.2665 16.8343 79.8948 17.0932 80.6334 17.0925C81.3717 17.0932 82 16.834 82.498 16.3199L82.4389 16.2628ZM84.0524 16.9002V11.9681H84.8225L87.2156 15.8049H87.2429L87.2156 14.8544V11.9681H87.8488V16.9001H87.1883L84.6846 12.8774H84.6573L84.6846 13.8282V16.9001L84.0524 16.9002Z" fill="#325B31"/>
<path d="M84.0523 16.9001H84.1344V12.0501H84.7768L87.1699 15.887H87.327L87.2975 14.8531V12.0502H87.7666V16.8178H87.2338L84.73 12.7951H84.573L84.6024 13.8294V16.8178H84.0523L84.0523 16.9001L84.0523 16.9822H84.7666V13.8268L84.7393 12.875L84.6572 12.8773V12.9595H84.6845V12.8773L84.6149 12.921L87.1427 16.9822H87.9307V11.8857H87.1334V14.8553L87.1607 15.807L87.2428 15.8048V15.7226H87.2155V15.8048L87.2851 15.7611L84.8678 11.8857H83.9703V16.9822H84.0523L84.0523 16.9001ZM109.79 30.8743H111.321V20.5981H109.79L109.79 30.8743ZM123.583 24.2999L121.827 28.7551H121.775L119.953 24.2998H118.303L121.036 30.5269L119.478 33.9906H121.076L125.286 24.2998L123.583 24.2999ZM114.898 29.7072C114.396 29.7072 113.697 29.456 113.697 28.8344C113.697 28.0412 114.568 27.7372 115.32 27.7372C115.994 27.7372 116.31 27.8826 116.72 28.0811C116.601 29.0328 115.782 29.7072 114.898 29.7072ZM115.083 24.075C113.974 24.075 112.826 24.5643 112.351 25.6484L113.71 26.2168C114.001 25.6484 114.541 25.4631 115.109 25.4631C115.901 25.4631 116.706 25.9393 116.72 26.7854V26.8911C116.442 26.7324 115.849 26.4945 115.122 26.4945C113.658 26.4945 112.166 27.3008 112.166 28.808C112.166 30.183 113.367 31.0689 114.713 31.0689C115.743 31.0689 116.31 30.6062 116.667 30.0642H116.72V30.8573H118.198V26.9174C118.198 25.0933 116.839 24.075 115.083 24.075ZM105.619 25.5508H103.441V22.0284H105.619C106.764 22.0284 107.414 22.9778 107.414 23.7895C107.414 24.5859 106.764 25.5508 105.619 25.5508ZM105.579 20.5981H101.91V30.8743H103.441V26.981H105.579C107.277 26.981 108.945 25.7502 108.945 23.7895C108.945 21.8289 107.277 20.5981 105.579 20.5981ZM85.5703 29.709C84.5123 29.709 83.6265 28.8218 83.6265 27.6033C83.6265 26.3719 84.5123 25.4712 85.5703 25.4712C86.6148 25.4712 87.4345 26.3719 87.4345 27.6033C87.4345 28.8218 86.6147 29.709 85.5703 29.709ZM87.3287 24.8753H87.2757C86.9321 24.4648 86.2707 24.094 85.4379 24.094C83.6926 24.094 82.0929 25.6301 82.0929 27.6033C82.0929 29.5633 83.6926 31.0863 85.4379 31.0863C86.2707 31.0863 86.9321 30.7153 87.2757 30.2918H87.3287V30.795C87.3287 32.1327 86.6148 32.8478 85.4645 32.8478C84.5258 32.8478 83.944 32.1722 83.7057 31.6029L82.3706 32.159C82.754 33.086 83.7721 34.225 85.4645 34.225C87.2626 34.225 88.7831 33.1653 88.7831 30.5831V24.3059H87.3287V24.8753ZM89.8407 30.8743H91.3744V20.5978H89.8407V30.8743ZM93.6354 27.4842C93.5957 26.1333 94.6799 25.4448 95.4599 25.4448C96.0685 25.4448 96.5839 25.7492 96.7554 26.1866L93.6354 27.4842ZM98.3952 26.3189C98.1046 25.5373 97.2183 24.094 95.407 24.094C93.6088 24.094 92.1149 25.511 92.1149 27.5901C92.1149 29.5501 93.5957 31.0863 95.5788 31.0863C97.1789 31.0863 98.1046 30.1062 98.4879 29.5369L97.2979 28.7422C96.9015 29.325 96.3591 29.709 95.5788 29.709C94.7988 29.709 94.2436 29.3514 93.8864 28.6497L98.5536 26.7161L98.3952 26.3189ZM61.2112 25.1667V26.6499H64.7545C64.6488 27.4842 64.3711 28.0933 63.9479 28.5171C63.4325 29.0338 62.6259 29.6031 61.2112 29.6031C59.0296 29.6031 57.3241 27.8418 57.3241 25.6567C57.3241 23.4717 59.0296 21.7102 61.2112 21.7102C62.388 21.7102 63.2472 22.1738 63.8819 22.7697L64.9264 21.7236C64.0406 20.8759 62.8638 20.227 61.2112 20.227C58.223 20.227 55.7109 22.6638 55.7109 25.6567C55.7109 28.6497 58.223 31.0863 61.2112 31.0863C62.8244 31.0863 64.0406 30.5568 64.9924 29.5633C65.9709 28.5833 66.2751 27.2061 66.2751 26.0938C66.2751 25.7492 66.2488 25.4317 66.1956 25.1667H61.2112ZM70.3035 29.709C69.2456 29.709 68.3332 28.835 68.3332 27.5901C68.3332 26.332 69.2456 25.4712 70.3035 25.4712C71.3611 25.4712 72.2734 26.332 72.2734 27.5901C72.2734 28.835 71.3611 29.709 70.3035 29.709ZM70.3035 24.094C68.373 24.094 66.7995 25.5639 66.7995 27.5901C66.7995 29.6031 68.373 31.0863 70.3035 31.0863C72.2337 31.0863 73.8071 29.6031 73.8071 27.5901C73.8071 25.5639 72.2337 24.094 70.3035 24.094ZM77.9468 29.709C76.8893 29.709 75.9768 28.835 75.9768 27.5901C75.9768 26.332 76.8893 25.4712 77.9468 25.4712C79.0044 25.4712 79.9168 26.332 79.9168 27.5901C79.9168 28.835 79.0044 29.709 77.9468 29.709ZM77.9468 24.094C76.0163 24.094 74.4432 25.5639 74.4432 27.5901C74.4432 29.6031 76.0163 31.0863 77.9468 31.0863C79.8771 31.0863 81.4505 29.6031 81.4505 27.5901C81.4505 25.5639 79.877 24.094 77.9468 24.094Z" fill="#325B31"/>
<path d="M30.6527 12.4705C30.3773 12.7193 30.2129 13.1345 30.2129 13.6855V13.561V31.7449V31.6251C30.2129 32.134 30.3539 32.527 30.5927 32.7801L30.6537 32.8385V32.8388C30.8469 33.0135 31.0948 33.1063 31.3789 33.106C31.6564 33.106 31.9687 33.0173 32.2983 32.8302L44.2107 26.0508L48.3026 23.7218C48.8223 23.4261 49.114 23.0447 49.1628 22.6561V22.6545C49.114 22.265 48.8223 21.8839 48.3026 21.5881L44.2104 19.2595L32.2983 12.4801C31.968 12.2926 31.6555 12.2036 31.3772 12.2036C31.0935 12.2036 30.846 12.2961 30.6528 12.4705H30.6527Z" fill="#00C1FF"/>
<path d="M30.6537 32.8389L30.5927 32.7804C30.3539 32.5274 30.2129 32.1343 30.2129 31.6254V31.7452V13.5658V13.6859C30.2129 13.1348 30.3773 12.7197 30.6527 12.4708L40.8209 22.6552L30.6537 32.8389Z" fill="url(#paint0_linear)"/>
<path d="M44.2107 26.0508L40.8208 22.6549L44.2104 19.2595L48.3025 21.5881C48.8222 21.8839 49.1139 22.265 49.1627 22.6545V22.6561C49.1139 23.0447 48.8222 23.4262 48.3025 23.7218L44.2107 26.0507" fill="url(#paint1_linear)"/>
<path d="M31.3789 33.106C31.0949 33.1062 30.8471 33.0134 30.6538 32.8387V32.8385L40.821 22.6548L44.2109 26.0507L32.2983 32.8301C31.9688 33.0173 31.6565 33.106 31.3789 33.106Z" fill="url(#paint2_linear)"/>
<path d="M40.8211 22.6548L30.6528 12.4704C30.8461 12.296 31.0936 12.2036 31.3773 12.2036C31.6556 12.2036 31.9682 12.2925 32.2984 12.48L44.2106 19.2594L40.821 22.6548" fill="url(#paint3_linear)"/>
<path d="M31.3792 33.2266C31.0952 33.2266 30.847 33.1338 30.6537 32.9591L30.6534 32.9594C30.6526 32.9586 30.6517 32.9578 30.6508 32.9572L30.5979 32.9055C30.5963 32.9038 30.5947 32.9019 30.5928 32.9001L30.6537 32.839C30.847 33.0137 31.0948 33.1065 31.3789 33.1061C31.6564 33.1061 31.9687 33.0175 32.2983 32.8303L44.2108 26.0509L44.2871 26.1274L44.2098 26.1714L32.2983 32.9504C31.9979 33.1209 31.7122 33.2099 31.4542 33.2247C31.4292 33.2259 31.4042 33.2265 31.3792 33.2265" fill="url(#paint4_linear)"/>
<path d="M30.5927 32.8999C30.3539 32.6468 30.2129 32.2541 30.2129 31.7449V31.6251C30.2129 32.134 30.3539 32.527 30.5927 32.7801L30.6537 32.8386L30.5927 32.8999Z" fill="url(#paint5_linear)"/>
<path d="M44.2873 26.1274L44.2109 26.0509L48.3028 23.722C48.8225 23.4264 49.1142 23.0449 49.163 22.6563C49.163 22.7989 49.1312 22.9414 49.0681 23.0802C48.9408 23.3599 48.6857 23.6241 48.3028 23.8421L44.2873 26.1274" fill="url(#paint6_linear)"/>
<path d="M49.1628 22.6548C49.1141 22.2653 48.8223 21.8841 48.3027 21.5884L44.2104 19.2598L44.2868 19.1833H44.2871L48.3027 21.4686C48.8756 21.7949 49.1625 22.2248 49.1628 22.6548Z" fill="url(#paint7_linear)"/>
<path d="M30.2129 13.6855V13.5599C30.2129 13.5146 30.2141 13.4704 30.2164 13.4273V13.4254C30.2164 13.4248 30.2164 13.4242 30.2167 13.4235V13.4187C30.2414 12.9803 30.3773 12.6384 30.5927 12.4101L30.6527 12.4704C30.3773 12.7194 30.2129 13.1345 30.2129 13.6855Z" fill="url(#paint8_linear)"/>
<path d="M44.2104 19.2598L32.2983 12.4803C31.9681 12.2928 31.6556 12.2039 31.3773 12.2039C31.0935 12.2039 30.846 12.2963 30.6528 12.4707L30.5928 12.4104C30.6115 12.3905 30.631 12.3713 30.6511 12.3529C30.6518 12.3522 30.6528 12.3516 30.6534 12.3509C30.8451 12.1779 31.09 12.0854 31.3712 12.0838H31.3773C31.6556 12.0838 31.9681 12.1727 32.2983 12.3603L44.2871 19.183L44.2868 19.1833L44.2104 19.2598Z" fill="url(#paint9_linear)"/>
<rect x="0.5" y="0.5" width="154" height="45" rx="14.5" stroke="#004522"/>
<defs>
<linearGradient id="paint0_linear" x1="36.711" y1="13.3737" x2="27.9483" y2="22.1504" gradientUnits="userSpaceOnUse">
<stop stop-color="#00A0FF"/>
<stop offset="0.00657" stop-color="#00A1FF"/>
<stop offset="0.2601" stop-color="#00BEFF"/>
<stop offset="0.5122" stop-color="#00D2FF"/>
<stop offset="0.7604" stop-color="#00DFFF"/>
<stop offset="1" stop-color="#00E3FF"/>
</linearGradient>
<linearGradient id="paint1_linear" x1="49.7959" y1="22.5962" x2="29.9376" y2="22.5962" gradientUnits="userSpaceOnUse">
<stop stop-color="#FFE000"/>
<stop offset="0.4087" stop-color="#FFBD00"/>
<stop offset="0.7754" stop-color="#FFA500"/>
<stop offset="1" stop-color="#FF9C00"/>
</linearGradient>
<linearGradient id="paint2_linear" x1="42.4111" y1="25.8835" x2="27.5621" y2="40.6478" gradientUnits="userSpaceOnUse">
<stop stop-color="#FF3A44"/>
<stop offset="1" stop-color="#C31162"/>
</linearGradient>
<linearGradient id="paint3_linear" x1="28.0322" y1="10.9605" x2="34.6501" y2="17.5508" gradientUnits="userSpaceOnUse">
<stop stop-color="#32A071"/>
<stop offset="0.0685" stop-color="#2DA771"/>
<stop offset="0.4762" stop-color="#15CF74"/>
<stop offset="0.8009" stop-color="#06E775"/>
<stop offset="1" stop-color="#00F076"/>
</linearGradient>
<linearGradient id="paint4_linear" x1="42.4037" y1="28.2393" x2="30.5118" y2="40.1504" gradientUnits="userSpaceOnUse">
<stop stop-color="#CC2E36"/>
<stop offset="1" stop-color="#9C0E4E"/>
</linearGradient>
<linearGradient id="paint5_linear" x1="31.5674" y1="13.3734" x2="23.8477" y2="21.1058" gradientUnits="userSpaceOnUse">
<stop stop-color="#008DE0"/>
<stop offset="0.00657" stop-color="#008DE0"/>
<stop offset="0.2601" stop-color="#00A7E0"/>
<stop offset="0.5122" stop-color="#00B8E0"/>
<stop offset="0.7604" stop-color="#00C4E0"/>
<stop offset="1" stop-color="#00C7E0"/>
</linearGradient>
<linearGradient id="paint6_linear" x1="49.7962" y1="22.6555" x2="29.9379" y2="22.6555" gradientUnits="userSpaceOnUse">
<stop stop-color="#E0C500"/>
<stop offset="0.4087" stop-color="#E0A600"/>
<stop offset="0.7754" stop-color="#E09100"/>
<stop offset="1" stop-color="#E08900"/>
</linearGradient>
<linearGradient id="paint7_linear" x1="49.796" y1="22.6556" x2="29.9378" y2="22.6556" gradientUnits="userSpaceOnUse">
<stop stop-color="#FFE840"/>
<stop offset="0.4087" stop-color="#FFCE40"/>
<stop offset="0.7754" stop-color="#FFBC40"/>
<stop offset="1" stop-color="#FFB540"/>
</linearGradient>
<linearGradient id="paint8_linear" x1="31.5591" y1="13.3873" x2="24.1235" y2="20.5122" gradientUnits="userSpaceOnUse">
<stop stop-color="#40B8FF"/>
<stop offset="0.00657" stop-color="#40B9FF"/>
<stop offset="0.2601" stop-color="#40CEFF"/>
<stop offset="0.5122" stop-color="#40DDFF"/>
<stop offset="0.7604" stop-color="#40E7FF"/>
<stop offset="1" stop-color="#40EAFF"/>
</linearGradient>
<linearGradient id="paint9_linear" x1="28.0173" y1="13.1146" x2="33.3275" y2="18.4335" gradientUnits="userSpaceOnUse">
<stop stop-color="#65B895"/>
<stop offset="0.0685" stop-color="#62BD95"/>
<stop offset="0.4762" stop-color="#50DB97"/>
<stop offset="0.8009" stop-color="#44ED98"/>
<stop offset="1" stop-color="#40F498"/>
</linearGradient>
</defs>
</svg>
