<svg width="155" height="46" viewBox="0 0 155 46" fill="none" xmlns="http://www.w3.org/2000/svg">
<rect width="155" height="46" rx="15" fill="#004522"/>
<path d="M43.475 21.8442C43.4856 21.0042 43.7045 20.1805 44.1113 19.4498C44.5181 18.7192 45.0997 18.1053 45.8018 17.6653C45.3557 17.0159 44.7673 16.4816 44.0833 16.1046C43.3992 15.7276 42.6383 15.5184 41.8611 15.4936C40.203 15.3162 38.5957 16.505 37.7508 16.505C36.8895 16.505 35.5887 15.5113 34.1879 15.5406C33.2818 15.5705 32.3988 15.839 31.6248 16.3202C30.8508 16.8014 30.2123 17.4787 29.7715 18.2862C27.862 21.6563 29.2863 26.6092 31.1155 29.3333C32.0307 30.6673 33.1003 32.1573 34.4998 32.1045C35.8693 32.0466 36.3808 31.2142 38.034 31.2142C39.6717 31.2142 40.1516 32.1045 41.5796 32.0709C43.0491 32.0466 43.975 30.731 44.8581 29.3844C45.5157 28.434 46.0217 27.3835 46.3573 26.2719C45.5036 25.9038 44.775 25.2877 44.2624 24.5003C43.7498 23.7129 43.476 22.7892 43.475 21.8442Z" fill="white"/>
<path d="M40.7778 13.7022C41.579 12.7217 41.9738 11.4614 41.8782 10.189C40.6541 10.32 39.5233 10.9164 38.7112 11.8593C38.3141 12.3199 38.01 12.8558 37.8163 13.4363C37.6225 14.0168 37.5429 14.6306 37.5819 15.2425C38.1942 15.2489 38.8 15.1136 39.3535 14.8468C39.9071 14.58 40.3941 14.1886 40.7778 13.7022Z" fill="white"/>
<path d="M59.3972 28.766H55.2087L54.2028 31.7936H52.4287L56.396 20.5923H58.2392L62.2065 31.7936H60.4022L59.3972 28.766ZM55.6425 27.3689H58.9626L57.3259 22.4554H57.28L55.6425 27.3689Z" fill="white"/>
<path d="M70.7747 27.7103C70.7747 30.2481 69.4421 31.8786 67.4313 31.8786C66.9219 31.9057 66.4153 31.7861 65.9695 31.5334C65.5237 31.2807 65.1567 30.9052 64.9105 30.4498H64.8725V34.4948H63.228V23.6265H64.8198V24.9848H64.85C65.1075 24.5316 65.4807 24.158 65.9299 23.9037C66.3791 23.6495 66.8875 23.5242 67.401 23.5411C69.4344 23.5411 70.7747 25.1795 70.7747 27.7103ZM69.0844 27.7103C69.0844 26.0569 68.2462 24.9698 66.9672 24.9698C65.7107 24.9698 64.8656 26.0798 64.8656 27.7103C64.8656 29.3557 65.7107 30.4577 66.9672 30.4577C68.2462 30.4577 69.0843 29.3786 69.0843 27.7103H69.0844Z" fill="white"/>
<path d="M79.5925 27.7103C79.5925 30.2481 78.2595 31.8786 76.2486 31.8786C75.7393 31.9057 75.2327 31.7861 74.7869 31.5334C74.3411 31.2807 73.9741 30.9052 73.7279 30.4498H73.6899V34.4948H72.0454V23.6265H73.6372V24.9848H73.6674C73.9249 24.5316 74.2981 24.158 74.7473 23.9037C75.1964 23.6495 75.7049 23.5242 76.2184 23.5411C78.2517 23.5411 79.5925 25.1795 79.5925 27.7103ZM77.9018 27.7103C77.9018 26.0569 77.0635 24.9698 75.7846 24.9698C74.5281 24.9698 73.683 26.0798 73.683 27.7103C73.683 29.3557 74.5281 30.4577 75.7846 30.4577C77.0635 30.4577 77.9018 29.3786 77.9018 27.7103Z" fill="white"/>
<path d="M85.4197 28.6724C85.5416 29.7831 86.6002 30.5125 88.0467 30.5125C89.4328 30.5125 90.4301 29.7831 90.4301 28.7815C90.4301 27.9121 89.8286 27.3915 88.4045 27.0348L86.9804 26.6851C84.9626 26.1882 84.0259 25.2263 84.0259 23.6654C84.0259 21.7328 85.6781 20.4053 88.0234 20.4053C90.3462 20.4053 91.938 21.7328 91.9916 23.6654H90.3315C90.2322 22.5476 89.3257 21.8728 88.0009 21.8728C86.6762 21.8728 85.7697 22.5555 85.7697 23.5491C85.7697 24.341 86.3487 24.807 87.765 25.1637L88.9757 25.4668C91.2302 26.0103 92.1661 26.9335 92.1661 28.5719C92.1661 30.6675 90.5294 31.98 87.9248 31.98C85.488 31.98 83.8426 30.6983 83.7363 28.6723L85.4197 28.6724Z" fill="white"/>
<path d="M95.717 21.6938V23.6265H97.2405V24.954H95.717V29.4561C95.717 30.1556 96.0221 30.4815 96.6918 30.4815C96.8726 30.4783 97.0532 30.4653 97.2327 30.4427V31.7622C96.9316 31.8196 96.6256 31.8456 96.3193 31.8398C94.6973 31.8398 94.0648 31.2187 94.0648 29.6349V24.954H92.8999V23.6265H94.0647V21.6938H95.717Z" fill="white"/>
<path d="M98.1216 27.7105C98.1216 25.141 99.6062 23.5264 101.921 23.5264C104.244 23.5264 105.722 25.141 105.722 27.7105C105.722 30.2871 104.252 31.8947 101.921 31.8947C99.5915 31.8947 98.1216 30.2871 98.1216 27.7105ZM104.046 27.7105C104.046 25.9479 103.254 24.9076 101.921 24.9076C100.589 24.9076 99.7963 25.9558 99.7963 27.7105C99.7963 29.4802 100.589 30.5126 101.921 30.5126C103.254 30.5126 104.046 29.4802 104.046 27.7105H104.046Z" fill="white"/>
<path d="M107.078 23.6269H108.646V25.0169H108.684C108.79 24.5828 109.04 24.1991 109.391 23.9304C109.742 23.6617 110.173 23.5244 110.611 23.5415C110.801 23.5408 110.99 23.5618 111.175 23.604V25.172C110.935 25.0974 110.686 25.0632 110.436 25.0707C110.197 25.0608 109.959 25.1037 109.738 25.1965C109.516 25.2893 109.318 25.4298 109.155 25.6083C108.992 25.7868 108.869 25.9991 108.794 26.2306C108.72 26.4622 108.695 26.7074 108.722 26.9496V31.7935H107.078L107.078 23.6269Z" fill="white"/>
<path d="M118.757 29.3948C118.535 30.8773 117.119 31.8947 115.307 31.8947C112.976 31.8947 111.53 30.303 111.53 27.7493C111.53 25.1877 112.984 23.5264 115.238 23.5264C117.454 23.5264 118.848 25.0785 118.848 27.5546V28.129H113.19V28.2302C113.164 28.5308 113.201 28.8336 113.298 29.1185C113.396 29.4034 113.551 29.6639 113.755 29.8826C113.959 30.1014 114.206 30.2735 114.48 30.3874C114.754 30.5013 115.049 30.5545 115.345 30.5434C115.734 30.5805 116.124 30.4888 116.457 30.2818C116.79 30.0749 117.049 29.7638 117.195 29.3948L118.757 29.3948ZM113.198 26.9574H117.203C117.218 26.6871 117.177 26.4167 117.085 26.1631C116.992 25.9094 116.849 25.678 116.665 25.4834C116.48 25.2887 116.258 25.1351 116.013 25.0321C115.767 24.929 115.503 24.8789 115.238 24.8847C114.97 24.8831 114.705 24.9355 114.457 25.039C114.209 25.1425 113.984 25.295 113.794 25.4877C113.604 25.6804 113.454 25.9095 113.352 26.1617C113.249 26.414 113.197 26.6844 113.198 26.9574V26.9574Z" fill="white"/>
<path d="M54.0249 11.0446C54.3948 11.0176 54.766 11.0745 55.1118 11.2114C55.4575 11.3483 55.7691 11.5617 56.0241 11.8362C56.2791 12.1107 56.4712 12.4395 56.5864 12.7989C56.7017 13.1582 56.7373 13.5391 56.6907 13.9142C56.6907 15.7592 55.7125 16.8197 54.0249 16.8197H51.9785V11.0446H54.0249ZM52.8584 16.003H53.9266C54.1909 16.0191 54.4555 15.9749 54.701 15.8737C54.9464 15.7724 55.1667 15.6166 55.3456 15.4177C55.5246 15.2187 55.6578 14.9816 55.7355 14.7235C55.8133 14.4655 55.8336 14.193 55.795 13.926C55.8308 13.66 55.8084 13.3892 55.7295 13.133C55.6506 12.8769 55.517 12.6417 55.3385 12.4443C55.1599 12.2469 54.9407 12.0922 54.6966 11.9914C54.4526 11.8905 54.1896 11.8459 53.9266 11.8607H52.8584V16.003Z" fill="white"/>
<path d="M57.6848 14.6387C57.658 14.3523 57.6901 14.0633 57.7792 13.7903C57.8683 13.5173 58.0124 13.2663 58.2022 13.0534C58.3921 12.8405 58.6235 12.6704 58.8816 12.554C59.1397 12.4376 59.4188 12.3774 59.7011 12.3774C59.9833 12.3774 60.2625 12.4376 60.5206 12.554C60.7787 12.6704 61.0101 12.8405 61.1999 13.0534C61.3898 13.2663 61.5339 13.5173 61.623 13.7903C61.7121 14.0633 61.7442 14.3523 61.7173 14.6387C61.7447 14.9254 61.713 15.2148 61.6241 15.4882C61.5352 15.7617 61.3912 16.0132 61.2013 16.2265C61.0115 16.4398 60.7799 16.6103 60.5215 16.727C60.2631 16.8436 59.9837 16.9039 59.7011 16.9039C59.4185 16.9039 59.139 16.8436 58.8807 16.727C58.6223 16.6103 58.3907 16.4398 58.2008 16.2265C58.0109 16.0132 57.8669 15.7617 57.7781 15.4882C57.6892 15.2148 57.6574 14.9254 57.6848 14.6387ZM60.8494 14.6387C60.8494 13.694 60.4331 13.1416 59.7025 13.1416C58.969 13.1416 58.5565 13.694 58.5565 14.6387C58.5565 15.591 58.9691 16.1392 59.7025 16.1392C60.4331 16.1392 60.8495 15.5872 60.8495 14.6387H60.8494Z" fill="white"/>
<path d="M67.0773 16.8196H66.202L65.3183 13.6098H65.2516L64.3716 16.8196H63.5047L62.3262 12.4614H63.182L63.9479 15.787H64.0109L64.89 12.4614H65.6994L66.5784 15.787H66.6452L67.4074 12.4614H68.2511L67.0773 16.8196Z" fill="white"/>
<path d="M69.2427 12.4615H70.0549V13.1538H70.118C70.2249 12.9051 70.4053 12.6967 70.634 12.5575C70.8628 12.4183 71.1284 12.3553 71.3938 12.3773C71.6019 12.3614 71.8108 12.3934 72.005 12.4709C72.1993 12.5484 72.3739 12.6695 72.5161 12.8252C72.6582 12.9808 72.7641 13.1671 72.826 13.3702C72.8879 13.5733 72.9042 13.7879 72.8737 13.9983V16.8196H72.0299V14.2143C72.0299 13.5139 71.7314 13.1656 71.1073 13.1656C70.9661 13.1589 70.8251 13.1834 70.694 13.2375C70.5629 13.2915 70.4449 13.3738 70.3479 13.4787C70.2509 13.5836 70.1774 13.7086 70.1322 13.8452C70.0871 13.9818 70.0715 14.1267 70.0864 14.2701V16.8197H69.2427L69.2427 12.4615Z" fill="white"/>
<path d="M74.2183 10.7603H75.062V16.8198H74.2183V10.7603Z" fill="white"/>
<path d="M76.2346 14.6388C76.2078 14.3524 76.2399 14.0634 76.329 13.7904C76.4182 13.5174 76.5623 13.2664 76.7521 13.0534C76.942 12.8405 77.1734 12.6704 77.4315 12.554C77.6897 12.4376 77.9688 12.3774 78.2511 12.3774C78.5334 12.3774 78.8125 12.4376 79.0706 12.554C79.3288 12.6704 79.5602 12.8405 79.7501 13.0534C79.9399 13.2664 80.084 13.5174 80.1731 13.7904C80.2623 14.0634 80.2944 14.3524 80.2676 14.6388C80.2949 14.9255 80.2631 15.2149 80.1742 15.4883C80.0854 15.7618 79.9413 16.0133 79.7514 16.2266C79.5615 16.4399 79.3299 16.6104 79.0715 16.727C78.8132 16.8437 78.5337 16.9039 78.2511 16.9039C77.9685 16.9039 77.689 16.8437 77.4306 16.727C77.1723 16.6104 76.9407 16.4399 76.7508 16.2266C76.5609 16.0133 76.4168 15.7618 76.3279 15.4883C76.239 15.2149 76.2073 14.9255 76.2346 14.6388ZM79.3992 14.6388C79.3992 13.6941 78.9829 13.1417 78.2523 13.1417C77.5188 13.1417 77.1062 13.6941 77.1062 14.6388C77.1062 15.5911 77.5188 16.1393 78.2523 16.1393C78.9829 16.1393 79.3992 15.5873 79.3992 14.6388H79.3992Z" fill="white"/>
<path d="M81.1562 15.5873C81.1562 14.8028 81.7293 14.3505 82.7464 14.2862L83.9045 14.2182V13.842C83.9045 13.3817 83.606 13.1218 83.0292 13.1218C82.5582 13.1218 82.2318 13.298 82.1382 13.6062H81.3213C81.4075 12.8576 82.0983 12.3774 83.0682 12.3774C84.1401 12.3774 84.7446 12.9214 84.7446 13.842V16.8198H83.9324V16.2073H83.8656C83.7301 16.427 83.5398 16.6061 83.3142 16.7263C83.0886 16.8465 82.8357 16.9036 82.5814 16.8916C82.4019 16.9106 82.2205 16.8911 82.0489 16.8343C81.8772 16.7775 81.7192 16.6846 81.5849 16.5617C81.4507 16.4388 81.3431 16.2886 81.2693 16.1208C81.1955 15.9529 81.157 15.7712 81.1562 15.5873ZM83.9045 15.2149V14.8505L82.8605 14.9185C82.2717 14.9587 82.0047 15.1629 82.0047 15.5471C82.0047 15.9393 82.3385 16.1676 82.7975 16.1676C82.932 16.1815 83.0678 16.1676 83.1969 16.1269C83.3261 16.0861 83.4459 16.0193 83.5491 15.9305C83.6524 15.8416 83.7371 15.7324 83.7982 15.6095C83.8592 15.4865 83.8954 15.3523 83.9045 15.2149Z" fill="white"/>
<path d="M85.853 14.6388C85.853 13.2617 86.5475 12.3893 87.6277 12.3893C87.8949 12.3767 88.1601 12.442 88.3923 12.5774C88.6245 12.7128 88.814 12.9127 88.9388 13.1539H89.0019V10.7603H89.8457V16.8198H89.0371V16.1312H88.9704C88.8359 16.3708 88.6397 16.5682 88.4031 16.7023C88.1664 16.8363 87.8983 16.9018 87.6277 16.8916C86.5401 16.8917 85.853 16.0192 85.853 14.6388ZM86.7246 14.6388C86.7246 15.5632 87.1521 16.1194 87.867 16.1194C88.5782 16.1194 89.0177 15.5552 89.0177 14.6426C89.0177 13.7343 88.5735 13.162 87.867 13.162C87.1567 13.162 86.7246 13.722 86.7246 14.6388H86.7246Z" fill="white"/>
<path d="M93.3372 14.6387C93.3103 14.3523 93.3424 14.0633 93.4315 13.7903C93.5206 13.5173 93.6647 13.2663 93.8546 13.0534C94.0444 12.8405 94.2758 12.6704 94.5339 12.554C94.792 12.4376 95.0712 12.3774 95.3534 12.3774C95.6357 12.3774 95.9148 12.4376 96.1729 12.554C96.431 12.6704 96.6624 12.8405 96.8523 13.0534C97.0421 13.2663 97.1862 13.5173 97.2753 13.7903C97.3644 14.0633 97.3965 14.3523 97.3697 14.6387C97.3971 14.9254 97.3653 15.2148 97.2764 15.4882C97.1876 15.7617 97.0436 16.0132 96.8537 16.2265C96.6638 16.4398 96.4322 16.6103 96.1738 16.727C95.9155 16.8436 95.636 16.9039 95.3534 16.9039C95.0708 16.9039 94.7914 16.8436 94.533 16.727C94.2746 16.6103 94.043 16.4398 93.8532 16.2265C93.6633 16.0132 93.5193 15.7617 93.4304 15.4882C93.3415 15.2148 93.3098 14.9254 93.3372 14.6387ZM96.5018 14.6387C96.5018 13.694 96.0855 13.1416 95.3548 13.1416C94.6214 13.1416 94.2088 13.694 94.2088 14.6387C94.2088 15.591 94.6214 16.1392 95.3548 16.1392C96.0855 16.1392 96.5018 15.5872 96.5018 14.6387Z" fill="white"/>
<path d="M98.5015 12.4615H99.3137V13.1538H99.3768C99.4837 12.9051 99.6641 12.6967 99.8928 12.5575C100.122 12.4183 100.387 12.3553 100.653 12.3773C100.861 12.3614 101.07 12.3934 101.264 12.4709C101.458 12.5484 101.633 12.6695 101.775 12.8252C101.917 12.9808 102.023 13.1671 102.085 13.3702C102.147 13.5733 102.163 13.7879 102.132 13.9983V16.8196H101.289V14.2143C101.289 13.5139 100.99 13.1656 100.366 13.1656C100.225 13.1589 100.084 13.1834 99.9528 13.2375C99.8217 13.2915 99.7036 13.3738 99.6067 13.4787C99.5097 13.5836 99.4361 13.7086 99.391 13.8452C99.3459 13.9818 99.3303 14.1267 99.3452 14.2701V16.8197H98.5015V12.4615Z" fill="white"/>
<path d="M106.9 11.3765V12.4814H107.827V13.2059H106.9V15.4469C106.9 15.9034 107.085 16.1033 107.505 16.1033C107.612 16.1029 107.72 16.0963 107.827 16.0834V16.7999C107.675 16.8275 107.522 16.8422 107.368 16.8438C106.429 16.8438 106.056 16.5073 106.056 15.6671V13.2058H105.377V12.4813H106.056V11.3765H106.9Z" fill="white"/>
<path d="M108.979 10.7603H109.816V13.162H109.883C109.995 12.911 110.18 12.7013 110.413 12.5616C110.647 12.4219 110.917 12.3589 111.186 12.3812C111.393 12.3698 111.6 12.405 111.792 12.4844C111.984 12.5638 112.157 12.6854 112.297 12.8406C112.438 12.9958 112.543 13.1807 112.606 13.3821C112.668 13.5836 112.686 13.7966 112.659 14.006V16.8198H111.814V14.2182C111.814 13.5221 111.496 13.1695 110.9 13.1695C110.755 13.1574 110.609 13.1777 110.472 13.229C110.336 13.2804 110.212 13.3615 110.109 13.4668C110.007 13.572 109.928 13.6988 109.879 13.8383C109.829 13.9778 109.81 14.1267 109.823 14.2744V16.8198H108.98L108.979 10.7603Z" fill="white"/>
<path d="M117.578 15.6431C117.464 16.0414 117.215 16.386 116.877 16.6164C116.538 16.8469 116.13 16.9487 115.726 16.904C115.444 16.9115 115.164 16.8565 114.905 16.7428C114.647 16.629 114.415 16.4593 114.227 16.2452C114.039 16.0312 113.899 15.778 113.817 15.5033C113.735 15.2286 113.712 14.939 113.751 14.6544C113.713 14.369 113.736 14.0787 113.818 13.8032C113.9 13.5277 114.04 13.2734 114.227 13.0575C114.414 12.8416 114.644 12.6691 114.902 12.5518C115.16 12.4345 115.439 12.3751 115.722 12.3775C116.912 12.3775 117.629 13.206 117.629 14.5746V14.8747H114.61V14.9229C114.597 15.0828 114.617 15.2438 114.668 15.3955C114.719 15.5472 114.801 15.6863 114.909 15.8039C115.016 15.9214 115.146 16.0148 115.291 16.0781C115.435 16.1414 115.591 16.1732 115.749 16.1714C115.951 16.1961 116.155 16.1591 116.336 16.065C116.517 15.9709 116.667 15.824 116.766 15.6431L117.578 15.6431ZM114.61 14.2386H116.77C116.78 14.0923 116.761 13.9454 116.712 13.8072C116.664 13.6691 116.588 13.5428 116.489 13.4365C116.39 13.3302 116.27 13.2462 116.137 13.1899C116.004 13.1335 115.861 13.1062 115.717 13.1096C115.571 13.1077 115.427 13.1356 115.291 13.1917C115.156 13.2478 115.033 13.3309 114.93 13.4361C114.827 13.5413 114.746 13.6665 114.691 13.8043C114.636 13.9422 114.608 14.0898 114.61 14.2386H114.61Z" fill="white"/>
</svg>
