<svg width="497" height="266" viewBox="0 0 497 266" fill="none" xmlns="http://www.w3.org/2000/svg">
<path d="M223.482 163.477V182.756L260.408 182.749H292.888C292.888 182.749 301.631 183.368 302.133 174.682C302.636 165.989 302.42 134.305 310.157 122.185C317.886 110.058 318.46 107.757 314.162 107.757H261.945C261.945 107.757 250.667 127.578 250.667 163.477H223.482Z" fill="white"/>
<path d="M293.235 182.759L303.241 260.681H298.238L278.958 182.759H293.235Z" fill="#999999"/>
<path d="M236.662 182.759L226.658 260.681H231.659L250.939 182.759H236.662Z" fill="#999999"/>
<path d="M290.063 146.926C289.576 147.071 288.485 147.274 286.963 147.523C276.628 149.179 246.227 152.666 246.227 152.666L246.186 152.071L245.469 141.54H238.883C238.883 141.54 232.684 133.978 225.919 130.406C221.227 127.933 218.142 127.717 216.682 127.81C216.033 127.856 215.708 127.965 215.708 127.965L224.737 111.452L226.631 93.421C226.724 90.8723 226.901 88.3305 227.187 85.7958C227.513 82.9219 227.952 80.0462 228.539 77.2109C229.019 74.9416 229.73 72.5317 231.546 70.9656C235.071 67.944 239.779 69.1287 244.061 69.6402L245.932 69.8037C246.071 69.8107 246.211 69.8195 246.35 69.8265C246.388 69.8265 246.42 69.8424 246.458 69.8494L247.123 69.9109C248.468 71.1906 250.083 72.1749 252.024 72.7479C260.046 75.1104 264.625 69.5541 267.004 64.7114H267.013L273.813 62.1943L276.736 61.1168L280.678 68.3694C280.678 68.3694 301.449 67.5801 302.809 80.0005C304.17 92.4226 293.858 145.771 290.063 146.926Z" fill="#A1DAA1"/>
<path d="M213.243 129.077C212.812 130.882 216.838 135.593 216.838 135.593C216.838 135.593 211.628 132.069 210.878 132.633C210.129 133.199 211.041 135.593 211.041 135.593C211.041 135.593 209.403 135.052 209.263 136.075C209.131 137.098 210.446 139.631 210.446 139.631C210.446 139.631 207.469 139.065 208.242 141.197C208.659 142.336 210.152 143.994 212.161 145.621C211.798 145.706 211.256 145.845 210.578 146.024H210.569C210.392 145.938 204.618 143.257 204.595 140.654C204.563 138.019 206.124 140.033 206.31 136.182C206.496 132.331 207.709 131.255 209.263 131.394C210.825 131.526 213.243 129.077 213.243 129.077Z" fill="#FFD6C5"/>
<path d="M216.761 129.418L216.683 127.806C218.144 127.713 221.229 127.931 225.921 130.403C232.684 133.974 238.883 141.536 238.883 141.536H245.469L246.188 152.067C246.188 152.067 222.828 151.717 218.183 149.487C216.026 148.441 213.901 147.047 212.161 145.62C210.152 143.994 208.659 142.336 208.242 141.195C207.469 139.065 210.444 139.631 210.444 139.631C210.444 139.631 209.131 137.096 209.263 136.075C209.401 135.052 211.041 135.593 211.041 135.593C211.041 135.593 210.129 133.199 210.878 132.633C211.628 132.069 216.838 135.593 216.838 135.593C216.838 135.593 212.81 130.882 213.243 129.077C213.59 127.597 215.926 128.9 216.761 129.418Z" fill="#FFD6C5"/>
<path d="M225.008 140.007C222.097 138.764 219.421 137.008 217.14 134.811C216 133.712 214.876 132.501 214.011 131.167C213.619 130.564 213.191 129.448 214.076 129.037C214.878 128.664 215.739 129.249 216.389 129.67C216.806 129.942 217.196 129.271 216.778 129C215.756 128.339 214.201 127.611 213.201 128.743C212.186 129.891 213.182 131.387 213.918 132.352C214.383 132.96 214.876 133.544 215.39 134.108L214.595 133.688C213.859 133.296 213.122 132.827 212.34 132.535C211.718 132.303 211.009 132.331 210.548 132.86C210.19 133.269 210.08 133.869 210.187 134.394C210.275 134.83 210.499 135.214 210.76 135.572C210.178 135.435 209.556 135.352 209.012 135.665C208.472 135.976 208.237 136.576 208.405 137.177C208.582 137.806 209.098 138.335 209.512 138.82C209.61 138.937 209.724 139.04 209.824 139.154C209.221 139.109 208.625 139.364 208.281 139.926C207.786 140.729 208.128 141.594 208.633 142.29C209.75 143.832 211.104 145.178 212.626 146.317C213.024 146.614 213.41 145.941 213.015 145.646C211.842 144.771 210.778 143.744 209.85 142.608C209.457 142.129 208.83 141.494 208.803 140.835C208.779 140.183 209.47 139.717 210.064 139.982C210.241 140.061 210.406 140.005 210.518 139.896C210.697 140.081 210.86 140.279 211.044 140.457C213.133 142.499 215.567 144.173 218.215 145.4C218.662 145.607 219.056 144.939 218.604 144.73C216.452 143.733 214.441 142.447 212.651 140.888C211.765 140.116 210.932 139.281 210.162 138.393C209.812 137.987 209.187 137.432 209.133 136.869C209.051 135.992 210.245 136.24 210.739 136.363C210.965 136.419 211.127 136.282 211.19 136.112C211.216 136.145 211.246 136.182 211.274 136.214C211.774 136.797 212.303 137.355 212.859 137.885C213.939 138.912 215.118 139.835 216.372 140.638C217.806 141.557 219.34 142.308 220.936 142.897C221.404 143.069 221.606 142.318 221.143 142.148C218.097 141.026 215.307 139.246 213.008 136.948C212.438 136.379 211.862 135.785 211.388 135.134C211.037 134.651 210.538 133.533 211.369 133.206C211.826 133.025 212.363 133.38 212.754 133.588C213.182 133.813 213.608 134.039 214.034 134.266C214.916 134.734 215.798 135.201 216.68 135.667C216.782 135.723 216.88 135.723 216.968 135.697C217.98 136.639 219.061 137.506 220.208 138.281C221.599 139.219 223.077 140.019 224.618 140.677C225.071 140.87 225.465 140.202 225.008 140.007Z" fill="#25202B"/>
<path d="M230.684 133.813C226.926 131.596 222.862 129.932 218.63 128.88C218.148 128.761 217.941 129.508 218.425 129.627C222.597 130.665 226.591 132.297 230.293 134.482C230.723 134.736 231.114 134.066 230.684 133.813Z" fill="#25202B"/>
<path d="M241.892 84.3544C240.272 90.6367 238.729 96.9383 237.267 103.257C235.795 109.61 234.405 115.98 233.093 122.366C232.358 125.948 231.648 129.536 230.963 133.129C230.87 133.616 231.615 133.825 231.708 133.335C232.923 126.961 234.217 120.603 235.592 114.263C236.972 107.891 238.431 101.537 239.97 95.2016C240.835 91.6492 241.724 88.102 242.638 84.5601C242.762 84.0767 242.017 83.8711 241.892 84.3544Z" fill="#25202B"/>
<path d="M278.911 86.2106C277.196 97.3021 275.481 108.394 273.765 119.485C273.296 122.514 272.828 125.544 272.358 128.575L251.202 132.805C249.163 133.213 247.122 133.621 245.08 134.029C244.868 134.071 244.793 134.236 244.81 134.402C244.584 134.345 244.319 134.46 244.342 134.755L244.779 140.571C244.816 141.065 245.589 141.069 245.552 140.571L245.117 134.776C245.168 134.786 245.224 134.788 245.286 134.776L266.666 130.501C268.646 130.104 270.624 129.708 272.604 129.313C272.797 129.381 273.021 129.32 273.061 129.061C274.776 117.97 276.491 106.878 278.208 95.7869C278.69 92.6652 279.174 89.5399 279.656 86.4181C279.732 85.9294 278.988 85.7185 278.911 86.2106Z" fill="#25202B"/>
<path d="M286.965 147.518C286.965 147.518 293.504 161.35 282.472 169.462C271.443 177.576 254.9 174.918 254.9 174.918L251.956 236.528H248.801H235.198H230.9L230.21 168.316L230.181 165.588C230.181 165.588 231.471 159.629 246.227 152.665C246.227 152.665 276.63 149.177 286.965 147.518Z" fill="#25202B"/>
<path d="M248.801 236.528L252.389 252.901L225.379 261.37C225.379 261.37 215.5 262.516 215.57 259.363C215.64 256.2 235.197 236.528 235.197 236.528H248.801Z" fill="#325B31"/>
<path d="M246.188 152.067L246.229 152.665C231.471 159.631 230.18 165.588 230.18 165.588L230.212 168.316L203.969 173.345L212.703 232.654L200.76 234.939L196.23 235.807C196.23 235.807 174.169 164.226 174.88 159.413C175.492 155.298 202.669 148.047 210.569 146.024H210.578C211.258 145.845 211.798 145.706 212.161 145.62C213.901 147.047 216.028 148.441 218.183 149.487C222.83 151.719 246.188 152.067 246.188 152.067Z" fill="#25202B"/>
<path d="M212.703 232.654L217.287 247.586L183.909 258.533C181.976 251.676 200.76 234.939 200.76 234.939L212.703 232.654Z" fill="#325B31"/>
<path d="M232.534 152.243C228.14 155.707 229.644 162.018 229.356 166.822C229.327 167.319 230.1 167.317 230.128 166.822C230.403 162.237 228.885 156.098 233.081 152.791C233.472 152.484 232.921 151.939 232.534 152.243Z" fill="white"/>
<path d="M215.695 246.243C207.863 248.747 200.03 251.252 192.199 253.757C189.997 254.46 187.793 255.165 185.59 255.87C185.119 256.021 185.32 256.77 185.795 256.619C193.628 254.112 201.46 251.607 209.293 249.103C211.495 248.398 213.699 247.695 215.9 246.99C216.373 246.839 216.172 246.09 215.695 246.243Z" fill="#A1DAA1"/>
<path d="M250.253 252.015C243.824 254.056 237.398 256.097 230.969 258.138C229.133 258.721 227.296 259.303 225.46 259.887C224.988 260.038 225.19 260.785 225.665 260.634C232.093 258.593 238.52 256.552 244.948 254.511C246.784 253.928 248.62 253.344 250.458 252.762C250.93 252.611 250.728 251.864 250.253 252.015Z" fill="#A1DAA1"/>
<path d="M234.385 256C232.185 251.989 227.913 249.326 223.359 249.087C222.861 249.06 222.863 249.834 223.359 249.86C227.647 250.085 231.65 252.623 233.719 256.39C233.959 256.828 234.626 256.436 234.385 256Z" fill="#A1DAA1"/>
<path d="M198.791 250.894C196.809 248.421 193.918 246.731 190.793 246.223C190.307 246.144 190.098 246.89 190.589 246.97C193.6 247.459 196.334 249.057 198.244 251.442C198.556 251.831 199.099 251.279 198.791 250.894Z" fill="#A1DAA1"/>
<path d="M233.74 89.8298C233.119 88.7769 232.499 87.724 231.878 86.6711C231.567 86.1473 230.819 85.9135 230.291 86.2546C229.765 86.5938 229.544 87.2846 229.875 87.8453C230.496 88.8982 231.117 89.9511 231.738 91.004C232.046 91.5261 232.795 91.7616 233.325 91.4206C233.849 91.0814 234.07 90.3906 233.74 89.8298Z" fill="#325B31"/>
<path d="M240.723 78.6804C240.232 78.2304 239.573 78.2533 239.083 78.6804C237.984 79.6384 236.886 80.5964 235.787 81.5544C235.573 81.7407 235.448 82.0975 235.448 82.3752C235.448 82.66 235.574 83.001 235.787 83.1961C236.278 83.6479 236.937 83.6232 237.428 83.1961C238.526 82.2399 239.625 81.2819 240.723 80.3257C240.937 80.1376 241.061 79.779 241.061 79.5031C241.061 79.2183 240.935 78.8773 240.723 78.6804Z" fill="#325B31"/>
<path d="M237.34 92.7126C237.265 92.4419 237.058 92.1501 236.807 92.0183C236.537 91.8759 236.213 91.8039 235.913 91.9005C235.645 91.9867 235.339 92.1642 235.22 92.4349C234.652 93.7286 234.086 95.0241 233.517 96.3196C233.388 96.6166 233.312 96.8891 233.402 97.2142C233.475 97.4849 233.684 97.7767 233.933 97.9103C234.203 98.0527 234.529 98.123 234.827 98.0263C235.096 97.9402 235.403 97.7627 235.52 97.492C236.088 96.1965 236.656 94.9028 237.223 93.6073C237.352 93.3103 237.43 93.0378 237.34 92.7126Z" fill="#325B31"/>
<path d="M231.071 103.625L229.805 99.1654C229.639 98.5818 228.979 98.1599 228.378 98.3533C227.785 98.5467 227.393 99.1584 227.57 99.7841C227.992 101.269 228.413 102.756 228.836 104.242C229.001 104.827 229.662 105.249 230.261 105.054C230.854 104.862 231.249 104.252 231.071 103.625Z" fill="#325B31"/>
<path d="M235.432 108.777C235.241 107.819 235.052 106.863 234.861 105.905C234.805 105.63 234.561 105.347 234.326 105.21C234.079 105.064 233.712 105.003 233.433 105.093C233.153 105.184 232.883 105.358 232.741 105.627C232.588 105.915 232.56 106.202 232.623 106.522C232.814 107.48 233.006 108.438 233.197 109.396C233.251 109.668 233.497 109.953 233.73 110.09C233.979 110.234 234.345 110.297 234.622 110.206C234.903 110.116 235.175 109.94 235.317 109.672C235.468 109.385 235.497 109.097 235.432 108.777Z" fill="#325B31"/>
<path d="M230.731 111.514C230.591 111.273 230.316 111.043 230.039 110.981C229.742 110.912 229.409 110.927 229.146 111.097L228.911 111.278C228.767 111.424 228.667 111.594 228.613 111.791C228.278 112.653 227.945 113.516 227.61 114.377C227.507 114.642 227.589 115.038 227.727 115.272C227.868 115.514 228.143 115.743 228.42 115.808C228.716 115.875 229.05 115.861 229.314 115.69L229.548 115.507C229.691 115.363 229.791 115.193 229.846 114.996C230.181 114.133 230.516 113.271 230.849 112.41C230.952 112.146 230.868 111.749 230.731 111.514Z" fill="#325B31"/>
<path d="M225.558 117.474C225.337 117.27 225.046 117.119 224.738 117.133C224.436 117.147 224.129 117.247 223.919 117.474C223.203 118.242 222.49 119.009 221.776 119.779C221.569 120.002 221.438 120.29 221.438 120.6C221.438 120.884 221.564 121.225 221.776 121.422C221.997 121.624 222.288 121.775 222.597 121.763C222.898 121.749 223.205 121.649 223.415 121.422C224.129 120.654 224.845 119.886 225.558 119.118C225.765 118.895 225.897 118.604 225.897 118.295C225.897 118.01 225.77 117.669 225.558 117.474Z" fill="#325B31"/>
<path d="M226.256 125.382C226.044 125.187 225.736 125.01 225.436 125.043C224.147 125.187 222.858 125.331 221.569 125.476C221.252 125.511 220.982 125.581 220.749 125.815C220.547 126.017 220.396 126.347 220.41 126.637C220.422 126.938 220.521 127.249 220.749 127.458C220.961 127.653 221.269 127.833 221.569 127.799C222.858 127.655 224.147 127.511 225.436 127.367C225.753 127.332 226.021 127.261 226.256 127.026C226.458 126.826 226.609 126.495 226.595 126.205C226.582 125.905 226.484 125.593 226.256 125.382Z" fill="#325B31"/>
<path d="M231.305 121.136C231.164 120.895 230.889 120.665 230.612 120.601C230.316 120.535 229.983 120.549 229.719 120.719C229.483 120.872 229.229 121.122 229.186 121.413L228.613 125.291C228.566 125.613 228.56 125.894 228.731 126.186C228.871 126.427 229.146 126.657 229.423 126.722C229.72 126.789 230.053 126.775 230.317 126.604C230.552 126.451 230.807 126.2 230.849 125.91C231.04 124.616 231.231 123.324 231.422 122.032C231.47 121.71 231.477 121.427 231.305 121.136Z" fill="#325B31"/>
<path d="M241.763 124.008C241.421 123.477 240.738 123.266 240.177 123.591C238.936 124.31 237.693 125.027 236.451 125.746C235.927 126.05 235.699 126.81 236.036 127.335C236.377 127.868 237.06 128.079 237.622 127.754C238.864 127.035 240.105 126.318 241.347 125.599C241.873 125.295 242.101 124.533 241.763 124.008Z" fill="#325B31"/>
<path d="M240.684 134.815C240.219 133.802 239.753 132.793 239.288 131.782C239.173 131.533 238.85 131.317 238.596 131.248C238.317 131.171 237.949 131.206 237.701 131.364C237.454 131.524 237.237 131.763 237.17 132.058C237.096 132.38 237.149 132.656 237.286 132.955L238.682 135.989C238.797 136.238 239.12 136.451 239.374 136.521C239.653 136.599 240.021 136.564 240.269 136.405C240.516 136.244 240.733 136.006 240.802 135.709C240.873 135.388 240.821 135.112 240.684 134.815Z" fill="#325B31"/>
<path d="M250.073 127.167C249.718 126.618 249.061 126.449 248.486 126.75C247.386 127.325 246.288 127.9 245.191 128.474C244.652 128.756 244.446 129.554 244.773 130.063C245.128 130.614 245.785 130.782 246.36 130.482C247.46 129.907 248.558 129.332 249.657 128.757C250.194 128.476 250.4 127.678 250.073 127.167Z" fill="#325B31"/>
<path d="M249.083 117.989C249.062 117.678 248.969 117.393 248.745 117.167C248.543 116.965 248.214 116.813 247.924 116.826C247.625 116.84 247.314 116.938 247.104 117.167C246.906 117.385 246.743 117.683 246.765 117.989C246.813 118.659 246.86 119.329 246.909 120C246.93 120.31 247.023 120.596 247.248 120.821C247.449 121.023 247.779 121.174 248.068 121.162C248.368 121.148 248.678 121.05 248.887 120.821C249.087 120.603 249.25 120.306 249.227 120C249.18 119.329 249.133 118.659 249.083 117.989Z" fill="#325B31"/>
<path d="M240.496 113.278C239.872 113.134 239.257 113.467 239.071 114.091C238.783 115.047 238.497 116.005 238.21 116.961C238.036 117.545 238.42 118.255 239.02 118.392C239.644 118.534 240.26 118.202 240.447 117.58C240.733 116.622 241.019 115.665 241.307 114.708C241.48 114.126 241.098 113.416 240.496 113.278Z" fill="#325B31"/>
<path d="M251.908 107.771C251.73 107.219 251.088 106.726 250.481 106.959C249.241 107.437 247.998 107.917 246.757 108.395C246.467 108.508 246.225 108.652 246.064 108.93C245.918 109.179 245.857 109.547 245.948 109.826C246.125 110.376 246.767 110.87 247.374 110.638C248.615 110.158 249.857 109.68 251.098 109.2C251.388 109.09 251.63 108.946 251.791 108.666C251.936 108.418 251.998 108.051 251.908 107.771Z" fill="#325B31"/>
<path d="M243.025 105.616C242.883 104.852 242.739 104.085 242.596 103.319C242.545 103.047 242.294 102.76 242.062 102.625C241.813 102.479 241.447 102.417 241.17 102.507C240.889 102.598 240.618 102.774 240.477 103.043C240.325 103.331 240.298 103.616 240.36 103.938C240.504 104.704 240.646 105.469 240.789 106.235C240.84 106.508 241.091 106.794 241.323 106.929C241.572 107.075 241.938 107.137 242.217 107.047C242.496 106.956 242.767 106.782 242.909 106.513C243.06 106.223 243.087 105.94 243.025 105.616Z" fill="#325B31"/>
<path d="M253.244 98.0492C252.913 97.5359 252.206 97.2846 251.658 97.6326C250.314 98.4851 248.971 99.3359 247.628 100.187C247.116 100.512 246.865 101.238 247.212 101.777C247.542 102.292 248.25 102.542 248.799 102.196C250.141 101.343 251.486 100.491 252.829 99.64C253.341 99.3148 253.592 98.5906 253.244 98.0492Z" fill="#325B31"/>
<path d="M245.489 93.4192C244.838 93.4491 244.358 93.9307 244.33 94.5811C244.282 95.6832 244.233 96.7836 244.186 97.8839C244.16 98.4939 244.738 99.0739 245.345 99.0476C245.996 99.0177 246.478 98.5361 246.504 97.8839C246.553 96.7836 246.601 95.6832 246.648 94.5811C246.674 93.9729 246.097 93.3928 245.489 93.4192Z" fill="#325B31"/>
<path d="M257.092 87.6766C256.746 87.1388 256.071 86.9419 255.505 87.26C254.311 87.9297 253.117 88.5995 251.924 89.2709C251.395 89.5662 251.174 90.3396 251.507 90.8599C251.852 91.3978 252.527 91.5947 253.094 91.2765C254.288 90.6068 255.482 89.9371 256.676 89.2674C257.204 88.9703 257.427 88.1969 257.092 87.6766Z" fill="#325B31"/>
<path d="M249.785 84.6603C249.645 84.4195 249.368 84.1892 249.092 84.1277C248.515 83.9959 247.793 84.3017 247.665 84.938C247.427 86.1351 247.188 87.3321 246.95 88.5291C246.888 88.8367 246.902 89.1461 247.065 89.4238C247.207 89.6646 247.483 89.8949 247.758 89.9582C248.335 90.09 249.059 89.7842 249.185 89.1461C249.424 87.9508 249.664 86.7538 249.901 85.5568C249.964 85.2474 249.948 84.9398 249.785 84.6603Z" fill="#325B31"/>
<path d="M248.016 78.6241C247.872 77.7628 247.73 76.9015 247.588 76.0385C247.542 75.7695 247.281 75.476 247.055 75.3442C246.806 75.1983 246.439 75.1367 246.16 75.2264C245.88 75.3178 245.61 75.4918 245.468 75.7625C245.429 75.8539 245.391 75.9471 245.35 76.0385C245.296 76.2459 245.296 76.4515 245.35 76.6572C245.494 77.5185 245.636 78.3816 245.78 79.2411C245.824 79.5118 246.087 79.8036 246.311 79.9372C246.56 80.0831 246.927 80.1446 247.206 80.0532C247.486 79.9636 247.758 79.7895 247.898 79.5206L248.016 79.2411C248.07 79.0372 248.07 78.8298 248.016 78.6241Z" fill="#325B31"/>
<path d="M261.961 77.4166C261.768 76.8224 261.16 76.4269 260.534 76.6045C259.241 76.9754 257.949 77.3445 256.655 77.7119C256.073 77.8788 255.65 78.5415 255.845 79.1427C256.038 79.7386 256.646 80.1323 257.272 79.9548L261.151 78.8474C261.733 78.6804 262.154 78.0177 261.961 77.4166Z" fill="#325B31"/>
<path d="M269.098 77.3269C268.812 76.2266 268.526 75.1262 268.239 74.0259C268.085 73.437 267.404 73.0222 266.813 73.2138C266.208 73.4089 265.838 74.0136 266.003 74.6428C266.289 75.7432 266.575 76.8453 266.862 77.9457C267.015 78.5345 267.699 78.9493 268.288 78.7577C268.893 78.5609 269.263 77.958 269.098 77.3269Z" fill="#325B31"/>
<path d="M265.223 87.8366C264.795 86.9752 264.367 86.1122 263.937 85.2509C263.813 84.9995 263.506 84.7886 263.245 84.7165C262.968 84.6409 262.598 84.6743 262.35 84.8343C262.103 84.9943 261.886 85.2316 261.819 85.5286C261.747 85.845 261.791 86.1333 261.935 86.4233C262.365 87.2864 262.792 88.1477 263.22 89.0107C263.345 89.2621 263.652 89.473 263.915 89.5451C264.192 89.6207 264.562 89.5873 264.807 89.4273C265.054 89.2674 265.274 89.0283 265.34 88.733C265.412 88.4166 265.368 88.1283 265.223 87.8366Z" fill="#325B31"/>
<path d="M278.017 68.7385C277.663 68.1865 277.007 68.0231 276.43 68.3219C275.045 69.0408 273.659 69.758 272.276 70.4769C271.736 70.7564 271.532 71.5579 271.86 72.0677C272.214 72.6196 272.87 72.7831 273.447 72.4843L277.599 70.3293C278.14 70.0498 278.343 69.2482 278.017 68.7385Z" fill="#325B31"/>
<path d="M272.386 80.4839C272.312 80.2132 272.103 79.9214 271.853 79.7895C271.584 79.6472 271.258 79.5751 270.96 79.6718C270.687 79.7597 270.396 79.9354 270.268 80.2061C269.789 81.2116 269.31 82.2153 268.831 83.2207C268.696 83.5072 268.63 83.8008 268.716 84.1172C268.791 84.3861 268.998 84.6779 269.249 84.8115C269.517 84.9539 269.843 85.0242 270.143 84.9292C270.415 84.8396 270.706 84.6638 270.836 84.3949C271.313 83.3894 271.79 82.384 272.268 81.3786C272.405 81.092 272.472 80.8003 272.386 80.4839Z" fill="#325B31"/>
<path d="M271.99 94.7129L270.845 92.5596C270.711 92.3065 270.422 92.0991 270.15 92.0253C269.873 91.948 269.503 91.9831 269.258 92.1431C269.01 92.3013 268.791 92.5403 268.725 92.8374C268.654 93.1485 268.69 93.4473 268.842 93.7321L269.987 95.8871C270.122 96.1367 270.411 96.3459 270.682 96.4197C270.959 96.497 271.329 96.4619 271.574 96.3037C271.821 96.1437 272.039 95.9047 272.107 95.6094C272.177 95.2965 272.142 94.9977 271.99 94.7129Z" fill="#325B31"/>
<path d="M263.426 94.7569C262.775 94.6075 262.217 94.9538 261.998 95.569C261.521 96.9084 261.046 98.2496 260.569 99.589C260.364 100.164 260.799 100.888 261.379 101.02C262.028 101.167 262.586 100.821 262.803 100.208C263.28 98.8683 263.759 97.5271 264.234 96.1859C264.439 95.6129 264.004 94.8887 263.426 94.7569Z" fill="#325B31"/>
<path d="M256.662 93.5634C256.01 93.5915 255.535 94.0731 255.503 94.7252L255.359 97.7398C255.331 98.348 255.913 98.9298 256.52 98.9034C257.173 98.8736 257.648 98.3919 257.679 97.7398L257.821 94.7252C257.851 94.1171 257.269 93.5352 256.662 93.5634Z" fill="#325B31"/>
<path d="M258.637 110.397C258.291 109.142 257.944 107.887 257.601 106.634C257.437 106.047 256.769 105.629 256.173 105.822C255.575 106.015 255.191 106.624 255.363 107.251L256.399 111.014C256.562 111.602 257.231 112.022 257.827 111.827C258.425 111.633 258.809 111.025 258.637 110.397Z" fill="#325B31"/>
<path d="M270.112 105.653C269.917 105.052 269.312 104.671 268.684 104.841C267.108 105.27 265.532 105.699 263.955 106.128C263.371 106.288 262.954 106.963 263.145 107.559C263.34 108.16 263.945 108.541 264.572 108.371C266.149 107.94 267.725 107.511 269.302 107.082C269.886 106.922 270.303 106.249 270.112 105.653Z" fill="#325B31"/>
<path d="M271.13 113.526L269.984 111.515C269.84 111.262 269.57 111.058 269.291 110.981C269.014 110.904 268.644 110.939 268.398 111.099C268.151 111.259 267.932 111.496 267.865 111.793C267.795 112.101 267.823 112.41 267.983 112.688C268.365 113.358 268.746 114.029 269.128 114.699C269.272 114.95 269.542 115.156 269.82 115.233C270.099 115.309 270.467 115.275 270.715 115.115C270.962 114.955 271.179 114.718 271.246 114.421C271.316 114.115 271.29 113.802 271.13 113.526Z" fill="#325B31"/>
<path d="M263.698 113.996C263.101 113.859 262.424 114.175 262.27 114.808C261.981 116.003 261.693 117.198 261.404 118.395C261.262 118.984 261.59 119.682 262.214 119.824C262.81 119.961 263.487 119.645 263.64 119.012C263.929 117.817 264.218 116.62 264.508 115.425C264.65 114.834 264.32 114.138 263.698 113.996Z" fill="#325B31"/>
<path d="M257.807 120.849C257.33 119.988 256.853 119.127 256.375 118.265C256.236 118.012 255.957 117.806 255.682 117.731C255.405 117.654 255.035 117.689 254.789 117.847C254.251 118.195 254.056 118.868 254.372 119.438C254.851 120.299 255.328 121.16 255.805 122.023C255.945 122.275 256.224 122.48 256.499 122.558C256.776 122.633 257.146 122.6 257.392 122.44C257.928 122.092 258.123 121.419 257.807 120.849Z" fill="#325B31"/>
<path d="M259.829 124.904C259.466 124.34 258.831 124.206 258.244 124.488C256.951 125.106 255.659 125.723 254.37 126.342C253.821 126.604 253.632 127.436 253.953 127.933C254.316 128.497 254.952 128.629 255.54 128.35C256.83 127.731 258.123 127.114 259.413 126.495C259.962 126.233 260.15 125.402 259.829 124.904Z" fill="#325B31"/>
<path d="M267.829 121.709C267.689 121.468 267.413 121.238 267.136 121.174C266.84 121.106 266.507 121.122 266.242 121.292L266.009 121.473C265.865 121.617 265.765 121.79 265.711 121.986C265.279 123.039 264.85 124.092 264.422 125.145C264.315 125.405 264.402 125.81 264.537 126.04C264.678 126.282 264.953 126.511 265.23 126.576C265.528 126.643 265.861 126.629 266.124 126.458L266.359 126.275C266.501 126.131 266.601 125.961 266.658 125.764C267.087 124.709 267.517 123.656 267.946 122.603C268.052 122.343 267.964 121.939 267.829 121.709Z" fill="#325B31"/>
<path d="M253.027 139.399L252.911 139.121C252.808 138.947 252.669 138.808 252.494 138.705C251.437 137.899 250.379 137.094 249.322 136.289C249.099 136.121 248.685 136.101 248.429 136.173C248.159 136.247 247.868 136.455 247.737 136.708C247.595 136.977 247.523 137.304 247.619 137.602L247.737 137.88C247.838 138.056 247.977 138.195 248.152 138.297C249.21 139.102 250.267 139.907 251.324 140.712C251.547 140.881 251.961 140.9 252.217 140.83C252.487 140.754 252.778 140.545 252.911 140.295C253.052 140.025 253.124 139.698 253.027 139.399Z" fill="#325B31"/>
<path d="M256.652 142.106C256.578 141.835 256.369 141.543 256.12 141.411C255.85 141.269 255.524 141.197 255.226 141.294C254.923 141.392 254.721 141.57 254.533 141.828C253.485 143.266 252.438 144.704 251.389 146.142C251.223 146.372 251.202 146.774 251.273 147.036C251.347 147.307 251.554 147.601 251.805 147.732C252.075 147.875 252.401 147.947 252.699 147.848C253.002 147.75 253.204 147.572 253.392 147.316C254.44 145.878 255.487 144.438 256.536 143.001C256.701 142.772 256.723 142.368 256.652 142.106Z" fill="#325B31"/>
<path d="M249.604 146.319C249.403 146.117 249.073 145.966 248.784 145.98C248.484 145.992 248.173 146.091 247.963 146.319C247.903 146.398 247.842 146.476 247.782 146.555C247.677 146.736 247.624 146.931 247.624 147.142C247.528 148.051 247.433 148.959 247.337 149.87C247.309 150.148 247.488 150.501 247.677 150.692C247.879 150.893 248.208 151.046 248.496 151.032C248.798 151.018 249.108 150.919 249.317 150.692L249.497 150.457C249.602 150.274 249.655 150.081 249.657 149.87C249.752 148.959 249.846 148.051 249.943 147.142C249.972 146.862 249.792 146.509 249.604 146.319Z" fill="#325B31"/>
<path d="M261.055 138.114C260.338 137.012 259.62 135.911 258.907 134.811C258.742 134.558 258.509 134.358 258.212 134.277C257.935 134.199 257.565 134.235 257.32 134.394C256.813 134.721 256.548 135.439 256.902 135.983L259.052 139.288C259.215 139.539 259.45 139.74 259.745 139.821C260.022 139.898 260.392 139.863 260.637 139.705C261.144 139.376 261.409 138.659 261.055 138.114Z" fill="#325B31"/>
<path d="M267.81 143.96C267.604 143.322 267.022 143.023 266.382 143.148C264.902 143.435 263.422 143.721 261.942 144.009C261.346 144.125 260.95 144.874 261.132 145.438C261.339 146.077 261.919 146.375 262.56 146.251C264.039 145.964 265.519 145.678 266.999 145.389C267.597 145.273 267.992 144.524 267.81 143.96Z" fill="#325B31"/>
<path d="M268.114 134.778C267.972 134.537 267.697 134.307 267.422 134.243C267.124 134.177 266.791 134.191 266.528 134.361C266.293 134.512 266.037 134.764 265.994 135.055L265.558 138.07C265.51 138.392 265.503 138.673 265.675 138.965C265.816 139.207 266.091 139.436 266.368 139.501C266.664 139.568 266.997 139.554 267.261 139.383C267.497 139.23 267.751 138.979 267.794 138.689C267.939 137.683 268.085 136.678 268.23 135.672C268.278 135.351 268.285 135.069 268.114 134.778Z" fill="#325B31"/>
<path d="M277.085 144.475L272.956 140.287C272.53 139.852 271.739 139.826 271.316 140.287C270.89 140.752 270.86 141.468 271.316 141.93L275.446 146.119C275.874 146.553 276.664 146.579 277.085 146.119C277.513 145.653 277.541 144.938 277.085 144.475Z" fill="#325B31"/>
<path d="M286.998 140.35C286.814 139.775 286.19 139.334 285.573 139.538L281.273 140.967C280.698 141.157 280.263 141.777 280.463 142.396C280.649 142.971 281.273 143.412 281.89 143.208C283.323 142.732 284.757 142.255 286.188 141.779C286.763 141.589 287.2 140.969 286.998 140.35Z" fill="#325B31"/>
<path d="M280.3 133.486C280.159 133.245 279.884 133.015 279.607 132.953C279.311 132.885 278.977 132.899 278.713 133.069C278.635 133.131 278.557 133.19 278.479 133.25C278.336 133.396 278.236 133.567 278.18 133.763C277.799 134.674 277.417 135.583 277.034 136.491C276.926 136.75 277.017 137.159 277.152 137.388C277.292 137.629 277.568 137.859 277.843 137.922C278.141 137.989 278.474 137.975 278.737 137.805L278.972 137.623C279.116 137.478 279.216 137.307 279.27 137.11L280.415 134.382C280.524 134.124 280.433 133.714 280.3 133.486Z" fill="#325B31"/>
<path d="M275.988 131.209C275.897 130.928 275.723 130.657 275.455 130.515C275.197 130.378 274.843 130.281 274.56 130.397C273.272 130.926 271.984 131.455 270.696 131.985C270.405 132.104 270.168 132.236 270.003 132.517C269.857 132.768 269.796 133.134 269.885 133.415C269.977 133.697 270.15 133.967 270.419 134.11C270.676 134.245 271.031 134.342 271.311 134.227C272.6 133.697 273.889 133.168 275.178 132.638C275.469 132.519 275.705 132.387 275.87 132.104C276.016 131.856 276.077 131.489 275.988 131.209Z" fill="#325B31"/>
<path d="M280.547 122.911C280.345 122.709 280.016 122.558 279.726 122.572C279.058 122.602 278.62 123.083 278.567 123.734C278.473 124.929 278.376 126.126 278.281 127.323C278.259 127.606 278.427 127.95 278.622 128.144C278.823 128.346 279.151 128.497 279.44 128.485C280.11 128.455 280.549 127.973 280.6 127.323C280.696 126.126 280.791 124.929 280.887 123.734C280.91 123.451 280.742 123.106 280.547 122.911Z" fill="#325B31"/>
<path d="M289.869 125.507C289.648 125.303 289.357 125.152 289.048 125.166C288.722 125.182 288.484 125.305 288.228 125.507C287.083 126.416 285.936 127.325 284.789 128.235C284.571 128.406 284.449 128.792 284.449 129.056C284.449 129.341 284.575 129.682 284.789 129.877C285.01 130.081 285.299 130.232 285.608 130.218C285.936 130.204 286.174 130.079 286.428 129.877L289.869 127.151C290.085 126.978 290.207 126.593 290.207 126.33C290.207 126.043 290.081 125.702 289.869 125.507Z" fill="#325B31"/>
<path d="M291.476 134.445L287.894 134.533C287.287 134.549 286.705 135.057 286.735 135.697C286.763 136.312 287.243 136.875 287.894 136.859L291.476 136.771C292.083 136.755 292.665 136.247 292.636 135.607C292.609 134.99 292.127 134.43 291.476 134.445Z" fill="#325B31"/>
<path d="M294.931 121.405C294.594 119.968 294.259 118.532 293.923 117.096C293.784 116.504 293.078 116.096 292.497 116.286C291.88 116.485 291.538 117.079 291.687 117.715C292.022 119.151 292.359 120.585 292.694 122.022C292.832 122.614 293.541 123.022 294.121 122.834C294.736 122.633 295.078 122.039 294.931 121.405Z" fill="#325B31"/>
<path d="M286.625 115.145C286.042 115.012 285.336 115.321 285.199 115.957C284.913 117.297 284.627 118.638 284.34 119.977C284.214 120.571 284.515 121.262 285.15 121.408C285.734 121.54 286.44 121.232 286.577 120.596C286.863 119.255 287.149 117.915 287.435 116.574C287.563 115.982 287.259 115.289 286.625 115.145Z" fill="#325B31"/>
<path d="M282.588 111.943C282.246 111.41 281.564 111.199 281.001 111.524C279.759 112.243 278.518 112.96 277.276 113.679C276.75 113.983 276.522 114.743 276.861 115.268C277.203 115.799 277.885 116.01 278.448 115.687C279.689 114.968 280.931 114.251 282.172 113.532C282.698 113.228 282.926 112.468 282.588 111.943Z" fill="#325B31"/>
<path d="M286.863 109.926C286.623 108.394 286.386 106.863 286.146 105.33C286.106 105.061 285.837 104.767 285.613 104.636C285.366 104.49 284.999 104.428 284.72 104.52C284.44 104.609 284.168 104.783 284.028 105.052C283.873 105.346 283.859 105.622 283.91 105.949C284.149 107.48 284.389 109.012 284.626 110.543C284.668 110.812 284.936 111.106 285.159 111.238C285.408 111.384 285.774 111.447 286.053 111.355C286.334 111.264 286.604 111.09 286.746 110.821C286.9 110.528 286.912 110.252 286.863 109.926Z" fill="#325B31"/>
<path d="M296.483 105.762C296.132 105.217 295.469 105.036 294.896 105.346C293.56 106.065 292.224 106.782 290.886 107.501C290.351 107.789 290.139 108.576 290.47 109.091C290.821 109.636 291.484 109.816 292.057 109.508L296.067 107.351C296.602 107.065 296.814 106.277 296.483 105.762Z" fill="#325B31"/>
<path d="M290.731 102.171C290.491 100.879 290.252 99.5855 290.014 98.2935C289.963 98.0211 289.712 97.7346 289.481 97.5992C289.234 97.4533 288.867 97.3918 288.588 97.4814C287.948 97.6889 287.659 98.2689 287.778 98.9105C288.017 100.204 288.255 101.496 288.494 102.788C288.545 103.062 288.797 103.349 289.029 103.484C289.276 103.63 289.642 103.692 289.921 103.6C290.561 103.393 290.849 102.813 290.731 102.171Z" fill="#325B31"/>
<path d="M281.468 96.4777C280.878 96.3424 280.186 96.6552 280.042 97.288C279.709 98.7716 279.374 100.255 279.039 101.74C278.906 102.331 279.22 103.025 279.849 103.17C280.438 103.305 281.133 102.992 281.277 102.357C281.61 100.874 281.943 99.3903 282.278 97.9068C282.413 97.3162 282.099 96.6218 281.468 96.4777Z" fill="#325B31"/>
<path d="M299.209 97.441C298.636 96.5322 298.063 95.6217 297.489 94.7129C297.33 94.4598 297.088 94.2594 296.797 94.1786C296.519 94.1012 296.149 94.1364 295.904 94.2946C295.655 94.4563 295.438 94.6953 295.369 94.9906C295.303 95.2895 295.318 95.6199 295.487 95.8853C296.06 96.7959 296.633 97.7046 297.205 98.6152C297.365 98.8665 297.608 99.0687 297.9 99.1495C298.177 99.2251 298.547 99.1917 298.792 99.0317C299.039 98.8718 299.257 98.6327 299.325 98.3374C299.394 98.0386 299.376 97.7082 299.209 97.441Z" fill="#325B31"/>
<path d="M294.586 89.7508C294.379 89.111 293.798 88.8157 293.158 88.9387C291.87 89.183 290.583 89.4274 289.294 89.6734C288.697 89.7859 288.303 90.54 288.484 91.1025C288.69 91.7423 289.271 92.0359 289.911 91.9146L293.776 91.1798C294.372 91.0673 294.766 90.3133 294.586 89.7508Z" fill="#325B31"/>
<path d="M285.593 86.8293C285.553 86.2229 285.088 85.6376 284.433 85.6657C283.838 85.6938 283.231 86.179 283.274 86.8293C283.361 88.1688 283.449 89.5099 283.535 90.8511C283.575 91.4575 284.04 92.0429 284.694 92.013C285.288 91.9866 285.897 91.5015 285.855 90.8511C285.767 89.5099 285.679 88.1688 285.593 86.8293Z" fill="#325B31"/>
<path d="M282.593 78.4853C281.399 78.5328 280.205 78.5802 279.011 78.6277C278.406 78.6523 277.822 79.1462 277.852 79.7913C277.88 80.3995 278.362 80.9796 279.011 80.9532C280.205 80.9058 281.399 80.8583 282.593 80.8091C283.198 80.7862 283.78 80.2923 283.752 79.6472C283.726 79.039 283.242 78.4589 282.593 78.4853Z" fill="#325B31"/>
<path d="M290.9 76.4761C290.137 75.3265 289.371 74.1787 288.608 73.0291C288.44 72.7778 288.213 72.5774 287.915 72.4948C287.638 72.4192 287.268 72.4526 287.021 72.6126C286.519 72.9377 286.246 73.6619 286.605 74.2016C287.37 75.3512 288.134 76.5007 288.897 77.6486C289.066 77.9017 289.292 78.1021 289.592 78.1829C289.869 78.2603 290.239 78.2251 290.484 78.0651C290.986 77.7417 291.259 77.0158 290.9 76.4761Z" fill="#325B31"/>
<path d="M300.472 77.9017C300.374 77.5993 300.197 77.3902 299.939 77.2074C299.127 76.6326 298.315 76.0578 297.503 75.483C297.27 75.3178 296.876 75.2932 296.611 75.367C296.341 75.4408 296.05 75.65 295.916 75.8996C295.774 76.1703 295.702 76.4972 295.801 76.796C295.897 77.0984 296.076 77.3076 296.334 77.4904C297.146 78.0652 297.956 78.6399 298.768 79.2147C299.003 79.38 299.395 79.4046 299.662 79.3307C299.93 79.2569 300.223 79.0477 300.355 78.7981C300.497 78.5274 300.568 78.2005 300.472 77.9017Z" fill="#325B31"/>
<path d="M296.018 81.1237C295.529 80.6719 294.869 80.6965 294.378 81.1237C293.281 82.0799 292.183 83.0379 291.084 83.9958C290.87 84.1822 290.745 84.5407 290.745 84.8167C290.745 85.1015 290.871 85.4425 291.084 85.6393C291.575 86.0893 292.234 86.0665 292.723 85.6393C293.823 84.6814 294.92 83.7234 296.018 82.7672C296.234 82.5791 296.358 82.2223 296.358 81.9445C296.358 81.6598 296.232 81.3188 296.018 81.1237Z" fill="#325B31"/>
<path d="M300.232 86.1087C300.211 85.7976 300.118 85.5128 299.893 85.2861C299.692 85.0857 299.36 84.9328 299.073 84.9468C298.48 84.9732 297.868 85.4601 297.914 86.1087L298.164 89.7016C298.185 90.0127 298.278 90.2975 298.504 90.5224C298.704 90.7246 299.034 90.8775 299.323 90.8635C299.916 90.8371 300.528 90.3519 300.482 89.7016L300.232 86.1087Z" fill="#325B31"/>
<path d="M275.856 87.9438C275.654 87.7417 275.325 87.5905 275.035 87.6028C274.736 87.6169 274.425 87.7153 274.217 87.9438C273.999 88.1794 273.901 88.4448 273.876 88.7665C273.804 89.7701 273.733 90.7756 273.662 91.781C273.641 92.0658 273.806 92.4068 274.001 92.6037C274.203 92.804 274.532 92.957 274.822 92.9447C275.121 92.9306 275.432 92.8322 275.642 92.6037C275.858 92.3664 275.958 92.1027 275.981 91.781C276.052 90.7756 276.124 89.7701 276.195 88.7665C276.216 88.4817 276.052 88.1407 275.856 87.9438Z" fill="#325B31"/>
<path d="M273.505 100.311C272.854 100.341 272.372 100.823 272.344 101.473C272.302 102.514 272.258 103.556 272.214 104.597C272.19 105.203 272.766 105.785 273.373 105.759C274.024 105.729 274.508 105.249 274.534 104.597C274.578 103.556 274.62 102.514 274.664 101.473C274.688 100.865 274.111 100.285 273.505 100.311Z" fill="#325B31"/>
<path d="M242.68 27.7949C240.407 28.0428 237.98 28.484 236.341 30.0958C235.576 30.8394 235.019 31.8553 234.996 32.9241C234.973 33.8223 235.304 34.6836 235.483 35.559C235.737 36.7982 235.667 38.1077 235.289 39.3241C234.917 40.5123 234.249 41.6689 234.217 42.8871C234.026 42.4213 233.924 41.908 233.945 41.3578C234 40.0465 234.605 38.8284 234.831 37.547C235.059 36.2691 234.784 35.123 234.426 33.9014C234.082 32.7237 233.803 31.5056 234.38 30.3507C234.889 29.3382 235.825 28.5859 236.84 28.1236C238.101 27.5471 239.525 27.4135 240.891 27.3309C242.268 27.2482 243.641 27.1815 245.01 27.0197C246.301 26.8686 247.581 26.6489 248.854 26.3869C247.002 27.3977 244.793 27.5646 242.68 27.7949ZM280.054 39.8286C279.419 37.4029 276.691 36.0705 275.748 33.7449C275.16 32.2807 275.362 30.639 275.33 29.057C275.3 27.4697 274.913 25.7102 273.591 24.8507C272.177 23.9208 270.322 24.4077 268.637 24.587C266.619 24.8032 264.548 24.5167 262.654 23.7644C260.211 22.7958 257.769 21.0152 255.217 21.6498C253.26 22.1296 251.982 23.8645 250.458 25.2321C248.607 25.6926 246.727 26.0512 244.829 26.2657C243.285 26.4414 241.735 26.4766 240.188 26.6067C238.818 26.7192 237.428 26.9424 236.195 27.5787C235.155 28.1148 234.2 28.955 233.684 30.022C233.104 31.2173 233.221 32.467 233.568 33.7151C233.758 34.3953 233.993 35.0685 234.105 35.7699C234.224 36.5169 234.131 37.2534 233.945 37.9829C233.607 39.3206 233.032 40.6547 233.2 42.0627C233.368 43.4566 234.154 44.5587 235.211 45.2196C235.83 45.8225 236.663 46.2339 237.523 46.3446C238.582 46.4835 239.65 46.2514 240.639 45.8173C241.11 45.6169 241.559 45.369 241.984 45.0966C243.53 44.0982 245.059 42.6726 246.9 42.8115C248.066 42.8959 249.08 43.6253 250.185 44.012C251.731 44.5622 253.516 44.4304 254.961 43.6552C256.215 42.982 257.188 41.8816 258.363 41.0836C259.547 40.2856 261.139 39.8057 262.368 40.5176C263.178 40.9904 263.65 41.8746 264.378 42.4705C265.119 43.0752 266.117 43.3458 267.059 43.207C267.376 43.1595 267.732 43.0664 268.002 43.2527C268.195 43.3845 268.288 43.6253 268.342 43.8574C268.481 44.4005 268.527 44.9577 268.474 45.5149C270.778 42.4705 274.303 43.2843 275.307 47.8317C275.439 48.4135 275.493 48.9795 275.493 49.5209C276.149 48.0496 277.294 46.7858 278.283 45.4692C279.512 43.8415 280.571 41.8043 280.054 39.8286Z" fill="#25202B"/>
<path d="M275.493 49.5226C275.477 53.6604 272.084 56.5185 272.084 56.5185L273.815 62.1908L267.011 64.7097H267.006C264.623 69.5523 260.048 75.1086 252.024 72.7444C250.085 72.1714 248.47 71.187 247.125 69.9092C240.244 63.3914 240.461 49.4207 240.638 45.8172C241.11 45.6169 241.559 45.369 241.983 45.0966C243.53 44.0981 245.061 42.6726 246.9 42.8115C248.066 42.8976 249.08 43.6253 250.185 44.012C251.731 44.5622 253.516 44.4304 254.961 43.6569C256.215 42.982 257.188 41.8816 258.363 41.0836C259.547 40.2856 261.139 39.8057 262.368 40.5176C263.178 40.9904 263.65 41.8746 264.378 42.4705C265.119 43.0751 266.117 43.3458 267.059 43.207C267.376 43.1595 267.732 43.0663 268.002 43.2527C268.195 43.3845 268.288 43.6253 268.342 43.8573C268.481 44.4005 268.528 44.9577 268.474 45.5149C270.776 42.4705 274.303 43.2843 275.307 47.8334C275.439 48.4135 275.493 48.9795 275.493 49.5226Z" fill="#FFD6C5"/>
<path d="M269.401 58.5838C269.182 58.5206 269.003 58.6629 268.926 58.8545C268.156 60.7758 267.385 62.6952 266.615 64.6165C266.536 64.8133 266.701 65.0401 266.885 65.0928C267.104 65.1561 267.283 65.0155 267.36 64.8221C268.13 62.9027 268.902 60.9814 269.671 59.0619C269.749 58.8651 269.585 58.6366 269.401 58.5838Z" fill="#25202B"/>
<path d="M272.397 49.904C271.788 49.9058 271.457 50.5421 271.692 51.0606C271.897 51.5141 272.565 51.1204 272.36 50.6687C272.409 50.7759 272.34 50.5808 272.49 50.7232C272.57 50.8005 272.598 50.8919 272.616 50.9974C272.665 51.261 272.59 51.5493 272.54 51.8094C272.46 52.2524 272.347 52.7639 271.951 53.0329C270.962 53.7026 270.466 51.8218 270.333 51.2065C270.122 50.238 270.108 49.2115 270.298 48.2394C270.433 47.5451 270.773 45.8805 271.806 46.1442C272.288 46.2672 272.493 45.5202 272.011 45.3971C270.696 45.0596 269.993 46.3657 269.696 47.4256C269.335 48.7193 269.303 50.1009 269.587 51.4122C269.812 52.4545 270.34 54.0102 271.674 53.9258C272.965 53.8449 273.394 52.2155 273.401 51.152C273.405 50.5755 273.052 49.9005 272.397 49.904Z" fill="#25202B"/>
<path d="M251.456 62.7761C250.956 62.9695 250.458 63.1611 249.959 63.3527L249.255 63.6251C248.998 63.7236 248.703 63.9011 248.538 63.6269C248.444 63.4687 248.437 63.1927 248.402 63.017C248.344 62.7375 248.289 62.458 248.237 62.1785C248.137 61.6494 248.044 61.1186 247.958 60.5877C247.609 58.4362 247.381 56.2654 247.256 54.0893C247.228 53.5936 246.455 53.5901 246.483 54.0893C246.629 56.6503 246.923 59.2044 247.372 61.7303C247.481 62.3525 247.588 62.98 247.732 63.5935C247.818 63.9591 247.958 64.3441 248.323 64.5093C248.81 64.7343 249.362 64.4109 249.813 64.2368C250.429 63.9978 251.046 63.7605 251.661 63.5232C252.121 63.3457 251.923 62.5969 251.456 62.7761Z" fill="#25202B"/>
<path d="M244.922 55.1334C245.131 56.283 244.503 57.3623 243.521 57.5416C242.539 57.7209 241.573 56.9316 241.364 55.782C241.156 54.6307 241.783 53.5514 242.765 53.3722C243.747 53.1946 244.713 53.9821 244.922 55.1334Z" fill="#25202B"/>
<path d="M256.341 53.975C256.55 55.1263 255.924 56.2056 254.94 56.3831C253.958 56.5624 252.992 55.7749 252.783 54.6236C252.575 53.474 253.202 52.3948 254.184 52.2155C255.166 52.0362 256.132 52.8254 256.341 53.975Z" fill="#25202B"/>
<path d="M240.579 53.3352C242.087 52.8958 243.54 52.2981 244.898 51.5036C245.42 51.1978 245.741 50.5246 245.424 49.948C245.138 49.426 244.431 49.092 243.872 49.4189C243.251 49.7828 242.611 50.1097 241.952 50.3945C241.629 50.5333 241.303 50.6652 240.972 50.7847C240.893 50.8146 240.812 50.841 240.733 50.8691C240.73 50.8708 240.73 50.8708 240.726 50.8726C240.719 50.8744 240.717 50.8744 240.707 50.8779C240.519 50.9359 240.332 50.9956 240.142 51.0501C239.837 51.1398 239.574 51.2769 239.393 51.5529C239.239 51.7849 239.157 52.1364 239.222 52.4124C239.357 52.9766 239.956 53.5163 240.579 53.3352Z" fill="#25202B"/>
<path d="M251.917 50.7021C253.38 51.2751 254.897 51.6882 256.456 51.885C257.055 51.9624 257.72 51.6231 257.818 50.971C257.907 50.3839 257.552 49.6878 256.906 49.6052C256.194 49.5138 255.488 49.3837 254.791 49.208C254.451 49.1218 254.113 49.0251 253.776 48.9179C253.697 48.8933 253.617 48.867 253.536 48.8406C253.532 48.8406 253.532 48.8406 253.529 48.8388C253.524 48.8353 253.52 48.8353 253.511 48.8318C253.325 48.7632 253.141 48.6964 252.957 48.6244C252.661 48.5084 252.368 48.4574 252.059 48.5646C251.795 48.656 251.516 48.8828 251.4 49.1412C251.163 49.672 251.314 50.4665 251.917 50.7021Z" fill="#25202B"/>
<path d="M257.543 62.9344C256.417 64.7273 254.851 66.2073 253.006 67.2356C252.57 67.4782 252.961 68.1479 253.396 67.9036C255.354 66.812 257.015 65.2265 258.209 63.3264C258.475 62.901 257.806 62.5125 257.543 62.9344Z" fill="#25202B"/>
<path d="M160.297 163.477V182.756L123.372 182.749H90.8907C90.8907 182.749 82.1481 183.368 81.6457 174.682C81.1432 165.989 81.3597 134.305 73.622 122.185C65.8921 110.058 65.3201 107.757 69.618 107.757H121.834C121.834 107.757 133.112 127.578 133.112 163.477H160.297Z" fill="#25202B"/>
<path d="M90.544 182.759L80.5391 260.681H85.5412L104.821 182.759H90.544Z" fill="#999999"/>
<path d="M147.116 182.759L157.122 260.681H152.119L132.839 182.759H147.116Z" fill="#999999"/>
<path d="M123.972 133.363C120.703 135.49 117.264 137.349 113.689 138.907C111.907 139.684 110.089 140.383 108.248 141.005C106.393 141.633 104.495 142.259 102.565 142.598C100.431 142.972 98.137 142.835 96.3519 141.489C95.9539 141.19 95.5681 141.861 95.9609 142.158C99.2838 144.662 103.733 143.268 107.292 142.134C111.12 140.914 114.845 139.362 118.411 137.509C120.451 136.448 122.436 135.286 124.363 134.031C124.777 133.76 124.391 133.088 123.972 133.363Z" fill="#25202B"/>
<path d="M143.699 140.019C135.89 139.824 128.678 141.6 126.043 142.336L124.875 136.757L124.396 134.47L123.738 131.348L123.268 129.077L120.84 117.501L120.486 115.789L120.431 115.215L119.905 109.582L119.69 107.272L119.048 100.361L118.83 98.0597L118.359 92.9921L118.143 90.6753L117.562 84.5074L135.697 82.3928L136.385 87.3971L136.702 89.6998L137.56 95.9135L137.877 98.1986L138.696 104.15L139.013 106.451L139.122 107.219L139.957 113.231L140.281 115.518L141.719 125.824L142.036 128.117L142.717 132.983L143.032 135.277L143.699 140.019Z" fill="#25202B"/>
<path d="M136.702 89.6998C130.587 90.8002 124.473 91.8918 118.358 92.9921L118.143 90.6754C124.226 89.5909 130.301 88.4993 136.384 87.3989L136.702 89.6998Z" fill="white"/>
<path d="M137.877 98.1986L119.048 100.361L118.83 98.0597C125.076 97.3461 131.313 96.6272 137.559 95.9135L137.877 98.1986Z" fill="white"/>
<path d="M139.013 106.451C132.644 107.49 126.274 108.536 119.905 109.582L119.688 107.274L138.696 104.15L139.013 106.451Z" fill="white"/>
<path d="M140.281 115.518C133.804 116.184 127.317 116.843 120.84 117.501L120.484 115.789L120.431 115.215C126.938 114.556 133.448 113.89 139.957 113.231L140.281 115.518Z" fill="white"/>
<path d="M142.037 128.117C135.929 129.195 129.839 130.271 123.74 131.348L123.269 129.079C129.422 127.993 135.575 126.901 141.719 125.824L142.037 128.117Z" fill="white"/>
<path d="M143.032 135.277C136.981 135.773 130.928 136.261 124.876 136.757L124.396 134.47C130.504 133.974 136.609 133.479 142.717 132.983L143.032 135.277Z" fill="white"/>
<path d="M222.264 90.663L187.084 98.7066L166.354 97.3039L151.737 122.185L156.359 143.176C151.79 141.107 144.006 141.571 144.006 141.571L143.697 140.023L139.12 107.221L135.696 82.3945L133.602 67.1776C133.602 67.1776 146.743 68.5486 153.885 70.4857C161.036 72.4298 184.619 80.3959 184.619 80.3959L219.474 74.5848L221.352 85.3933L222.264 90.663Z" fill="#A1DAA1"/>
<path d="M139.122 107.218C140.141 106.613 141.154 106.195 142.066 106.133C142.066 106.133 145.398 97.1439 147.013 96.8732C148.621 96.6025 147.013 105.226 147.013 105.226L152.385 103.228C152.385 103.228 154.318 98.703 155.926 98.703C157.541 98.703 156.792 103.119 156.792 103.119C156.792 103.119 159.876 101.825 156.962 108.07C156.962 108.07 160.278 107.211 157.541 111.953C154.796 116.687 150.716 118.633 147.872 118.949C146.79 119.074 144.826 119.569 142.808 120.135C141.826 120.413 140.821 120.708 139.909 120.988C138.217 121.491 136.809 121.941 136.292 122.111L132.032 113.588C132.032 113.588 135.627 109.287 139.122 107.218Z" fill="#FFD6C5"/>
<path d="M244.009 72.8218C244.798 73.8202 233.472 77.0527 233.472 77.0527C233.472 77.0527 232.36 81.8409 227.606 84.1646C225.983 84.9556 223.935 85.4601 221.352 85.3898L219.474 74.5795C219.474 74.5795 229.283 67.8631 233.333 67.6452C237.377 67.436 243.506 69.591 243.506 69.591L235.985 71.7443C235.985 71.7443 243.22 71.8146 244.009 72.8218Z" fill="#FFD6C5"/>
<path d="M169.361 84.1664L166.284 97.2846L160.441 122.18H151.737H141.959L142.809 120.143V120.136C144.826 119.57 146.79 119.074 147.872 118.949C150.716 118.631 154.798 116.687 157.543 111.953C160.278 107.211 156.962 108.07 156.962 108.07C159.876 101.825 156.792 103.119 156.792 103.119C156.792 103.119 157.543 98.7013 155.926 98.7013C154.318 98.7013 152.385 103.228 152.385 103.228L147.014 105.226C147.014 105.226 148.622 96.6026 147.014 96.8733L150.555 84.1664H169.361Z" fill="white"/>
<path d="M90.1826 54.6588C84.7019 57.7823 78.1083 60.324 75.5806 66.1124C73.9497 69.8617 74.5525 74.4881 77.0957 77.6802C77.5595 78.2691 78.116 78.8966 78.0929 79.6401C78.0698 80.2922 77.6059 80.8266 77.2195 81.3451C74.8587 84.5038 74.6097 89.0424 76.4039 92.5245C74.6376 90.8687 73.7 88.4852 73.7749 86.0647C73.8175 84.7025 74.2287 83.4861 74.7968 82.2627C75.3241 81.1272 75.8172 79.96 75.5822 78.6821C75.3588 77.4693 74.5795 76.4638 73.9535 75.4355C73.2956 74.3563 72.8613 73.1733 72.6842 71.9183C71.9538 66.7346 75.1191 62.0537 79.1264 59.1217C83.6182 55.8347 89.0152 54.258 94.035 52.0045C94.2484 51.9079 94.461 51.8077 94.6737 51.7092C93.2435 52.792 91.7339 53.7781 90.1826 54.6588ZM151.805 25.0369C151.374 24.1915 150.236 24.0754 149.294 23.9823C140.265 23.0981 133.239 14.413 124.162 14.188C118.497 14.0492 113.078 17.4891 110.096 22.3159C106.369 28.3222 106.145 35.9069 102.929 42.2068C101.54 44.9331 99.6237 47.3307 97.3915 49.4242C96.3516 50.0323 95.282 50.5808 94.2129 51.0747C89.0756 53.4529 83.5053 55.0103 78.8636 58.3589C74.7775 61.3066 71.5603 65.8135 71.8325 71.0657C71.8942 72.2681 72.1516 73.4493 72.6247 74.5549C73.1334 75.7449 73.9828 76.7345 74.5201 77.9052C75.1887 79.3641 74.6918 80.6596 74.0586 82.0236C73.5222 83.1785 73.131 84.3386 73.0275 85.6147C72.8295 88.0598 73.6156 90.5734 75.2212 92.4296C75.9061 93.2206 76.7378 93.871 77.6493 94.3807C79.989 97.1017 83.8153 98.3937 87.3378 97.8418C87.2684 92.4489 87.4151 87.7153 87.7011 84.4845C88.9379 70.382 99.3045 69.5136 99.3045 69.5136C107.706 70.0937 112.786 68.2973 115.784 65.5305V65.5235C122.563 59.2694 118.698 48.0267 118.698 48.0267C112.251 45.9578 113.056 37.0706 117.254 35.1019C120.352 33.6517 121.921 35.9702 122.525 37.271L123.484 37.2095C123.484 37.2095 141.045 38.7668 146.579 28.5929C146.736 29.739 146.82 31.0344 146.851 32.4125C148.838 30.9711 151.056 29.0271 151.759 26.8263C151.945 26.2445 152.084 25.5871 151.805 25.0369Z" fill="#25202B"/>
<path d="M146.851 32.4125C147.06 43.1841 143.613 59.6965 137.56 61.6564C135.82 62.2137 134.282 62.3929 132.937 62.3156L133.602 67.1741L135.697 82.391L117.562 84.5074L115.784 65.5306V65.5235C122.563 59.2694 118.699 48.0267 118.699 48.0267C112.251 45.9578 113.056 37.0706 117.254 35.1019C120.352 33.6517 121.922 35.9702 122.525 37.271L123.484 37.2095C123.484 37.2095 141.046 38.7668 146.58 28.5929C146.736 29.739 146.82 31.0327 146.851 32.4125Z" fill="#FFD6C5"/>
<path d="M87.3389 97.8418C87.2693 92.449 87.4161 87.7136 87.7021 84.4828C88.939 70.3803 99.3046 69.5137 99.3046 69.5137C107.707 70.0937 112.786 68.2955 115.784 65.5306L117.562 84.5056L120.485 115.789L131.322 112.169L132.034 113.588L136.293 122.111L137.559 124.66C137.559 124.66 132.064 128.698 124.999 133.013C116.163 138.422 104.863 144.256 98.7715 143.171C97.5195 142.946 96.399 142.195 95.3855 141.018C89.565 134.222 87.5476 113.308 87.3389 97.8418Z" fill="#A1DAA1"/>
<path d="M126.042 142.334L126.274 144.373C117.973 143.63 98.6945 153.029 93.2441 155.795C92.3087 156.259 91.7832 156.539 91.7832 156.539C91.7832 148.943 95.3856 141.018 95.3856 141.018C96.3974 142.195 97.5179 142.948 98.7717 143.173C104.862 144.256 116.163 138.422 124.999 133.013L126.042 142.334Z" fill="#A1DAA1"/>
<path d="M132.955 61.7549C128.662 60.876 124.796 58.4644 122.108 54.9981C121.802 54.6043 121.259 55.1563 121.56 55.5465C124.32 59.1042 128.345 61.6002 132.75 62.5002C133.235 62.6004 133.442 61.8534 132.955 61.7549Z" fill="#25202B"/>
<path d="M155.656 103.881C154.442 106.383 151.979 108.218 149.215 108.582C148.729 108.647 148.722 109.422 149.215 109.357C152.245 108.958 154.981 107.04 156.324 104.273C156.541 103.827 155.875 103.433 155.656 103.881Z" fill="#25202B"/>
<path d="M155.835 108.473C153.911 109.861 151.761 110.888 149.473 111.501C148.991 111.63 149.196 112.378 149.678 112.248C152.028 111.619 154.251 110.566 156.226 109.142C156.625 108.852 156.24 108.179 155.835 108.473Z" fill="#25202B"/>
<path d="M236.332 71.5861C236.272 71.3698 236.062 71.2784 235.857 71.3171C234.387 71.5896 232.918 71.862 231.448 72.1345C231.243 72.1731 231.128 72.4227 231.18 72.6108C231.24 72.827 231.448 72.9202 231.655 72.8815C233.123 72.6091 234.592 72.3366 236.06 72.0624C236.267 72.0255 236.383 71.7759 236.332 71.5861Z" fill="#25202B"/>
<path d="M119.619 115.722C116.565 116.595 113.51 117.467 110.454 118.341C109.798 109.33 109.142 100.32 108.486 91.3117C108.297 88.7154 108.109 86.1192 107.92 83.5248C107.885 83.0291 107.111 83.0256 107.148 83.5248L109.14 110.921C109.33 113.517 109.519 116.112 109.708 118.708C109.717 118.842 109.782 118.937 109.87 118.998C109.942 119.146 110.091 119.251 110.296 119.193C113.471 118.285 116.649 117.378 119.824 116.469C120.301 116.333 120.1 115.585 119.619 115.722Z" fill="#25202B"/>
<path d="M119.877 37.5101C119.588 36.8825 118.981 36.4976 118.294 36.4783C116.393 36.429 115.786 38.5384 115.553 40.0342C115.476 40.5229 116.221 40.7321 116.298 40.2399C116.468 39.1518 116.805 37.1919 118.294 37.2534C119.688 37.3114 119.397 39.3522 119.277 40.2557C119.181 40.9817 119.014 41.7006 118.788 42.3984C118.611 42.9486 118.411 43.6728 117.892 43.998C117.336 44.346 116.884 43.9593 116.787 43.3933C116.747 43.1472 116.761 42.866 116.858 42.6357C116.926 42.4705 117.187 42.1664 117.313 42.4441C117.52 42.8976 118.187 42.5039 117.982 42.0539C117.72 41.4773 116.931 41.4316 116.495 41.8236C116.03 42.2402 115.933 42.9662 116.035 43.5533C116.132 44.1052 116.467 44.6519 117.017 44.8399C117.715 45.079 118.429 44.6941 118.844 44.1351C119.304 43.5181 119.532 42.6884 119.725 41.9537C119.93 41.1785 120.06 40.3805 120.119 39.5807C120.168 38.8882 120.177 38.1534 119.877 37.5101Z" fill="#25202B"/>
<path d="M140.672 48.417C140.623 46.1688 140.572 43.9206 140.523 41.6725C140.511 41.175 139.739 41.1732 139.75 41.6725C139.792 43.5884 139.834 45.5026 139.878 47.4168C139.887 47.8897 139.904 48.3607 139.908 48.8318C139.909 48.9795 139.937 49.2062 139.846 49.3345C139.725 49.5033 139.441 49.4927 139.259 49.5068C138.33 49.5806 137.4 49.6509 136.469 49.723C135.976 49.7599 135.973 50.5351 136.469 50.4964C137.502 50.4173 138.554 50.3874 139.582 50.2503C139.95 50.2011 140.315 50.0623 140.513 49.7248C140.742 49.3381 140.681 48.8441 140.672 48.417Z" fill="#25202B"/>
<path d="M129.048 46.4113C129.048 48.315 127.508 49.8583 125.609 49.8583C123.71 49.8583 122.17 48.315 122.17 46.4113C122.17 44.5077 123.71 42.9644 125.609 42.9644C127.508 42.9644 129.048 44.5077 129.048 46.4113Z" fill="#F784A2"/>
<path d="M136.541 54.1244C136.541 55.4832 135.303 56.5853 133.774 56.5853C132.247 56.5853 131.007 55.4832 131.007 54.1244C131.007 52.7639 132.247 51.6618 133.774 51.6618C135.303 51.6618 136.541 52.7639 136.541 54.1244Z" fill="#F784A2"/>
<path d="M137.428 55.1017C135.15 55.1017 132.951 53.8906 131.736 51.9553C131.473 51.5352 130.803 51.9237 131.07 52.3473C132.427 54.5111 134.875 55.8752 137.428 55.8769C137.926 55.8769 137.926 55.1017 137.428 55.1017Z" fill="#25202B"/>
<path d="M135.799 40.4244C135.605 41.5775 134.645 42.3755 133.662 42.2086C132.676 42.0398 132.038 40.9676 132.234 39.8163C132.431 38.6632 133.386 37.8634 134.372 38.0321C135.357 38.1991 135.996 39.2713 135.799 40.4244Z" fill="#25202B"/>
<path d="M145.589 43.2702C145.394 44.4233 144.435 45.2213 143.451 45.0526C142.466 44.8839 141.827 43.8134 142.024 42.6603C142.22 41.5072 143.176 40.7092 144.161 40.8761C145.147 41.0449 145.785 42.1171 145.589 43.2702Z" fill="#25202B"/>
<path d="M137.105 35.3093C135.559 35.0333 133.993 34.9261 132.425 35.0351C131.822 35.0773 131.236 35.5396 131.266 36.197C131.293 36.7911 131.777 37.4046 132.425 37.3606C133.141 37.3096 133.86 37.3009 134.577 37.336C134.928 37.3553 135.278 37.3835 135.629 37.4221C135.711 37.4309 135.796 37.4415 135.88 37.452C135.883 37.452 135.883 37.452 135.885 37.4538C135.894 37.4538 135.896 37.4538 135.906 37.4555C136.101 37.4872 136.295 37.5171 136.49 37.5505C136.802 37.6067 137.098 37.6014 137.383 37.4344C137.623 37.2938 137.852 37.0161 137.916 36.7401C138.044 36.1724 137.744 35.4236 137.105 35.3093Z" fill="#25202B"/>
<path d="M147.053 37.4555C146.503 37.1655 145.924 36.9229 145.33 36.7401C144.728 36.5538 144.113 36.4518 143.488 36.3798C143.213 36.3481 142.857 36.5327 142.669 36.7208C142.468 36.9229 142.317 37.2516 142.329 37.5417C142.343 37.8422 142.442 38.1534 142.669 38.3643C142.748 38.4241 142.826 38.4856 142.904 38.5453C143.066 38.6403 143.243 38.686 143.429 38.6965C144.109 38.7949 144.774 38.9795 145.41 39.2379C145.57 39.31 145.728 39.382 145.882 39.4629C146.157 39.607 146.471 39.6633 146.776 39.5807C147.045 39.5051 147.336 39.2977 147.469 39.0445C147.751 38.5102 147.627 37.7561 147.053 37.4555Z" fill="#25202B"/>
<path d="M169.037 247.87L161.553 253.9C161.292 250.878 160.162 247.391 156.468 246.795L153.422 236.528C153.422 236.528 154.071 234.559 155.13 231.305L162.374 241.625C162.374 241.625 168.341 241.898 169.037 247.87Z" fill="#FF9F00"/>
<path d="M135.874 224.26L149.696 174.057C149.696 174.057 149.696 159.126 148.135 155.795C146.566 152.463 126.274 144.372 126.274 144.372L126.042 142.336C128.678 141.598 135.89 139.824 143.697 140.018L144.007 141.568C144.007 141.568 151.791 141.104 156.359 143.173C156.359 143.173 172.19 162.288 172.19 171.044C172.19 178.173 159.761 217.071 155.13 231.304C154.071 234.559 153.422 236.528 153.422 236.528L136.795 230.089L134.514 229.205L135.874 224.26Z" fill="#FFECCC"/>
<path d="M161.553 253.9C161.77 256.371 161.407 258.533 161.407 258.533H139.168C139.168 258.533 133.416 243.889 133.363 242.059C133.309 240.224 136.795 230.089 136.795 230.089L153.422 236.528L156.468 246.795C160.162 247.392 161.292 250.878 161.553 253.9Z" fill="#FF9F00"/>
<path d="M149.696 174.058L135.874 224.262L126.916 176.786C99.5589 176.932 93.2441 155.795 93.2441 155.795C98.6944 153.029 117.973 143.628 126.274 144.373C126.274 144.373 146.566 152.463 148.135 155.795C149.696 159.126 149.696 174.058 149.696 174.058Z" fill="#FFECCC"/>
<path d="M149.941 167.3C149.862 165.676 149.729 164.055 149.583 162.436C149.461 161.058 149.352 159.676 149.131 158.311C148.722 155.779 147.796 153.355 145.715 151.745C143.521 150.047 140.668 149.279 138.105 148.339C135.057 147.223 132.011 146.105 128.964 144.989C128.217 144.714 127.47 144.44 126.723 144.168C126.254 143.995 126.055 144.744 126.518 144.913C129.506 146.008 132.492 147.105 135.48 148.2L139.96 149.842C141.235 150.309 142.52 150.759 143.723 151.394C144.891 152.007 145.975 152.805 146.736 153.9C147.444 154.92 147.87 156.092 148.149 157.295C148.445 158.578 148.577 159.889 148.698 161.199C148.843 162.786 148.987 164.373 149.092 165.964C149.299 169.156 149.35 172.383 148.889 175.556C148.451 178.569 147.612 181.503 146.809 184.433C145.119 190.592 143.428 196.751 141.738 202.91C139.825 209.88 137.914 216.849 136.002 223.817C135.869 224.299 136.614 224.504 136.748 224.023C138.48 217.707 140.213 211.393 141.945 205.078L147.17 186.038C148.003 183 148.906 179.966 149.457 176.86C150.016 173.702 150.099 170.499 149.941 167.3Z" fill="#25202B"/>
<path d="M160.823 248.247C159.826 246.955 158.312 246.16 156.701 245.997L153.939 237.348C153.788 236.876 153.041 237.079 153.194 237.556C154.135 240.504 155.077 243.451 156.02 246.399C156.07 246.556 156.185 246.631 156.312 246.656C156.369 246.703 156.438 246.742 156.531 246.749C157.962 246.854 159.333 247.579 160.215 248.716C161.141 249.909 161.477 251.511 161.155 252.982C161.048 253.467 161.793 253.676 161.9 253.188C162.277 251.474 161.9 249.639 160.823 248.247Z" fill="white"/>
<path d="M345.427 163.477V182.756L382.355 182.749H414.835C414.835 182.749 423.576 183.368 424.08 174.682C424.581 165.989 424.365 134.305 432.104 122.185C439.833 110.058 440.405 107.757 436.109 107.757H383.891C383.891 107.757 372.614 127.578 372.614 163.477H345.427Z" fill="#A1DAA1"/>
<path d="M415.181 182.759L425.186 260.681H420.185L400.903 182.759H415.181Z" fill="#999999"/>
<path d="M358.608 182.759L348.603 260.681H353.605L372.885 182.759H358.608Z" fill="#999999"/>
<path d="M390.112 54.9383L391.203 58.0284C391.203 58.0284 389.055 66.2512 383.465 72.1714C377.876 78.0986 375.518 72.6038 375.518 72.6038L376.091 62.7164L376.066 62.5617C374.978 62.7093 373.871 62.7568 372.782 62.6865H372.773C368.16 62.407 363.885 60.1992 362.549 55.8751C359.934 47.3904 361.195 33.5902 361.433 31.2348C368.198 33.5744 383.396 31.8237 383.396 31.8237L385.329 39.9357C385.329 39.9357 391.063 35.5202 391.992 39.9357C392.92 44.353 387.84 48.475 387.84 48.475L390.112 54.9383Z" fill="#FFD6C5"/>
<path d="M390.561 20.1855C384.825 15.8456 375.982 22.0523 366.776 19.5422C358.824 17.3731 356.383 22.3511 357.667 27.0584C357.304 26.3412 357.072 25.552 357.028 24.6977C356.948 23.1315 357.449 21.4933 358.517 20.3279C359.82 18.8988 361.705 18.5807 363.558 18.6633C365.647 18.7582 367.684 19.1695 369.78 18.9885C371.975 18.7986 374.108 18.2151 376.233 17.6702C378.402 17.1147 380.613 16.5962 382.866 16.6225C384.887 16.6471 386.819 17.1885 388.53 18.2696C389.71 19.0148 390.712 19.9429 391.555 20.9976C391.245 20.7251 390.915 20.4545 390.561 20.1855ZM395.857 29.3751C395.857 29.3751 396.037 27.2236 394.473 24.5043C393.484 22.0997 392.006 19.9201 389.914 18.2994C388.325 17.0708 386.472 16.2411 384.48 15.9686C382.156 15.6505 379.807 16.0214 377.543 16.5487C375.176 17.1006 372.842 17.8512 370.422 18.1465C369.233 18.2924 368.046 18.3012 366.853 18.1957C365.782 18.1008 364.716 17.9461 363.643 17.8934C361.696 17.7967 359.692 18.1184 358.233 19.5105C357.035 20.6531 356.371 22.2878 356.262 23.926C356.102 26.3482 357.276 28.4452 359.043 29.8919C359.411 30.2593 359.895 30.5774 360.476 30.8516C361.444 31.3772 363.76 31.8834 363.832 31.843C371.239 33.2228 383.394 31.8237 383.394 31.8237L385.327 39.9375C385.327 39.9375 391.062 35.5202 391.992 39.9375C392.919 44.353 387.839 48.4767 387.839 48.4767L390.112 54.9383C391.171 47.1742 398.901 39.6809 399.798 35.2636C400.765 30.53 395.857 29.3751 395.857 29.3751Z" fill="#25202B"/>
<path d="M389.888 41.5213C389.16 41.4404 388.776 42.1014 388.537 42.6779C388.457 42.8713 388.625 43.1015 388.807 43.1543C389.03 43.2175 389.202 43.0752 389.283 42.8836C389.353 42.7131 389.689 42.0205 389.916 42.3844C390.096 42.6744 389.816 43.2351 389.703 43.5181C389.446 44.1667 388.941 44.9015 388.152 44.854C387.361 44.8066 387.254 43.8451 387.287 43.2281C387.326 42.4933 387.58 41.7779 387.973 41.1592C388.418 40.4596 389.051 39.9112 389.802 39.5614C390.252 39.3505 389.859 38.6825 389.411 38.8917C387.536 39.7688 386.216 41.9642 386.559 44.0542C386.647 44.5745 386.896 45.0878 387.348 45.3831C387.778 45.6643 388.344 45.6925 388.823 45.529C389.881 45.1669 390.494 43.9927 390.694 42.9486C390.808 42.3457 390.589 41.5986 389.888 41.5213Z" fill="#25202B"/>
<path d="M384.78 56.5291C382.679 59.2958 379.689 61.3207 376.359 62.2734C375.881 62.4088 376.084 63.1576 376.565 63.0187C380.103 62.008 383.219 59.853 385.446 56.921C385.748 56.5238 385.078 56.1371 384.78 56.5291Z" fill="#25202B"/>
<path d="M371.548 49.8654C370.459 50.0095 369.37 50.1519 368.281 50.2943C367.834 50.3523 367.285 50.4999 367.253 49.8882C367.227 49.3662 367.309 48.8248 367.343 48.3027C367.485 46.0686 367.628 43.8327 367.77 41.5969C367.802 41.0994 367.029 41.1012 366.997 41.5969C366.831 44.1948 366.66 46.7928 366.499 49.3908C366.445 50.2908 366.671 51.1767 367.753 51.131C369.012 51.0765 370.297 50.804 371.548 50.6405C372.033 50.5773 372.04 49.8021 371.548 49.8654Z" fill="#25202B"/>
<path d="M383.282 48.2148C383.282 50.1202 381.743 51.6618 379.843 51.6618C377.944 51.6618 376.405 50.1202 376.405 48.2148C376.405 46.3129 377.944 44.7696 379.843 44.7696C381.743 44.7696 383.282 46.3129 383.282 48.2148Z" fill="#F784A2"/>
<path d="M371.45 41.3174C371.493 42.4863 372.337 43.4038 373.336 43.3652C374.334 43.3282 375.107 42.3492 375.065 41.1803C375.02 40.0113 374.175 39.0938 373.177 39.1325C372.179 39.1694 371.406 40.1485 371.45 41.3174Z" fill="#25202B"/>
<path d="M361.328 41.6988C361.374 42.8677 362.217 43.7853 363.215 43.7483C364.212 43.7097 364.988 42.7324 364.944 41.5634C364.9 40.3928 364.055 39.477 363.055 39.5139C362.057 39.5526 361.284 40.5299 361.328 41.6988Z" fill="#25202B"/>
<path d="M370.822 36.0739C372.391 36.0036 373.959 36.1021 375.498 36.415C376.091 36.5362 376.61 37.0724 376.496 37.721C376.392 38.3046 375.831 38.8495 375.195 38.7211C374.492 38.577 373.782 38.4733 373.064 38.4153C372.714 38.3872 372.363 38.3696 372.01 38.3626C371.928 38.3608 371.842 38.3608 371.758 38.359C371.754 38.359 371.754 38.359 371.751 38.359C371.744 38.359 371.74 38.359 371.732 38.359C371.535 38.3643 371.337 38.3696 371.141 38.3766C370.823 38.3924 370.529 38.3467 370.269 38.1446C370.05 37.9723 369.859 37.67 369.833 37.3852C369.778 36.8069 370.175 36.1038 370.822 36.0739Z" fill="#25202B"/>
<path d="M360.679 36.8984C361.263 36.6839 361.87 36.5169 362.482 36.4132C363.103 36.3095 363.725 36.2867 364.353 36.299C364.632 36.3043 364.961 36.5328 365.121 36.7437C365.296 36.9704 365.402 37.3185 365.351 37.6032C365.3 37.8985 365.161 38.1956 364.907 38.3731C364.821 38.4224 364.737 38.4733 364.651 38.5225C364.477 38.5946 364.299 38.6175 364.111 38.6034C363.424 38.6122 362.741 38.7089 362.077 38.8811C361.909 38.9321 361.742 38.9813 361.579 39.0411C361.288 39.1483 360.969 39.1624 360.678 39.0411C360.422 38.9321 360.158 38.686 360.06 38.4206C359.85 37.8511 360.073 37.1216 360.679 36.8984Z" fill="#25202B"/>
<path d="M376.086 51.3208L369.203 55.4146C369.203 55.4146 371.52 59.1481 375.172 56.3673C378.292 53.9926 376.086 51.3208 376.086 51.3208Z" fill="white"/>
<path d="M368.174 243.346H350.52H348.51C348.51 243.346 348.349 242.509 348.054 241.022L339.513 241.509L337.526 241.625C337.526 241.625 317.241 173.77 317.567 172.051C317.892 170.323 357.485 142.489 357.485 142.489L361.889 141.195C362.856 143.296 366.452 142.218 366.452 142.218C366.452 142.218 367.634 142.102 369.575 141.893C387.885 145.124 406.206 159.986 406.206 159.986C406.206 159.986 384.508 176.143 360.923 181.961L369.575 243.346H368.174Z" fill="#25202B"/>
<path d="M329.942 261.2C335.988 254.256 350.52 243.346 350.52 243.346H368.176L370.541 261.982L327.347 265.647C327.299 264.64 328.313 263.066 329.942 261.2Z" fill="#A1DAA1"/>
<path d="M348.51 243.346H350.519C350.519 243.346 335.988 254.256 329.942 261.198L319.291 261.982C319.182 257.456 339.513 241.509 339.513 241.509L348.054 241.021C348.349 242.509 348.51 243.346 348.51 243.346Z" fill="#A1DAA1"/>
<path d="M365.723 143.83C359.359 148.286 352.997 152.74 346.634 157.198C343.451 159.425 340.27 161.652 337.089 163.881C335.606 164.92 334.094 165.929 332.648 167.017C331.468 167.904 330.335 168.891 329.526 170.14C327.655 173.034 328.341 176.575 329.251 179.674C330.338 183.375 331.513 187.054 332.646 190.74C334.94 198.198 337.231 205.654 339.523 213.112L346.401 235.487C346.685 236.412 346.969 237.336 347.253 238.261C347.398 238.735 348.145 238.533 347.998 238.055C345.743 230.72 343.488 223.385 341.235 216.05C338.98 208.716 336.726 201.381 334.471 194.048C333.344 190.379 332.218 186.713 331.091 183.044C330.556 181.307 329.972 179.576 329.549 177.808C329.158 176.176 328.907 174.438 329.265 172.777C329.972 169.49 333.033 167.664 335.587 165.876C338.715 163.684 341.843 161.494 344.973 159.302L363.746 146.156L366.114 144.498C366.517 144.215 366.131 143.544 365.723 143.83Z" fill="white"/>
<path d="M338.608 240.985C338.098 240.303 337.158 239.837 336.307 240.096C335.22 240.426 334.911 241.757 334.729 242.738C334.58 243.543 334.554 244.355 334.617 245.165C333.7 244.188 332.516 243.464 331.166 244.174C330.387 244.583 330.091 245.441 330.251 246.28C330.44 247.264 331.224 248.05 331.457 249.004C330.301 248.842 329.146 248.668 327.987 248.54C326.929 248.422 325.658 248.549 325.036 249.547C324.518 250.38 324.832 251.432 325.499 252.08C326.337 252.899 327.569 252.994 328.676 253.056C329.174 253.082 329.172 252.307 328.676 252.281C327.827 252.233 326.831 252.202 326.146 251.627C325.502 251.087 325.283 250.129 326.053 249.595C326.858 249.036 327.99 249.312 328.883 249.433L331.806 249.83C332.041 249.862 332.304 249.735 332.295 249.456C332.265 248.581 331.82 247.888 331.411 247.141C331.068 246.515 330.657 245.522 331.35 244.97C331.853 244.571 332.611 244.624 333.151 244.905C333.896 245.295 334.398 246.034 334.864 246.705C335.111 247.06 335.672 246.849 335.571 246.406C335.355 245.464 335.288 244.499 335.388 243.536C335.441 243.045 335.539 242.56 335.678 242.087C335.804 241.655 335.965 241.108 336.398 240.89C337.03 240.574 337.803 241.085 338.11 241.634C338.564 242.446 338.417 243.49 338.319 244.372C338.262 244.868 339.036 244.865 339.09 244.372C339.216 243.251 339.329 241.945 338.608 240.985Z" fill="white"/>
<path d="M348.226 243.731C343.493 248.106 338.76 252.479 334.026 256.853L330 260.574C329.633 260.913 330.18 261.46 330.545 261.122C335.28 256.749 340.012 252.374 344.747 248.001C346.088 246.76 347.431 245.52 348.773 244.279C349.139 243.94 348.592 243.393 348.226 243.731Z" fill="#25202B"/>
<path d="M343.66 244.281C343.212 243.32 342.183 242.451 341.126 243.14C340.677 243.432 340.398 243.915 340.191 244.395C339.891 245.095 339.663 245.833 339.462 246.566C339.074 247.976 338.844 249.424 338.744 250.881C338.161 250.273 337.491 249.73 336.658 249.567C335.784 249.396 334.738 249.67 334.241 250.458C333.628 251.426 334.17 252.634 334.724 253.492C335.162 254.169 335.725 254.752 336.363 255.234C335.644 255.353 334.945 255.58 334.305 255.944C333.473 256.413 332.458 257.181 332.53 258.252C332.595 259.171 333.445 259.887 334.303 260.059C335.458 260.293 336.574 259.651 337.524 259.076C337.95 258.82 337.561 258.148 337.135 258.406C336.405 258.849 335.558 259.394 334.666 259.328C334.022 259.28 333.168 258.73 333.314 257.978C333.463 257.227 334.494 256.682 335.115 256.396C335.87 256.049 336.691 255.896 337.52 255.909C337.894 255.914 338.059 255.367 337.715 255.186C336.93 254.775 336.235 254.219 335.686 253.518C335.195 252.891 334.438 251.771 334.85 250.948C335.169 250.31 336.072 250.185 336.689 250.372C337.575 250.639 338.222 251.43 338.804 252.103C339.034 252.369 339.456 252.144 339.463 251.829C339.511 250.117 339.754 248.422 340.207 246.772C340.4 246.071 341.049 243.001 342.325 243.787C342.886 244.133 343.105 244.912 343.265 245.504C343.479 246.287 343.617 247.088 343.675 247.897C343.798 249.558 343.595 251.212 343.095 252.799C342.944 253.276 343.691 253.479 343.84 253.005C344.298 251.555 344.521 250.031 344.48 248.509C344.443 247.113 344.252 245.559 343.66 244.281Z" fill="white"/>
<path d="M335.567 121.185L340.183 145.816H352.836L355.664 120.826L335.567 121.185Z" fill="#A1DAA1"/>
<path d="M335.567 121.185C335.567 121.185 340.058 123.806 346.441 123.806C352.826 123.806 355.664 120.826 355.664 120.826L335.567 121.185Z" fill="#25202B"/>
<path d="M356.124 128.109L357.314 140.738C357.314 140.738 341.815 146.991 339.272 145.558C336.73 144.117 337.843 140.816 337.843 140.816C335.585 138.987 337.124 136.36 337.124 136.36C335.26 135.757 335.508 133.711 335.693 132.486C335.871 131.262 349.083 128.682 349.083 128.682C349.083 128.682 343.611 123.118 345.503 122.312C347.405 121.507 356.124 128.109 356.124 128.109Z" fill="#FFD6C5"/>
<path d="M324.494 85.1507C323.983 84.6779 315.209 76.6572 316.492 75.4022C317.783 74.1471 326.898 82.4385 327.431 82.9184C327.447 82.9342 327.454 82.9412 327.454 82.9412C327.454 82.9412 327.447 82.9342 327.431 82.9184C326.95 82.377 319.486 73.9151 321.076 73.5354C322.723 73.1399 331.536 81.7952 331.536 81.7952C331.536 81.7952 329.996 74.6129 331.536 74.5426C333.051 74.4723 339.767 87.5448 339.976 87.9561L332.579 96.5868C332.114 96.3934 315.07 89.3571 315.565 88.3973C316.068 87.4288 323.442 88.9001 323.442 88.9001C323.442 88.9001 312.736 80.9655 313.632 79.6419C314.499 78.3552 323.952 84.7781 324.494 85.1507Z" fill="#FFD6C5"/>
<path d="M413.674 156.896C413.102 157.562 412.382 158.166 411.508 158.655C410.157 159.421 408.424 159.926 406.206 159.987C406.206 159.987 404.466 158.578 401.522 156.525C400.819 156.036 400.037 155.509 399.195 154.95C396.29 153.03 392.632 150.791 388.536 148.69C387.81 148.318 387.066 147.947 386.31 147.581C385.027 146.969 383.712 146.374 382.375 145.815C381.634 145.498 380.874 145.194 380.117 144.901C377.443 143.878 374.692 143.002 371.924 142.368C371.176 142.195 370.416 142.05 369.668 141.911C369.636 141.902 369.605 141.902 369.575 141.895C367.634 142.104 366.452 142.22 366.452 142.22C366.452 142.22 365.64 142.468 364.689 142.491C363.916 142.514 363.059 142.406 362.447 141.918C362.222 141.731 362.029 141.499 361.891 141.197L357.486 142.491L357.314 140.74L356.125 128.11L355.924 126.01L360.492 125.414C360.492 125.414 359.766 123.67 362.44 122.313L362.61 119.137L362.478 119.128C362.129 119.083 361.689 118.974 361.179 118.819C360.546 118.619 359.811 118.346 358.984 117.998C357.121 117.23 354.826 116.122 352.413 114.874C351.687 114.495 350.952 114.108 350.218 113.713C348.703 112.892 347.181 112.039 345.72 111.194C344.94 110.745 344.173 110.295 343.44 109.854C340.193 107.901 337.503 106.112 336.335 105.057C332.719 101.795 334.759 100.176 334.759 100.176L331.536 97.8048L332.579 96.5885L339.975 87.9561L340.773 87.035L343.91 89.3974L343.928 89.4045C344.491 89.0406 345.294 89.0564 346.239 89.343C347.977 89.8474 350.211 91.2642 352.329 92.8462C353.071 93.3964 353.79 93.9694 354.477 94.5266C357.198 96.7502 359.324 98.812 359.324 98.812C359.324 98.812 362.261 75.156 363.266 69.6613C363.885 66.267 367.379 64.4003 369.954 63.4775C371.058 63.0749 371.993 62.8499 372.458 62.7497C372.635 62.7111 372.743 62.6953 372.775 62.6882H372.782C373.873 62.7585 374.977 62.7111 376.068 62.5634L376.091 62.7181L375.519 72.6055C375.519 72.6055 375.644 72.892 375.905 73.2735V73.2805C376.293 73.8307 376.973 74.5584 377.962 74.8221C378.425 74.9469 378.951 74.9697 379.554 74.8221C380.289 74.6604 381.123 74.242 382.081 73.4739C382.514 73.117 382.977 72.6917 383.464 72.1731C384.09 71.514 384.655 70.8319 385.204 70.1271C385.204 70.1183 385.213 70.1183 385.213 70.1113C386.21 68.8175 387.066 67.4693 387.794 66.1668C390.207 61.8586 391.203 58.0302 391.203 58.0302C391.203 58.0302 392.06 58.3096 393.444 58.837C394.085 59.0848 394.845 59.3871 395.686 59.744C396.614 60.1395 397.642 60.5965 398.717 61.115C399.465 61.4877 400.254 61.8814 401.043 62.2998C401.785 62.704 402.534 63.1294 403.277 63.5794H403.284C404.119 64.0979 404.947 64.6323 405.743 65.2071C408.231 66.9737 410.442 69.0425 411.794 71.3505C416.634 79.5874 416.203 148.14 416.203 148.14C416.203 148.14 416.766 153.385 413.674 156.896Z" fill="white"/>
<path d="M346.239 89.3429C346.067 96.6271 345.899 103.911 345.72 111.194C344.938 110.745 344.173 110.295 343.44 109.854C343.593 103.036 343.756 96.2158 343.91 89.3974L343.926 89.4045C344.491 89.0406 345.294 89.0564 346.239 89.3429Z" fill="#E5E5E5"/>
<path d="M372.457 62.7498L370.024 74.8836L361.179 118.819C360.546 118.617 359.811 118.346 358.983 117.998C359.65 114.672 360.321 111.348 360.986 108.033C363.977 93.1784 366.969 78.3323 369.953 63.4775C371.058 63.0749 371.993 62.8499 372.457 62.7498Z" fill="#E5E5E5"/>
<path d="M354.477 94.5266C353.79 101.306 353.102 108.095 352.413 114.874C351.687 114.495 350.953 114.108 350.218 113.713C350.921 106.754 351.626 99.8034 352.329 92.8462C353.071 93.3946 353.79 93.9694 354.477 94.5266Z" fill="#E5E5E5"/>
<path d="M413.673 156.896C413.103 157.562 412.382 158.166 411.509 158.655C410.921 151.93 410.35 145.187 409.762 138.462C408.642 125.483 407.512 112.512 406.392 99.5327C405.356 87.5448 404.319 75.5656 403.285 63.5794C404.119 64.0979 404.945 64.6323 405.743 65.2053C406.245 70.9937 406.739 76.782 407.242 82.5703C408.363 95.5496 409.492 108.529 410.613 121.499C411.633 133.301 412.654 145.094 413.673 156.896Z" fill="#E5E5E5"/>
<path d="M401.522 156.523C400.819 156.034 400.037 155.509 399.195 154.95C399.157 148.775 399.125 142.607 399.096 136.43C399.032 123.428 398.964 110.434 398.901 97.4322C398.84 85.3282 398.771 73.2243 398.717 61.1133C399.466 61.4859 400.255 61.8814 401.044 62.2998C401.073 68.3518 401.105 74.3949 401.128 80.4469C401.198 93.4403 401.266 106.444 401.33 119.438C401.398 131.796 401.452 144.164 401.522 156.523Z" fill="#E5E5E5"/>
<path d="M395.687 59.7422C395.231 65.4374 394.775 71.1325 394.317 76.8207C392.385 100.779 390.461 124.739 388.536 148.69C387.81 148.318 387.068 147.947 386.311 147.581C386.744 142.22 387.168 136.85 387.601 131.487C389.549 107.272 391.497 83.0502 393.446 58.837C394.086 59.0848 394.843 59.3872 395.687 59.7422Z" fill="#E5E5E5"/>
<path d="M387.794 66.1669C387.415 71.7302 387.037 77.3023 386.658 82.8656C385.227 103.848 383.805 124.832 382.376 145.816C381.632 145.497 380.875 145.196 380.117 144.901C380.45 140.035 380.784 135.177 381.115 130.309C382.476 110.248 383.843 90.1867 385.204 70.1271C385.204 70.1183 385.211 70.1183 385.211 70.1113C386.209 68.8176 387.066 67.4694 387.794 66.1669Z" fill="#E5E5E5"/>
<path d="M382.081 73.4739C381.387 78.1759 380.697 82.8885 380.003 87.5835C377.311 105.84 374.614 124.11 371.923 142.366C371.174 142.195 370.417 142.05 369.666 141.909L371.22 131.378C373.995 112.526 376.778 93.6811 379.552 74.8221C380.289 74.6586 381.124 74.2403 382.081 73.4739Z" fill="#E5E5E5"/>
<path d="M377.962 74.8221C377.073 79.3694 376.175 83.9185 375.286 88.4676C371.755 106.476 368.221 124.491 364.69 142.491C363.916 142.514 363.059 142.406 362.449 141.918C363.245 137.834 364.048 133.744 364.851 129.652C365.284 127.451 365.717 125.242 366.15 123.041C366.35 122.011 366.552 120.981 366.754 119.949C369.807 104.398 372.852 88.8385 375.905 73.2805C376.293 73.8307 376.973 74.5584 377.962 74.8221Z" fill="#E5E5E5"/>
<path d="M370.364 75.9611C368.463 86.7942 366.563 97.6255 364.664 108.459C364.13 111.5 363.597 114.54 363.063 117.581C362.977 118.07 363.722 118.279 363.808 117.787C365.709 106.954 367.609 96.1226 369.51 85.2895C370.043 82.2486 370.576 79.2077 371.109 76.1667C371.195 75.6781 370.45 75.4689 370.364 75.9611Z" fill="#25202B"/>
<path d="M411.98 83.124C410.572 94.3421 409.164 105.558 407.758 116.775C407.449 119.234 407.274 121.786 406.457 124.141C405.659 126.444 404.086 128.107 402.012 129.329C399.876 130.587 397.521 131.512 395.245 132.479C392.739 133.542 390.209 134.549 387.657 135.502C381.978 137.625 376.198 139.473 370.343 141.046C369.863 141.176 370.066 141.921 370.548 141.793C375.87 140.364 381.132 138.706 386.312 136.822C388.902 135.88 391.471 134.88 394.017 133.825C396.42 132.832 398.847 131.839 401.17 130.666C403.206 129.64 405.142 128.307 406.32 126.3C407.519 124.256 407.884 121.86 408.182 119.545C408.917 113.844 409.615 108.139 410.33 102.435L412.754 83.124C412.815 82.6319 412.042 82.6354 411.98 83.124Z" fill="#25202B"/>
<path d="M390.686 75.476C390.114 84.9134 389.542 94.3526 388.972 103.792C388.811 106.444 388.65 109.097 388.49 111.747C381.978 114.4 375.465 117.051 368.952 119.703L363.427 121.951C362.971 122.138 363.171 122.886 363.632 122.698C370.168 120.037 376.703 117.378 383.238 114.716L388.764 112.466C388.915 112.407 388.986 112.284 389.009 112.153C389.141 112.104 389.248 111.992 389.258 111.814L390.973 83.4967C391.134 80.8231 391.298 78.1495 391.459 75.476C391.489 74.9768 390.715 74.9785 390.686 75.476Z" fill="#25202B"/>
<path d="M344.7 118.78C342.017 116.782 338.292 117.896 335.455 119.028C332.162 120.353 328.937 121.849 325.297 121.524C319.686 121.027 314.383 117.184 312.959 111.573C312.242 108.761 312.643 105.732 314.413 103.407C316.138 101.152 318.819 99.8738 321.65 100.299C324.655 100.749 327.045 102.85 328.644 105.328C329.456 106.569 329.996 107.931 330.677 109.241C331.318 110.489 332.122 111.598 333.607 111.776C335.238 111.962 336.816 111.28 338.383 110.985C339.876 110.707 341.361 110.682 342.783 111.257C345.387 112.319 347.049 114.906 346.956 117.687C347.06 120.538 344.815 119.021 344.7 118.78Z" fill="white"/>
<path d="M305.363 24.4797C305.363 37.4836 315.882 48.0302 328.864 48.0302C332.137 48.0302 335.246 47.3552 338.073 46.1459L349.331 51.326L344.382 42.1523C349.275 37.8422 352.359 31.5248 352.359 24.4797C352.359 11.4652 341.838 0.91864 328.864 0.91864C315.882 0.91864 305.363 11.4652 305.363 24.4797Z" fill="white"/>
<path d="M188.02 41.7375C191.017 53.4371 202.908 60.4893 214.586 57.4853C217.529 56.7294 220.171 55.4023 222.435 53.6604L233.756 55.7152L227.191 48.6086C230.599 43.5972 231.92 37.2024 230.298 30.8639C227.301 19.1572 215.41 12.1051 203.739 15.1073C192.061 18.1096 185.025 30.0308 188.02 41.7375Z" fill="white"/>
<path d="M494.531 174.097C491.843 178.49 488.935 182.766 486.005 187.013C480.122 195.529 473.892 203.798 467.33 211.801C465.713 213.777 464.16 215.939 462.32 217.705C460.728 219.249 458.649 219.906 456.709 218.542C455.627 217.767 454.7 216.723 453.756 215.793C452.897 214.948 452.055 214.095 451.221 213.235C451.042 213.058 450.873 212.872 450.695 212.685C447.687 210.189 444.889 207.454 442.371 204.471C439.965 201.62 437.778 198.583 435.869 195.375C434.941 193.817 434.075 192.221 433.279 190.587C432.546 189.075 431.827 187.563 431.648 185.874C431.509 184.503 431.834 183.046 432.924 182.123C434.361 180.924 436.24 181.218 437.778 182.039C439.479 182.946 440.931 184.403 442.407 185.626C443.074 186.176 443.738 186.727 444.403 187.286C442.362 180.977 440.87 174.493 439.965 167.922C439.007 160.97 438.62 153.881 439.03 146.868C439.169 144.482 439.611 141.661 441.473 139.965C443.652 137.98 446.807 138.538 448.839 140.436C451.128 142.575 451.854 146.078 452.674 148.968C453.67 152.463 454.514 155.996 455.248 159.552C455.696 161.752 456.106 163.962 456.492 166.178C456.555 162.543 456.693 158.917 456.963 155.298C457.251 151.556 457.675 147.822 458.301 144.117C458.889 140.592 459.438 136.757 460.937 133.486C462.212 130.705 464.965 128.372 468.188 129.023C471.279 129.65 473.134 132.681 473.722 135.563C474.472 139.244 474.364 143.196 474.425 146.929C474.488 150.828 474.434 154.725 474.318 158.623C474.109 165.053 473.708 171.485 473.259 177.91C475.423 174.786 477.888 171.865 480.634 169.237C482.481 167.472 484.452 165.697 486.6 164.301C488.579 163.016 491.131 162.016 493.433 163.016C495.327 163.837 496.332 165.744 496.526 167.743C496.735 170.03 495.683 172.199 494.531 174.097Z" fill="#FF9F00"/>
<path d="M475.702 260.681H445.261C407.376 241.692 445.261 211.694 445.261 211.694L438.488 206.06H482.465L475.702 211.694C475.702 211.694 513.586 241.692 475.702 260.681Z" fill="#A1DAA1"/>
<path d="M88.1376 141.234C86.083 142.413 84.3801 144.205 83.3103 146.321C82.1702 148.571 81.7549 151.111 80.7903 153.438C79.2637 157.149 76.4135 160.19 73.1478 162.51C69.8896 164.83 66.2163 166.497 62.5353 168.063C61.7893 168.379 61.0364 168.704 60.3113 169.079C53.492 181.756 53.8576 196.846 51.6624 210.933C51.5919 215.779 51.078 220.618 49.9238 225.403C49.8466 225.719 49.6704 225.923 49.4523 226.044C49.2205 226.276 48.8827 226.403 48.4738 226.283C47.2849 225.96 46.9262 224.745 47.1937 223.645C47.4403 222.587 47.8129 221.557 48.0309 220.492C48.3903 218.764 48.5589 217.006 48.5727 215.25C47.9535 211.963 47.067 208.739 45.8704 205.621C43.5831 199.632 40.2545 194.065 36.1089 189.191C35.9403 189.1 35.7997 188.943 35.7155 188.711C32.6188 185.148 29.0932 181.974 25.2151 179.293C23.4141 179.574 21.5766 179.66 19.7539 179.541C18.5295 179.455 17.2981 179.279 16.151 178.848C14.8485 178.347 13.6882 177.53 12.6601 176.598C7.74776 172.141 5.54551 165.029 0 161.41C5.66528 160.974 11.4643 162.447 16.2353 165.544C20.5918 168.372 24.068 172.541 26.0948 177.331C27.7768 178.469 29.3955 179.703 30.9439 181.016C32.2594 182.128 33.5194 183.315 34.7369 184.549C33.5759 180.131 31.9781 175.843 29.9444 171.759C24.2156 166.707 21.0138 158.799 21.858 151.174C22.2522 147.583 23.4558 143.929 22.5336 140.436C25.2013 143.943 27.8827 147.456 30.0006 151.322C32.1117 155.18 33.6671 159.427 33.9066 163.823C34.076 166.913 33.5968 169.996 32.8794 173.007C35.0182 177.713 36.623 182.652 37.6434 187.723C43.1678 194.227 47.2988 201.931 49.5652 210.163C49.5861 207.328 49.4593 204.485 49.2057 201.657C47.9327 187.54 43.7802 173.911 41.4859 159.965C40.8737 156.226 40.3952 152.429 40.1278 148.613C37.5313 143.9 34.0543 139.745 29.9095 136.374C27.861 136.593 25.771 136.31 23.7232 135.978C19.522 135.294 15.1376 134.307 11.9429 131.478C10.4857 130.193 9.35258 128.578 8.23401 126.991C6.33319 124.282 4.43308 121.573 2.53314 118.863C7.71988 119.35 12.9771 119.86 17.8608 121.679C22.7384 123.493 27.2915 126.815 29.4658 131.556C29.8462 132.38 30.1483 133.248 30.4583 134.103C34.1246 136.945 37.334 140.373 39.9307 144.226C39.8107 138.624 40.2266 133.037 41.472 127.597C40.4446 123.104 40.9231 118.272 42.844 114.075C46.1099 106.921 52.9988 102.222 59.713 98.1371C61.191 97.2353 62.7603 96.3178 64.4987 96.2334C60.9236 100.768 60.7334 107.033 58.7282 112.451C56.0676 119.633 50.1488 125.207 43.3719 128.803C42.3794 133.424 41.9712 138.172 42 142.927C42.0138 144.612 42.5974 149.425 42.3168 149.727C43.2808 161.381 46.2784 172.796 48.6083 184.246C49.6008 189.1 50.4658 194.037 51.0292 198.989C51.0501 198.785 51.071 198.574 51.0918 198.361C52.014 189.629 53.0135 180.775 56.3636 172.584C56.8492 171.399 57.3771 170.228 57.9607 169.086C57.9816 168.761 58.0102 168.435 58.0387 168.112C58.7282 160.838 62.6126 154.03 68.1797 149.32C73.7461 144.6 80.8822 141.918 88.1376 141.234Z" fill="white"/>
<path d="M22.5068 201.256H74.6523L63.9085 260.996H33.8242L22.5068 201.256Z" fill="#A1DAA1"/>
</svg>
