<svg width="426" height="424" viewBox="0 0 426 424" fill="none" xmlns="http://www.w3.org/2000/svg">
<path d="M110.915 100.99C110.911 100.741 110.901 100.492 110.874 100.241C110.845 99.9873 110.856 99.7473 110.896 99.5217C110.86 98.6847 110.795 97.8452 110.678 96.9879C110.506 95.7244 112.079 94.376 113.288 95.1265C119.054 98.7085 124.548 102.692 129.68 107.129C131.948 109.089 134.3 111.079 136.185 113.42C137.887 115.533 139.093 118.169 138.711 120.929C138.469 122.681 137.47 124.225 137.092 125.896C136.918 126.668 136.893 126.997 137.002 127.676C137.01 127.72 137.013 127.747 137.017 127.777C137.023 127.779 137.031 127.792 137.05 127.847C137.056 127.861 137.071 127.897 137.09 127.938C140.158 126.278 142.843 123.883 145.321 121.483C145.835 120.985 146.573 120.836 147.17 121.32C150.344 123.888 152.585 127.179 153.466 131.184C154.38 135.338 153.412 139.624 151.071 143.143C150.429 144.108 149.68 144.985 148.829 145.773C148.756 145.841 148.68 145.906 148.606 145.973C148.483 146.33 148.445 146.503 148.515 146.828C148.588 147.165 148.805 147.427 148.87 147.48C149.477 147.973 150.272 148.064 151.226 148.061C153.657 148.057 156.257 146.655 158.851 146.521C161.854 146.366 164.536 148.008 165.724 150.762C166.711 153.052 166.954 155.68 166.82 158.149C166.691 160.512 166.131 163.035 164.731 164.993C163.164 167.186 160.812 168.284 158.144 168.396C155.794 168.495 153.323 167.591 151.006 168.079C148.934 168.516 148.123 170.774 148.202 172.688C148.293 174.939 149.469 177.095 150.968 178.726C154.34 182.393 159.724 183.353 164.201 181.163C165.323 180.614 166.303 179.9 167.197 179.031C168.068 178.185 169.535 178.769 169.79 179.875C172.078 189.808 168.953 200.477 162.031 207.907C161.092 208.915 160.083 209.89 158.991 210.732C157.876 211.591 156.468 212.226 155.186 212.803C154.904 212.93 154.621 212.879 154.389 212.744C148.532 215.133 141.923 214.969 135.701 214.964C128.955 214.958 122.223 214.382 116.185 211.139C110.83 208.262 106.539 203.721 102.652 199.145C98.3299 194.055 93.1472 187.239 96.8159 180.402C97.4148 179.287 98.9808 179.212 99.9513 179.776C100.326 179.993 100.843 180.083 101.197 180.03C101.88 179.929 102.46 179.676 102.931 179.332C103.611 178.833 103.91 178.487 104.331 177.807C104.682 177.241 104.878 176.539 104.882 175.79C104.907 172.336 101.664 169.502 98.7533 167.861C96.7614 166.738 94.6143 165.92 92.5295 164.988C91.4594 164.509 90.3969 164.006 89.3626 163.454C88.6256 163.062 87.9977 162.615 87.8077 161.735C87.6594 161.044 87.7276 160.188 87.7421 159.485C87.835 154.888 89.1368 150.368 91.3554 146.347C92.3676 144.512 93.6678 142.179 95.6802 141.301C98.3972 140.116 100.627 142.111 102.723 143.544C104.348 144.653 106.148 145.714 108.171 145.75C109.507 145.775 111.103 145.271 111.688 143.931C111.909 143.422 111.932 142.817 111.822 142.227C111.665 141.385 111.314 140.627 110.85 139.887C109.861 138.311 108.401 137.186 106.932 136.082C103.567 133.556 100.039 130.741 99.5287 126.268C98.9476 121.181 101.747 116.462 104.783 112.605C107.257 109.46 110.755 105.648 110.906 101.394C110.911 101.259 110.912 101.124 110.915 100.99Z" fill="#A1DAA1"/>
<path d="M106.264 121.071C107.931 120.022 110.099 120.243 111.941 120.693C113.933 121.18 115.779 122.027 117.5 123.13C119.32 124.297 120.872 125.801 122.32 127.392C122.658 127.765 122.982 128.148 123.3 128.536C121.572 122.281 119.664 116.063 117.542 109.933C117.231 109.033 118.567 108.538 118.931 109.417C120.435 113.051 121.822 116.725 123.104 120.436C123.105 120.432 123.107 120.428 123.109 120.424C123.332 119.978 123.637 119.547 123.925 119.141C124.534 118.282 125.204 117.488 125.945 116.741C126.671 116.005 127.428 115.276 128.278 114.684C129.107 114.105 130.054 113.802 131.036 113.587C131.249 113.539 131.341 113.817 131.236 113.962C130.663 114.742 130.096 115.491 129.392 116.158C128.699 116.813 127.973 117.43 127.306 118.114C126.642 118.796 125.997 119.508 125.382 120.234C125.067 120.606 124.773 121.015 124.433 121.363C124.213 121.589 123.944 121.87 123.638 122.002C124.33 124.068 124.998 126.143 125.613 128.239C127.183 133.594 128.554 139.006 129.752 144.457C130.161 143.813 130.616 143.202 131.075 142.593C132.168 141.144 133.31 139.727 134.515 138.368C135.719 137.009 137.006 135.716 138.321 134.464C139.614 133.234 140.971 131.988 142.755 131.558C142.993 131.5 143.226 131.7 143.12 131.949C142.453 133.524 141.197 134.682 139.993 135.857C138.777 137.043 137.607 138.273 136.473 139.536C135.337 140.802 134.219 142.076 133.156 143.403C132.614 144.081 132.104 144.785 131.559 145.46C131.312 145.766 131.054 146.065 130.783 146.351C130.649 146.493 130.444 146.637 130.256 146.789C130.322 147.101 130.394 147.412 130.458 147.723C132.123 155.811 133.278 164.025 134 172.271C134.366 171.561 134.769 170.872 135.198 170.194C136.546 168.07 137.976 165.997 139.475 163.976C140.972 161.958 142.538 159.995 144.195 158.105C144.994 157.194 145.793 156.268 146.644 155.404C147.101 154.94 147.585 154.477 148.132 154.122C148.679 153.768 149.28 153.553 149.842 153.222C150.101 153.07 150.536 153.322 150.348 153.64C150.033 154.173 149.839 154.744 149.524 155.271C149.229 155.766 148.888 156.209 148.511 156.644C147.716 157.562 146.864 158.432 146.061 159.344C144.457 161.167 142.897 163.035 141.402 164.948C139.907 166.862 138.477 168.826 137.117 170.837C136.426 171.86 135.72 172.887 135.126 173.97C134.849 174.475 134.605 174.997 134.346 175.512C134.318 175.569 134.291 175.627 134.264 175.686C134.549 179.589 134.751 183.495 134.853 187.396C134.921 189.976 134.943 192.557 134.926 195.137C135.003 195.4 135.074 195.668 135.143 195.949C135.211 196.22 135.093 196.44 134.911 196.543C134.903 197.185 134.895 197.828 134.882 198.469C134.852 199.898 134.807 201.327 134.751 202.755C134.974 202.337 135.203 201.926 135.434 201.518C136.435 199.757 137.587 198.043 138.832 196.443C141.358 193.197 144.384 190.273 147.676 187.805C149.375 186.531 151.436 184.704 153.711 185.031C153.977 185.07 154.109 185.356 154.012 185.591C153.259 187.42 151.303 188.333 149.783 189.451C148.225 190.595 146.718 191.829 145.305 193.148C142.456 195.805 139.882 198.818 137.686 202.031C136.623 203.585 135.699 205.27 134.558 206.773C134.553 206.869 134.548 206.966 134.542 207.062C134.517 207.494 134.508 207.933 134.462 208.363C134.404 208.894 134.208 209.395 134.042 209.903C133.897 210.348 133.31 210.595 132.876 210.524C132.373 210.445 132.049 210.039 131.962 209.561C131.658 207.891 131.916 206.16 131.994 204.469C132.069 202.85 132.134 201.228 132.177 199.608C132.229 197.664 132.249 195.72 132.252 193.775C132.208 193.709 132.165 193.642 132.119 193.578C131.437 192.603 130.774 191.617 130.051 190.672C128.616 188.795 127.035 187.037 125.317 185.414C121.814 182.108 117.828 179.473 113.479 177.403C112.123 176.757 110.738 176.171 109.344 175.613C108.645 175.333 107.936 175.083 107.263 174.749C106.881 174.559 106.489 174.371 106.177 174.075C105.93 173.84 105.809 173.511 105.661 173.209C105.543 172.965 105.724 172.675 105.95 172.58C106.57 172.321 107.048 172.247 107.715 172.412C108.473 172.599 109.193 172.871 109.92 173.156C111.24 173.674 112.554 174.214 113.845 174.802C116.198 175.877 118.435 177.172 120.561 178.64C124.586 181.418 128.166 184.848 131.128 188.728C131.504 189.22 131.876 189.72 132.236 190.23C132.234 190.098 132.236 189.967 132.234 189.836C132.135 183.212 131.751 176.594 131.09 170.003C130.865 167.761 130.599 165.523 130.313 163.285C129.914 163.002 129.524 162.704 129.135 162.429C128.277 161.829 127.434 161.214 126.533 160.678C124.639 159.554 122.71 158.545 120.637 157.787C118.599 157.043 116.472 156.541 114.322 156.246C113.27 156.104 112.212 156.047 111.155 155.954C110.064 155.856 109.05 155.628 108.011 155.304C107.732 155.218 107.831 154.853 108.031 154.752C108.388 154.571 108.758 154.352 109.142 154.24C109.574 154.114 110.038 154.059 110.48 153.983C111.399 153.823 112.368 153.902 113.292 153.98C115.058 154.129 116.804 154.439 118.511 154.911C121.986 155.871 125.37 157.361 128.266 159.518C128.815 159.927 129.422 160.379 130 160.878C128.665 151.193 126.757 141.572 124.276 132.126C124.008 131.859 123.753 131.572 123.488 131.283C122.795 130.526 122.079 129.795 121.353 129.07C119.896 127.616 118.337 126.278 116.616 125.139C115.182 124.19 113.552 123.431 111.878 123.015C111.011 122.8 110.135 122.697 109.247 122.607C108.338 122.515 107.463 122.55 106.564 122.364C105.985 122.243 105.706 121.422 106.264 121.071Z" fill="#D5F5D5"/>
<path d="M342.538 185.802C341.479 183.934 339.46 183.433 337.663 184.65C335.322 186.234 332.711 188.084 329.799 188.31C328.113 188.442 326.174 187.662 325.424 186.07C324.826 184.798 326.052 183.723 327.232 182.968C329.334 181.626 331.685 180.747 333.628 179.145C341.702 172.495 341.43 160.694 338.708 151.582C336.679 144.793 333.498 138.334 332.604 131.246C332.35 129.231 330.024 128.037 328.207 128.867C317.117 133.931 305.208 139.6 298.816 150.518C295.898 155.501 294.27 161.069 294.769 166.867C294.977 169.276 295.737 171.703 295.641 174.131C295.565 176.035 294.8 177.416 293.061 177.573C286.763 178.141 285.821 169.441 285.357 164.95C285.106 162.516 282.13 161.709 280.345 163.028C274.824 167.107 269.365 171.522 266.05 177.645C263.121 183.056 262.31 190.229 265.206 195.83C266.685 198.688 268.983 200.655 271.437 202.659C273.074 203.996 275.069 205.912 274.651 207.697C274.522 208.252 274.326 208.678 273.727 209.366C273.355 209.794 272.342 210.519 271.667 210.841C269.991 211.64 268.029 211.972 266.363 211.468C260.439 209.677 257.896 202.011 255.999 196.884C255.356 195.149 252.776 194.579 251.421 195.802C246.489 200.258 244.513 206.606 244.83 213.113C245.17 220.037 248.486 226.382 253.006 231.53C255.436 234.298 258.201 236.786 261.065 239.099C262.375 240.155 263.712 241.175 265.066 242.174C266.086 242.926 267.889 243.847 268.291 245.159C269.046 247.614 265.496 249.784 263.578 250.247C260.317 251.035 256.978 250.314 254 248.901C246.551 245.368 242.527 237.443 238.897 230.51C237.584 228.003 234.008 228.567 233.506 231.338C229.799 251.765 241.529 272.77 259.494 282.521C260.551 283.095 261.635 283.621 262.733 284.11C264.512 285.12 266.352 286.026 268.201 286.82C277.211 290.686 287.064 291.896 296.807 291.447C306.839 290.985 317.107 288.768 326.459 285.117C334.98 281.79 343.06 276.45 347.433 268.223C351.773 260.062 351.964 249.197 345.677 241.961C344.83 240.987 343.513 240.681 342.321 241.167C338.686 242.648 333.63 244.502 329.766 242.821C325.219 240.846 327.255 235.494 329.853 232.761C333.908 228.496 340.312 227.572 345.41 225.031C346.781 224.347 348.504 223.562 349.559 222.444C350.795 221.134 350.513 218.75 350.529 217.07C350.562 213.671 350.364 210.27 349.862 206.907C348.758 199.504 346.23 192.315 342.538 185.802Z" fill="#A1DAA1"/>
<path d="M331.779 162.724C331.369 161.326 328.849 162.129 327.94 162.351C326.323 162.747 324.724 163.574 323.241 164.321C321.792 165.05 320.386 165.866 319.034 166.764C318.04 167.424 317.063 168.128 316.127 168.879C316.678 167.446 317.221 166.012 317.793 164.589C319.676 159.898 321.953 155.306 323.566 150.518C323.958 149.358 322.23 148.692 321.62 149.702C319.276 153.582 317.575 157.898 315.78 162.05C314.02 166.118 312.33 170.215 310.707 174.339C309.623 177.092 308.586 179.862 307.57 182.639C307.565 182.616 307.559 182.591 307.553 182.568C306.997 180.065 306.289 177.583 305.552 175.128C304.831 172.731 304.047 170.353 303.16 168.011C302.694 166.781 302.234 165.538 301.703 164.333C301.473 163.809 301.206 163.29 300.884 162.815C300.498 162.248 299.944 161.944 299.496 161.441C299.229 161.142 298.637 161.369 298.672 161.781C298.722 162.374 298.572 162.947 298.656 163.542C298.739 164.12 298.922 164.699 299.114 165.248C299.527 166.427 300.011 167.583 300.434 168.76C301.282 171.115 302.099 173.482 302.844 175.871C303.569 178.198 304.229 180.545 304.824 182.907C305.129 184.116 305.458 185.332 305.822 186.522C305.872 186.687 305.928 186.857 305.984 187.025C304.493 191.263 303.08 195.529 301.747 199.818C298.949 208.825 296.579 217.956 294.58 227.167C293.736 223.883 292.454 220.691 291.286 217.517C289.998 214.023 288.628 210.555 287.244 207.098C286.523 205.299 285.845 203.481 284.895 201.787C283.953 200.107 282.857 198.538 281.711 196.991C281.394 196.563 280.771 196.818 280.86 197.348C281.167 199.184 281.506 200.987 281.992 202.784C282.48 204.585 283.213 206.285 283.907 208.014C285.241 211.345 286.524 214.694 287.81 218.044C289.071 221.335 290.454 224.623 291.406 228.021C291.872 229.683 292.143 231.384 292.365 233.093C292.486 234.019 292.646 234.936 292.763 235.863C292.768 235.901 292.785 235.941 292.794 235.98C291.755 241.445 290.83 246.934 290.043 252.441C289.313 257.538 288.681 262.647 288.161 267.768C288.113 268.236 288.078 268.706 288.032 269.173C287.647 268.777 287.258 268.399 286.885 268.051C284.975 266.272 282.802 264.805 280.436 263.696C278.068 262.586 275.571 261.768 272.981 261.373C271.684 261.175 270.37 261.024 269.06 261.18C267.664 261.346 266.551 261.987 265.345 262.641C264.926 262.869 265.009 263.561 265.48 263.671C266.585 263.928 267.628 264.374 268.75 264.585C269.866 264.794 271.013 264.832 272.135 265.006C274.388 265.357 276.62 266.015 278.68 266.995C280.688 267.95 282.623 269.167 284.318 270.606C285.191 271.348 285.991 272.159 286.784 272.983C287.058 273.267 287.329 273.564 287.603 273.86C287.567 274.296 287.52 274.731 287.485 275.168C287.269 277.832 287.001 280.366 287.802 282.957C288.129 284.015 289.892 284.487 290.418 283.298C290.873 282.265 291.302 281.257 291.477 280.133C291.65 279.014 291.698 277.856 291.788 276.727C291.966 274.453 292.145 272.18 292.356 269.908C292.756 265.598 293.239 261.297 293.792 257.005C294.387 256.223 294.983 255.44 295.614 254.684C297.666 252.231 299.884 249.949 302.255 247.8C306.958 243.538 312.414 240.039 318.285 237.59C319.939 236.9 321.638 236.348 323.329 235.758C324.191 235.458 325.07 235.147 325.602 234.355C326.167 233.511 326.163 232.276 325.326 231.592C324.348 230.794 323.137 231.185 322.738 232.134C322.683 232.153 322.615 232.176 322.514 232.207C322.15 232.318 321.784 232.413 321.423 232.532C320.701 232.77 319.988 233.035 319.28 233.308C317.768 233.891 316.277 234.531 314.815 235.23C312.027 236.562 309.348 238.12 306.81 239.881C302.201 243.079 298.054 246.874 294.588 251.269C295.616 244.24 296.85 237.24 298.289 230.285C299.416 224.842 300.657 219.419 301.994 214.018C302.879 213.404 303.745 212.764 304.602 212.167C306.831 210.616 309.142 209.16 311.485 207.787C313.836 206.41 316.256 205.153 318.735 204.02C319.944 203.469 321.181 202.965 322.374 202.386C323.6 201.792 324.793 201.232 325.442 200.005C325.622 199.661 325.445 199.341 325.113 199.202C323.807 198.655 322.454 199.045 321.141 199.475C319.864 199.892 318.61 200.457 317.393 201.02C314.811 202.216 312.294 203.55 309.856 205.012C307.492 206.429 305.255 208.004 303.083 209.695C305.794 199.228 308.914 188.864 312.498 178.67C313.038 177.133 313.606 175.608 314.167 174.079C314.79 173.59 315.385 173.057 315.981 172.572C317.227 171.56 318.508 170.581 319.844 169.689C321.237 168.76 322.688 167.917 324.186 167.166C325.648 166.434 327.178 165.914 328.665 165.25C329.506 164.876 332.171 164.056 331.779 162.724Z" fill="#D5F5D5"/>
<path d="M395.529 254.427C395.706 254.055 395.893 253.684 396.11 253.323C396.327 252.961 396.478 252.59 396.575 252.221C397.208 250.982 397.887 249.758 398.656 248.544C399.793 246.752 398.348 243.635 396.003 243.941C384.812 245.397 373.753 247.649 362.926 250.831C358.144 252.236 353.213 253.631 348.744 255.874C344.71 257.899 341.062 261.052 339.728 265.485C338.881 268.298 339.321 271.316 338.736 274.1C338.465 275.385 338.274 275.899 337.639 276.85C337.596 276.913 337.573 276.951 337.546 276.991C337.537 276.991 337.513 277.007 337.448 277.075C337.431 277.093 337.382 277.136 337.325 277.187C333.839 272.573 331.44 267.114 329.358 261.788C328.926 260.684 327.916 259.953 326.678 260.274C320.104 261.976 314.439 265.41 310.335 270.858C306.08 276.506 304.574 283.646 305.675 290.567C305.977 292.465 306.501 294.304 307.24 296.079C307.304 296.232 307.375 296.383 307.439 296.534C307.379 297.158 307.316 297.445 306.984 297.889C306.641 298.347 306.132 298.594 305.997 298.63C304.738 298.958 303.474 298.549 302.034 297.891C298.365 296.216 295.408 292.317 291.582 290.336C287.152 288.041 281.964 288.682 278.262 292.028C275.185 294.81 272.998 298.613 271.491 302.437C270.05 306.095 269.149 310.29 269.908 314.208C270.758 318.597 273.549 321.869 277.504 323.87C280.986 325.63 285.344 325.958 288.507 328.285C291.334 330.365 290.997 334.333 289.553 337.171C287.856 340.511 284.586 342.961 281.193 344.396C273.56 347.623 264.76 345.382 259.514 339.001C258.198 337.403 257.211 335.651 256.463 333.725C255.734 331.85 253.113 331.725 251.961 333.222C241.627 346.661 238.961 364.921 244.276 380.895C244.995 383.059 245.844 385.226 246.912 387.247C248.002 389.31 249.688 391.235 251.224 392.986C251.563 393.372 252.026 393.489 252.471 393.445C259.664 401.069 269.763 405.356 279.167 409.616C289.363 414.234 299.933 417.982 311.301 417.223C321.382 416.549 331.01 412.632 340.05 408.384C350.104 403.659 362.653 396.916 361.844 384.073C361.712 381.976 359.399 380.789 357.541 380.974C356.825 381.045 355.981 380.826 355.484 380.505C354.522 379.883 353.82 379.103 353.348 378.26C352.665 377.042 352.451 376.312 352.287 374.996C352.15 373.901 352.341 372.706 352.851 371.571C355.205 366.336 362.068 364.279 367.601 363.797C371.388 363.466 375.198 363.703 378.992 363.724C380.941 363.735 382.894 363.704 384.839 363.581C386.225 363.492 387.483 363.248 388.378 362.048C389.081 361.107 389.571 359.767 390.037 358.694C393.079 351.684 394.24 343.962 393.673 336.368C393.415 332.9 393.065 328.485 390.634 325.779C387.349 322.124 382.599 323.609 378.44 324.334C375.219 324.898 371.763 325.265 368.681 323.932C366.647 323.052 364.585 321.197 364.628 318.771C364.645 317.85 365.029 316.92 365.605 316.104C366.426 314.939 367.48 314.035 368.694 313.237C371.281 311.533 374.266 310.835 377.248 310.176C384.079 308.668 391.359 306.833 395.228 300.426C399.628 293.14 398.666 284.089 396.751 276.18C395.189 269.733 392.546 261.574 395.261 255.043C395.347 254.836 395.439 254.632 395.529 254.427Z" fill="#D5F5D5"/>
<path d="M388.651 287.955C386.858 285.227 383.428 284.074 380.335 283.491C376.989 282.86 373.613 282.873 370.248 283.36C366.692 283.875 363.305 285.081 360.018 286.493C359.249 286.822 358.493 287.18 357.744 287.548C364.685 279.282 371.874 271.198 379.324 263.394C380.418 262.247 378.74 260.582 377.582 261.66C372.794 266.119 368.155 270.719 363.649 275.446V275.424C363.621 274.598 363.46 273.736 363.305 272.925C362.979 271.21 362.516 269.553 361.915 267.913C361.327 266.305 360.687 264.685 359.815 263.206C358.963 261.764 357.741 260.656 356.408 259.657C356.117 259.439 355.787 259.798 355.846 260.088C356.171 261.657 356.508 263.179 357.111 264.669C357.704 266.136 358.373 267.564 358.907 269.055C359.439 270.543 359.92 272.059 360.346 273.578C360.564 274.355 360.726 275.176 360.998 275.934C361.174 276.426 361.386 277.037 361.759 277.445C359.281 280.093 356.834 282.769 354.456 285.512C348.376 292.526 342.557 299.764 336.974 307.175C336.801 305.924 336.537 304.687 336.265 303.453C335.616 300.514 334.872 297.59 333.992 294.71C333.113 291.831 332.066 288.995 330.946 286.201C329.846 283.456 328.657 280.644 326.26 278.77C325.94 278.519 325.449 278.662 325.437 279.109C325.355 281.946 326.45 284.557 327.457 287.158C328.472 289.784 329.387 292.446 330.227 295.133C331.065 297.823 331.873 300.516 332.56 303.248C332.91 304.645 333.192 306.058 333.548 307.452C333.709 308.084 333.892 308.713 334.104 309.33C334.209 309.635 334.417 309.995 334.596 310.354C334.282 310.78 333.957 311.199 333.644 311.626C325.53 322.704 318.096 334.321 311.297 346.283C311.235 344.96 311.104 343.642 310.924 342.322C310.359 338.189 309.634 334.077 308.769 329.995C307.906 325.92 306.895 321.882 305.703 317.889C305.127 315.963 304.562 314.017 303.872 312.129C303.504 311.115 303.094 310.081 302.513 309.171C301.932 308.26 301.172 307.523 300.552 306.639C300.267 306.231 299.434 306.314 299.497 306.923C299.606 307.944 299.503 308.938 299.613 309.951C299.717 310.901 299.924 311.805 300.194 312.721C300.759 314.652 301.444 316.552 302.024 318.481C303.186 322.337 304.249 326.228 305.184 330.144C306.118 334.06 306.917 338.008 307.579 341.978C307.916 343.998 308.271 346.033 308.42 348.076C308.488 349.03 308.495 349.987 308.53 350.942C308.535 351.047 308.534 351.154 308.533 351.261C305.4 356.962 302.391 362.725 299.535 368.548C297.647 372.399 295.826 376.283 294.066 380.193C293.766 380.539 293.474 380.895 293.175 381.27C292.886 381.635 292.911 382.047 293.114 382.328C292.681 383.304 292.249 384.279 291.824 385.258C290.88 387.437 289.959 389.627 289.055 391.823C289.008 391.039 288.947 390.259 288.879 389.486C288.588 386.139 288.033 382.759 287.26 379.487C285.691 372.851 283.144 366.358 279.879 360.371C278.195 357.282 276.347 353.107 272.683 352.041C272.254 351.917 271.858 352.259 271.841 352.68C271.711 355.959 274.035 358.681 275.558 361.413C277.119 364.211 278.539 367.109 279.762 370.07C282.228 376.038 284.028 382.354 285.122 388.715C285.652 391.792 285.881 394.972 286.566 398.025C286.507 398.175 286.446 398.323 286.389 398.474C286.128 399.144 285.838 399.811 285.611 400.493C285.328 401.335 285.278 402.227 285.177 403.107C285.088 403.88 285.803 404.655 286.508 404.848C287.323 405.07 288.094 404.68 288.557 404.018C290.172 401.704 290.981 398.911 292.034 396.304C293.042 393.804 294.065 391.312 295.122 388.834C296.389 385.862 297.707 382.911 299.047 379.971C299.161 379.902 299.272 379.83 299.386 379.763C301.091 378.758 302.776 377.725 304.523 376.792C307.988 374.941 311.594 373.369 315.315 372.097C322.895 369.502 330.743 368.257 338.746 368.111C341.242 368.066 343.739 368.13 346.233 368.244C347.481 368.301 348.726 368.409 349.974 368.365C350.683 368.341 351.406 368.327 352.083 368.092C352.619 367.907 353.029 367.493 353.46 367.138C353.808 366.85 353.736 366.289 353.46 365.99C352.704 365.174 352.033 364.733 350.911 364.525C349.635 364.288 348.358 364.206 347.065 364.138C344.71 364.013 342.352 363.929 339.994 363.933C335.696 363.94 331.418 364.364 327.189 365.123C319.186 366.558 311.402 369.285 304.241 373.116C303.331 373.602 302.424 374.103 301.527 374.624C301.621 374.428 301.708 374.228 301.802 374.031C306.538 364.092 311.701 354.357 317.263 344.853C319.155 341.62 321.108 338.421 323.088 335.236C323.888 335.083 324.683 334.898 325.461 334.753C327.174 334.432 328.871 334.082 330.606 333.892C334.245 333.49 337.857 333.291 341.514 333.568C345.109 333.84 348.668 334.54 352.12 335.571C353.809 336.077 355.446 336.717 357.109 337.3C358.825 337.902 360.514 338.253 362.308 338.477C362.79 338.536 362.892 337.919 362.66 337.628C362.246 337.11 361.839 336.525 361.336 336.093C360.771 335.606 360.107 335.206 359.492 334.786C358.215 333.914 356.696 333.368 355.248 332.853C352.476 331.867 349.623 331.139 346.716 330.679C340.803 329.746 334.659 329.676 328.79 330.948C327.676 331.19 326.447 331.459 325.229 331.816C333.95 318.098 343.495 304.871 353.784 292.303C354.374 292.082 354.958 291.825 355.558 291.57C357.128 290.903 358.717 290.287 360.315 289.69C363.524 288.493 366.805 287.541 370.194 287.001C373.017 286.551 376.005 286.523 378.821 287.042C380.282 287.311 381.675 287.757 383.08 288.229C384.517 288.713 385.814 289.367 387.301 289.703C388.259 289.918 389.251 288.87 388.651 287.955Z" fill="#A1DAA1"/>
<path d="M56.7194 214.899C57.4103 212.867 59.2984 211.999 61.2929 212.861C63.8889 213.983 66.8011 215.316 69.7047 214.998C71.3848 214.813 73.1451 213.689 73.5821 211.984C73.9323 210.624 72.5257 209.795 71.2247 209.273C68.9089 208.344 66.4347 207.918 64.2255 206.704C55.0469 201.669 53.1018 190.025 54.0688 180.568C54.7896 173.52 56.7049 166.586 56.2542 159.456C56.1264 157.429 58.1874 155.824 60.1282 156.302C71.9727 159.217 84.7357 162.577 93.0614 172.116C96.8613 176.47 99.5051 181.638 100.101 187.427C100.349 189.832 100.055 192.358 100.606 194.726C101.037 196.582 102.047 197.797 103.786 197.628C110.079 197.017 109.375 188.295 108.989 183.797C108.779 181.359 111.552 180.012 113.553 180.977C119.741 183.96 125.932 187.284 130.336 192.684C134.228 197.456 136.369 204.351 134.573 210.393C133.657 213.477 131.767 215.835 129.732 218.259C128.373 219.877 126.773 222.13 127.518 223.806C127.749 224.326 128.022 224.707 128.739 225.274C129.185 225.625 130.314 226.15 131.038 226.34C132.835 226.814 134.825 226.777 136.368 225.973C141.851 223.112 142.914 215.109 143.817 209.721C144.123 207.895 146.55 206.856 148.112 207.808C153.792 211.268 156.923 217.138 157.83 223.59C158.794 230.456 156.725 237.304 153.249 243.201C151.381 246.372 149.132 249.331 146.75 252.133C145.662 253.415 144.538 254.665 143.395 255.898C142.535 256.825 140.937 258.065 140.786 259.43C140.505 261.98 144.4 263.454 146.371 263.553C149.722 263.722 152.868 262.393 155.529 260.453C162.184 255.598 164.653 247.067 166.92 239.58C167.739 236.873 171.359 236.763 172.372 239.393C179.841 258.773 172.254 281.588 156.431 294.502C155.499 295.263 154.534 295.98 153.547 296.664C151.988 297.987 150.351 299.22 148.683 300.342C140.555 305.814 131.102 308.832 121.446 310.199C111.504 311.609 101 311.336 91.1291 309.485C82.1328 307.799 73.1945 304.051 67.3557 296.782C61.563 289.57 59.3384 278.93 64.1607 270.654C64.8091 269.541 66.0462 268.995 67.3072 269.251C71.1565 270.032 76.4713 270.914 79.9534 268.546C84.0498 265.761 81.0465 260.881 77.9819 258.678C73.1987 255.241 66.7338 255.521 61.2494 253.972C59.7738 253.555 57.9335 253.104 56.6878 252.2C55.2284 251.143 55.058 248.748 54.7282 247.101C54.0586 243.768 53.6155 240.39 53.4784 236.992C53.1767 229.514 54.3116 221.983 56.7194 214.899Z" fill="#D5F5D5"/>
<path d="M62.9642 190.228C63.1056 188.778 65.7324 189.099 66.6653 189.149C68.3284 189.238 70.0546 189.753 71.6512 190.211C73.2121 190.659 74.7465 191.2 76.2418 191.831C77.3426 192.296 78.4348 192.804 79.4956 193.368C78.6853 192.065 77.8827 190.757 77.0546 189.464C74.3256 185.205 71.2278 181.116 68.745 176.712C68.1427 175.644 69.7155 174.669 70.5044 175.548C73.5333 178.924 76.0143 182.85 78.5567 186.595C81.0471 190.265 83.4761 193.977 85.8438 197.727C87.4234 200.23 88.9613 202.758 90.4804 205.299C90.4813 205.276 90.483 205.25 90.483 205.227C90.5605 202.663 90.7914 200.095 91.0564 197.546C91.3145 195.056 91.6391 192.575 92.0719 190.109C92.2986 188.814 92.5175 187.508 92.814 186.226C92.9427 185.669 93.1063 185.109 93.3337 184.583C93.6064 183.954 94.0954 183.551 94.4405 182.974C94.6467 182.63 95.2703 182.744 95.3138 183.154C95.376 183.746 95.6299 184.281 95.6589 184.882C95.6861 185.466 95.6154 186.068 95.5294 186.643C95.3436 187.878 95.0855 189.105 94.8904 190.338C94.4984 192.81 94.1389 195.287 93.856 197.772C93.58 200.193 93.3704 202.621 93.2281 205.052C93.1557 206.295 93.0594 207.552 92.9265 208.79C92.9077 208.961 92.8839 209.138 92.8617 209.313C95.1195 213.201 97.3066 217.129 99.4204 221.095C103.859 229.425 107.898 237.955 111.587 246.634C111.802 243.251 112.463 239.877 113.016 236.542C113.625 232.869 114.321 229.209 115.034 225.555C115.405 223.654 115.73 221.742 116.346 219.901C116.957 218.076 117.74 216.331 118.575 214.598C118.806 214.118 119.466 214.253 119.479 214.791C119.521 216.651 119.526 218.485 119.384 220.342C119.243 222.202 118.841 224.008 118.485 225.835C117.798 229.356 117.165 232.884 116.53 236.415C115.907 239.882 115.164 243.369 114.865 246.884C114.72 248.603 114.773 250.324 114.874 252.044C114.929 252.976 114.943 253.908 115.002 254.84C115.004 254.878 114.995 254.92 114.994 254.96C117.038 260.137 118.976 265.358 120.782 270.622C122.453 275.494 124.032 280.396 125.504 285.33C125.638 285.782 125.76 286.236 125.893 286.687C126.197 286.227 126.508 285.783 126.81 285.372C128.353 283.27 130.213 281.425 132.33 279.896C134.448 278.366 136.747 277.097 139.218 276.229C140.456 275.794 141.719 275.401 143.034 275.312C144.437 275.216 145.649 275.64 146.957 276.059C147.413 276.204 147.46 276.899 147.017 277.095C145.98 277.553 145.039 278.184 143.976 278.6C142.918 279.013 141.8 279.261 140.73 279.642C138.583 280.406 136.512 281.466 134.674 282.81C132.879 284.122 131.206 285.677 129.81 287.406C129.091 288.296 128.458 289.242 127.833 290.198C127.617 290.528 127.406 290.871 127.191 291.212C127.31 291.634 127.438 292.052 127.554 292.474C128.266 295.052 129.004 297.491 128.702 300.187C128.579 301.287 126.936 302.077 126.196 301.007C125.554 300.076 124.945 299.166 124.563 298.094C124.183 297.026 123.918 295.898 123.619 294.805C123.017 292.605 122.416 290.404 121.783 288.212C120.582 284.053 119.303 279.916 117.954 275.801C117.222 275.144 116.491 274.485 115.729 273.86C113.253 271.831 110.646 270 107.914 268.331C102.494 265.015 96.4776 262.591 90.2521 261.275C88.4978 260.904 86.7256 260.677 84.9535 260.411C84.0504 260.276 83.1285 260.136 82.4571 259.455C81.7431 258.731 81.5157 257.517 82.2109 256.689C83.022 255.724 84.2847 255.883 84.8546 256.741C84.9117 256.75 84.9824 256.76 85.0881 256.772C85.4664 256.813 85.8447 256.839 86.2213 256.888C86.9744 256.989 87.725 257.117 88.4722 257.253C90.0663 257.545 91.6519 257.896 93.2187 258.311C96.2075 259.104 99.1316 260.137 101.954 261.396C107.082 263.68 111.868 266.64 116.097 270.313C113.77 263.599 111.245 256.952 108.528 250.385C106.402 245.247 104.165 240.15 101.839 235.092C100.854 234.653 99.8848 234.185 98.9297 233.758C96.4495 232.647 93.9071 231.646 91.3469 230.733C88.7798 229.816 86.1659 229.03 83.5179 228.378C82.2279 228.06 80.9184 227.795 79.6361 227.448C78.3215 227.092 77.0444 226.764 76.1779 225.678C75.9351 225.373 76.0484 225.026 76.35 224.828C77.53 224.049 78.9332 224.18 80.3024 224.358C81.6358 224.532 82.9734 224.853 84.2753 225.181C87.0349 225.877 89.7579 226.719 92.4289 227.703C95.0164 228.656 97.5085 229.788 99.9589 231.047C95.3342 221.268 90.327 211.664 84.8947 202.314C84.0768 200.905 83.2333 199.511 82.3949 198.115C81.6912 197.749 81.0079 197.335 80.3305 196.97C78.9162 196.207 77.4746 195.483 75.9947 194.856C74.4526 194.201 72.8687 193.641 71.2567 193.182C69.6839 192.734 68.083 192.508 66.4975 192.132C65.6012 191.92 62.8296 191.61 62.9642 190.228Z" fill="#A1DAA1"/>
<path d="M17.968 283.235C17.6766 282.941 17.3776 282.652 17.0538 282.384C16.7275 282.112 16.4617 281.812 16.2495 281.496C15.2408 280.534 14.1937 279.602 13.0648 278.708C11.3982 277.391 11.728 273.974 14.0428 273.491C25.089 271.19 36.2749 269.682 47.5494 269.128C52.5302 268.883 57.6474 268.581 62.6094 269.229C67.0884 269.815 71.5793 271.594 74.3082 275.34C76.0412 277.717 76.6256 280.71 78.1022 283.147C78.7838 284.271 79.1348 284.694 80.0498 285.381C80.1112 285.427 80.1461 285.454 80.1844 285.485C80.193 285.48 80.2194 285.488 80.3046 285.531C80.3276 285.543 80.3872 285.568 80.4579 285.597C82.219 280.097 82.6714 274.155 82.8708 268.444C82.9117 267.259 83.6231 266.238 84.8986 266.133C91.6686 265.581 98.154 266.963 103.835 270.756C109.726 274.69 113.515 280.934 114.771 287.829C115.116 289.719 115.23 291.628 115.122 293.546C115.112 293.711 115.095 293.877 115.084 294.041C115.348 294.609 115.503 294.86 115.963 295.17C116.44 295.49 117.001 295.556 117.141 295.545C118.438 295.442 119.496 294.641 120.637 293.547C123.545 290.76 125.042 286.108 127.998 282.98C131.419 279.359 136.528 278.26 141.132 280.202C144.959 281.816 148.286 284.688 150.975 287.803C153.548 290.781 155.791 294.446 156.374 298.395C157.026 302.816 155.477 306.822 152.408 310.01C149.705 312.816 145.699 314.558 143.485 317.793C141.506 320.685 143.141 324.319 145.445 326.525C148.154 329.119 152.053 330.358 155.733 330.598C164.009 331.136 171.572 326.129 174.408 318.383C175.119 316.442 175.47 314.463 175.538 312.4C175.604 310.39 178.037 309.412 179.62 310.446C193.832 319.737 202.405 336.098 202.686 352.922C202.723 355.202 202.641 357.526 202.303 359.785C201.959 362.089 201.006 364.461 200.136 366.618C199.943 367.094 199.545 367.357 199.112 367.461C194.849 377.021 186.739 384.385 179.275 391.496C171.182 399.206 162.448 406.215 151.465 409.233C141.724 411.91 131.337 411.375 121.397 410.336C110.338 409.18 96.2557 406.938 92.7608 394.548C92.1908 392.525 93.98 390.644 95.7948 390.209C96.4943 390.041 97.2185 389.557 97.5806 389.089C98.2826 388.187 98.6873 387.219 98.8535 386.269C99.0929 384.895 99.0528 384.135 98.7717 382.839C98.5374 381.76 97.9614 380.696 97.1035 379.792C93.1451 375.623 85.9857 375.936 80.6019 377.299C76.917 378.231 73.4 379.707 69.825 380.973C67.9889 381.623 66.135 382.236 64.258 382.758C62.9212 383.13 61.6526 383.314 60.4087 382.474C59.434 381.817 58.5266 380.713 57.7308 379.854C52.5354 374.236 48.8769 367.328 46.8943 359.972C45.9886 356.615 44.8529 352.332 46.251 348.978C48.139 344.45 53.1164 344.29 57.2827 343.61C60.5109 343.083 63.8934 342.295 66.3608 340.024C67.9898 338.524 69.3214 336.096 68.4746 333.819C68.1534 332.957 67.4828 332.205 66.6683 331.624C65.5079 330.794 64.2129 330.286 62.802 329.931C59.7952 329.174 56.7468 329.495 53.7128 329.853C46.7639 330.673 39.2833 331.334 33.5068 326.557C26.937 321.124 24.8436 312.265 24.0291 304.17C23.3637 297.571 23.1533 289.001 18.4247 283.728C18.2747 283.561 18.1205 283.398 17.968 283.235Z" fill="#A1DAA1"/>
<path d="M35.5799 312.624C36.3663 309.461 39.2222 307.244 41.9486 305.678C44.899 303.983 48.0898 302.887 51.4262 302.241C54.9543 301.557 58.5506 301.583 62.1231 301.836C62.958 301.895 63.7896 301.985 64.6194 302.085C55.3258 296.564 45.8592 291.295 36.2385 286.375C34.825 285.652 35.8559 283.529 37.3077 284.165C43.3067 286.803 49.2102 289.62 55.031 292.602C55.0293 292.595 55.0268 292.588 55.0242 292.581C54.7771 291.792 54.6434 290.926 54.5198 290.109C54.2591 288.383 54.1466 286.667 54.1697 284.922C54.1918 283.21 54.2583 281.471 54.5914 279.788C54.9169 278.147 55.7041 276.7 56.6302 275.319C56.8322 275.017 57.2641 275.247 57.3042 275.54C57.518 277.13 57.7037 278.676 57.6296 280.282C57.5563 281.861 57.3979 283.429 57.3885 285.011C57.3791 286.59 57.4277 288.179 57.5299 289.754C57.5819 290.559 57.7003 291.386 57.6961 292.191C57.6927 292.714 57.6952 293.36 57.4788 293.868C60.696 295.553 63.8927 297.275 67.0485 299.084C75.1118 303.706 83.0064 308.627 90.7341 313.79C90.4827 312.551 90.3209 311.298 90.1692 310.042C89.8063 307.056 89.5396 304.05 89.4143 301.043C89.2891 298.037 89.3377 295.014 89.4689 292.009C89.5967 289.058 89.7867 286.012 91.4268 283.456C91.6466 283.114 92.1569 283.088 92.3171 283.506C93.3361 286.157 93.1674 288.982 93.0796 291.767C92.9919 294.58 93.0106 297.393 93.1095 300.205C93.21 303.019 93.3404 305.827 93.5985 308.632C93.7306 310.065 93.9333 311.491 94.0603 312.925C94.1174 313.574 94.154 314.228 94.1583 314.88C94.1608 315.203 94.0833 315.61 94.0322 316.008C94.471 316.307 94.9165 316.596 95.3536 316.897C106.686 324.688 117.556 333.211 127.942 342.269C127.561 340.999 127.247 339.713 126.981 338.408C126.143 334.321 125.464 330.201 124.927 326.064C124.39 321.934 124.004 317.79 123.806 313.629C123.711 311.622 123.6 309.6 123.623 307.59C123.636 306.511 123.679 305.4 123.925 304.35C124.171 303.301 124.645 302.356 124.937 301.317C125.071 300.838 125.885 300.643 126.026 301.239C126.263 302.239 126.689 303.143 126.921 304.135C127.138 305.066 127.242 305.987 127.293 306.94C127.399 308.95 127.383 310.967 127.474 312.979C127.656 317 127.943 321.022 128.36 325.026C128.777 329.031 129.331 333.02 130.023 336.985C130.375 339.001 130.714 341.039 131.253 343.017C131.504 343.939 131.815 344.845 132.099 345.758C132.13 345.858 132.165 345.96 132.202 346.061C137.05 350.413 141.802 354.864 146.428 359.423C149.488 362.438 152.495 365.505 155.453 368.618C155.851 368.846 156.244 369.085 156.652 369.342C157.045 369.591 157.158 369.988 157.06 370.321C157.791 371.1 158.523 371.878 159.249 372.663C160.862 374.409 162.458 376.173 164.04 377.948C163.824 377.195 163.624 376.437 163.432 375.687C162.597 372.43 161.998 369.058 161.643 365.715C160.924 358.935 161.174 351.97 162.271 345.245C162.836 341.776 163.196 337.229 166.301 335.018C166.664 334.76 167.153 334.953 167.308 335.345C168.517 338.399 167.228 341.73 166.696 344.809C166.15 347.963 165.771 351.165 165.598 354.362C165.25 360.806 165.644 367.36 166.721 373.724C167.242 376.803 168.081 379.879 168.448 382.986C168.551 383.108 168.659 383.229 168.763 383.35C169.231 383.899 169.726 384.434 170.168 385.002C170.712 385.704 171.056 386.529 171.443 387.326C171.784 388.028 171.366 388.994 170.764 389.407C170.068 389.886 169.211 389.771 168.555 389.297C166.262 387.644 164.573 385.273 162.714 383.157C160.934 381.13 159.141 379.114 157.322 377.122C155.14 374.732 152.918 372.379 150.677 370.044C150.547 370.017 150.418 369.986 150.289 369.959C148.346 369.57 146.413 369.149 144.454 368.843C140.568 368.234 136.644 367.934 132.71 367.955C124.695 367.998 116.873 369.4 109.271 371.892C106.899 372.67 104.563 373.55 102.247 374.477C101.088 374.941 99.9485 375.452 98.7548 375.821C98.0775 376.03 97.3916 376.255 96.6751 376.256C96.1076 376.257 95.5828 376.001 95.0588 375.807C94.6337 375.65 94.5161 375.096 94.678 374.723C95.121 373.704 95.6092 373.068 96.5984 372.503C97.7239 371.861 98.9022 371.364 100.1 370.874C102.282 369.984 104.479 369.128 106.707 368.358C110.766 366.952 114.945 365.948 119.188 365.274C127.219 364 135.471 364.017 143.502 365.28C144.521 365.44 145.544 365.614 146.563 365.813C146.41 365.657 146.261 365.498 146.106 365.343C138.34 357.517 130.238 350.024 121.835 342.878C118.979 340.449 116.074 338.07 113.148 335.715C112.343 335.833 111.531 335.921 110.748 336.039C109.025 336.298 107.306 336.526 105.606 336.915C102.038 337.733 98.5614 338.731 95.202 340.194C91.8979 341.632 88.7711 343.461 85.8538 345.57C84.4276 346.601 83.095 347.743 81.7191 348.84C80.2979 349.972 78.8206 350.859 77.2018 351.659C76.7655 351.874 76.4639 351.325 76.5866 350.974C76.8056 350.349 76.9964 349.663 77.3279 349.09C77.7002 348.445 78.1935 347.849 78.6348 347.251C79.5516 346.008 80.804 344.994 82.0002 344.031C84.2904 342.19 86.7408 340.565 89.3334 339.177C94.6047 336.352 100.382 334.268 106.344 333.541C107.475 333.404 108.724 333.253 109.993 333.19C97.211 323.107 83.815 313.756 69.9334 305.273C69.3046 305.258 68.6673 305.208 68.0164 305.164C66.3132 305.05 64.6092 304.991 62.9027 304.953C59.4768 304.876 56.0628 305.056 52.6855 305.66C49.8713 306.163 47.041 307.117 44.5557 308.533C43.2658 309.266 42.0977 310.145 40.9287 311.052C39.7334 311.982 38.7254 313.025 37.433 313.83C36.6006 314.348 35.3166 313.684 35.5799 312.624Z" fill="#D5F5D5"/>
<path d="M308.891 106.714C307.749 107.031 306.67 107.48 305.614 107.98C305.255 106.943 304.81 105.938 304.224 104.988C302.162 101.639 295.884 101.76 295.109 106.173C294.481 109.748 294.941 113.196 295.058 116.809C295.173 120.385 298.881 124.066 302.714 122.613C306.803 121.064 311.401 119.46 314.469 116.251C318.356 112.184 314.515 105.154 308.891 106.714Z" fill="#FFC447"/>
<path d="M370.051 223.753C369.221 221.875 366.787 220.241 364.642 221.112C363.583 221.542 362.56 221.966 361.593 222.456C361.42 221.506 361.249 220.554 360.952 219.617C360.369 217.776 357.983 217.516 356.938 219.095C355.028 221.979 355.539 225.953 356.448 229.125C356.887 230.66 358.234 231.54 359.771 231.644C362.863 231.851 365.441 230.771 368.175 229.451C370.204 228.471 370.903 225.683 370.051 223.753Z" fill="#FFC447"/>
<path d="M390.995 380.599C389.687 380.324 388.34 380.319 386.995 380.488C387.286 378.304 387.643 376.12 387.004 374.019C386.25 371.539 383.055 370.588 381.163 372.485C377.754 375.901 378.409 381.154 377.693 385.509C377.194 388.543 378.942 391.512 382.315 391.548C385.352 391.58 389.62 391.223 392.157 389.449C395.303 387.248 395.417 381.53 390.995 380.599Z" fill="#FFC447"/>
<path d="M61.4799 394.865C60.5989 391.446 56.2231 390.493 53.7659 392.838C53.0724 393.499 52.5953 394.274 52.188 395.088C49.8271 392.971 47.099 391.222 44.3394 391.295C43.1781 391.326 42.0075 392.3 42.0841 393.541C42.3517 397.855 46.6432 402.084 49.0509 405.481C50.789 407.932 54.2771 408.803 56.5877 406.447C59.5416 403.434 62.6131 399.264 61.4799 394.865Z" fill="#FFC447"/>
<path d="M47.9271 239.249C46.6022 238.058 44.9059 237.867 43.3297 238.658C41.5056 239.574 40.743 241.106 40.0154 242.906C39.9081 243.172 39.8271 243.366 39.7487 243.545C39.2213 243.126 38.7144 242.779 38.4307 242.624C37.0965 241.895 35.3004 241.586 33.8725 242.184C32.3363 242.828 30.9782 244.333 31.6062 246.156C33.2079 250.804 37.2174 256.593 42.9045 254.404C47.8035 252.518 52.5534 243.405 47.9271 239.249Z" fill="#FFC447"/>
<path d="M83.6154 127.643C81.5025 127.063 79.8104 128.369 78.7795 130.063C78.5213 130.487 78.31 130.904 78.1132 131.335C77.6455 130.627 77.2893 129.859 76.6128 129.301C73.7459 126.939 70.0056 129.192 70.5909 132.791C71.0382 135.544 73.9819 138.974 76.4084 140.253C79.9433 142.116 83.0489 139.958 84.5399 136.759C85.7821 134.091 87.9879 128.841 83.6154 127.643Z" fill="#FFC447"/>
<path d="M134.672 71.9381C132.868 72.9862 131.686 74.6491 130.494 76.3214C128.955 74.6661 127.391 73.1134 125.219 71.9254C122.519 70.4499 118.891 72.9074 119.853 76.0314C120.809 79.1368 122.33 81.3602 124.318 83.9093C126.134 86.2379 128.176 88.5792 131.467 88.1468C136.329 87.5074 141.333 80.4537 141.668 75.933C141.933 72.3553 137.545 70.2684 134.672 71.9381Z" fill="#FFC447"/>
<path d="M301.254 68.5665C298.686 68.5665 297.544 70.7501 296.71 72.971C296.571 73.3424 296.465 73.624 296.261 73.9038C296.246 73.8852 296.229 73.8614 296.206 73.8283C295.673 73.01 294.974 72.4826 294.113 72.056C292.645 71.3284 290.395 72.179 290.548 74.087C290.432 74.3083 290.366 74.5432 290.366 74.7959C290.288 75.1953 290.235 75.6414 290.237 76.0509C290.24 77.0635 290.548 77.9768 291.097 78.8129C292.263 80.5852 294.405 81.5316 296.485 81.6138C300.9 81.7877 304.309 78.338 304.965 74.1531C305.321 71.8856 304.115 68.5665 301.254 68.5665Z" fill="#FFC447"/>
<path d="M161.99 40.5991C160.249 40.0852 158.888 40.8068 157.305 41.4327C156.967 41.5675 156.623 41.6777 156.282 41.8007C156.276 41.6498 156.268 41.4997 156.262 41.3479C156.207 40.0021 156.245 38.5003 155.079 37.6056C154.4 37.0833 153.575 36.8475 152.781 37.3097C150.332 38.736 150.88 43.1329 150.882 45.5641C150.882 47.4993 152.667 48.5906 154.435 48.2582C157.262 47.7291 162.093 47.1838 163.524 44.3515C164.273 42.8683 163.653 41.0901 161.99 40.5991Z" fill="#FFC447"/>
<path d="M242.723 36.0458C167.501 17.8164 139.571 82.1295 142.501 121.213C145.432 160.296 126.677 164.38 131.952 180.129C137.226 195.879 124.918 213.38 135.468 229.13C146.018 244.881 249.755 253.631 262.063 240.797C274.371 227.963 279.06 213.964 274.957 197.631C270.855 181.296 290.196 171.38 285.507 152.713C280.818 134.046 310.122 52.3792 242.723 36.0458Z" fill="#FFE9B0"/>
<path d="M302.308 270.159C302.308 270.159 305.175 286.725 307.259 300.317C307.259 300.317 299.573 308.269 298.596 308.659C297.619 309.047 278.473 309.825 276.91 308.269C275.348 306.714 277.692 285.519 280.232 281.63C282.771 277.741 288.047 269.575 289.414 267.631C290.782 265.686 302.308 270.159 302.308 270.159Z" fill="#FFBB9E"/>
<path d="M121.011 252.464C121.011 252.464 118.862 273.658 121.597 297.965C123.492 314.804 151.488 316.242 151.878 316.632C152.269 317.02 159.693 308.854 159.497 304.576C159.302 300.297 160.084 289.993 156.958 282.409C153.832 274.825 149.339 261.409 145.627 258.492C141.915 255.576 130.974 252.659 129.802 253.047C128.63 253.436 121.011 252.464 121.011 252.464Z" fill="#FFBB9E"/>
<path d="M305.889 269.964C305.889 269.964 302.763 232.112 263.692 217.075C263.692 217.075 252.49 229.52 251.708 229.26C250.927 229.001 156.632 198.668 156.632 198.668C130.844 203.334 111.113 241.121 109.29 250.715C109.29 250.715 119.383 266.075 152.725 272.038L152.204 329.076C152.204 329.076 144.733 404.126 136.863 424H294.304C292.292 415.902 282.814 376.013 276.325 318.576C276.22 317.646 292.866 275.149 292.866 275.149C292.866 275.149 297.294 275.669 305.889 269.964Z" fill="#FF9F00"/>
<path d="M166.245 215.396C164.394 214.938 162.265 215.986 160.599 216.717C158.902 217.462 157.257 218.305 155.664 219.251C154.09 220.184 152.462 221.011 150.909 221.988C149.106 223.123 147.617 224.494 146.229 226.089C140.84 232.28 136.581 239.815 134.017 247.599C132.32 252.752 131.654 258.389 133.18 263.667C133.351 264.259 133.666 264.803 134.073 265.268C133.725 265.177 133.377 265.085 133.039 264.981C131.685 264.565 130.342 264.109 129.017 263.61C126.44 262.64 123.984 261.427 121.621 260.018C119.485 258.746 117.481 257.297 115.674 255.588C114.76 254.724 113.899 253.802 113.104 252.827C112.327 251.874 111.636 250.8 110.792 249.909C110.249 249.338 109.261 249.93 109.476 250.673C110.166 253.058 112.073 255.247 113.735 257.033C115.572 259.009 117.674 260.74 119.911 262.25C122.324 263.878 125.004 265.128 127.698 266.218C129.072 266.774 130.468 267.266 131.882 267.709C133.309 268.156 134.858 268.783 136.368 268.731C137.408 268.694 137.923 267.563 137.467 266.783C137.778 266.768 138.091 266.717 138.4 266.617C140.568 265.919 142.021 263.696 141.364 261.421C141.226 260.944 141.099 260.464 141 259.978C140.976 259.865 140.957 259.752 140.938 259.639C140.926 259.586 140.904 259.475 140.89 259.379C140.882 259.336 140.875 259.293 140.866 259.249C140.875 259.291 140.88 259.314 140.886 259.348C140.882 259.321 140.879 259.293 140.878 259.272C140.809 258.22 140.767 257.181 140.831 256.125C140.846 255.877 140.866 255.629 140.889 255.381C140.894 255.33 140.912 255.167 140.927 255.03C140.948 254.888 140.974 254.7 140.984 254.642C141.026 254.394 141.072 254.146 141.121 253.898C141.33 252.839 141.599 251.792 141.911 250.757C142.207 249.779 142.544 248.811 142.909 247.856C143.069 247.438 143.235 247.024 143.405 246.611C143.429 246.554 143.529 246.319 143.587 246.183C143.668 245.999 143.782 245.742 143.802 245.697C144.527 244.073 145.309 242.476 146.151 240.909C147.821 237.802 149.756 234.871 151.859 232.04C151.882 232.009 151.893 231.992 151.912 231.967C152.012 231.842 152.111 231.716 152.211 231.591C152.481 231.255 152.756 230.923 153.034 230.594C153.771 229.724 154.449 228.823 155.119 227.902C155.604 227.236 156.042 226.539 156.533 225.875C156.552 225.85 156.559 225.841 156.572 225.823C156.583 225.809 156.587 225.804 156.602 225.786C156.7 225.661 156.8 225.536 156.901 225.412C157.234 225.001 157.575 224.597 157.923 224.198C159.09 222.865 160.573 221.73 162.057 220.764C163.678 219.708 165.882 218.915 167.037 217.334C167.54 216.645 167.014 215.586 166.245 215.396Z" fill="#FC8212"/>
<path d="M140.938 259.638C140.953 259.706 140.947 259.657 140.886 259.347C140.887 259.358 140.888 259.369 140.89 259.379C140.906 259.466 140.922 259.552 140.938 259.638Z" fill="#FC8212"/>
<path d="M305.609 268.694C304.513 268.492 303.576 269.406 302.69 269.94C301.827 270.462 300.946 270.957 300.053 271.425C299.959 271.474 299.865 271.523 299.77 271.573C299.86 271.391 299.948 271.208 300.018 271.012C300.512 269.639 300.445 267.831 300.533 266.372C300.615 265.017 300.657 263.659 300.658 262.302C300.659 259.418 300.484 256.498 299.79 253.69C299.173 251.2 297.636 248.74 296.277 246.574C295.588 245.476 294.837 244.425 294.021 243.416C293.337 242.57 292.405 241.389 291.286 241.158C290.779 241.055 290.27 241.302 290.119 241.819C289.829 242.817 290.274 244.055 290.524 245.036C290.813 246.169 291.085 247.312 291.302 248.464C291.698 250.553 291.565 252.688 291.804 254.952C292.057 257.33 292.241 259.713 292.229 262.105C292.216 264.721 291.931 267.295 291.756 269.9C291.619 271.923 293.375 273.653 295.26 273.979C295.138 274.124 295.039 274.284 294.997 274.47C294.932 274.757 295.046 275.003 295.281 275.167C296.088 275.725 297.376 275.001 298.161 274.686C299.154 274.287 300.145 273.873 301.1 273.389C302.001 272.933 302.888 272.45 303.758 271.94C304.18 271.693 304.599 271.439 305.014 271.18C305.556 270.841 306.123 270.516 306.266 269.845C306.365 269.383 306.132 268.791 305.609 268.694Z" fill="#FC8212"/>
<path d="M278.501 333.378C278.037 332.548 276.228 332.939 275.521 333.176C274.468 333.528 273.117 333.976 271.884 334.318C270.321 334.754 268.775 335.276 267.235 335.814C267.212 334.526 266.574 333.23 265.573 332.461C263.926 331.193 261.558 331.313 260.052 332.788C258.778 334.037 257.68 335.5 256.465 336.812C255.821 337.508 255.167 338.195 254.507 338.874C254.285 338.968 254.068 339.071 253.859 339.201C252.838 339.837 251.789 340.311 250.936 341.19C249.603 342.567 248.377 344.048 247.053 345.436C245.736 346.815 244.387 348.158 243.017 349.48C240.848 351.32 238.658 353.134 236.446 354.92C235.042 356.053 233.635 357.181 232.234 358.316C231.563 358.858 230.893 359.403 230.22 359.941C229.938 360.167 229.658 360.39 229.375 360.612C229.232 360.726 229.087 360.838 228.943 360.95C228.904 360.978 228.861 361.011 228.798 361.058C227.261 362.192 225.676 363.261 224.048 364.261C223.507 364.593 223.019 364.97 222.512 365.345C222.637 365.25 221.737 365.889 221.649 365.956C221.244 366.269 221.021 366.659 220.692 367.036C220.723 366.998 220.717 366.996 220.569 367.142C220.335 367.033 220.103 366.924 219.879 366.809C218.357 366.031 216.871 365.187 215.416 364.291C213.958 363.394 212.535 362.442 211.138 361.453C210.484 360.991 209.836 360.519 209.193 360.04C208.897 359.818 208.602 359.595 208.307 359.371C208.448 359.476 207.79 358.97 207.591 358.814C204.865 356.669 202.224 354.418 199.6 352.15C196.805 349.731 194.033 347.158 191.038 344.986C189.475 343.853 187.8 342.832 186.032 342.052C185.843 341.548 185.544 341.098 185.116 340.761C183.976 339.865 183.171 339.509 181.754 339.367C181.251 339.317 180.747 339.274 180.243 339.221C178.997 339.087 177.752 338.963 176.506 338.835C175.192 338.699 173.879 338.561 172.568 338.41C171.979 338.342 171.39 338.272 170.8 338.197C170.652 338.177 170.454 338.151 170.347 338.137C170.088 338.101 169.83 338.065 169.572 338.026C167.101 337.665 164.663 337.159 162.217 336.662C160.993 336.414 159.779 336.146 158.543 335.956C157.718 335.829 156.885 335.723 156.048 335.767C155.656 335.789 155.22 335.831 154.842 335.921C154.607 335.956 154.386 336.029 154.177 336.14C153.833 336.35 153.739 336.37 153.894 336.203C152.041 336.657 151.594 338.98 152.812 340.282C153.111 340.601 153.535 341.265 153.971 341.647C154.581 342.181 155.239 342.668 155.963 343.031C157.326 343.715 158.741 344.243 160.199 344.684C161.421 345.053 162.672 345.335 163.933 345.57C165.151 346.117 166.371 346.662 167.585 347.218C169.499 348.095 171.457 348.91 173.332 349.871C174.224 350.328 175.068 350.86 175.96 351.321C176.352 351.525 176.736 351.744 177.108 351.984C177.322 352.122 177.529 352.27 177.736 352.42C177.826 352.483 178.302 352.865 178.14 352.727C181.288 355.331 184.364 357.992 187.603 360.488C191.187 363.249 194.856 365.9 198.494 368.588C201.767 371.005 204.983 373.813 208.589 375.729C212.702 377.918 217.317 378.375 221.804 377.095C226.045 375.884 229.662 373.365 232.949 370.51C236.041 367.824 238.939 364.9 241.902 362.074C243.508 360.542 245.1 358.987 246.676 357.419C250.426 354.307 254.108 351.118 257.612 347.734C259.09 346.306 260.535 344.846 261.94 343.349C263.153 342.055 264.427 340.743 265.552 339.343C267.998 338.895 270.466 338.48 272.87 337.876C274.1 337.566 275.351 337.293 276.53 336.815C277.691 336.342 279.282 334.773 278.501 333.378Z" fill="#FC8212"/>
<path d="M201.696 169.371C201.696 169.371 202.746 181.668 191.016 188.816C178.252 196.594 156.632 198.668 156.632 198.668C156.632 198.668 175.126 229.778 203.519 231.854C231.912 233.927 263.692 217.075 263.692 217.075C263.692 217.075 226.181 212.668 236.079 173.26C236.079 173.26 212.115 163.926 210.552 164.186C208.99 164.445 201.696 169.371 201.696 169.371Z" fill="#FFBB9E"/>
<path d="M219.643 368.416C219.643 368.416 127.16 321.136 138.789 251.687C147.382 200.371 208.135 205.218 224.749 230.297C224.749 230.297 244.643 207.2 270.464 217.853C309.653 234.022 311.018 315.503 219.643 368.416Z" fill="#FF003D"/>
<path d="M234.422 184.972C234.482 181.46 234.997 177.57 236.079 173.26C236.079 173.26 212.115 163.926 210.553 164.185C208.989 164.445 201.696 169.371 201.696 169.371C201.696 169.371 202.747 181.668 191.016 188.815C190.266 189.273 189.482 189.709 188.677 190.128C203.968 193.191 220.189 191.3 234.422 184.972Z" fill="#FF994C"/>
<path d="M177.601 108.704C177.601 108.704 165.879 107.148 164.576 119.593C163.274 132.038 176.299 134.89 176.299 134.89C176.299 134.89 181.508 181.297 220.059 185.445C258.612 189.593 268.51 131.519 269.032 121.667C269.032 121.667 242.2 93.4074 240.638 75.5188C240.638 75.5188 210.162 107.408 177.601 108.704Z" fill="#FFBB9E"/>
<path d="M177.217 118.979C176.955 117.691 176.511 116.516 175.676 115.484C174.837 114.446 173.684 113.767 172.329 113.712C171.751 113.689 171.169 113.804 170.648 114.055C170.416 114.167 170.156 114.319 169.977 114.508C169.774 114.721 169.709 115.073 169.613 115.344C169.489 115.694 169.942 116.034 170.248 115.831C170.427 115.712 170.45 115.762 170.674 115.701C170.811 115.662 170.935 115.578 171.07 115.531C171.346 115.434 171.657 115.425 171.946 115.463C172.501 115.539 173.022 115.83 173.371 116.256C173.633 116.577 173.793 116.94 173.915 117.321C173.463 117.417 173.021 117.637 172.63 118.002C171.577 118.982 171.178 120.685 170.947 122.055C170.692 123.562 170.437 125.527 171.617 126.718C172.937 128.05 174.952 127.342 176.02 126.085C176.904 125.046 177.313 123.819 177.462 122.481C177.591 121.316 177.45 120.124 177.217 118.979Z" fill="#D26A6A"/>
<path d="M196.559 297.42C196.197 297.377 196.181 297.375 196.511 297.414C196.146 297.295 195.781 297.271 195.415 297.342C194.581 297.385 193.911 297.698 193.205 298.104C192.807 298.333 192.414 298.568 192.017 298.801C191.984 298.779 191.949 298.756 191.917 298.733C191.113 298.18 190.318 297.614 189.53 297.037C189.11 296.73 188.691 296.42 188.275 296.107C188.067 295.951 187.86 295.793 187.652 295.636C187.62 295.612 187.59 295.589 187.561 295.567C184.322 293.04 181.14 290.437 178.017 287.768C177.79 287.575 176.26 286.38 176.945 286.907C176.529 286.587 176.114 286.265 175.7 285.944C174.899 285.322 174.103 284.7 173.328 284.048C172.542 283.386 171.783 282.681 170.969 282.054C170.112 281.395 169.713 281.096 168.835 280.305C166.074 277.817 163.461 275.107 161.696 271.82C160.736 270.032 160.012 268.11 159.53 266.141C159.281 265.125 159.017 264.11 158.899 263.068C158.781 262.014 158.858 260.956 158.752 259.904C158.688 259.272 157.88 258.977 157.511 259.569C156.507 261.185 156.237 263.334 156.086 265.195C155.929 267.118 156.241 269.134 156.74 270.989C157.788 274.896 159.749 278.699 162.127 281.962C167.194 288.916 173.577 294.983 180.268 300.379C181.242 301.165 182.226 301.939 183.22 302.702C182.842 302.829 182.468 302.967 182.087 303.083C180.423 303.587 178.731 303.963 177.045 304.384C173.705 305.218 170.32 305.679 166.906 306.127C163.232 306.609 159.528 307.725 155.814 307.797C155.454 307.804 155.358 308.255 155.638 308.446C157.375 309.624 159.269 309.836 161.323 309.929C163.178 310.013 165.048 310.142 166.906 310.122C170.566 310.085 174.259 309.743 177.897 309.366C181.604 308.982 185.339 308.174 188.891 307.062C188.972 307.037 189.051 307.006 189.132 306.98C189.234 307.049 189.333 307.123 189.435 307.191C191.118 308.316 192.772 308.808 194.787 308.362C196.66 307.949 197.617 305.864 197.204 304.125C197.135 303.835 197.036 303.571 196.928 303.313C197.987 302.535 198.505 301.661 198.821 300.373C199.214 298.763 198.081 297.601 196.559 297.42Z" fill="#CF1D1C"/>
<path d="M191.6 267.049C191.547 266.743 191.478 266.439 191.423 266.134C191.387 265.931 191.352 265.725 191.321 265.521C191.27 265.168 191.26 265.112 191.292 265.354C191.102 264.04 190.976 262.883 190.895 261.321C190.826 259.976 190.738 258.643 190.781 257.295C190.825 255.862 191.133 254.264 190.522 252.925C190.226 252.274 189.145 251.993 188.57 252.414C187.26 253.375 186.775 255.195 186.391 256.704C186.008 258.209 185.696 259.771 185.577 261.321C185.467 262.757 185.462 264.231 185.626 265.662C185.843 267.562 185.986 269.664 187.34 271.142C188.659 272.583 191.165 271.814 191.651 270.01C191.919 269.018 191.772 268.045 191.6 267.049Z" fill="#CF1D1C"/>
<path d="M246.664 270.873C244.919 268.396 241.617 271.237 240.232 272.707C238.308 274.749 236.662 277.104 235.135 279.448C233.648 281.732 232.177 284.112 231.022 286.58C230.916 286.807 230.817 287.038 230.712 287.266C230.316 287.173 229.918 287.085 229.523 286.983C228.117 286.62 226.744 286.156 225.349 285.76C222.634 284.989 219.946 284.109 217.289 283.159C214.721 282.242 212.185 281.226 209.68 280.148C208.385 279.589 207.097 279.017 205.811 278.437C204.555 277.87 202.964 277.065 201.543 277.231C200.998 277.294 200.374 277.795 200.624 278.43C201.151 279.762 202.406 280.737 203.525 281.576C204.753 282.498 205.995 283.403 207.241 284.301C209.771 286.123 212.343 287.886 215.007 289.51C217.753 291.184 220.667 292.734 223.697 293.842C225.119 294.361 226.575 294.798 228.038 295.187C228.039 295.187 228.042 295.188 228.043 295.189C228.041 295.242 228.033 295.296 228.032 295.35C228 296.382 228.625 297.448 229.529 297.947C230.047 298.234 230.465 298.319 231.054 298.358C232.124 298.428 233.118 297.726 233.662 296.868C233.99 296.353 234.229 295.796 234.444 295.226C235.821 294.412 236.526 292.746 236.317 291.208C236.282 290.95 236.218 290.706 236.14 290.47C236.31 290.028 236.477 289.585 236.654 289.146C237.571 286.871 238.491 284.681 239.649 282.51C240.827 280.299 242.121 278.135 243.531 276.062C244.096 275.232 244.752 274.506 245.481 273.814C246.17 273.16 247.409 271.931 246.664 270.873Z" fill="#CF1D1C"/>
<path d="M265.518 268.192C263.839 268.637 262.341 269.345 260.822 270.193C259.305 271.04 258.024 272.379 256.773 273.568C255.518 274.76 254.211 276.074 252.905 276.941C251.396 277.946 249.904 278.972 248.344 279.898C246.28 281.125 242.716 282.505 243.536 285.537C243.914 286.936 245.3 287.805 246.727 287.747C248.034 287.693 249.193 286.883 250.263 286.203C253.563 284.109 256.591 281.82 259.122 278.825C260.45 277.254 261.696 275.583 262.794 273.845C263.845 272.179 264.645 270.396 265.908 268.857C266.148 268.562 265.931 268.082 265.518 268.192Z" fill="#CF1D1C"/>
<path d="M282.524 283.149C282.082 282.742 281.513 282.693 280.986 282.951C279.956 283.455 279.619 284.407 279.163 285.383C278.688 286.398 278.143 287.39 277.604 288.372C276.548 290.291 275.435 292.165 274.166 293.953C273.035 295.549 271.528 297.258 269.995 298.94C268.446 300.641 266.806 302.258 265.138 303.845C264.213 304.726 263.338 305.668 262.677 306.769C262.466 307.12 262.411 307.263 262.206 307.741C262.342 307.424 262.38 306.926 262.064 308.063C261.881 308.725 261.979 309.471 262.327 310.063C263.296 311.712 265.464 311.856 267.031 311.103C268.261 310.513 269.265 309.585 270.236 308.648C273.696 305.305 276.989 301.807 279.556 297.722C280.91 295.567 282.091 293.194 282.774 290.735C283.123 289.475 283.306 288.186 283.402 286.882C283.498 285.56 283.581 284.12 282.524 283.149Z" fill="#CF1D1C"/>
<path d="M259.29 333.471C258.997 333.164 258.69 332.973 258.34 332.821C257.086 331.959 255.367 331.97 253.895 331.72C252.239 331.438 250.581 331.142 248.934 330.815C247.171 330.465 245.423 330.053 243.68 329.616C243.656 328.98 243.45 328.348 243.006 327.792C242.197 326.782 240.76 326.246 239.494 326.61C238.947 326.528 238.397 326.454 237.846 326.396C236.987 326.305 236.126 326.261 235.263 326.261C234.981 326.26 234.703 326.276 234.423 326.287C234.904 325.176 234.958 323.894 234.26 322.815C233.291 321.32 231.582 320.603 229.829 321.02C228.049 321.443 226.508 322.567 224.925 323.45C224.657 323.6 224.384 323.743 224.115 323.892C223.275 323.738 222.414 323.689 221.583 323.878C221.236 323.998 220.904 324.152 220.579 324.319C220.579 324.317 220.562 324.323 220.525 324.338C220.008 324.359 219.512 324.607 219.22 325.121C219.486 324.867 219.386 325.008 218.922 325.544C218.706 325.915 218.601 326.315 218.582 326.739C217.763 327.13 216.941 327.516 216.112 327.887C215.462 328.18 214.807 328.464 214.151 328.744C214.022 328.796 213.652 328.952 213.536 328.999C213.117 329.17 212.697 329.337 212.276 329.503C205.957 331.991 199.502 333.761 192.829 334.989C191.055 335.317 189.276 335.77 187.516 335.965C185.565 336.183 183.032 335.887 181.48 337.238C180.905 337.739 180.716 338.893 181.184 339.528C182.327 341.081 184.339 341.323 186.142 341.618C188.08 341.936 190.05 342.198 192.014 342.285C195.73 342.446 199.444 341.801 203.067 340.989C209.968 339.44 216.72 336.702 223.093 333.685C223.18 333.643 223.268 333.598 223.356 333.556C223.366 333.555 223.377 333.553 223.386 333.551C224.494 333.381 225.61 333.192 226.73 333.025C230.053 333.882 233.451 334.42 236.812 335.094C240.271 335.786 243.725 336.506 247.219 337.003C249.113 337.271 250.989 337.505 252.903 337.525C254.623 337.544 256.798 337.696 258.295 336.706C258.668 336.551 258.989 336.355 259.29 336.025C259.959 335.286 259.993 334.209 259.29 333.471Z" fill="#CF1D1C"/>
<path d="M307.258 300.318C307.258 300.318 281.04 309.476 250.545 299.699C220.051 289.924 206.408 280.383 203.541 277.107C200.674 273.832 198.299 254.922 192.318 251.881C186.338 248.841 188.707 260.311 188.997 265.104C188.997 265.104 182.384 263.097 179.417 253.977C176.449 244.856 172.123 245.962 171.093 247.951C171.093 247.951 169.132 244.441 166.136 245.093C163.139 245.745 163.305 249.627 163.305 249.627C163.305 249.627 159.275 250.687 159.007 255.38C159.007 255.38 156.193 257.15 156.763 261.992C157.332 266.834 159.679 273.346 168.892 281.9C178.105 290.455 185.515 296.218 188.158 298.072C190.801 299.925 224.542 331.152 259.338 335.505C294.136 339.857 310.578 317.928 307.258 300.318Z" fill="#FFBB9E"/>
<path d="M121.792 297.381C121.792 297.381 146.799 310.992 179.62 306.715C212.441 302.437 228.069 295.437 231.586 292.715C235.103 289.993 241.159 270.547 247.801 268.603C254.444 266.659 249.95 278.52 248.778 283.187C248.778 283.187 257.277 279.979 261.965 271.52C266.654 263.062 270.854 264.909 271.538 267.047C271.538 267.047 274.176 263.937 277.106 265.104C280.036 266.27 279.157 270.061 279.157 270.061C279.157 270.061 283.064 271.812 282.479 276.479C282.479 276.479 285.018 278.714 283.552 283.381C282.088 288.048 276.91 296.7 265.971 303.507C255.03 310.312 246.434 314.687 243.405 316.048C240.378 317.409 200.328 342.234 164.121 340.419C127.914 338.603 122.443 315.789 121.792 297.381Z" fill="#FFBB9E"/>
<path d="M231.412 292.478C230.666 292.462 230.147 292.811 229.489 293.134C228.731 293.507 227.97 293.871 227.204 294.226C225.752 294.898 224.287 295.541 222.805 296.148C219.859 297.354 216.861 298.439 213.822 299.393C210.847 300.327 207.832 301.138 204.788 301.821C203.267 302.162 201.731 302.433 200.209 302.772C199.389 302.955 198.569 303.145 197.745 303.316C197.119 303.447 196.638 303.523 196.31 304.083C196.238 304.207 196.256 304.383 196.362 304.484C196.837 304.933 197.305 304.878 197.949 304.815C198.784 304.733 199.618 304.644 200.45 304.541C201.949 304.357 203.435 304.037 204.911 303.725C208.154 303.036 211.366 302.204 214.534 301.231C217.64 300.277 220.703 299.189 223.711 297.967C225.178 297.37 226.633 296.746 228.074 296.091C229.372 295.5 231.318 294.957 232.159 293.773C232.554 293.218 232.02 292.49 231.412 292.478Z" fill="#FF994C"/>
<path d="M263.375 303.932C260.419 305.632 257.602 307.609 254.683 309.378C251.758 311.15 248.797 312.861 245.798 314.508C239.809 317.798 233.663 320.804 227.492 323.742C226.788 324.076 227.293 325.31 228.031 325.013C234.388 322.452 240.542 319.462 246.578 316.226C249.592 314.609 252.573 312.928 255.515 311.185C258.488 309.426 261.591 307.675 264.359 305.608C265.336 304.878 264.493 303.289 263.375 303.932Z" fill="#FF994C"/>
<path d="M271.406 267.584C271.198 267.122 270.498 267.459 270.608 267.919C270.671 268.169 270.425 268.523 270.322 268.737C270.149 269.093 269.974 269.447 269.796 269.8C269.478 270.432 269.141 271.055 268.787 271.667C268.062 272.919 267.275 274.138 266.418 275.304C264.704 277.634 262.776 279.785 260.594 281.692C260.001 282.21 259.393 282.711 258.765 283.186C258.282 283.553 257.768 283.893 257.274 284.253C257.239 284.201 257.175 284.164 257.112 284.186C256.946 284.244 256.797 284.305 256.626 284.343C256.392 284.396 256.304 284.638 256.338 284.849C256.381 285.118 256.453 285.335 256.568 285.581C256.744 285.957 257.24 285.999 257.568 285.842C258.27 285.507 258.915 284.961 259.533 284.494C260.153 284.028 260.76 283.546 261.35 283.044C262.541 282.033 263.663 280.945 264.71 279.786C266.81 277.461 268.606 274.881 269.994 272.075C270.367 271.319 270.72 270.551 271.037 269.77C271.316 269.084 271.736 268.316 271.406 267.584Z" fill="#FF994C"/>
<path d="M278.618 270.4C278.123 270.893 277.802 271.629 277.466 272.238C277.087 272.927 276.71 273.616 276.312 274.294C275.544 275.6 274.723 276.879 273.853 278.12C272.104 280.62 270.114 282.972 267.942 285.117C267.318 285.733 266.679 286.332 266.024 286.913C265.717 287.183 265.408 287.449 265.095 287.713C264.942 287.841 264.813 287.974 264.685 288.108C264.671 288.111 264.657 288.105 264.645 288.112C264.34 288.259 264.052 288.655 263.973 288.98C263.845 289.495 264.392 289.91 264.858 289.658C265.209 289.468 265.528 289.324 265.844 289.073C266.164 288.82 266.474 288.551 266.782 288.284C267.378 287.767 267.96 287.236 268.529 286.691C269.666 285.601 270.751 284.454 271.777 283.26C273.829 280.87 275.634 278.247 277.129 275.477C277.559 274.681 277.964 273.871 278.338 273.048C278.671 272.313 279.119 271.436 279.152 270.62C279.163 270.347 278.805 270.214 278.618 270.4Z" fill="#FF994C"/>
<path d="M282.108 276.801C281.65 277.563 281.366 278.44 281.015 279.254C280.657 280.085 280.259 280.899 279.853 281.707C279.063 283.279 278.162 284.799 277.15 286.237C276.139 287.673 275.007 289.025 273.778 290.281C273.142 290.931 272.48 291.556 271.796 292.156C271.456 292.454 271.096 292.737 270.775 293.057C270.629 293.203 270.521 293.445 270.369 293.57C270.275 293.647 270.092 293.63 270.228 293.646C270.153 293.637 270.078 293.694 270.041 293.752C269.732 294.239 270.386 294.461 270.762 294.441C271.499 294.403 272.161 293.733 272.687 293.283C273.876 292.265 274.982 291.159 276.009 289.98C278.101 287.578 279.88 284.898 281.208 282.005C281.573 281.208 281.887 280.384 282.17 279.555C282.451 278.731 282.742 277.857 282.778 276.982C282.793 276.618 282.286 276.506 282.108 276.801Z" fill="#FF994C"/>
<path d="M180.753 269.079C180.596 268.749 180.49 268.468 180.244 268.189C179.999 267.909 179.729 267.652 179.477 267.377C178.951 266.801 178.458 266.193 177.984 265.574C177.056 264.362 176.257 263.055 175.547 261.706C174.055 258.871 172.801 255.799 171.995 252.699C171.751 251.755 171.565 250.795 171.498 249.822C171.464 249.335 171.467 248.845 171.463 248.356C171.46 247.991 171.511 247.54 171.222 247.273C171.17 247.225 171.102 247.221 171.041 247.25C170.426 247.549 170.493 248.77 170.497 249.334C170.505 250.229 170.613 251.126 170.776 252.006C171.106 253.791 171.698 255.514 172.332 257.212C173.459 260.23 174.809 263.2 176.718 265.817C177.254 266.553 177.83 267.247 178.47 267.895C178.772 268.199 179.079 268.505 179.411 268.777C179.788 269.086 180.102 269.192 180.569 269.317C180.715 269.356 180.812 269.203 180.753 269.079Z" fill="#FF994C"/>
<path d="M173.702 269.42C173.407 268.678 172.699 267.996 172.224 267.357C170.143 264.562 168.351 261.552 166.886 258.391C166.048 256.584 165.286 254.72 164.723 252.808C164.422 251.784 164.171 250.741 164.083 249.675C164.006 248.716 164.187 247.719 164.034 246.774C164.015 246.659 163.864 246.67 163.809 246.746C163.329 247.401 163.283 248.312 163.262 249.097C163.237 249.972 163.353 250.856 163.516 251.715C163.855 253.5 164.49 255.228 165.16 256.913C166.438 260.134 168.035 263.227 169.936 266.128C170.409 266.85 170.899 267.561 171.41 268.257C171.641 268.571 171.88 268.879 172.121 269.186C172.374 269.508 172.662 269.944 173.047 270.124C173.626 270.395 173.916 269.959 173.702 269.42Z" fill="#FF994C"/>
<path d="M170.675 276.322C169.824 275.127 168.488 274.328 167.473 273.277C166.394 272.16 165.484 270.903 164.685 269.575C162.887 266.586 161.794 263.25 160.764 259.94C160.459 258.957 160.139 257.976 159.882 256.98C159.757 256.494 159.638 256.007 159.542 255.515C159.443 255.001 159.417 254.477 159.306 253.968C159.261 253.764 158.98 253.794 158.921 253.968C158.639 254.793 158.759 255.78 158.9 256.623C159.053 257.544 159.338 258.449 159.589 259.347C160.091 261.14 160.604 262.928 161.229 264.683C162.386 267.934 163.912 271.073 166.247 273.656C167.349 274.877 168.796 276.408 170.537 276.562C170.653 276.572 170.742 276.417 170.675 276.322Z" fill="#FF994C"/>
<path d="M288.006 239.157C287.54 238.325 287.04 237.512 286.505 236.722C284.13 233.202 281.267 230.111 277.883 227.54C275.941 226.064 273.884 224.689 271.444 224.223C270.078 223.961 268.44 223.828 267.077 224.242C266.028 224.56 264.497 225.387 264.54 226.645C264.575 227.705 265.41 228.555 265.936 229.067C266.12 229.246 266.986 229.899 266.524 229.537C266.833 229.779 267.135 230.018 267.447 230.259C267.155 230.034 266.638 229.677 267.986 230.675C268.261 230.878 268.541 231.076 268.819 231.276C269.005 231.41 269.188 231.547 269.376 231.682C269.023 231.428 268.335 230.978 269.925 232.103C270.289 232.359 270.669 232.593 271.04 232.842C271.407 233.088 271.761 233.35 272.119 233.605C272.136 233.617 272.147 233.625 272.162 233.635C272.365 233.803 272.573 233.963 272.774 234.13C274.247 235.352 275.647 236.644 276.923 238.07C277.206 238.386 277.482 238.708 277.754 239.033C277.889 239.197 278.021 239.362 278.155 239.528C278.683 240.177 278.14 239.454 278.079 239.427C278.333 239.538 278.668 240.229 278.826 240.455C279.13 240.89 279.424 241.33 279.706 241.779C280.251 242.642 280.689 243.599 281.314 244.404C282.766 246.275 285.927 246.872 287.646 244.966C289.204 243.238 289.095 241.103 288.006 239.157Z" fill="#FF7777"/>
<path d="M291.318 256.269C291.238 255.792 291.011 255.355 290.802 254.919C290.511 254.311 290.152 253.732 289.646 253.291C289.304 252.887 288.694 252.501 288.176 252.374C287.242 252.146 286.495 252.376 285.909 253.152C285.865 253.213 285.811 253.281 285.773 253.347C285.758 253.376 285.704 253.501 285.652 253.627C285.609 253.721 285.409 254.191 285.393 254.254C285.358 254.392 285.338 254.538 285.324 254.684C285.257 254.95 285.221 255.224 285.195 255.548C285.186 255.651 285.174 255.751 285.163 255.852C285.089 256.293 285.015 256.734 285.011 257.185C285.007 257.534 284.978 257.881 284.936 258.228C284.887 258.563 284.837 258.898 284.794 259.233C284.834 258.94 284.873 258.648 284.911 258.356C284.839 258.863 284.716 259.369 284.708 259.881C284.699 260.521 284.88 261.352 285.235 261.897C285.639 262.516 286.279 263.099 287.028 263.268C287.293 263.304 287.559 263.339 287.824 263.375C288.366 263.373 288.87 263.238 289.338 262.967C289.886 262.735 290.508 262.018 290.787 261.519C291.033 261.079 291.201 260.6 291.305 260.109C291.469 259.34 291.54 258.565 291.495 257.782C291.467 257.279 291.401 256.761 291.318 256.269Z" fill="#FF7777"/>
<path d="M153.179 305.33C150.757 304.205 147.986 303.967 145.398 303.388C142.728 302.792 140.058 302.035 137.479 301.126C136.91 300.925 136.538 301.814 137.068 302.094C139.578 303.417 142.149 304.476 144.882 305.25C147.479 305.985 150.414 306.701 153.091 305.996C153.376 305.92 153.472 305.466 153.179 305.33Z" fill="#FF994C"/>
<path d="M294.883 302.167C294.304 301.853 293.788 301.556 293.135 301.436C292.387 301.297 291.655 301.342 290.9 301.379C289.368 301.452 287.836 301.682 286.311 301.851C284.83 302.016 283.357 302.221 281.881 302.43C280.769 302.586 279.099 302.815 278.385 303.785C278.334 303.854 278.358 303.97 278.416 304.025C279.254 304.836 280.952 304.787 282.039 304.756C283.571 304.714 285.099 304.648 286.628 304.552C288.103 304.459 289.592 304.415 291.058 304.226C291.812 304.128 292.563 304.069 293.283 303.809C293.942 303.57 294.415 303.168 294.957 302.74C295.142 302.594 295.072 302.27 294.883 302.167Z" fill="#FF994C"/>
<path d="M170.588 212.894C170.363 212.021 169.52 211.736 168.833 211.281C168.177 210.846 167.572 210.345 166.984 209.826C165.759 208.746 164.585 207.609 163.452 206.437C161.145 204.051 158.933 201.513 156.915 198.881C156.312 198.093 154.977 198.787 155.536 199.683C157.396 202.665 159.484 205.425 161.88 208C163.045 209.253 164.253 210.473 165.522 211.619C166.133 212.171 166.771 212.699 167.441 213.179C168.131 213.674 169.042 214.404 169.938 214.035C170.41 213.839 170.727 213.431 170.588 212.894Z" fill="#FC8212"/>
<path d="M284.337 126.879C283.34 126.353 282.451 125.775 281.388 125.38C280.387 125.009 279.355 124.725 278.373 124.297C276.363 123.424 274.472 122.242 272.726 120.925C269.119 118.203 266.037 114.812 263.063 111.439C256.769 104.3 250.795 96.7635 246.523 88.2225C245.322 85.8201 244.312 83.3448 243.464 80.7983C243.056 79.5721 242.695 78.3306 242.388 77.0755C242.255 76.5328 242.146 75.985 242.027 75.4406C242.463 74.5332 242.663 73.24 241.706 72.6804C240.084 71.7323 238.41 73.4665 237.375 74.49C235.069 76.7728 232.706 79.0047 230.301 81.185C220.732 89.8608 209.612 97.2155 197.605 102.079C185.171 107.114 171.534 109.468 158.154 107.783C156.486 107.574 154.835 107.237 153.154 107.174C152.518 107.151 152.214 108.125 152.818 108.409C155.713 109.771 159.12 110.182 162.27 110.589C165.65 111.027 169.043 111.142 172.448 111.012C179.16 110.755 185.851 109.638 192.274 107.687C204.975 103.832 216.496 97.0095 226.915 88.917C229.532 86.8861 232.081 84.7644 234.595 82.6104C235.808 81.5725 236.994 80.5057 238.168 79.4254C238.642 78.9869 239.181 78.5409 239.714 78.0762C239.887 78.9734 240.077 79.8672 240.301 80.7542C240.906 83.1404 241.729 85.464 242.681 87.7341C244.65 92.4277 247.17 96.8212 250.063 101.009C252.953 105.189 256.138 109.167 259.422 113.046C262.504 116.686 265.66 120.315 269.358 123.355C271.445 125.071 273.678 126.641 276.133 127.792C277.352 128.363 278.657 128.965 279.985 129.227C281.441 129.512 282.658 129.322 284.066 128.937C284.976 128.689 285.21 127.34 284.337 126.879Z" fill="white"/>
<path d="M153.349 156.38C155.166 150.293 155.889 143.879 155.867 137.54C155.855 134.404 155.706 131.271 155.489 128.142C155.381 126.57 155.246 125.006 155.048 123.442C154.843 121.83 154.735 120.15 154.168 118.621C153.999 118.164 153.269 118.071 153.141 118.621C152.524 121.265 152.796 124.262 152.839 126.966C152.885 129.84 152.879 132.715 152.77 135.587C152.557 141.25 152.035 146.923 150.717 152.446C149.436 157.811 146.837 162.726 145.511 168.062C144.824 170.831 144.635 173.605 145.093 176.423C145.522 179.064 146.657 181.852 146.025 184.548C145.443 187.028 143.744 189.108 143.267 191.626C142.88 193.665 143.007 196.726 145.252 197.698C145.839 197.95 146.698 197.926 147.027 197.303C147.426 196.547 146.794 195.466 146.651 194.731C146.207 192.45 147.267 190.555 148.207 188.557C149.472 185.87 149.915 183.372 149.467 180.424C149.047 177.652 148.183 175.039 148.385 172.201C148.78 166.681 151.787 161.612 153.349 156.38Z" fill="white"/>
<path d="M170.55 141.855C168.039 139.881 166.016 146.366 165.544 147.89C164.464 151.376 163.947 155.026 163.713 158.659C163.223 166.261 164.165 173.855 164.013 181.46C163.969 183.588 163.839 185.718 163.585 187.833C163.346 189.811 162.431 192.176 163.535 193.998C163.704 194.278 164.067 194.37 164.354 194.212C165.9 193.363 166.213 191.648 166.484 190.029C166.782 188.251 166.985 186.457 167.093 184.658C167.306 181.049 167.196 177.429 167.029 173.82C166.715 167.013 166.121 160.076 167.184 153.303C167.479 151.421 167.898 149.557 168.477 147.742C168.756 146.868 169.037 145.992 169.359 145.132C169.534 144.665 169.806 143.039 170.285 142.852C170.653 142.708 170.942 142.164 170.55 141.855Z" fill="white"/>
<path d="M182.975 172.208C182.654 171.638 181.662 171.566 181.361 172.208C180.742 173.533 180.802 175.14 180.685 176.575C180.567 178.035 180.439 179.497 180.298 180.954C180.16 182.375 179.951 183.781 179.72 185.191C179.591 185.975 179.487 186.74 179.506 187.537C179.523 188.312 179.696 188.864 179.981 189.579C180.131 189.958 180.55 190.095 180.871 189.814C181.43 189.323 181.832 188.935 182.149 188.25C182.482 187.531 182.719 186.832 182.865 186.053C183.162 184.476 183.363 182.873 183.527 181.277C183.683 179.758 183.755 178.265 183.711 176.738C183.67 175.286 183.705 173.505 182.975 172.208Z" fill="white"/>
<path d="M277.836 136.838C277.396 135.916 276.059 136.593 276.255 137.501C277.384 142.775 277.716 147.974 275.987 153.169C275.158 155.66 273.885 157.909 272.361 160.039C270.858 162.14 269.198 164.173 268.149 166.552C267.107 168.911 266.856 171.289 267.228 173.83C267.614 176.454 268.586 179.039 268.465 181.718C268.346 184.348 266.532 186.299 265.213 188.437C263.866 190.62 263.193 193.036 262.864 195.558C262.514 198.23 262.508 200.927 262.219 203.603C261.938 206.212 260.805 208.594 260.581 211.184C260.533 211.733 261.169 211.942 261.583 211.756C263.984 210.668 264.661 207.977 265.064 205.583C265.479 203.115 265.556 200.614 265.749 198.124C265.931 195.785 266.221 193.337 267.214 191.182C268.339 188.74 270.297 186.763 271.025 184.125C272.514 178.715 268.255 173.471 270.239 168.14C271.139 165.721 272.837 163.654 274.319 161.571C275.86 159.406 277.147 157.138 278.057 154.636C280.08 149.062 280.428 142.282 277.836 136.838Z" fill="white"/>
<path d="M254.65 178.037C255.069 177.092 255.997 175.639 255.731 174.591C255.682 174.396 255.461 174.206 255.249 174.226C254.135 174.334 253.287 175.64 252.758 176.53C252.053 177.715 251.549 179.071 251.159 180.387C250.337 183.175 250.179 186.057 250.529 188.93C250.723 190.52 250.997 192.111 250.94 193.719C250.884 195.351 250.443 196.938 249.953 198.488C249.485 199.966 248.975 201.432 248.481 202.902C247.922 204.572 247.744 205.968 247.891 207.715C247.932 208.194 248.566 208.589 248.942 208.149C249.985 206.93 250.689 205.811 251.203 204.276C251.695 202.811 252.13 201.32 252.576 199.84C253.517 196.723 253.91 193.798 253.453 190.563C253.045 187.689 252.691 184.948 253.303 182.071C253.6 180.67 254.07 179.343 254.65 178.037Z" fill="white"/>
<path d="M232.256 60.4037C230.197 62.2795 227.979 63.9636 226.026 65.9607C224.078 67.9501 222.055 69.8623 219.942 71.6753C215.733 75.2844 211.186 78.4754 206.415 81.3035C196.816 86.9961 186.164 91.0301 175.208 93.2111C172.147 93.82 169.058 94.2737 165.949 94.5603C162.822 94.8486 159.694 94.8893 156.604 95.4694C156.08 95.5669 156.111 96.3725 156.604 96.4912C159.411 97.1696 162.242 97.1416 165.115 97.0008C167.959 96.8626 170.794 96.5819 173.615 96.191C179.305 95.4032 184.954 94.1278 190.387 92.2614C201.342 88.4988 211.553 82.8511 220.5 75.5168C222.954 73.5045 225.306 71.3692 227.539 69.1152C229.89 66.7451 231.621 64.0535 233.275 61.1873C233.649 60.5385 232.796 59.9127 232.256 60.4037Z" fill="white"/>
<path d="M218.039 51.2695C214.767 53.8423 211.638 56.5992 208.452 59.2789C205.321 61.9127 201.957 64.2549 198.492 66.4309C194.925 68.6705 191.255 70.7523 187.556 72.7671C183.675 74.8812 179.788 77.0699 175.748 78.8719C173.371 79.9336 170.887 80.8036 168.328 81.315C167.111 81.5584 165.89 81.828 164.651 81.9434C163.432 82.057 162.103 81.7992 160.944 82.2096C160.773 82.2707 160.66 82.5157 160.827 82.6531C161.603 83.2934 162.509 83.385 163.49 83.5223C164.693 83.6902 165.913 83.7937 167.129 83.7733C169.399 83.736 171.719 83.1594 173.883 82.5107C178.486 81.1284 182.788 78.9898 187.038 76.7917C194.849 72.751 202.518 68.4339 209.405 62.9397C213.241 59.8784 216.698 56.3397 218.77 51.8317C218.997 51.3407 218.458 50.9396 218.039 51.2695Z" fill="white"/>
<path d="M275.603 103.956C275.574 103.947 275.533 103.949 275.49 103.952C275.384 103.633 274.964 103.4 274.733 103.194C274.131 102.661 273.564 102.103 272.943 101.589C271.711 100.57 270.493 99.543 269.334 98.4397C267.042 96.2603 264.9 93.88 262.995 91.3581C259.15 86.2633 256.036 80.5461 253.934 74.5253C253.353 72.8632 252.874 71.1774 252.433 69.4746C251.972 67.6929 251.399 65.896 251.051 64.0923C250.913 63.3817 249.813 63.5657 249.809 64.2594C249.795 65.9723 249.733 67.609 249.919 69.3194C250.098 70.9586 250.409 72.5893 250.766 74.1988C251.504 77.5229 252.575 80.7377 253.909 83.8702C256.57 90.1123 260.454 95.827 265.236 100.655C266.591 102.022 268.013 103.332 269.512 104.54C271.003 105.744 272.796 107.255 274.756 106.592C275.392 106.468 275.884 106.219 276.278 105.606C276.676 104.987 276.281 104.148 275.603 103.956Z" fill="white"/>
<path d="M279.646 93.0122L279.451 92.7604C279.632 92.9987 279.583 92.9359 279.303 92.5721C279.341 92.6145 278.894 92.1362 279.037 92.2999C278.548 91.7368 278.069 91.1882 277.533 90.665C273.975 87.2043 270.803 83.4527 268.12 79.2772C266.6 76.9129 265.352 74.4326 264.137 71.9038C262.902 69.3344 261.61 66.631 260.777 63.908C260.73 63.7545 260.466 63.774 260.483 63.9479C260.714 66.4054 260.885 68.7747 261.469 71.1864C262.065 73.6456 262.957 75.9963 263.978 78.3105C266.032 82.9668 268.791 87.3264 272.208 91.1144C272.974 91.9632 273.757 92.8104 274.593 93.5914C275.639 94.5675 276.854 95.6741 278.411 95.2832C279.468 95.0177 280.055 94.0188 279.646 93.0122Z" fill="white"/>
<path d="M212.552 110.896C212.516 110.386 212.277 109.904 211.892 109.51C211.144 108.748 210.051 108.247 209.042 107.934C208.128 107.65 207.118 107.564 206.164 107.629C205.122 107.7 204.007 107.923 203.164 108.564C202.779 108.856 202.381 109.182 202.083 109.564C201.827 109.892 201.548 110.352 201.597 110.785C201.599 110.792 201.6 110.801 201.602 110.808C201.599 110.853 201.596 110.899 201.594 110.976C201.593 111.047 201.596 111.116 201.599 111.187C201.615 111.494 201.896 111.886 202.233 111.909C202.287 111.912 202.341 111.918 202.394 111.923C202.453 111.928 202.491 111.93 202.532 111.932C202.566 111.943 202.6 111.955 202.634 111.968C202.81 112.009 202.983 112.006 203.153 111.956C203.194 111.947 203.215 111.943 203.242 111.938C203.251 111.936 203.251 111.936 203.261 111.935C203.263 111.934 203.265 111.933 203.267 111.933C203.389 111.907 203.357 111.913 203.294 111.926C203.552 111.874 203.801 111.809 204.056 111.745C204.08 111.739 204.137 111.731 204.189 111.721C204.21 111.718 204.23 111.714 204.252 111.711C204.409 111.69 204.569 111.683 204.726 111.663C204.94 111.637 205.149 111.582 205.358 111.532C205.411 111.522 205.499 111.504 205.535 111.499C205.626 111.486 205.718 111.475 205.809 111.466C205.994 111.447 206.179 111.437 206.365 111.434C206.436 111.433 206.509 111.435 206.581 111.436C206.723 111.455 206.872 111.462 207.011 111.485C207.194 111.515 207.375 111.552 207.555 111.598C207.71 111.637 208.311 111.845 207.705 111.627C207.772 111.65 207.839 111.673 207.907 111.696C207.897 111.694 207.909 111.699 207.965 111.721C208.045 111.762 208.139 111.789 208.22 111.825C208.389 111.899 208.554 111.979 208.714 112.068C208.768 112.098 208.821 112.13 208.875 112.161C209.009 112.269 209.148 112.375 209.285 112.476C209.552 112.674 209.831 112.786 210.114 112.857C210.233 112.9 210.354 112.937 210.472 112.955C211.506 113.121 212.805 112.295 212.602 111.103C212.589 111.025 212.567 110.966 212.552 110.896Z" fill="#9A5555"/>
<path d="M254.96 119.406C253.735 118.026 252.156 117.063 250.315 116.738C249.494 116.594 248.62 116.554 247.794 116.68C247.199 116.772 246.709 117.004 246.183 117.283C245.693 117.543 245.431 117.921 245.136 118.368C244.739 118.971 245.251 119.968 245.955 120.043C246.647 120.118 247.327 120.124 248.023 120.094C248.316 120.081 248.604 120.064 248.897 120.067C248.947 120.073 248.997 120.079 249.046 120.086C249.217 120.108 249.386 120.137 249.554 120.174C249.707 120.207 249.857 120.245 250.006 120.288C250.028 120.296 250.072 120.309 250.109 120.322C250.396 120.434 250.675 120.566 250.942 120.72C251 120.752 251.055 120.786 251.111 120.82C251.222 120.904 251.333 120.984 251.44 121.074C251.557 121.173 251.671 121.276 251.781 121.384C251.819 121.422 251.861 121.478 251.905 121.514C252.218 121.88 252.554 122.161 253.046 122.261C253.498 122.353 254.087 122.258 254.464 121.979C255.189 121.442 255.649 120.183 254.96 119.406Z" fill="#9A5555"/>
<path d="M228.538 142.42C228.543 142.421 228.547 142.422 228.551 142.423C228.36 142.292 228.152 142.224 227.922 142.2C227.806 142.189 227.5 142.23 227.424 142.239C227.221 142.274 227.019 142.306 226.817 142.354C226.491 142.43 226.185 142.575 225.86 142.661C225.79 142.68 225.721 142.696 225.651 142.712C225.655 142.709 225.506 142.738 225.463 142.743C225.382 142.752 225.302 142.758 225.221 142.767C224.883 142.801 224.547 142.821 224.208 142.801C224.131 142.798 223.92 142.72 224.11 142.797C224.294 142.871 224.08 142.79 224.01 142.78C223.851 142.756 223.692 142.723 223.535 142.684C223.229 142.611 222.924 142.521 222.622 142.429C222.608 142.425 222.604 142.424 222.593 142.421C222.582 142.415 222.575 142.411 222.556 142.404C222.499 142.377 222.44 142.353 222.383 142.326C222.227 142.252 222.073 142.17 221.926 142.079C221.656 141.911 221.37 141.774 221.106 141.594C220.556 141.217 219.894 141.891 220.062 142.45C220.576 144.166 222.228 145.258 223.92 145.633C224.877 145.846 225.787 145.823 226.743 145.635C227.213 145.543 227.711 145.4 228.1 145.117C228.33 144.948 228.552 144.775 228.732 144.555C229.028 144.19 229.148 143.865 229.131 143.461C229.195 142.982 228.934 142.605 228.538 142.42Z" fill="#D26A6A"/>
<path d="M227.424 142.239C227.474 142.231 227.522 142.221 227.571 142.211C227.406 142.24 227.383 142.244 227.424 142.239Z" fill="#FF994C"/>
<path d="M199.468 137.457C199.54 135.756 198.464 134.171 196.972 133.405C195.598 132.7 194.005 132.408 192.482 132.246C190.818 132.068 188.952 132.592 187.814 133.867C186.533 135.301 186.197 137.42 187.273 139.086C188.127 140.409 189.474 141.237 190.946 141.734C192.524 142.266 194.259 142.423 195.886 142.041C197.678 141.619 199.468 140.243 199.453 138.249C199.452 138.143 199.427 138.043 199.416 137.941C199.438 137.782 199.461 137.622 199.468 137.457Z" fill="#FF9A9A"/>
<path d="M260.422 147.05C260.494 145.349 259.416 143.763 257.925 142.998C256.551 142.292 254.959 142.001 253.435 141.839C251.771 141.661 249.905 142.185 248.767 143.46C247.487 144.894 247.151 147.013 248.226 148.679C249.081 150.002 250.428 150.829 251.9 151.326C253.478 151.859 255.213 152.016 256.84 151.633C258.632 151.212 260.421 149.835 260.406 147.841C260.406 147.736 260.381 147.636 260.37 147.534C260.393 147.374 260.415 147.215 260.422 147.05Z" fill="#FF9A9A"/>
<path d="M230.304 153.208C229.639 153.567 229.227 154.283 228.674 154.786C228.187 155.232 227.647 155.601 227.065 155.912C225.887 156.538 224.583 156.779 223.257 156.711C221.987 156.647 220.767 156.172 219.713 155.48C219.145 155.105 218.693 154.641 218.216 154.163C217.712 153.655 217.172 153.214 216.711 152.659C216.27 152.126 215.581 152.725 215.668 153.263C215.797 154.059 216.02 154.958 216.495 155.623C217.001 156.327 217.618 156.945 218.3 157.481C219.688 158.569 221.311 159.296 223.066 159.533C224.898 159.78 226.736 159.4 228.405 158.639C229.212 158.272 229.956 157.783 230.633 157.212C231.327 156.625 232.286 155.764 232.43 154.836C232.62 153.62 231.494 152.566 230.304 153.208Z" fill="#D26A6A"/>
<path d="M210.651 122.187C208.994 124.935 205.939 126.296 202.815 125.259C201.38 124.783 200.009 123.851 199.167 122.587C198.632 121.782 198.275 120.878 197.694 120.102C197.246 119.503 196.149 118.74 195.557 119.637C194.974 120.519 195.795 121.768 196.158 122.596C196.59 123.588 197.07 124.49 197.756 125.333C199.061 126.936 200.872 128.092 202.89 128.577C207.02 129.57 211.627 127.651 213.812 124.026C215.028 122.01 211.863 120.176 210.651 122.187Z" fill="#9A5555"/>
<path d="M256.701 130.222C256.547 129.488 255.903 128.985 255.157 129.008C254.618 128.946 254.059 129.179 253.675 129.53C253.424 129.759 253.213 130.027 252.97 130.266C252.759 130.472 252.419 130.759 252.321 130.83C251.809 131.197 251.117 131.579 250.672 131.737C249.453 132.169 248.29 132.286 247.096 131.974C244.664 131.339 243.141 129.151 242.363 126.735C242.05 125.762 240.486 125.625 240.241 126.735C239.395 130.557 242.597 134.144 246.095 135.212C247.869 135.753 249.85 135.681 251.609 135.125C253.465 134.539 255.472 133.402 256.56 131.746C256.841 131.32 256.876 130.716 256.701 130.222Z" fill="#9A5555"/>
</svg>
